<svg preserveAspectRatio="none" width="100%" height="100%" overflow="visible" style="display: block;" viewBox="0 0 158.042 112.004" fill="none" xmlns="http://www.w3.org/2000/svg">
<path id="Vector" fill-rule="evenodd" clip-rule="evenodd" d="M4.37477 7.50218C4.46063 7.45167 4.5465 7.40621 4.64246 7.36581C4.8748 7.25974 5.10209 7.19408 5.34453 7.16377L5.12735 6.55262C4.69297 5.32021 5.25867 3.95648 6.44562 3.40594C7.11233 3.09783 7.83966 3.10794 8.48111 3.37058L8.79427 3.16855L9.65796 2.98672L10.4459 3.08268L11.0874 3.37058L11.5975 3.78475L11.9713 4.28478C12.2743 4.78987 13.4461 7.15367 14.6078 9.51747C15.325 10.9519 16.1736 12.6338 16.6433 13.5885C16.8605 13.8107 17.0322 14.0784 17.1534 14.3764C17.2999 14.7603 17.3706 15.0027 17.406 15.1138L17.4817 15.8159L17.3504 16.3664C17.8808 17.5231 18.4768 18.8211 19.1536 20.2859L14.5724 5.39597C14.1987 4.16356 14.8048 2.83519 16.0018 2.3301C16.7898 1.99675 17.6535 2.09271 18.3303 2.51699C18.3303 1.63309 18.8 0.784543 19.6132 0.329966C20.7143 -0.296339 22.0982 -0.00844131 22.8559 1.00173L25.1085 3.97163C25.1691 3.81 25.255 3.65343 25.351 3.50695C25.9924 2.56749 27.1844 2.16848 28.2603 2.54224C31.0938 3.51705 33.5889 4.3757 35.8416 5.13838C36.4124 4.83533 37.1043 4.75957 37.7559 4.96665L77.2586 17.3867C78.5668 17.8009 79.3042 19.1949 78.9153 20.5182C78.5315 21.8365 77.1475 22.5992 75.8141 22.2305C73.8291 21.6749 72.0007 21.1647 70.3137 20.695L71.0208 21.0334L70.1824 24.665L70.642 24.8872C70.5107 24.2963 70.5814 23.6498 70.8996 23.0841C71.5663 21.8921 73.0412 21.4425 74.2534 22.0638L77.5819 23.7811C77.5819 23.3568 77.6829 22.9224 77.9102 22.5285C78.5618 21.3466 80.0316 20.892 81.2438 21.4981L134.419 48.1969C135.626 48.8081 136.152 50.2829 135.566 51.5204C134.985 52.7629 133.535 53.3134 132.273 52.7679L132.081 52.6821C132.065 52.7326 132.045 52.7881 132.03 52.8386L131.535 54.1418L135.929 55.8843C136.354 55.7934 136.793 55.8086 137.227 55.95C137.919 55.0307 139.167 54.6772 140.258 55.1519C141.309 55.6116 141.905 56.7278 141.748 57.8339L143.986 58.7785C144.243 58.8088 144.486 58.8795 144.728 58.9906C144.92 59.0765 145.092 59.1775 145.233 59.3037L156.486 64.0212C157.774 64.5566 158.375 66.0214 157.855 67.3043C157.446 68.3145 156.451 68.9155 155.421 68.8751L153.143 70.1277C153.117 70.2035 153.092 70.2792 153.057 70.355C152.547 71.5066 151.299 72.0925 150.117 71.7895L146.592 73.7239C147.607 73.6886 148.577 74.2644 149.001 75.2493C149.557 76.5322 148.966 78.0172 147.678 78.5677L132.151 85.255C131.884 85.4369 131.581 85.5631 131.278 85.6288L117.59 91.5181L116.62 93.2606C115.979 94.4223 114.549 94.887 113.352 94.3264C113.024 94.1748 112.746 93.9576 112.514 93.7001L111.524 94.1294C111.423 94.1748 111.317 94.2152 111.205 94.2455L106.352 96.3316C106.049 96.5386 105.71 96.6851 105.357 96.7558L105.165 96.8417L89.8252 104.756L92.3456 107.893C93.1587 108.903 93.0729 110.363 92.1536 111.272C91.2293 112.186 89.7747 112.252 88.7695 111.424C56.1158 84.4115 55.944 84.9722 53.5247 82.2296C45.8676 73.5825 40.7813 62.8747 33.1343 54.2276C32.2403 53.2175 32.2909 51.6871 33.2556 50.7476C33.9223 50.096 34.8567 49.889 35.7052 50.1213C34.19 48.0252 32.6747 45.9392 31.1241 43.8784C30.9776 44.2775 30.7402 44.6411 30.3968 44.924C30.6039 45.3583 30.7958 45.7978 31.0029 46.2422C31.0029 46.2523 31.018 46.2574 31.018 46.2624C31.5837 47.5302 31.0433 49.0202 29.7705 49.6061C28.5078 50.1869 27.0178 49.6364 26.4268 48.3737V48.3585L24.0277 43.2168C23.9771 43.343 23.9165 43.4643 23.8458 43.5855C23.8105 43.6309 23.7852 43.6764 23.7499 43.7269C23.2751 44.3835 22.5124 44.7724 21.7043 44.7724L19.4364 43.3632L16.2291 36.8274C15.2594 36.8981 14.2997 36.4082 13.8199 35.5041L0.298726 10.4216C-0.342733 9.21947 0.0815396 7.72442 1.25839 7.0375C2.29887 6.43645 3.59694 6.65364 4.36972 7.50723L4.37477 7.50218ZM71.0259 89.427L51.2922 71.1076C53.1711 73.7946 55.1308 76.416 57.3128 78.8708C59.0806 80.881 59.6513 81.0628 73.0715 91.9878L71.0259 89.4321V89.427ZM127.484 50.6819L124.626 49.4394C124.626 49.6617 124.6 49.8788 124.54 50.1011C124.949 50.0758 125.363 50.1465 125.747 50.3233C126.318 50.5809 126.752 51.0304 126.994 51.5608L127.469 50.7072C127.469 50.7072 127.479 50.692 127.479 50.6819H127.484ZM98.8864 85.5884L97.9166 84.7297L95.5882 88.6593L98.8864 85.5884ZM113.271 47.7928L115.782 50.2375C115.938 50.2779 116.095 50.3334 116.251 50.4092C117.974 51.2426 119.524 51.9952 120.938 52.6871C121.242 52.6518 121.545 52.677 121.848 52.7528L122.201 52.0103C121.777 52.0305 121.337 51.9396 120.938 51.7325L113.271 47.7928ZM55.6763 26.7308C54.9288 27.8723 53.3883 28.2056 52.2266 27.4682V27.4632L49.7769 25.9125L56.1612 31.2008L56.732 29.2209L67.4499 36.0345L55.6763 26.7308ZM89.6029 46.1362L92.6789 49.298L91.0828 46.9898L89.6029 46.1362ZM36.2002 36.5547L41.0692 41.8732L36.6447 35.0849L36.8518 35.5799L36.2002 36.5547ZM30.6998 20.2606C30.7453 20.2455 30.7958 20.2303 30.8463 20.2152L30.5079 19.7707L30.6998 20.2606ZM84.2288 94.7102L86.1532 90.6089C85.7188 90.2251 85.2794 89.8463 84.8551 89.4725C84.1278 90.0937 83.0974 90.2756 82.1782 89.8665C80.9811 89.3311 80.4003 87.9673 80.8195 86.7299L81.0266 86.144C79.8295 85.0934 78.688 84.1034 77.6122 83.164C77.5364 83.6943 77.2839 84.2044 76.8748 84.6035C76.2182 85.2247 75.309 85.4318 74.5009 85.2247C77.3192 87.9774 80.5417 91.1241 84.2288 94.7153V94.7102ZM88.7342 55.556L88.4412 57.0612L89.4464 57.9501L90.1989 56.4854L88.7291 55.556H88.7342ZM47.9738 24.7761L47.403 24.4124L47.6707 24.7256C47.7768 24.7357 47.8778 24.7508 47.9738 24.771V24.7761ZM114.074 59.0007L113.236 61.3039L114.665 61.6271L115.549 60.0563L114.074 59.0007ZM68.1772 59.526L68.4802 58.6623L64.7123 55.3388L68.1772 59.526ZM64.4345 62.9202L66.0104 65.7385L66.2276 65.1021L64.4345 62.9202ZM79.3093 73.0017L77.9304 67.2841L76.3545 69.4307L79.3093 73.0017Z" fill="var(--fill-0, #4375C4)"/>
</svg>
