<svg preserveAspectRatio="none" width="100%" height="100%" overflow="visible" style="display: block;" viewBox="0 0 184.331 123.071" fill="none" xmlns="http://www.w3.org/2000/svg">
<g id="Group">
<path id="Vector" fill-rule="evenodd" clip-rule="evenodd" d="M91.649 122.228C89.6943 120.778 27.0889 57.7434 11.1636 37.6965C8.30985 34.1155 3.82469 28.6151 1.56696 23.1198C-0.347318 18.4225 -0.675623 13.705 1.52655 9.66935C3.64791 5.77009 8.44118 2.12338 18.0934 0.416188C27.0485 -1.16978 39.9585 1.85063 55.4192 8.21976C89.366 22.1955 136.713 52.041 182.1 76.8861C183.539 77.669 184.398 79.1944 184.327 80.8308C184.262 82.4623 183.282 83.9119 181.787 84.5735L95.9473 122.702C94.533 123.329 92.8865 123.147 91.649 122.228ZM95.0381 113.712L170.417 80.2348C134.076 60.0264 97.0736 37.3581 67.2029 22.9329C46.9287 13.1443 30.2255 6.98735 19.5733 8.87132C13.6739 9.91179 10.3605 11.3967 9.05738 13.7807C8.06236 15.6092 8.63311 17.7305 9.50691 19.862C11.4464 24.5946 15.4164 29.2667 17.8762 32.3477C32.16 50.3388 84.7192 103.666 95.0381 113.712Z" fill="var(--fill-0, #4356B1)"/>
</g>
</svg>
