<svg preserveAspectRatio="none" width="100%" height="100%" overflow="visible" style="display: block;" viewBox="0 0 375.136 179.845" fill="none" xmlns="http://www.w3.org/2000/svg">
<path id="Vector" fill-rule="evenodd" clip-rule="evenodd" d="M4.72324 144.821C4.25857 143.8 4.52626 142.558 5.42531 141.82C6.02132 141.335 6.60216 140.861 7.15776 140.406C6.40518 140.371 5.66775 139.992 5.20308 139.32C4.42019 138.184 4.68284 136.623 5.81423 135.825L48.3425 105.585L48.3526 105.575C49.1405 105.02 50.1204 104.974 50.9184 105.363C61.0706 99.08 70.7885 92.0896 81.1781 86.2154C95.169 78.3008 140.374 58.3499 155.769 54.784C160.517 52.1373 165.265 49.5058 170.088 47.0107C194.105 34.5856 210.071 29.6105 212.142 28.7165C212.409 28.6003 212.677 28.5347 212.955 28.5094L240.755 11.4527C241.917 10.7355 243.447 11.0789 244.184 12.2305C244.932 13.3771 244.634 14.9125 243.508 15.6853L231.769 23.7667L262.039 9.92733C263.115 9.4374 264.378 9.7657 265.08 10.6648C266.156 10.2657 267.393 10.6547 268.05 11.6295C268.656 12.5386 268.59 13.7256 267.949 14.5691C279.894 8.72018 284.01 6.99783 303.355 0.143823C304.567 -0.2855 305.926 0.275145 306.472 1.44189C306.845 2.23993 306.775 3.13898 306.35 3.8461L310.891 2.17427C312.139 1.71464 313.518 2.29549 314.063 3.49254C314.305 4.03803 314.356 4.62393 314.21 5.15932L319.892 3.36122C321.165 2.95715 322.533 3.61881 323.018 4.87142C323.018 4.89668 323.028 4.92193 323.038 4.94214L324.215 4.52797C325.463 4.07844 326.842 4.67949 327.377 5.9018C327.897 7.12411 327.387 8.5434 326.215 9.1495L323.296 10.6547L324.377 10.3263C325.599 9.95258 326.907 10.5536 327.412 11.7254C327.766 12.5336 327.67 13.4427 327.21 14.1397L328.19 13.7811C329.206 13.4023 330.332 13.7306 330.999 14.5388C331.352 14.559 331.716 14.5792 332.079 14.5994L332.878 13.771C333.676 12.9427 334.938 12.7609 335.943 13.3316C336.656 13.7357 337.12 14.4478 337.201 15.2307C337.772 15.6095 338.181 16.2156 338.292 16.9278C338.484 18.0996 337.832 19.2462 336.731 19.6805L336.11 19.923L336.1 19.9583L338.984 21.5999L339.888 19.9886L339.565 19.5038L340.024 19.7462L340.676 18.5744C340.676 18.5744 340.691 18.5592 340.691 18.5491L338.898 15.8217C338.171 14.7105 338.423 13.2205 339.479 12.4174C340.545 11.6143 342.045 11.7759 342.919 12.7811L350.126 21.1251C350.343 20.4281 350.864 19.8321 351.591 19.5442C352.803 19.0593 354.182 19.5745 354.773 20.7362L358.096 27.2316L357.576 23.4434C357.394 22.115 358.278 20.8776 359.597 20.62C360.905 20.3624 362.203 21.1806 362.526 22.4838L367.082 40.5557C367.334 40.9648 367.471 41.4497 367.456 41.97V42.0306L368.486 46.1066C369.648 46.44 370.41 47.5663 370.294 48.7836L369.855 53.1728C370.597 52.597 371.613 52.4505 372.496 52.8697C373.658 53.4152 374.229 54.7486 373.82 55.9659L373.719 56.2285C373.855 56.2891 373.976 56.3598 374.098 56.4508C375.183 57.2387 375.461 58.7539 374.724 59.8853L349.919 97.6051C349.151 98.7618 347.616 99.0901 346.454 98.3476C345.293 97.6051 344.939 96.0697 345.656 94.8928L347.086 92.5846C346.964 92.6502 346.853 92.7159 346.747 92.7816L343.424 96.0798C342.661 96.8374 341.535 97.0091 340.605 96.5849L333.433 103.449C332.448 104.388 330.913 104.388 329.933 103.444C329.716 103.232 329.544 102.984 329.413 102.722C322.604 106.51 316.184 109.869 312.598 111.237C311.24 111.753 310.174 112.005 309.507 112.04L308.649 111.98C281.515 122.031 275.121 124.435 245.296 135.3C244.993 135.618 244.609 135.865 244.159 135.997C242.73 136.421 241.336 136.835 239.992 137.234C237.239 138.229 234.31 139.295 231.173 140.436C230.557 140.664 229.89 140.628 229.32 140.386C216.046 144.326 207.253 146.987 198.929 149.639C185.594 154.24 174.912 157.978 148.829 166.61C147.562 167.034 146.188 166.383 145.693 165.15C141.117 166.605 136.015 168.226 130.176 170.07C129.777 170.201 129.353 170.216 128.964 170.146C128.287 170.393 127.595 170.646 126.903 170.903C125.61 171.378 124.166 170.716 123.671 169.418C123.585 169.171 123.524 168.918 123.514 168.671C113.847 170.848 106.943 172.141 99.4824 173.292C96.0428 174.09 92.189 174.999 87.8301 176.045C87.3098 176.171 86.7744 176.121 86.3148 175.934C81.37 176.974 76.3596 178.015 69.4298 179.767C68.1216 180.101 66.7781 179.333 66.3892 178.03C66.1215 177.101 66.3993 176.141 67.0559 175.504C61.4242 176.237 57.4138 176.333 54.2873 176.161C38.0943 179.399 30.9726 178.782 26.4167 179.621C25.1186 179.858 23.8609 179.055 23.5225 177.777C23.1841 176.499 23.8862 175.181 25.1338 174.747C27.7754 173.833 30.3664 172.782 32.9323 171.686C31.3211 171.565 29.6997 171.509 28.0885 171.595C27.2046 171.641 26.3914 171.221 25.8964 170.545C24.7954 170.681 23.6539 170.822 22.4669 170.959C20.3001 171.701 18.1585 172.469 16.022 173.292C14.7745 173.777 13.3602 173.191 12.8147 171.964C12.2692 170.742 12.7642 169.307 13.9512 168.696L13.9259 168.575L14.0118 167.711L14.2896 167.029L14.4714 166.782C13.5774 166.963 12.6076 166.645 11.9864 165.872C11.4055 165.135 11.2995 164.17 11.6379 163.352C11.249 163.185 10.9004 162.923 10.6327 162.569C10.4863 162.367 10.3651 162.155 10.2792 161.933C9.11749 162.554 7.88003 163.206 6.58701 163.903C5.43542 164.519 4.00602 164.16 3.2888 163.069C2.57663 161.978 2.80897 160.524 3.82419 159.705C6.63247 157.458 9.14274 155.453 11.4055 153.644C11.3449 153.574 11.2843 153.498 11.2237 153.422C11.0671 153.205 10.9459 152.978 10.8651 152.735C9.81956 153.523 8.71847 154.362 7.54162 155.245C6.45064 156.069 4.88992 155.872 4.04138 154.791C3.54639 154.16 3.39992 153.362 3.57165 152.639C2.53117 153.114 1.28361 152.831 0.541133 151.912C-0.267004 150.882 -0.160935 149.392 0.798727 148.498L4.72324 144.821ZM21.679 162.68C21.5477 162.403 21.4719 162.11 21.4466 161.817C20.492 162.544 19.4869 163.307 18.4212 164.105C19.3404 163.675 20.4466 163.196 21.679 162.68ZM319.745 102.237C319.503 102.121 319.286 101.964 319.079 101.772C318.281 100.989 318.109 99.7921 318.579 98.8325C317.952 99.5699 317.356 100.333 316.775 101.121C316.689 101.292 316.568 101.454 316.437 101.6C315.841 102.439 315.27 103.297 314.715 104.161C315.77 103.838 316.846 103.499 317.962 103.151C317.988 103.141 317.998 103.136 318.023 103.131C318.579 102.843 319.159 102.545 319.74 102.237H319.745ZM364.476 66.2848C364.39 66.3605 364.319 66.4363 364.233 66.502C364.248 66.5323 364.258 66.5626 364.274 66.5929L364.476 66.2848ZM334.716 24.9839L334.11 27.1912L335.888 27.1053L336.509 25.9992L334.716 24.9839ZM307.305 106.474C307.547 106.106 307.775 105.737 308.017 105.363L299.724 108.818C302.062 108.101 304.567 107.323 307.305 106.474ZM237.462 130.325C234.153 131.527 230.542 132.84 226.597 134.284C229.512 133.507 232.638 132.668 236.007 131.754C236.361 131.663 236.709 131.643 237.048 131.698C237.169 131.633 237.29 131.562 237.411 131.496C237.341 131.102 237.351 130.698 237.462 130.325ZM332.706 32.3178L332.463 33.2067L332.973 32.3026L332.706 32.3178ZM240.038 30.4944C240.649 30.7166 241.164 31.1662 241.457 31.7975C241.467 31.8127 241.482 31.8329 241.482 31.8531C241.725 31.7521 241.962 31.646 242.21 31.545L245.25 28.7367C243.503 29.3024 241.76 29.8833 240.038 30.4944ZM54.7368 109.793C54.8934 109.924 55.0247 110.071 55.146 110.242C55.4036 110.586 55.545 110.97 55.5955 111.364C56.5046 110.727 57.4491 110.066 58.4189 109.384C59.0351 108.949 59.7877 108.833 60.4645 109C63.9648 106.601 67.7681 104.02 73.329 100.626C67.5408 103.474 61.3484 106.52 54.7368 109.793ZM51.0548 123.026C53.1711 121.39 55.7672 119.43 58.8785 117.187C56.343 118.506 53.6661 119.889 50.8578 121.349C51.1255 121.88 51.1861 122.47 51.0548 123.026ZM222.269 131.9C221.435 132.239 220.587 132.582 219.728 132.931C220.526 133.163 221.183 133.779 221.445 134.628C221.546 134.961 221.567 135.3 221.531 135.628C222.562 135.355 223.617 135.077 224.693 134.79C223.713 134.764 222.794 134.163 222.415 133.193C222.249 132.769 222.198 132.325 222.269 131.9ZM356.92 63.33C356.884 63.1128 356.834 62.8956 356.783 62.6734L353.273 66.6838L356.92 63.33ZM361.425 51.4757L361.339 50.8595C360.248 51.314 358.975 50.9403 358.298 49.9503L356.263 46.9855L359.203 53.3394C359.799 53.5213 360.319 53.9152 360.647 54.486C360.9 54.9254 361.011 55.4103 360.975 55.88C360.986 55.8851 360.986 55.8851 360.986 55.8901L361.42 51.4757H361.425ZM88.5069 136.315C88.3402 135.891 88.2745 135.421 88.3604 134.941L88.7241 132.84C88.0826 133.214 87.4512 133.592 86.8098 133.971C85.9764 134.537 85.1733 135.077 84.4258 135.603C85.0167 135.835 85.537 136.295 85.8148 136.936C85.9006 137.123 85.9612 137.32 85.9966 137.512L88.5069 136.31V136.315ZM90.1686 152.892C90.1686 152.791 90.1787 152.7 90.204 152.604C90.1535 152.624 90.0928 152.639 90.0474 152.659C89.5271 152.902 89.017 153.139 88.5321 153.372C89.0877 153.205 89.6332 153.048 90.1686 152.892ZM354.364 54.89L354.051 54.1981L352.702 55.6729L354.364 54.89ZM267.863 31.6864C266.908 32.4996 265.974 33.2825 265.08 34.0401C265.186 33.9846 265.282 33.9189 265.383 33.8583C265.393 33.8583 265.393 33.8583 265.393 33.8532C265.575 33.7472 265.757 33.6663 265.949 33.6108L268.58 31.444L267.863 31.6864ZM133.601 156.998C135.48 156.544 137.49 156.059 139.672 155.533C142.895 154.468 146.324 153.321 149.981 152.079C153.037 151.043 155.239 150.321 158.108 149.467C157.527 149.23 157.032 148.77 156.754 148.149C156.729 148.078 156.693 148.003 156.668 147.932C149.228 150.043 141.344 152.341 131.555 155.235C132.5 155.377 133.313 156.054 133.606 156.998H133.601ZM327.958 59.9207C327.69 59.3247 327.655 58.6327 327.907 57.9862L328.392 56.7134L324.781 58.2539C324.018 60.0975 323.246 61.9461 322.432 63.7644L327.958 59.9207ZM338.762 52.405L339.146 52.1272L338.832 52.2636C338.812 52.3091 338.787 52.3545 338.762 52.405ZM344.409 44.3994L343.959 40.1163L342.368 42.8842L342.646 43.4145L342.807 43.9448L342.782 44.9348L342.706 45.1217L344.404 44.3994H344.409ZM313.169 70.2042C315.154 67.3707 316.715 64.2745 318.119 61.0874L315.785 62.0875C315.129 62.5168 314.487 62.9361 313.856 63.3603L293.703 83.8314C293.834 83.786 293.966 83.7456 294.087 83.7052C294.269 83.4375 294.491 83.2001 294.769 83.0082L313.169 70.2042ZM292.284 92.9634C289.435 94.514 286.495 96.1303 283.455 97.8122C281.136 99.085 279.03 100.247 277.055 101.312C280.546 100.085 284.46 98.7062 288.844 97.1505C289.935 95.7111 291.082 94.3221 292.284 92.9634ZM304.118 33.6714C301.623 36.2473 299.032 39.1061 296.405 42.2579C299.683 40.6416 302.35 39.4092 304.239 38.5404C305.002 37.8182 305.805 37.0504 306.648 36.2322L308.32 33.4694L304.118 33.6714ZM95.0023 133.224L94.9871 131.618L94.2345 133.587L95.0023 133.219V133.224ZM153.264 77.1795C150.875 78.5129 148.587 79.811 146.395 81.0888L151.481 78.5685C152.087 78.1038 152.683 77.6391 153.264 77.1795ZM108.215 121.273L109.367 124.526C111.024 122.258 112.645 119.97 114.297 117.702C112.271 118.889 110.251 120.081 108.215 121.273ZM235.618 116.056C235.749 116.01 235.896 115.96 236.032 115.914C238.416 114.768 240.548 113.763 242.523 112.833C242.583 112.763 242.644 112.697 242.705 112.636C242.8 112.546 242.886 112.455 242.972 112.364C240.73 113.313 238.588 114.217 236.502 115.096L235.618 116.056ZM279.515 57.0367C278.727 57.4912 277.939 57.9509 277.141 58.4256C277.833 58.1478 278.535 57.87 279.237 57.5872C279.308 57.4155 279.404 57.2336 279.515 57.0367ZM282.278 44.2933C280.157 45.4045 277.929 46.5713 275.565 47.8037C276.05 47.9199 276.49 48.1775 276.828 48.5411C279.298 46.6218 280.995 45.3035 282.278 44.2933ZM209.056 62.2087C207.783 62.8704 206.55 63.5169 205.323 64.1533C203.555 65.7443 201.833 67.2949 200.141 68.8102C202.247 67.9819 204.353 67.1586 206.46 66.3403C206.268 65.4817 206.52 64.5473 207.212 63.9109L209.056 62.2087ZM121.939 115.859C124.383 113.5 126.676 111.349 128.843 109.369C127.828 109.939 126.808 110.51 125.802 111.086C124.469 112.642 123.186 114.238 121.939 115.859ZM223.749 91.2562C223.87 91.0996 223.991 90.9481 224.122 90.7966C224.304 90.5693 224.486 90.347 224.683 90.1248C224.718 89.9026 224.779 89.6803 224.86 89.4732C218.693 92.13 212.98 94.6453 207.333 97.196C207.197 97.3374 207.081 97.4789 206.944 97.6253C212.43 95.4838 218.031 93.3574 223.749 91.2562ZM206.379 87.3822C208.571 86.3114 210.642 85.3164 212.627 84.382C212.834 84.185 213.041 83.988 213.258 83.791C208.389 85.7306 204.04 87.4782 200.01 89.1348C195.61 91.3219 191.312 93.4735 187.13 95.5898C193.019 93.0442 199.414 90.3117 206.379 87.3822ZM198.358 74.9672C198.358 74.9571 198.373 74.947 198.373 74.9369C195.221 76.1996 192.075 77.4876 188.948 78.821C187.751 79.9019 186.559 80.9575 185.397 81.9929C189.433 79.7756 193.696 77.4724 198.358 74.9672ZM168.184 125.94L184.044 121.405C184.226 120.93 184.493 120.384 184.842 119.783C185.145 119.268 185.448 118.758 185.736 118.253C179.16 121.026 173.346 123.582 168.184 125.94ZM193.782 114.914C193.247 115.723 192.726 116.546 192.196 117.379C193.747 116.283 195.56 114.94 197.706 113.318C196.373 113.859 195.065 114.389 193.782 114.914ZM204.636 114.334C206.707 113.556 208.778 112.793 210.849 112.025C211.778 110.46 212.677 108.874 213.571 107.283C210.217 109.965 207.247 112.303 204.631 114.334H204.636ZM244.487 83.9072C249.392 82.2404 254.362 80.5989 259.372 79.0028C262.049 76.7299 264.984 74.2045 268.267 71.3558C268.312 71.2851 268.373 71.2195 268.434 71.1538C260.66 74.3914 253.731 77.2805 247.407 79.9271C246.523 81.1393 245.553 82.4576 244.487 83.9072ZM242.841 100.777L243.164 100.424C242.997 100.56 242.841 100.696 242.669 100.833C242.73 100.812 242.78 100.792 242.841 100.777ZM218.092 109.399C218.915 109.101 219.738 108.808 220.577 108.51C221.971 106.515 223.289 104.631 224.562 102.833C224.092 103.01 223.617 103.186 223.107 103.378C222.43 103.636 221.764 103.893 221.097 104.146C220.067 105.878 219.087 107.636 218.092 109.399ZM232.507 100.368C232.769 100.166 233.037 99.9588 233.305 99.7618C233.133 99.8174 232.977 99.878 232.805 99.9336C232.709 100.075 232.603 100.221 232.502 100.368H232.507Z" fill="var(--fill-0, #719DE3)"/>
</svg>
