<svg preserveAspectRatio="none" width="100%" height="100%" overflow="visible" style="display: block;" viewBox="0 0 61.5396 52.4907" fill="none" xmlns="http://www.w3.org/2000/svg">
<path id="Vector" fill-rule="evenodd" clip-rule="evenodd" d="M4.29828 27.3138C4.51547 26.9501 4.81852 26.6369 5.21754 26.4097L12.0412 22.4851C11.9402 22.3639 11.8594 22.2275 11.7735 22.0811C11.1573 20.8891 11.5766 19.4243 12.7332 18.7374L43.6899 0.352296C44.8668 -0.344721 46.3921 0.0239912 47.1195 1.18064C47.8468 2.34233 47.5185 3.87274 46.3669 4.63037L44.1041 6.13552C44.3011 6.32746 44.4677 6.54969 44.5991 6.80729C44.9779 7.53461 44.9627 8.36295 44.6395 9.05492C45.2203 9.262 45.7406 9.69133 46.0436 10.2823C46.6245 11.4288 46.2608 12.833 45.1799 13.5451L43.4121 14.7068C43.4727 14.7472 43.5232 14.7876 43.5687 14.8331L44.8163 14.2118L45.9477 19L46.4527 18.8586L49.3267 17.5555L48.3064 16.4494C47.4377 15.4948 47.4225 14.0351 48.2862 13.0653C49.1448 12.0955 50.5843 11.9339 51.64 12.6915C53.9179 14.328 56.0746 16.1261 58.3526 17.7626C60.4436 19.2778 61.2467 20.6416 61.4538 21.7275L61.5396 22.5053L61.4639 23.263L61.1356 24.2681C61.0144 24.5307 60.8578 24.7984 60.6659 25.0712C59.9385 26.1268 58.3778 27.2936 56.6302 29.0209C56.6656 29.031 56.706 29.0411 56.7413 29.0563C57.6454 29.3594 58.302 30.1523 58.4334 31.0968C58.5697 32.0464 58.1556 32.9808 57.3676 33.5263L56.0847 34.4153C55.9029 34.8547 55.5897 35.2486 55.1655 35.5315L30.5627 52.0629C29.4111 52.8357 27.8605 52.5327 27.0726 51.3861C26.2948 50.2396 26.5877 48.6789 27.7292 47.8909L31.386 45.3605L19.0165 50.4416C17.8043 50.9366 16.4102 50.4265 15.8041 49.2547C15.5011 48.6637 15.4556 48.0021 15.6375 47.401L13.9909 48.194L12.8847 48.4415L11.617 43.7391L12.4655 43.2391C12.3898 43.1381 12.319 43.027 12.2584 42.9057C12.0513 42.532 11.9655 42.1229 11.9655 41.7238C11.4604 42.1229 10.8189 42.335 10.127 42.2643C9.39965 42.1835 8.78344 41.8097 8.36927 41.2642C8.16218 41.2339 7.97025 41.1834 7.78842 41.1076C5.00035 41.1329 3.43963 40.8955 2.58099 40.5824L1.61122 40.1025L0.727323 39.3146L0.338407 38.6933L0.0959663 38.0569L0 36.6881C0.424272 31.8898 2.42441 29.0007 4.29828 27.3188V27.3138ZM53.0037 25.5056C52.6905 25.4904 52.3622 25.4803 52.0592 25.4601C52.2663 25.5763 52.4481 25.7177 52.6198 25.8894C52.7512 25.7581 52.8825 25.6268 53.0037 25.5056Z" fill="var(--fill-0, #DDEAFF)"/>
</svg>
