<svg preserveAspectRatio="none" width="100%" height="100%" overflow="visible" style="display: block;" viewBox="0 0 34.0587 32.1098" fill="none" xmlns="http://www.w3.org/2000/svg">
<path id="Vector" fill-rule="evenodd" clip-rule="evenodd" d="M20.9871 0.95304C21.7649 0.821719 22.5882 1.05406 23.1791 1.65006C23.6994 2.16524 23.957 2.85721 23.9317 3.53908L24.9368 2.74104C25.9521 1.94301 27.4219 2.04403 28.3159 2.97338C29.1644 3.85223 29.2604 5.21091 28.5583 6.19583C29.5988 5.46345 31.0282 5.61498 31.8919 6.57464C32.7758 7.56461 32.7354 9.07987 31.806 10.0294L27.1188 14.8126L30.9575 12.4538C30.7857 12.565 30.6191 12.6912 30.4827 12.8327L30.5079 12.8124C30.3716 12.9438 30.2554 13.0902 30.1544 13.2468C30.0332 13.4185 29.9523 13.6054 29.8917 13.8024C29.7453 14.2216 29.72 14.6813 29.8059 15.1257C29.816 15.1813 29.8261 15.2369 29.8513 15.2924C29.8766 15.3833 29.9018 15.4742 29.9372 15.5652C30.3261 16.5097 31.2454 17.1309 32.2757 17.1309L34.0587 16.3986L24.6439 25.7123L27.1996 25.2679C28.5684 25.0254 29.8766 25.9447 30.119 27.3185C30.3615 28.6923 29.4422 30.0005 28.0583 30.2379L17.5676 32.0714C16.4767 32.2633 15.4008 31.7228 14.8907 30.743C14.4563 29.8944 14.5422 28.8843 15.0725 28.1266L12.239 29.8641C11.148 30.5359 9.74387 30.2834 8.94583 29.2883C8.1579 28.2883 8.22861 26.8538 9.11251 25.9447L9.29434 25.7679C9.11251 25.6618 8.94078 25.5305 8.79936 25.3739C7.90031 24.4446 7.8397 22.9798 8.67814 21.9899L8.74885 21.909L6.09715 23.995C5.06678 24.8082 3.57677 24.6921 2.69287 23.7324C2.63226 23.6768 2.5868 23.6162 2.5363 23.5556C1.89484 23.5607 1.25338 23.3182 0.753343 22.8333C-0.201269 21.8939 -0.261879 20.3584 0.647275 19.3533L17.1181 0.846972C18.002 -0.148046 19.5072 -0.284418 20.5578 0.533819C20.7194 0.660092 20.8608 0.801514 20.982 0.958091L20.9871 0.95304Z" fill="var(--fill-0, #DDEAFF)"/>
</svg>
