<svg preserveAspectRatio="none" width="100%" height="100%" overflow="visible" style="display: block;" viewBox="0 0 28.8964 28.0061" fill="none" xmlns="http://www.w3.org/2000/svg">
<path id="Vector" fill-rule="evenodd" clip-rule="evenodd" d="M19.95 2.16533L21.2683 1.53398C22.43 0.978381 23.824 1.3875 24.5059 2.47849C25.1827 3.56947 24.9302 4.99886 23.925 5.7969L22.3593 7.02425C23.0664 7.19093 23.6826 7.66571 24.0311 8.34758C24.5513 9.39311 24.2887 10.6659 23.3896 11.4134L22.7835 11.9286L24.8089 10.969C25.9959 10.4083 27.4101 10.8528 28.0667 11.9892C28.7183 13.1257 28.39 14.5753 27.3243 15.3279L26.9606 15.5754C27.6273 15.737 28.2082 16.1613 28.5718 16.7926C29.1931 17.8937 28.9001 19.2877 27.8849 20.0454C25.4251 21.9091 23.0613 22.4698 21.1976 22.9243C20.7733 23.0304 20.1824 23.2274 19.9248 23.3183C19.9248 23.6113 19.9399 24.3335 20.0712 24.975C20.349 26.3387 19.4651 27.6772 18.0963 27.955C16.7276 28.2328 15.3992 27.3489 15.1163 25.9852C15.0709 25.7377 15.0355 25.4952 15.0002 25.2629L10.212 27.162C9.01491 27.6368 7.65623 27.1418 7.05012 26.0104C6.89355 25.7023 6.79758 25.374 6.76222 25.0457C5.70659 25.3437 4.555 24.9245 3.9489 23.9749C3.27208 22.9041 3.48927 21.495 4.45903 20.6767L5.58537 19.7373C4.72673 19.808 3.84283 19.4342 3.30744 18.6816C2.7973 17.9644 2.71144 17.0603 3.01449 16.2926C2.59527 16.2067 2.20635 16.0148 1.87804 15.7319C1.26184 15.5703 0.701195 15.1713 0.352685 14.5803C-0.314027 13.459 -0.0109767 12.0094 1.05475 11.2468L15.98 0.478347C17.0811 -0.324738 18.6317 -0.0923996 19.455 0.993534C19.7328 1.34709 19.8894 1.75116 19.9551 2.16533H19.95Z" fill="var(--fill-0, #DDEAFF)"/>
</svg>
