<svg preserveAspectRatio="none" width="100%" height="100%" overflow="visible" style="display: block;" viewBox="0 0 32.5295 29.2096" fill="none" xmlns="http://www.w3.org/2000/svg">
<path id="Vector" fill-rule="evenodd" clip-rule="evenodd" d="M3.82692 10.8656C3.82692 10.8554 3.82692 10.8453 3.81682 10.8352C3.27132 9.58768 3.81682 8.12799 5.03913 7.53704L20.2624 0.248653C21.4746 -0.332194 22.9141 0.137535 23.5707 1.31438C24.0202 2.13767 23.9546 3.11249 23.5 3.86507C23.8233 4.04185 24.1162 4.29944 24.3435 4.62774C25.6668 6.51171 26.2931 8.01687 26.4901 9.23917C27.4346 9.24928 28.3286 9.78972 28.7529 10.6938C29.2984 11.8404 28.8994 13.2142 27.8336 13.8961L25.0001 15.6992L25.0961 15.6841C26.1467 15.5174 27.177 16.0225 27.7023 16.9316L30.3995 17.3609C31.3945 17.5175 32.1925 18.255 32.4501 19.2298C32.7027 20.2046 32.339 21.24 31.5511 21.8562L28.5357 24.1796C28.369 24.6594 28.0407 25.0888 27.5912 25.3918L22.601 28.7759C21.4746 29.5386 19.9341 29.2709 19.1361 28.1647C18.929 27.8819 18.7977 27.5687 18.7269 27.2455L17.8986 27.397C16.7773 27.6041 15.6459 27.0283 15.1509 25.9878C14.6661 24.9473 14.9439 23.7149 15.8177 22.9775L16.8228 22.1441L13.7569 22.6391C12.57 22.831 11.4184 22.1643 10.9941 21.0481C10.7921 20.5127 10.7769 19.952 10.9335 19.4369L7.82215 20.4369C6.6453 20.8208 5.36238 20.2854 4.79163 19.1793V19.1692L4.56434 19.1136L3.76631 18.6186L3.0996 17.6893L2.96827 17.169C1.90254 17.3609 0.796405 16.8357 0.276166 15.8356C-0.314785 14.6688 0.0690823 13.2445 1.17522 12.5475L3.82692 10.8656ZM5.10984 16.4164V16.4114C5.10984 16.3912 5.11994 16.371 5.11994 16.3558H5.10984V16.4164ZM19.7927 6.47131L19.4997 6.65314C19.4543 6.73395 19.3937 6.80466 19.3432 6.87537C19.5502 6.90568 19.7573 6.95619 19.9493 7.03195C19.8785 6.85012 19.8179 6.66324 19.7927 6.47131ZM21.4999 9.76951C21.4746 9.95134 21.4241 10.118 21.3635 10.2847C21.4241 10.2089 21.4847 10.1231 21.5201 10.0271C21.5605 9.95135 21.5352 9.86548 21.4999 9.76951Z" fill="var(--fill-0, #DDEAFF)"/>
</svg>
