<svg preserveAspectRatio="none" width="100%" height="100%" overflow="visible" style="display: block;" viewBox="0 0 388.98 191.82" fill="none" xmlns="http://www.w3.org/2000/svg">
<path id="Vector" fill-rule="evenodd" clip-rule="evenodd" d="M31.8874 188.91C29.9833 188.153 17.9976 182.829 9.45153 174.253C3.13291 167.919 -1.21588 159.878 0.304432 150.756C1.81464 141.715 9.41113 131.028 28.9933 119.956C69.2183 97.2071 166.175 44.5823 240.362 17.2925C272.854 5.3422 301.118 -1.66839 318.65 0.341848C347.349 3.62995 369.431 20.1614 380.629 37.3646C388.629 49.6685 390.998 62.4068 387.23 71.4377C380.927 86.5145 374.977 97.6365 348.844 111.653C323.923 125.012 279.839 141.21 197.081 166.798C87.9722 200.527 63.2129 191.027 33.2209 189.203C32.7562 189.178 32.3067 189.077 31.8874 188.91ZM34.4583 180.678C63.5765 182.572 88.351 191.421 194.535 158.59C276.455 133.265 320.13 117.31 344.793 104.086C368.224 91.5199 373.669 81.6455 379.311 68.1243C382.205 61.1743 379.609 51.5272 373.442 42.0569C363.37 26.5911 343.475 11.8325 317.685 8.87274C300.997 6.96352 274.212 13.9893 243.326 25.3537C169.579 52.4768 73.2035 104.819 33.2209 127.431C17.0379 136.579 10.0122 144.695 8.77472 152.165C7.72919 158.459 11.1688 163.823 15.5277 168.192C22.3363 175.026 31.6753 179.47 34.4583 180.683V180.678Z" fill="var(--fill-0, #4356B1)"/>
</svg>
