<svg preserveAspectRatio="none" width="100%" height="100%" overflow="visible" style="display: block;" viewBox="0 0 101.129 165.602" fill="none" xmlns="http://www.w3.org/2000/svg">
<path id="Vector" fill-rule="evenodd" clip-rule="evenodd" d="M7.63705 40.5124C7.03095 40.28 6.52081 39.8153 6.24302 39.1789C5.68237 37.9112 6.25312 36.4262 7.51078 35.8605L8.71289 35.3201L35.3259 20.0867C36.4876 19.425 37.9675 19.7836 38.6948 20.8999C38.8362 21.1322 38.9473 21.3747 39.018 21.6272L42.3971 19.5109C43.0284 19.1169 43.7658 19.0311 44.4326 19.223L48.3571 17.4502C49.5339 16.9198 50.9128 17.3643 51.5694 18.4603L63.9996 12.1164C64.6259 11.7982 65.3178 11.7629 65.9341 11.97C68.0655 10.8739 70.3839 9.68194 72.9244 8.36871C74.1215 7.75251 75.6014 8.19193 76.2681 9.36373C76.6217 9.96983 76.6924 10.6618 76.5105 11.2881L82.6625 3.62596L84.5061 7.47471L89.5418 0.979313C90.3095 -0.0106554 91.6732 -0.288451 92.7642 0.322702C93.8552 0.928805 94.3401 2.24708 93.9057 3.41383C92.2339 7.84342 90.4055 12.2074 88.5013 16.541L90.8297 12.97C91.5166 11.9144 92.8753 11.5255 94.0118 12.0659C94.2795 12.1922 94.5219 12.3589 94.7189 12.5559C95.224 11.3083 95.7341 10.0355 96.2695 8.73743C96.7897 7.45956 98.2444 6.83325 99.5273 7.33834C100.81 7.84848 101.452 9.28797 100.967 10.581L98.0828 18.233C99.1384 18.8492 99.6081 20.1574 99.1636 21.3292C99.1636 21.3343 99.1636 21.3343 99.1535 21.3393C94.6583 32.9361 89.5468 44.2954 85.0515 55.8922C84.8697 56.3518 84.698 56.8064 84.5212 57.2509C84.7232 57.2711 84.9202 57.3064 85.1273 57.3772C86.3597 57.7964 87.0769 59.1045 86.7587 60.3774C82.7484 76.5199 79.93 87.9247 77.9147 96.1021C78.743 96.7839 79.0562 97.9355 78.642 98.976L74.8993 108.386C72.9143 116.472 72.6214 117.659 71.9193 120.099C69.0151 130.266 64.7168 139.999 61.8075 150.166C61.4337 151.48 60.0852 152.252 58.7669 151.924C58.378 151.828 58.0396 151.646 57.7618 151.404L54.6605 159.177C54.1757 160.379 52.8826 161.021 51.6452 160.677C51.0643 160.516 50.5794 160.162 50.2511 159.702C50.0239 159.894 49.7663 160.046 49.4885 160.147L48.5187 162.203C47.9378 163.455 46.4478 164.001 45.1902 163.43C45.1144 163.395 45.0437 163.354 44.973 163.314C43.9022 164.137 42.6698 164.607 40.9121 165.077C37.8866 165.895 36.1542 165.445 35.1238 164.688L34.1288 165.602C33.1237 165.602 32.2044 164.996 31.8054 164.061L29.0931 157.611C28.8709 157.581 28.6537 157.515 28.4516 157.419C27.5778 157.025 27.0323 156.187 26.9717 155.283L25.3252 157.162C24.1028 157.162 23.0624 156.288 22.8401 155.091L21.8603 149.717C21.1481 150.177 20.2137 150.267 19.4005 149.879C18.1782 149.298 17.6327 147.853 18.1681 146.611C18.9308 144.813 19.6581 143.1 20.345 141.474L18.8096 133.034C17.6327 132.418 17.1226 130.988 17.6731 129.771C17.8044 129.483 17.9256 129.205 18.057 128.928L16.5215 120.528C16.0265 120.76 15.4558 120.826 14.885 120.695C14.4153 120.579 14.0011 120.346 13.688 120.023L8.97553 127.301C8.30882 128.337 6.99054 128.736 5.84905 128.246C4.72271 127.751 4.11661 126.508 4.40956 125.311C5.98037 119.063 7.3138 113.815 8.41994 109.406C7.33905 108.901 6.7481 107.674 7.05115 106.482L12.597 85.2882C11.5313 86.0913 10.0312 85.9195 9.15736 84.9043C8.28356 83.879 8.36943 82.3486 9.35434 81.4293L14.9962 76.1108L17.3852 66.9788L11.7636 70.5952C10.6726 71.3024 9.21797 71.0599 8.41994 70.0397C7.60675 69.0194 7.71787 67.5546 8.65228 66.6505L17.1024 58.5237L7.04105 66.1404C5.97027 66.9435 4.48532 66.7818 3.61152 65.7717C2.73772 64.7666 2.79833 63.2564 3.74284 62.3219L9.82407 56.3468L6.35919 59.0591C5.29346 59.8975 3.75294 59.7359 2.86904 58.6954C2.0003 57.66 2.09626 56.1144 3.10138 55.2002L16.7185 42.8206C16.6932 42.7802 16.668 42.7398 16.6427 42.6994C16.5215 42.5024 16.4356 42.3004 16.375 42.0882L13.4455 43.5833L3.86406 49.5837C2.71247 50.306 1.19721 49.9827 0.434531 48.8614C-0.328149 47.7401 -0.0604534 46.2148 1.03053 45.4117L7.6421 40.5225L7.63705 40.5124ZM14.2486 109.83L15.5063 101.946C14.8194 104.673 14.0062 107.886 13.0364 111.689L14.2486 109.83ZM43.1042 157.712C42.7254 157.505 42.4223 157.217 42.2203 156.879L41.9273 157.495C41.3465 158.728 39.8918 159.288 38.6443 158.743C38.4877 158.677 38.3513 158.606 38.22 158.515C38.2554 159.202 38.316 159.945 38.3665 160.43C38.7049 160.384 39.1797 160.309 39.6039 160.192C41.3313 159.728 42.1445 159.218 43.1042 157.712ZM66.0704 106.103L61.1761 118.806L66.7927 108.35C67.0149 107.946 67.318 107.623 67.6816 107.401C68.8686 105.517 70.1364 103.673 71.3132 101.789C72.1517 98.4255 73.1669 94.2636 74.4498 89.0612L67.7372 104.658C67.4241 105.396 66.7927 105.911 66.0704 106.103ZM80.4704 22.1828L77.152 26.5871L77.3086 26.9862C77.3288 27.1074 77.354 27.2286 77.3793 27.3498L78.6774 26.1528C79.2683 24.8294 79.8643 23.5061 80.4704 22.1828ZM36.2956 48.7857L43.2608 43.3156L35.0329 48.2705L30.8558 52.2909L36.2956 48.7857ZM67.0604 23.0768L70.101 19.2937C63.55 24.0062 58.8224 27.4559 54.7565 30.4915L67.0604 23.0768ZM37.8816 154.025C38.0533 153.591 38.22 153.162 38.3917 152.737C38.1745 152.853 37.9422 152.934 37.7149 152.985C37.7755 153.338 37.8311 153.687 37.8816 154.025ZM25.1989 77.7473L26.1535 74.8935C25.704 75.242 25.2342 75.5956 24.7595 75.9593L24.3604 78.52L25.1989 77.7473ZM28.0324 86.7832L30.8811 84.081L34.2955 78.8079L29.4416 82.3132L28.0324 86.7832ZM65.631 87.8288C67.1109 83.3285 68.3938 79.4039 69.5454 75.8986L69.3636 75.9694L68.3686 76.0855L67.7776 76.03L67.2321 75.8481L66.4442 75.2824L66.0553 74.7673L65.9088 74.4187L61.6812 79.6514C62.6661 80.3333 63.0399 81.6314 62.5298 82.7527C55.9637 97.3294 51.9785 105.987 48.6601 113.558L61.8681 88.647C62.5096 87.4449 63.9743 86.96 65.1966 87.556C65.3532 87.6318 65.4997 87.7227 65.631 87.8288ZM33.1944 70.4286L38.5332 65.5292C36.9472 66.7111 35.3107 67.9435 33.5581 69.2719L33.1944 70.4286ZM54.1858 58.0489C54.1858 58.0893 54.1959 58.1297 54.211 58.1701L57.787 55.5791C57.9284 55.175 58.0648 54.7659 58.2062 54.3567L54.1858 58.0489ZM26.2394 103.214L24.0826 106.588L25.0322 111.351C25.31 110.977 25.6939 110.679 26.1585 110.502C26.204 110.482 26.2646 110.467 26.3151 110.446C28.2142 106.199 29.8154 102.638 31.1589 99.6377L26.2394 103.214ZM65.8381 74.2723L65.8128 74.2117L65.631 73.0146C65.6108 71.8024 65.924 68.9739 66.4694 65.504L62.7722 70.7569L64.1663 75.0703L65.8381 74.2723ZM72.4497 60.0794C73.2881 58.0237 74.2427 55.6245 75.359 52.8314L73.3134 55.7558C73.0103 57.1751 72.7325 58.6399 72.4497 60.0794ZM56.8728 45.1541L56.8274 45.1844L56.8375 45.1995L56.8728 45.1541ZM50.236 85.7882L49.1349 86.5913C48.9379 87.0206 48.746 87.4499 48.5642 87.8843L50.2006 85.8438L50.236 85.7882Z" fill="var(--fill-0, #4375C4)"/>
</svg>
