<svg preserveAspectRatio="none" width="100%" height="100%" overflow="visible" style="display: block;" viewBox="0 0 49.2841 65.4349" fill="none" xmlns="http://www.w3.org/2000/svg">
<path id="Vector" fill-rule="evenodd" clip-rule="evenodd" d="M3.62959 11.7266C4.05386 10.7871 5.02363 10.1608 6.11461 10.2366C7.48339 10.3275 8.52387 11.5043 8.46326 12.8782L8.23597 17.4492C8.54912 17.1916 8.93804 17.0148 9.34716 16.934L11.1402 9.26174C11.4433 7.94852 12.7262 7.11008 14.0495 7.35252C15.3678 7.58991 16.2769 8.82737 16.0951 10.1658L15.8173 12.3276L20.9187 10.3073C21.4844 9.52439 22.4693 9.13547 23.4239 9.3173L34.7378 4.84729C34.955 4.76143 35.1722 4.71092 35.3894 4.68567L44.9153 0.235865C45.9154 -0.228813 47.0922 0.00857603 47.8448 0.811662C48.5822 1.62485 48.7186 2.8219 48.1731 3.77651L43.1222 12.6357C43.996 11.9791 45.2032 11.9336 46.1123 12.5852C47.1781 13.3428 47.4912 14.7874 46.8397 15.9137L44.6577 19.6564C44.7183 19.7726 44.7789 19.8887 44.8395 20.015C45.2284 20.8686 45.5315 21.6414 45.7588 22.3687C46.5568 22.0252 47.5165 22.1111 48.2691 22.6667C49.3348 23.4647 49.6025 24.9547 48.8752 26.071C44.294 33.0765 41.1827 37.0061 33.7681 48.7291C32.172 51.4616 30.389 54.5679 28.4394 58.1187C28.1717 58.6136 27.7626 58.9773 27.2878 59.1945C26.318 60.7653 25.3129 62.4371 24.2472 64.215C23.5249 65.407 21.9743 65.7909 20.7823 65.0737C19.5852 64.3565 19.1963 62.8008 19.9237 61.6088C20.1408 61.2401 20.3631 60.8764 20.5803 60.5178C20.3378 60.4825 20.0954 60.4067 19.8731 60.2956C19.0044 59.8764 18.4943 59.0329 18.4438 58.1338L18.0447 58.8207C17.5952 59.5986 16.777 60.0834 15.8678 60.0834L13.5646 56.5226L13.6959 56.2195C13.4182 56.1791 13.1404 56.0882 12.8727 55.9417C12.413 55.6892 12.0494 55.3053 11.8322 54.8659C11.7968 54.871 11.7564 54.876 11.7211 54.8811C11.6857 56.1993 11.6504 57.5227 11.6251 58.8409V58.846C11.5998 60.24 10.4482 61.3462 9.05421 61.3209C7.66522 61.2956 6.54899 60.144 6.57424 58.75V58.745L6.70556 52.0273L6.46312 53.4113C6.35705 53.9871 6.0641 54.4871 5.66509 54.8508L5.65498 54.9265L3.19522 56.8761C2.49315 56.8761 1.83654 56.5933 1.36681 56.0933C1.3062 56.0377 1.25569 55.9821 1.21023 55.9215C0.831415 55.4367 0.639482 54.8356 0.674839 54.2244L0.710195 53.487C0.230364 52.987 -0.0524848 52.295 0.0081255 51.5475L2.77094 13.459C2.82145 12.762 3.14471 12.1559 3.62959 11.7316V11.7266ZM41.1423 25.7023L40.8544 26.2074C40.8191 26.3993 40.7584 26.5963 40.6726 26.7832L40.0412 28.1923C40.117 28.2075 40.1877 28.2277 40.2584 28.253C40.7584 27.2781 41.0615 26.4801 41.1423 25.7023ZM15.1253 17.5199L13.6505 28.7782L18.166 17.1461L16.2517 17.5451C15.8678 17.6209 15.489 17.6108 15.1253 17.5199ZM22.4036 20.4191L22.3784 20.2726L22.1763 20.7878L22.4036 20.4191Z" fill="var(--fill-0, #4375C4)"/>
</svg>
