<svg preserveAspectRatio="none" width="100%" height="100%" overflow="visible" style="display: block;" viewBox="0 0 82.788 56.5419" fill="none" xmlns="http://www.w3.org/2000/svg">
<path id="Vector" fill-rule="evenodd" clip-rule="evenodd" d="M0.868776 12.6275C1.14657 11.9355 1.73247 11.4153 2.41939 11.188C2.11634 10.7183 1.97491 10.1475 2.03552 9.55658C2.182 8.28376 3.24773 7.314 4.53065 7.30389L14.5212 7.22308L4.5761 5.2583C3.23258 4.99565 2.34868 3.70264 2.58102 2.35406C2.82346 1.00043 4.08112 0.081173 5.4398 0.283207L12.0514 1.26812C12.5868 0.348869 13.6525 -0.161268 14.7283 0.045817L31.4921 3.32382C31.4315 2.78843 31.5426 2.22274 31.8558 1.7328C32.5831 0.545851 34.1337 0.172089 35.3207 0.904462C36.5177 1.64189 37.043 2.0005 40.8817 5.15223L49.1297 6.7685C50.4732 7.03115 51.3723 8.32417 51.1248 9.67275C50.9329 10.8243 49.9884 11.6628 48.8721 11.7638C48.9226 11.8042 48.9731 11.8446 49.0186 11.88C49.2257 11.8951 49.4328 11.9355 49.6399 12.0012C50.4126 11.7789 51.2864 11.9406 51.938 12.481L53.428 13.7084C62.7418 15.7388 68.1715 16.5924 71.7323 17.4662C76.7731 18.7037 78.5863 19.9815 81.4199 23.7394C82.5866 25.2849 82.9452 26.5881 82.728 27.8205L82.526 28.5781L82.1977 29.2549C81.9906 29.6085 81.7128 29.9822 81.3491 30.3661C80.6117 31.1338 79.3844 32.0531 77.5105 33.235C76.1518 34.0936 74.3941 35.1291 72.1768 36.4221C72.1768 36.4372 72.1667 36.4473 72.1667 36.4574C72.1566 36.5079 72.1313 36.5534 72.1162 36.5989C71.7172 37.5383 70.8131 38.1495 69.7827 38.1495L69.4443 38.0282C64.449 40.9476 57.6556 44.958 48.559 50.6756C47.3973 51.3979 45.882 51.0746 45.1193 49.9382C45.0335 49.8068 44.9527 49.6705 44.887 49.529L43.3263 50.4735C43.1546 50.5796 42.9727 50.6604 42.7909 50.721L42.4525 51.1453L40.1644 55.2466C39.5331 56.383 38.1391 56.8528 36.942 56.3275C36.7703 56.2517 36.6137 56.1558 36.4571 56.0446C36.2147 55.9739 35.9874 55.8578 35.755 55.7062C34.6742 54.9486 34.3509 53.4839 35.0277 52.3474L36.25 50.2715C35.8409 49.9988 35.4975 49.5997 35.3055 49.1098L34.4822 47.0794C34.3964 47.1854 34.2903 47.2814 34.1792 47.3673C34.1893 48.4532 33.4923 49.4583 32.4013 49.7967C31.8911 49.9533 31.3709 49.9382 30.8961 49.7866L30.8507 49.8826L30.9466 50.0341L28.7748 53.8627C27.9161 53.8627 27.1332 53.4283 26.6585 52.7111L17.3295 38.3161L0.505114 16.0621C-0.161599 15.1681 -0.1717 13.9306 0.495012 13.0316C0.601081 12.8851 0.737453 12.7487 0.868776 12.6325V12.6275ZM61.7367 20.5775L61.9084 20.7139C62.4286 20.7442 62.9388 20.9362 63.363 21.2897C63.6913 21.5574 63.9287 21.8908 64.0752 22.2544L64.8884 22.7242C65.4339 23.0373 65.8228 23.5373 66.0147 24.1081L69.4796 26.9618C69.5756 27.0477 69.6716 27.1335 69.7574 27.2295L71.3333 26.2648C72.1061 25.785 73.0405 25.7799 73.788 26.1638L75.8235 24.9415C74.4901 23.6384 73.1011 23.007 70.5302 22.3706C68.4088 21.8554 65.6258 21.3402 61.7367 20.5775ZM18.6377 23.2141L18.7741 23.5171L18.7488 23.2595L18.6427 23.2141H18.6377ZM24.5017 35.0684C24.83 35.4877 25.1836 35.917 25.5321 36.3615C25.6432 36.4928 25.7392 36.6241 25.8503 36.7605L24.2947 31.5631L24.5017 35.0684ZM49.2004 28.3003L49.7611 27.3558L49.5792 27.179L49.2004 28.2952V28.3003ZM29.3607 12.1527L26.1382 12.178L29.6031 12.9659L29.4819 12.2083L29.3607 12.1527ZM30.3759 28.0629C30.4971 27.775 30.6234 27.4922 30.7395 27.2093C30.5628 27.2295 30.3658 27.2396 30.1486 27.2295L30.3759 28.0629ZM30.9618 21.6988C31.2497 21.5524 31.5275 21.3958 31.7245 21.2998L33.0074 20.8503L33.9771 20.82L34.0277 20.8301L32.972 17.8854C32.5377 18.2592 31.9669 18.4814 31.3507 18.4814C31.2749 18.4814 31.2042 18.4814 31.1335 18.4713L28.2949 18.2339L29.8001 21.9463L30.5022 22.2393C30.7193 22.3302 30.9264 22.4565 31.1083 22.5979L30.9618 21.6988ZM53.9381 36.9272L57.9839 34.4472C57.4283 34.4219 56.8828 34.2199 56.4333 33.836L53.9381 36.9272ZM61.5195 32.2753L60.575 31.5126C60.6608 32.0177 60.5901 32.5279 60.3679 32.9774L61.5195 32.2753ZM38.23 16.1681L37.6239 15.8954L39.9119 22.2999L41.811 19.6482L38.2249 16.1681H38.23Z" fill="var(--fill-0, #4375C4)"/>
</svg>
