<svg preserveAspectRatio="none" width="100%" height="100%" overflow="visible" style="display: block;" viewBox="0 0 109.979 188.032" fill="none" xmlns="http://www.w3.org/2000/svg">
<g id="Group">
<path id="Vector" fill-rule="evenodd" clip-rule="evenodd" d="M2.77318 38.5975L104.174 0.276662C105.619 -0.26883 107.25 0.00391629 108.432 0.993884C109.614 1.9788 110.185 3.53446 109.912 5.05477C107.356 19.2931 106.336 18.9598 103.497 33.1426C102.982 35.7236 98.194 66.958 93.9715 85.823C88.9812 108.027 78.6421 140.554 69.9597 160.752C65.9342 170.102 62.0753 176.905 59.3024 179.436C50.7563 187.259 43.2558 189.234 36.9776 187.391C30.8863 185.603 25.4667 179.875 21.133 170.531C9.9757 146.489 4.59149 96.8743 0.0154088 42.9766C-0.146219 41.0623 0.980122 39.2743 2.77318 38.5975ZM8.84936 45.4869C13.2537 96.8894 18.2389 143.913 28.9063 166.914C31.9217 173.42 35.1542 177.91 39.3969 179.153C43.4578 180.345 47.9733 178.173 53.5141 173.097C55.8223 170.991 58.7215 165.147 62.0753 157.358C70.586 137.569 80.7231 105.698 85.6022 83.9441C89.8096 65.1498 94.5675 34.0315 95.0877 31.4606C97.2899 20.4397 98.3859 18.2375 99.9769 11.04L8.84936 45.4869Z" fill="var(--fill-0, #4356B1)"/>
</g>
</svg>
