<svg preserveAspectRatio="none" width="100%" height="100%" overflow="visible" style="display: block;" viewBox="0 0 66.5633 76.8419" fill="none" xmlns="http://www.w3.org/2000/svg">
<path id="Vector" fill-rule="evenodd" clip-rule="evenodd" d="M4.13063 6.86407L61.7609 0.0302588C63.2408 -0.146521 64.7106 0.459581 65.6349 1.63138C66.5592 2.80318 66.8168 4.36894 66.3016 5.76803C57.6849 29.3505 52.1138 47.2659 45.4012 59.004C40.3604 67.8279 34.5822 73.3939 26.9605 75.8385C22.8036 77.1669 19.2428 77.0962 16.1971 76.0961C11.7423 74.6263 8.23698 71.0554 5.7469 65.954C-1.99606 50.0994 0.312182 17.7487 0.352589 11.1017C0.36774 8.93492 1.98402 7.11156 4.13063 6.85901V6.86407ZM8.80267 14.9555C8.46427 23.6935 7.69148 42.2099 11.1261 55.5897C13.207 63.6912 16.5658 70.1513 24.3341 67.6612C30.0718 65.8227 34.163 61.3729 37.9512 54.7411C43.8506 44.4121 48.7954 29.1585 55.8767 9.37939L8.80267 14.9555Z" fill="var(--fill-0, #4356B1)"/>
</svg>
