<svg preserveAspectRatio="none" width="100%" height="100%" overflow="visible" style="display: block;" viewBox="0 0 100.212 74.2105" fill="none" xmlns="http://www.w3.org/2000/svg">
<path id="Vector" fill-rule="evenodd" clip-rule="evenodd" d="M38.7286 72.4954C15.53 41.5589 6.59003 28.9166 3.08473 23.4415C0.0239124 18.6533 0.271405 17.9664 0.135032 17.1936C-0.587241 13.2236 1.59978 9.44053 6.41325 6.70297C13.6158 2.60167 27.4905 0.450009 34.3394 0.0560429C41.8652 -0.383382 49.1384 1.77333 57.1693 6.10192C68.16 12.0114 80.7871 22.1434 98.3995 34.614C99.5915 35.4524 100.273 36.8364 100.208 38.291C100.152 39.7457 99.3642 41.074 98.0964 41.8115L44.3553 73.6116C42.4663 74.7279 40.0469 74.243 38.7286 72.4954ZM8.60027 15.8097C8.68108 16.1632 8.89827 16.6127 10.3125 18.8099C13.6562 24.0476 22.0406 35.8818 43.2946 64.2625L88.0705 37.7758C76.206 29.2247 66.7609 21.9869 58.4472 16.7895C49.7749 11.3548 42.5168 8.18287 34.8294 8.62734C29.6926 8.92534 19.9849 10.2537 13.343 12.9004C11.848 13.4913 10.5297 14.1429 9.52457 14.8955C9.17101 15.1581 8.73664 15.648 8.60027 15.8097Z" fill="var(--fill-0, #4356B1)"/>
</svg>
