<svg preserveAspectRatio="none" width="100%" height="100%" overflow="visible" style="display: block;" viewBox="0 0 78.8017 67.5995" fill="none" xmlns="http://www.w3.org/2000/svg">
<path id="Vector" fill-rule="evenodd" clip-rule="evenodd" d="M44.5878 1.07928C46.3556 -0.491536 49.0729 -0.329909 50.6336 1.44799C52.2095 3.22084 52.0479 5.9382 50.27 7.50902C28.3493 26.9245 25.3844 28.8994 8.76708 37.4404C10.3985 53.3001 20.8891 62.4068 33.2688 57.7196C55.24 49.3907 64.6599 36.8191 71.4684 29.9298C73.1251 28.2428 75.8425 28.2276 77.5295 29.8944C79.2114 31.5561 79.2265 34.2785 77.5699 35.9655C70.2411 43.3852 59.9828 56.7801 36.2993 65.7504C26.7986 69.3517 17.8435 67.5283 11.1309 61.7097C4.82236 56.2447 0.463474 47.032 0.00384597 35.0766C-0.0668667 33.4048 0.842288 31.8491 2.33734 31.0864C20.48 21.7928 22.5206 20.6261 44.5878 1.07928Z" fill="var(--fill-0, #4356B1)"/>
</svg>
