<svg preserveAspectRatio="none" width="100%" height="100%" overflow="visible" style="display: block;" viewBox="0 0 40.7663 28.8909" fill="none" xmlns="http://www.w3.org/2000/svg">
<path id="Vector" fill-rule="evenodd" clip-rule="evenodd" d="M1.12845 1.93516C1.1506 1.92213 1.17275 1.9104 1.1975 1.89998C1.25743 1.87262 1.31606 1.85568 1.3786 1.84787L1.32258 1.69022C1.21053 1.37233 1.35645 1.02056 1.66262 0.878547C1.8346 0.799074 2.02221 0.801679 2.18767 0.869427L2.26844 0.817313L2.49123 0.770411L2.69447 0.795165L2.85994 0.869427L2.99152 0.976261L3.08793 1.10524C3.16611 1.23553 3.46837 1.84526 3.76802 2.45499C3.95303 2.825 4.1719 3.25885 4.29307 3.50509C4.34909 3.56241 4.39339 3.63146 4.42466 3.70833C4.46244 3.80735 4.48068 3.86988 4.4898 3.89855L4.50934 4.07964L4.47547 4.22165C4.61227 4.52001 4.766 4.85484 4.94058 5.23266L3.7589 1.39187C3.66249 1.07397 3.81883 0.731325 4.12761 0.601041C4.33085 0.515053 4.55364 0.539807 4.72822 0.649246C4.72822 0.421248 4.84938 0.20237 5.05914 0.0851134C5.34316 -0.0764393 5.70014 -0.0021774 5.89557 0.258392L6.47664 1.02447C6.49227 0.982775 6.51442 0.942387 6.53918 0.904604C6.70464 0.662274 7.01211 0.55935 7.28962 0.65576C8.02051 0.90721 8.66412 1.12869 9.24519 1.32542C9.39241 1.24725 9.5709 1.22771 9.73897 1.28113L19.9285 4.48483C20.266 4.59166 20.4562 4.95125 20.3559 5.29259C20.2569 5.63264 19.8999 5.82937 19.5559 5.73426C19.0439 5.59095 18.5723 5.45936 18.1371 5.33819L18.3195 5.42548L18.1032 6.36223L18.2218 6.41956C18.1879 6.26712 18.2062 6.10036 18.2883 5.95444C18.4602 5.64697 18.8407 5.53101 19.1533 5.69126L20.0119 6.13423C20.0119 6.02479 20.038 5.91275 20.0966 5.81113C20.2647 5.50626 20.6438 5.389 20.9565 5.54535L34.6729 12.4322C34.9842 12.5898 35.1197 12.9703 34.9686 13.2895C34.8188 13.61 34.4449 13.752 34.1191 13.6113L34.0696 13.5891C34.0657 13.6022 34.0605 13.6165 34.0566 13.6295L33.9289 13.9656L35.0624 14.4151C35.1718 14.3917 35.2852 14.3956 35.3972 14.4321C35.5757 14.1949 35.8975 14.1037 36.1789 14.2262C36.4499 14.3448 36.6037 14.6327 36.5633 14.918L37.1404 15.1617C37.2069 15.1695 37.2694 15.1877 37.332 15.2164C37.3815 15.2385 37.4258 15.2646 37.4623 15.2972L40.365 16.514C40.6972 16.6521 40.8523 17.0299 40.7181 17.3609C40.6125 17.6214 40.3559 17.7765 40.0901 17.7661L39.5025 18.0892C39.496 18.1087 39.4895 18.1282 39.4804 18.1478C39.3488 18.4448 39.027 18.596 38.7221 18.5178L37.8127 19.0168C38.0746 19.0077 38.3247 19.1562 38.4342 19.4102C38.5775 19.7412 38.4251 20.1242 38.0928 20.2662L34.0879 21.9912C34.0188 22.0381 33.9407 22.0707 33.8625 22.0876L30.3318 23.6067L30.0816 24.0562C29.9162 24.3559 29.5475 24.4757 29.2387 24.3311C29.154 24.292 29.0823 24.236 29.0224 24.1695L28.7671 24.2803C28.741 24.292 28.7136 24.3024 28.685 24.3103L27.4329 24.8483C27.3548 24.9017 27.2675 24.9395 27.1763 24.9578L27.1268 24.9799L23.17 27.0215L23.8201 27.8305C24.0299 28.0911 24.0078 28.4676 23.7706 28.7021C23.5322 28.938 23.157 28.9549 22.8977 28.7412C14.4748 21.7736 14.4305 21.9182 13.8065 21.2108C11.8313 18.9803 10.5194 16.2183 8.54686 13.9878C8.31626 13.7272 8.32929 13.3325 8.57813 13.0901C8.75011 12.9221 8.99113 12.8686 9.21001 12.9286C8.81916 12.3879 8.4283 11.8498 8.02833 11.3183C7.99055 11.4212 7.92931 11.515 7.84072 11.588C7.89414 11.7 7.94365 11.8133 7.99706 11.928C7.99706 11.9306 8.00097 11.9319 8.00097 11.9332C8.14689 12.2602 8.00749 12.6446 7.67917 12.7957C7.35346 12.9455 6.96912 12.8035 6.81668 12.4778V12.4739L6.19783 11.1476C6.1848 11.1802 6.16917 11.2114 6.15093 11.2427C6.14181 11.2544 6.13529 11.2661 6.12617 11.2792C6.00371 11.4485 5.80698 11.5489 5.59852 11.5489L5.01354 11.1854L4.18623 9.49949C3.93609 9.51773 3.68855 9.39135 3.56478 9.15814L0.0770551 2.6882C-0.0884065 2.37812 0.0210328 1.99248 0.324596 1.81529C0.592983 1.66026 0.927814 1.71628 1.12715 1.93646L1.12845 1.93516ZM18.3208 23.0673L13.2306 18.3419C13.7153 19.035 14.2208 19.7112 14.7836 20.3444C15.2396 20.8629 15.3868 20.9098 18.8485 23.7279L18.3208 23.0686V23.0673ZM32.884 13.0732L32.1466 12.7527C32.1466 12.81 32.1401 12.866 32.1245 12.9234C32.23 12.9169 32.3369 12.9351 32.4359 12.9807C32.5831 13.0471 32.6951 13.1631 32.7577 13.2999L32.8801 13.0797C32.8801 13.0797 32.8827 13.0758 32.8827 13.0732H32.884ZM25.5073 22.0772L25.2572 21.8557L24.6566 22.8693L25.5073 22.0772ZM29.2178 12.328L29.8654 12.9585C29.9057 12.969 29.9461 12.9833 29.9865 13.0028C30.4308 13.2178 30.8308 13.4119 31.1956 13.5904C31.2737 13.5813 31.3519 13.5878 31.4301 13.6074L31.5213 13.4158C31.4118 13.4211 31.2985 13.3976 31.1956 13.3442L29.2178 12.328ZM14.3615 6.89509C14.1686 7.18954 13.7713 7.27553 13.4716 7.08531V7.08401L12.8397 6.68403L14.4865 8.04811L14.6338 7.5374L17.3984 9.29494L14.3615 6.89509ZM23.1127 11.9006L23.9061 12.7162L23.4944 12.1208L23.1127 11.9006ZM9.33769 9.42913L10.5936 10.801L9.45234 9.05L9.50576 9.17768L9.33769 9.42913ZM7.91889 5.22615C7.93062 5.22224 7.94365 5.21833 7.95667 5.21442L7.86938 5.09977L7.91889 5.22615ZM21.7265 24.4301L22.2229 23.3722C22.1108 23.2732 21.9975 23.1755 21.888 23.0791C21.7004 23.2393 21.4346 23.2862 21.1975 23.1807C20.8887 23.0426 20.7389 22.6908 20.847 22.3716L20.9005 22.2205C20.5917 21.9495 20.2972 21.6941 20.0197 21.4518C20.0002 21.5886 19.9351 21.7202 19.8295 21.8231C19.6601 21.9834 19.4256 22.0368 19.2172 21.9834C19.9442 22.6934 20.7754 23.5051 21.7265 24.4314V24.4301ZM22.8886 14.3304L22.813 14.7187L23.0723 14.948L23.2664 14.5702L22.8873 14.3304H22.8886ZM12.3746 6.39089L12.2274 6.29709L12.2965 6.37786C12.3238 6.38047 12.3499 6.38438 12.3746 6.38959V6.39089ZM29.425 15.219L29.2087 15.8131L29.5774 15.8965L29.8054 15.4913L29.425 15.219ZM17.586 15.3545L17.6642 15.1317L16.6923 14.2744L17.586 15.3545ZM16.6206 16.23L17.0271 16.957L17.0831 16.7928L16.6206 16.23ZM20.4575 18.8305L20.1018 17.3557L19.6953 17.9094L20.4575 18.8305Z" fill="var(--fill-0, #4375C4)"/>
</svg>
