<svg preserveAspectRatio="none" width="100%" height="100%" overflow="visible" style="display: block;" viewBox="0 0 47.5475 31.7456" fill="none" xmlns="http://www.w3.org/2000/svg">
<g id="Group">
<path id="Vector" fill-rule="evenodd" clip-rule="evenodd" d="M23.6405 31.5281C23.1363 31.1542 6.98748 14.8947 2.8796 9.72369C2.14349 8.79997 0.986563 7.38117 0.40419 5.96367C-0.0895891 4.75202 -0.174274 3.53517 0.393767 2.49419C0.940963 1.48839 2.17737 0.547737 4.66711 0.107375C6.97705 -0.301719 10.3071 0.477384 14.2951 2.12027C23.0516 5.72525 35.2645 13.4238 46.9719 19.8325C47.3432 20.0344 47.5646 20.4279 47.5464 20.85C47.5295 21.2708 47.2767 21.6447 46.8911 21.8154L24.7492 31.6506C24.3844 31.8122 23.9597 31.7653 23.6405 31.5281ZM24.5147 29.3315L43.9584 20.6963C34.5844 15.4836 25.0397 9.6364 17.3347 5.91547C12.1051 3.39055 7.79654 1.80238 5.04884 2.28834C3.52711 2.55673 2.67245 2.93976 2.33631 3.55471C2.07965 4.02634 2.22687 4.57353 2.45227 5.12334C2.95256 6.3441 3.9766 7.54924 4.61108 8.34397C8.29553 12.9847 21.853 26.7402 24.5147 29.3315Z" fill="var(--fill-0, #4356B1)"/>
</g>
</svg>
