<svg preserveAspectRatio="none" width="100%" height="100%" overflow="visible" style="display: block;" viewBox="0 0 96.7648 46.3903" fill="none" xmlns="http://www.w3.org/2000/svg">
<path id="Vector" fill-rule="evenodd" clip-rule="evenodd" d="M1.21834 37.3559C1.09848 37.0927 1.16753 36.7722 1.39944 36.582C1.55317 36.4569 1.703 36.3344 1.84631 36.2172C1.65219 36.208 1.46197 36.1103 1.34211 35.9371C1.14017 35.6439 1.20792 35.2413 1.49976 35.0355L12.4697 27.2353L12.4723 27.2327C12.6756 27.0894 12.9283 27.0777 13.1342 27.178C15.7529 25.5573 18.2596 23.7541 20.9395 22.2389C24.5484 20.1974 36.2089 15.0511 40.18 14.1313C41.4047 13.4486 42.6293 12.7698 43.8736 12.1262C50.0686 8.92121 54.1869 7.63791 54.7211 7.40731C54.7901 7.37734 54.8592 7.3604 54.9308 7.35389L62.1017 2.95417C62.4013 2.76917 62.7961 2.85776 62.9863 3.15481C63.1791 3.45056 63.1023 3.84662 62.8117 4.04596L59.7839 6.13051L67.5919 2.56071C67.8694 2.43434 68.1951 2.51902 68.3762 2.75093C68.6537 2.648 68.9729 2.74832 69.1423 2.99977C69.2986 3.23429 69.2817 3.54045 69.1162 3.75803C72.1975 2.24933 73.2593 1.80506 78.2492 0.0370985C78.5619 -0.0736434 78.9123 0.0709724 79.053 0.37193C79.1494 0.57778 79.1312 0.809687 79.0218 0.992085L80.193 0.560843C80.5148 0.442284 80.8705 0.592111 81.0112 0.900886C81.0738 1.04159 81.0868 1.19272 81.049 1.33083L82.5147 0.867012C82.843 0.762784 83.1961 0.933457 83.3212 1.25656C83.3212 1.26308 83.3238 1.26959 83.3264 1.2748L83.6299 1.16797C83.9517 1.05202 84.3074 1.20706 84.4455 1.52234C84.5797 1.83763 84.4481 2.20373 84.1459 2.36008L83.3928 2.74832L83.6716 2.66364C83.9869 2.56723 84.3244 2.72227 84.4546 3.02453C84.5458 3.23298 84.5211 3.4675 84.4025 3.64729L84.6553 3.55479C84.9172 3.45707 85.2077 3.54176 85.3797 3.75021C85.4709 3.75542 85.5647 3.76064 85.6585 3.76585L85.8643 3.55218C86.0702 3.33851 86.3959 3.29161 86.6552 3.43883C86.8389 3.54306 86.9587 3.72676 86.9796 3.9287C87.1268 4.02642 87.2323 4.18276 87.261 4.36646C87.3105 4.66872 87.1424 4.96447 86.8584 5.07651L86.6981 5.13905L86.6955 5.14817L87.4395 5.57159L87.6727 5.15598L87.5893 5.03091L87.7079 5.09345L87.8759 4.79119C87.8759 4.79119 87.8798 4.78728 87.8798 4.78467L87.4173 4.08114C87.2297 3.79451 87.2949 3.41017 87.5671 3.20302C87.842 2.99586 88.229 3.03756 88.4544 3.29682L90.3135 5.44913C90.3696 5.26933 90.5038 5.1156 90.6914 5.04133C91.0041 4.91626 91.3597 5.04915 91.5122 5.34881L92.3694 7.02427L92.2352 6.04713C92.1883 5.70448 92.4163 5.38529 92.7564 5.31884C93.0938 5.2524 93.4287 5.46346 93.512 5.79959L94.6872 10.4612C94.7523 10.5667 94.7875 10.6918 94.7836 10.826V10.8416L95.0494 11.893C95.3491 11.979 95.5458 12.2695 95.5158 12.5835L95.4025 13.7157C95.594 13.5672 95.8559 13.5294 96.0839 13.6375C96.3835 13.7782 96.5307 14.1222 96.4252 14.4362L96.3991 14.5039C96.4343 14.5195 96.4656 14.5378 96.4969 14.5612C96.777 14.7645 96.8486 15.1553 96.6584 15.4472L90.2601 25.1768C90.0621 25.4752 89.666 25.5599 89.3664 25.3684C89.0667 25.1768 88.9755 24.7808 89.1605 24.4772L89.5292 23.8818C89.498 23.8987 89.4693 23.9157 89.4419 23.9326L88.5847 24.7834C88.3879 24.9788 88.0974 25.0231 87.8577 24.9137L86.0076 26.6842C85.7536 26.9266 85.3575 26.9266 85.1048 26.6829C85.0487 26.6282 85.0044 26.5644 84.9706 26.4966C83.2143 27.4738 81.5584 28.3401 80.6334 28.6932C80.2829 28.8261 80.008 28.8913 79.836 28.9004L79.6146 28.8847C72.6157 31.4774 70.9663 32.0976 63.273 34.9C63.1948 34.9821 63.0958 35.0459 62.9798 35.0798C62.6111 35.1892 62.2515 35.2961 61.905 35.399C61.1949 35.6556 60.4393 35.9305 59.6302 36.225C59.4712 36.2836 59.2993 36.2745 59.152 36.212C55.7282 37.2282 53.4599 37.9148 51.3128 38.5988C47.8733 39.7857 45.1178 40.7498 38.3899 42.9763C38.0629 43.0858 37.7085 42.9177 37.5808 42.5998C36.4004 42.975 35.0845 43.3932 33.5785 43.8688C33.4755 43.9027 33.3661 43.9066 33.2658 43.8883C33.0912 43.9522 32.9127 44.0173 32.7342 44.0838C32.4007 44.2062 32.0281 44.0356 31.9004 43.7007C31.8782 43.6369 31.8626 43.5717 31.86 43.5079C29.3664 44.0694 27.5854 44.403 25.6611 44.7C24.7738 44.9059 23.7797 45.1404 22.6554 45.4101C22.5212 45.4426 22.3831 45.4296 22.2645 45.3814C20.989 45.6498 19.6966 45.9182 17.9091 46.3703C17.5717 46.4562 17.2251 46.2582 17.1248 45.9221C17.0558 45.6824 17.1274 45.4348 17.2968 45.2707C15.8441 45.4596 14.8096 45.4843 14.0032 45.44C9.82625 46.2751 7.98924 46.1162 6.81407 46.3325C6.47924 46.3937 6.15483 46.1866 6.06754 45.8569C5.98025 45.5273 6.16134 45.1873 6.48315 45.0752C7.16453 44.8394 7.8329 44.5684 8.49474 44.2857C8.07913 44.2544 7.66092 44.2401 7.24531 44.2622C7.01731 44.274 6.80755 44.1658 6.67988 43.9913C6.39586 44.0264 6.10141 44.0629 5.79524 44.0981C5.23632 44.2896 4.68391 44.4876 4.13281 44.7C3.81101 44.8251 3.44621 44.6739 3.3055 44.3574C3.16479 44.0421 3.29247 43.6721 3.59864 43.5144L3.59213 43.4831L3.61428 43.2604L3.68593 43.0845L3.73284 43.0206C3.50223 43.0675 3.25209 42.9855 3.09183 42.7861C2.94201 42.5959 2.91465 42.3471 3.00194 42.136C2.90162 42.093 2.81172 42.0253 2.74267 41.9341C2.70489 41.8819 2.67362 41.8272 2.65147 41.7699C2.35182 41.9301 2.03262 42.0982 1.69909 42.278C1.40204 42.437 1.03334 42.3445 0.848332 42.063C0.66463 41.7816 0.724561 41.4064 0.986434 41.1953C1.71082 40.6156 2.35833 40.0983 2.94201 39.6319C2.92637 39.6137 2.91074 39.5941 2.8951 39.5746C2.85472 39.5186 2.82345 39.46 2.8026 39.3974C2.53291 39.6007 2.24889 39.8169 1.94533 40.0449C1.66391 40.2573 1.26133 40.2065 1.04246 39.9277C0.914777 39.7648 0.876994 39.559 0.921291 39.3727C0.652905 39.4951 0.331101 39.4222 0.139583 39.185C-0.0688725 38.9193 -0.0415126 38.5349 0.206028 38.3043L1.21834 37.3559ZM5.592 41.9627C5.55812 41.8911 5.53858 41.8155 5.53207 41.7399C5.28583 41.9275 5.02656 42.1243 4.75166 42.3301C4.98878 42.2194 5.2741 42.0956 5.592 41.9627ZM82.4769 26.3715C82.4144 26.3416 82.3584 26.3012 82.3049 26.2517C82.0991 26.0497 82.0548 25.741 82.176 25.4934C82.0144 25.6836 81.8607 25.8804 81.7108 26.0836C81.6887 26.1279 81.6574 26.1696 81.6236 26.2074C81.4698 26.4237 81.3226 26.6451 81.1793 26.8679C81.4516 26.7846 81.7291 26.6973 82.017 26.6074C82.0235 26.6048 82.0261 26.6035 82.0326 26.6022C82.176 26.5279 82.3258 26.451 82.4756 26.3715H82.4769ZM94.0149 17.0979C93.9928 17.1174 93.9745 17.137 93.9524 17.1539C93.9563 17.1617 93.9589 17.1695 93.9628 17.1774L94.0149 17.0979ZM86.3386 6.4445L86.1822 7.01385L86.6408 6.9917L86.8011 6.70637L86.3386 6.4445ZM79.268 27.4646C79.3305 27.3695 79.3892 27.2744 79.4517 27.178L77.3124 28.0692C77.9157 27.8842 78.5619 27.6835 79.268 27.4646ZM61.2522 33.6167C60.3989 33.9268 59.4673 34.2655 58.4498 34.6381C59.2016 34.4375 60.008 34.2212 60.877 33.9854C60.9682 33.9619 61.0581 33.9567 61.1454 33.9711C61.1767 33.9541 61.2079 33.9359 61.2392 33.9189C61.221 33.8173 61.2236 33.7131 61.2522 33.6167ZM85.82 8.33624L85.7575 8.56554L85.8891 8.33233L85.82 8.33624ZM61.9167 7.86591C62.0743 7.92323 62.2072 8.03919 62.2828 8.20204C62.2854 8.20595 62.2893 8.21116 62.2893 8.21637C62.3518 8.19032 62.4131 8.16296 62.4769 8.1369L63.2612 7.41252C62.8104 7.55844 62.361 7.70826 61.9167 7.86591ZM14.1191 28.3206C14.1595 28.3545 14.1934 28.3923 14.2247 28.4366C14.2911 28.5252 14.3276 28.6242 14.3406 28.7258C14.5751 28.5616 14.8188 28.391 15.0689 28.2151C15.2279 28.103 15.422 28.0731 15.5966 28.1161C16.4994 27.4972 17.4805 26.8315 18.9149 25.9559C17.4219 26.6907 15.8246 27.4764 14.1191 28.3206ZM13.1694 31.7341C13.7153 31.3119 14.3849 30.8064 15.1875 30.228C14.5334 30.568 13.8429 30.925 13.1185 31.3015C13.1876 31.4383 13.2032 31.5908 13.1694 31.7341ZM57.3333 34.0232C57.1183 34.1105 56.8994 34.1991 56.6779 34.289C56.8838 34.3489 57.0532 34.5078 57.1209 34.7267C57.147 34.8127 57.1522 34.9 57.1431 34.9847C57.4088 34.9143 57.6811 34.8427 57.9586 34.7684C57.7059 34.7619 57.4688 34.6068 57.3711 34.3567C57.3281 34.2473 57.315 34.1326 57.3333 34.0232ZM92.0659 16.3357C92.0568 16.2797 92.0437 16.2237 92.0307 16.1663L91.1252 17.2008L92.0659 16.3357ZM93.228 13.2779L93.2059 13.119C92.9245 13.2362 92.5961 13.1398 92.4216 12.8845L91.8965 12.1197L92.6548 13.7587C92.8085 13.8056 92.9427 13.9072 93.0274 14.0544C93.0925 14.1678 93.1212 14.2929 93.1121 14.414C93.1147 14.4153 93.1147 14.4153 93.1147 14.4166L93.2267 13.2779H93.228ZM22.83 35.1619C22.787 35.0524 22.77 34.9313 22.7922 34.8075L22.886 34.2655C22.7205 34.3619 22.5577 34.4596 22.3922 34.5573C22.1772 34.7033 21.9701 34.8427 21.7773 34.9782C21.9297 35.0381 22.0639 35.1566 22.1356 35.3221C22.1577 35.3703 22.1733 35.4211 22.1825 35.4706L22.83 35.1606V35.1619ZM23.2586 39.4378C23.2586 39.4117 23.2612 39.3883 23.2677 39.3635C23.2547 39.3688 23.2391 39.3727 23.2273 39.3779C23.0931 39.4404 22.9616 39.5016 22.8365 39.5616C22.9798 39.5186 23.1205 39.4782 23.2586 39.4378ZM91.4066 14.1587L91.3259 13.9802L90.978 14.3606L91.4066 14.1587ZM69.0941 8.17338C68.8478 8.38314 68.6068 8.58508 68.3762 8.78051C68.4036 8.76617 68.4283 8.74924 68.4544 8.7336C68.457 8.7336 68.457 8.7336 68.457 8.7323C68.5039 8.70494 68.5508 8.6841 68.6003 8.66976L69.2791 8.11084L69.0941 8.17338ZM34.4618 40.497C34.9464 40.3798 35.465 40.2547 36.0278 40.1192C36.859 39.8443 37.7437 39.5485 38.6869 39.228C39.4751 38.961 40.0432 38.7747 40.7832 38.5545C40.6334 38.4932 40.5057 38.3747 40.434 38.2144C40.4275 38.1962 40.4184 38.1766 40.4119 38.1584C38.4928 38.703 36.4591 39.2958 33.9341 40.0423C34.1778 40.0788 34.3875 40.2534 34.4631 40.497H34.4618ZM84.5953 15.4563C84.5263 15.3026 84.5172 15.1241 84.5823 14.9573L84.7074 14.629L83.7759 15.0264C83.5791 15.5019 83.3798 15.9787 83.17 16.4478L84.5953 15.4563ZM87.3821 13.5177L87.4812 13.446L87.4004 13.4812C87.3952 13.4929 87.3887 13.5046 87.3821 13.5177ZM88.8387 11.4526L88.7228 10.3478L88.3124 11.0618L88.384 11.1986L88.4257 11.3354L88.4192 11.5907L88.3997 11.639L88.8374 11.4526H88.8387ZM80.7806 18.1089C81.2926 17.378 81.6952 16.5793 82.0574 15.7573L81.4555 16.0152C81.2861 16.126 81.1207 16.2341 80.9578 16.3435L75.7594 21.624C75.7933 21.6122 75.8272 21.6018 75.8585 21.5914C75.9054 21.5224 75.9627 21.4611 76.0343 21.4116L80.7806 18.1089ZM75.3933 23.9795C74.6585 24.3795 73.9003 24.7964 73.116 25.2303C72.518 25.5586 71.9747 25.8582 71.4653 26.1331C72.3655 25.8165 73.3752 25.4609 74.5061 25.0596C74.7875 24.6883 75.0833 24.33 75.3933 23.9795ZM78.4459 8.6854C77.8023 9.34985 77.1339 10.0873 76.4565 10.9002C77.302 10.4833 77.9899 10.1654 78.4772 9.94134C78.6739 9.75504 78.8811 9.557 79.0986 9.34594L79.5299 8.63328L78.4459 8.6854ZM24.5054 34.3645L24.5015 33.9502L24.3074 34.4583L24.5054 34.3632V34.3645ZM39.5338 19.9081C38.9175 20.2521 38.3273 20.5869 37.7619 20.9165L39.0739 20.2664C39.2302 20.1465 39.3839 20.0267 39.5338 19.9081ZM27.9137 31.282L28.2107 32.121C28.6381 31.536 29.0563 30.9458 29.4823 30.3609C28.9599 30.667 28.4387 30.9745 27.9137 31.282ZM60.7767 29.9361C60.8106 29.9244 60.8484 29.9114 60.8835 29.8997C61.4985 29.6039 62.0483 29.3446 62.5577 29.1049C62.5733 29.0867 62.589 29.0697 62.6046 29.0541C62.6293 29.0307 62.6515 29.0072 62.6736 28.9838C62.0952 29.2287 61.5428 29.4619 61.0047 29.6886L60.7767 29.9361ZM72.0997 14.7124C71.8965 14.8296 71.6933 14.9482 71.4874 15.0707C71.6659 14.999 71.847 14.9273 72.0281 14.8544C72.0463 14.8101 72.0711 14.7632 72.0997 14.7124ZM72.8124 11.4253C72.2652 11.7119 71.6906 12.0129 71.0809 12.3308C71.206 12.3607 71.3193 12.4272 71.4066 12.521C72.0437 12.0259 72.4815 11.6859 72.8124 11.4253ZM53.925 16.0465C53.5967 16.2172 53.2788 16.3839 52.9622 16.5481C52.5062 16.9585 52.062 17.3585 51.6255 17.7493C52.1688 17.5356 52.7121 17.3233 53.2554 17.1122C53.2059 16.8907 53.271 16.6497 53.4495 16.4855L53.925 16.0465ZM31.4535 29.8853C32.0841 29.2769 32.6756 28.7219 33.2345 28.2112C32.9726 28.3584 32.7095 28.5056 32.4502 28.6541C32.1062 29.0554 31.7753 29.4671 31.4535 29.8853ZM57.715 23.5392C57.7463 23.4988 57.7775 23.4597 57.8114 23.4206C57.8583 23.362 57.9052 23.3046 57.956 23.2473C57.9652 23.19 57.9808 23.1327 58.0016 23.0793C56.4109 23.7646 54.9373 24.4134 53.4808 25.0713C53.4456 25.1078 53.4156 25.1443 53.3804 25.182C54.7953 24.6296 56.2402 24.0811 57.715 23.5392ZM53.2345 22.5399C53.7999 22.2637 54.3341 22.007 54.8461 21.766C54.8996 21.7152 54.953 21.6644 55.009 21.6136C53.753 22.1138 52.6313 22.5646 51.5916 22.992C50.4568 23.5561 49.3481 24.1111 48.2694 24.657C49.7885 24.0004 51.4379 23.2955 53.2345 22.5399ZM51.1656 19.3375C51.1656 19.3349 51.1695 19.3323 51.1695 19.3297C50.3565 19.6554 49.5449 19.9876 48.7384 20.3315C48.4296 20.6104 48.1221 20.8827 47.8225 21.1497C48.8635 20.5778 49.9631 19.9837 51.1656 19.3375ZM43.3824 32.4858L47.4733 31.3159C47.5202 31.1934 47.5893 31.0527 47.6792 30.8976C47.7573 30.7647 47.8355 30.6332 47.9098 30.5029C46.2135 31.2181 44.7139 31.8774 43.3824 32.4858ZM49.9852 29.6417C49.8471 29.8501 49.7129 30.0625 49.5761 30.2775C49.9761 29.9948 50.4438 29.6482 50.9975 29.23C50.6536 29.3694 50.3161 29.5062 49.9852 29.6417ZM52.785 29.4919C53.3192 29.2912 53.8534 29.0945 54.3875 28.8965C54.6273 28.4926 54.8592 28.0835 55.0898 27.6731C54.2247 28.3649 53.4586 28.9681 52.7837 29.4919H52.785ZM63.0645 21.6435C64.3296 21.2136 65.6116 20.7902 66.904 20.3785C67.5945 19.7922 68.3514 19.1407 69.1983 18.4059C69.21 18.3877 69.2257 18.3708 69.2413 18.3538C67.2362 19.189 65.4487 19.9342 63.8175 20.6169C63.5895 20.9296 63.3394 21.2696 63.0645 21.6435ZM62.6398 25.995L62.7231 25.9038C62.6802 25.939 62.6398 25.9742 62.5955 26.0094C62.6111 26.0041 62.6241 25.9989 62.6398 25.995ZM56.2558 28.219C56.4682 28.1421 56.6805 28.0666 56.8968 27.9897C57.2564 27.4751 57.5964 26.9891 57.9248 26.5253C57.8036 26.5709 57.6811 26.6165 57.5495 26.666C57.375 26.7324 57.203 26.7989 57.031 26.864C56.7652 27.3109 56.5125 27.7643 56.2558 28.219ZM59.9741 25.8895C60.0419 25.8374 60.1109 25.784 60.18 25.7332C60.1357 25.7475 60.0953 25.7631 60.051 25.7774C60.0263 25.8139 59.9989 25.8517 59.9728 25.8895H59.9741Z" fill="var(--fill-0, #719DE3)"/>
</svg>
