<svg preserveAspectRatio="none" width="100%" height="100%" overflow="visible" style="display: block;" viewBox="0 0 15.8739 13.5398" fill="none" xmlns="http://www.w3.org/2000/svg">
<path id="Vector" fill-rule="evenodd" clip-rule="evenodd" d="M1.10872 7.04547C1.16475 6.95167 1.24292 6.87089 1.34584 6.81226L3.10599 5.79995C3.07993 5.76868 3.05908 5.7335 3.03694 5.69572C2.87799 5.38825 2.98613 5.01042 3.28448 4.83324L11.2696 0.0908734C11.5732 -0.0889193 11.9667 0.00618842 12.1543 0.30454C12.3419 0.604195 12.2572 0.998958 11.9601 1.19438L11.3765 1.58263C11.4273 1.63214 11.4703 1.68947 11.5041 1.75591C11.6019 1.94352 11.5979 2.15719 11.5146 2.33568C11.6644 2.3891 11.7986 2.49984 11.8768 2.65227C12.0266 2.94802 11.9328 3.31021 11.654 3.49391L11.198 3.79356C11.2136 3.80399 11.2266 3.81441 11.2384 3.82614L11.5602 3.66589L11.852 4.90098L11.9823 4.8645L12.7236 4.52837L12.4604 4.24305C12.2363 3.99681 12.2324 3.62029 12.4552 3.37014C12.6767 3.11999 13.048 3.0783 13.3203 3.27373C13.9079 3.69585 14.4642 4.15966 15.0518 4.58179C15.5912 4.97264 15.7983 5.32441 15.8517 5.60452L15.8739 5.80516L15.8543 6.00059L15.7697 6.25985C15.7384 6.3276 15.698 6.39665 15.6485 6.46701C15.4609 6.7393 15.0583 7.04026 14.6075 7.48583C14.6166 7.48844 14.6271 7.49104 14.6362 7.49495C14.8694 7.57312 15.0388 7.77767 15.0726 8.0213C15.1078 8.26624 15.001 8.50727 14.7977 8.64797L14.4668 8.87727C14.4199 8.99062 14.3391 9.09224 14.2297 9.1652L7.88353 13.4294C7.58648 13.6288 7.1865 13.5506 6.98326 13.2548C6.78262 12.9591 6.85819 12.5565 7.15263 12.3533L8.09589 11.7005L4.90522 13.0112C4.59254 13.1389 4.23295 13.0073 4.07661 12.705C3.99844 12.5526 3.98671 12.3819 4.03361 12.2269L3.60889 12.4314L3.32356 12.4953L2.99655 11.2823L3.21543 11.1533C3.19588 11.1273 3.17764 11.0986 3.16201 11.0674C3.10859 10.9709 3.08644 10.8654 3.08644 10.7625C2.95616 10.8654 2.7907 10.9201 2.61221 10.9019C2.4246 10.8811 2.26565 10.7846 2.15882 10.6439C2.1054 10.6361 2.05589 10.6231 2.00899 10.6035C1.28982 10.6101 0.887239 10.5488 0.665755 10.4681L0.415608 10.3443L0.18761 10.141L0.0872908 9.98079L0.0247541 9.81663L0 9.46356C0.109439 8.22585 0.625367 7.48062 1.10872 7.04677V7.04547ZM13.6721 6.57905C13.5913 6.57514 13.5066 6.57254 13.4284 6.56733C13.4819 6.59729 13.5288 6.63377 13.5731 6.67807C13.6069 6.64419 13.6408 6.61032 13.6721 6.57905Z" fill="var(--fill-0, #DDEAFF)"/>
</svg>
