<svg preserveAspectRatio="none" width="100%" height="100%" overflow="visible" style="display: block;" viewBox="0 0 8.7853 8.28258" fill="none" xmlns="http://www.w3.org/2000/svg">
<path id="Vector" fill-rule="evenodd" clip-rule="evenodd" d="M5.41353 0.245833C5.61417 0.211959 5.82653 0.27189 5.97896 0.425626C6.11316 0.558516 6.1796 0.737007 6.17309 0.912891L6.43235 0.707041C6.69423 0.501191 7.07335 0.527248 7.30396 0.766972C7.52284 0.993667 7.54759 1.34413 7.3665 1.59819C7.63488 1.40928 8.00359 1.44836 8.22637 1.6959C8.45437 1.95126 8.44395 2.34211 8.20423 2.58705L6.99518 3.82085L7.98535 3.21242C7.94105 3.24108 7.89806 3.27365 7.86288 3.31013L7.86939 3.30492C7.83422 3.33879 7.80425 3.37657 7.77819 3.41696C7.74693 3.46126 7.72608 3.50947 7.71045 3.56028C7.67266 3.66841 7.66615 3.78697 7.6883 3.90162C7.6909 3.91595 7.69351 3.93028 7.70002 3.94462C7.70654 3.96807 7.71305 3.99152 7.72217 4.01497C7.82249 4.2586 8.05961 4.41885 8.32539 4.41885L8.7853 4.22994L6.35679 6.63239L7.01603 6.51774C7.3691 6.4552 7.70654 6.69232 7.76907 7.0467C7.83161 7.40107 7.59449 7.73851 7.23751 7.79974L4.5315 8.27267C4.25008 8.32218 3.97258 8.18278 3.84099 7.93003C3.72895 7.71115 3.75109 7.45058 3.88789 7.25515L3.157 7.70333C2.87558 7.87661 2.51339 7.81147 2.30754 7.55481C2.1043 7.29684 2.12254 6.92683 2.35053 6.69232L2.39744 6.64672C2.35053 6.61936 2.30624 6.58549 2.26976 6.5451C2.03785 6.30538 2.02222 5.92755 2.23849 5.67219L2.25673 5.65135L1.57273 6.18942C1.30695 6.39918 0.922613 6.36921 0.694615 6.12167C0.678981 6.10734 0.667255 6.09171 0.654227 6.07607C0.488765 6.07738 0.323304 6.01484 0.194322 5.88977C-0.0519164 5.64744 -0.0675507 5.25137 0.166962 4.99211L4.41555 0.218473C4.64354 -0.0381878 5.03179 -0.0733646 5.30279 0.137697C5.34448 0.170268 5.38096 0.206747 5.41222 0.247136L5.41353 0.245833Z" fill="var(--fill-0, #DDEAFF)"/>
</svg>
