<svg preserveAspectRatio="none" width="100%" height="100%" overflow="visible" style="display: block;" viewBox="0 0 7.45371 7.22404" fill="none" xmlns="http://www.w3.org/2000/svg">
<path id="Vector" fill-rule="evenodd" clip-rule="evenodd" d="M5.14602 0.558539L5.48606 0.395683C5.78572 0.252369 6.1453 0.3579 6.32119 0.639315C6.49577 0.92073 6.43063 1.28944 6.17136 1.49529L5.76748 1.81188C5.94988 1.85487 6.10882 1.97734 6.19872 2.15322C6.33291 2.42291 6.26517 2.75123 6.03326 2.94405L5.87692 3.07694L6.39936 2.8294C6.70553 2.68479 7.07033 2.79944 7.2397 3.09258C7.40776 3.38572 7.32308 3.75963 7.04818 3.95376L6.95437 4.0176C7.12635 4.05929 7.27617 4.16873 7.36998 4.33158C7.53023 4.6156 7.45467 4.97519 7.19279 5.17062C6.55831 5.65137 5.94857 5.79598 5.46782 5.91324C5.35838 5.9406 5.20595 5.99141 5.13951 6.01486C5.13951 6.09043 5.14341 6.27673 5.17729 6.4422C5.24895 6.79396 5.02095 7.13922 4.66788 7.21088C4.3148 7.28253 3.97216 7.05453 3.8992 6.70277C3.88747 6.63893 3.87835 6.57639 3.86923 6.51646L2.63413 7.00633C2.32536 7.1288 1.97489 7.00112 1.81855 6.70928C1.77816 6.62981 1.75341 6.54512 1.74429 6.46044C1.47199 6.5373 1.17494 6.42917 1.0186 6.18423C0.844019 5.90803 0.900042 5.54453 1.15019 5.33347L1.44072 5.09114C1.21924 5.10938 0.991241 5.01297 0.853139 4.81885C0.721552 4.63384 0.699403 4.40063 0.777574 4.2026C0.669438 4.18045 0.569118 4.13095 0.484433 4.05799C0.325486 4.01629 0.18087 3.91337 0.0909737 3.76094C-0.0810018 3.4717 -0.00283139 3.09779 0.272069 2.90106L4.12198 0.123388C4.406 -0.0837647 4.80598 -0.0238341 5.01834 0.256278C5.09 0.347478 5.13039 0.451705 5.14732 0.558539H5.14602Z" fill="var(--fill-0, #DDEAFF)"/>
</svg>
