<svg preserveAspectRatio="none" width="100%" height="100%" overflow="visible" style="display: block;" viewBox="0 0 8.39084 7.53448" fill="none" xmlns="http://www.w3.org/2000/svg">
<path id="Vector" fill-rule="evenodd" clip-rule="evenodd" d="M0.987138 2.80272C0.987138 2.80012 0.987138 2.79751 0.984532 2.79491C0.843824 2.4731 0.984532 2.09658 1.29982 1.94415L5.2266 0.0641391C5.53929 -0.085688 5.9106 0.0354766 6.07997 0.33904C6.19592 0.551404 6.17898 0.802853 6.06173 0.996978C6.14511 1.04258 6.22067 1.10902 6.2793 1.19371C6.62065 1.67967 6.7822 2.06792 6.83301 2.38321C7.07665 2.38581 7.30725 2.52522 7.41669 2.75843C7.5574 3.05417 7.45447 3.40855 7.17957 3.58443L6.44867 4.04955L6.47343 4.04564C6.74442 4.00265 7.0102 4.13293 7.1457 4.36744L7.84142 4.47818C8.09808 4.51857 8.30393 4.70879 8.37037 4.96024C8.43552 5.21169 8.34171 5.47877 8.13847 5.63772L7.36067 6.23703C7.31767 6.3608 7.23299 6.47154 7.11703 6.54971L5.82982 7.42262C5.53929 7.61935 5.14192 7.5503 4.93607 7.26497C4.88265 7.19202 4.84878 7.11124 4.83054 7.02786L4.61687 7.06694C4.32764 7.12036 4.0358 6.97183 3.90812 6.70345C3.78305 6.43506 3.8547 6.11717 4.0801 5.92695L4.33936 5.71198L3.54854 5.83966C3.24237 5.88917 2.94532 5.71719 2.83588 5.42926C2.78376 5.29116 2.77986 5.14655 2.82024 5.01366L2.01769 5.27162C1.71413 5.37063 1.3832 5.23253 1.23598 4.94721V4.9446L1.17735 4.93027L0.971503 4.80259L0.799528 4.56287L0.765653 4.42868C0.490753 4.47818 0.205429 4.34269 0.071236 4.08473C-0.0811974 3.78377 0.0178195 3.41636 0.303143 3.23657L0.987138 2.80272ZM1.31806 4.23455V4.23325C1.31806 4.22804 1.32067 4.22283 1.32067 4.21892H1.31806V4.23455ZM5.10544 1.66925L5.02987 1.71615C5.01815 1.73699 5.00251 1.75523 4.98948 1.77347C5.0429 1.78129 5.09632 1.79432 5.14583 1.81386C5.12759 1.76696 5.11195 1.71876 5.10544 1.66925ZM5.5458 2.52001C5.53929 2.56691 5.52626 2.6099 5.51062 2.6529C5.52626 2.63335 5.54189 2.61121 5.55101 2.58645C5.56143 2.56691 5.55492 2.54476 5.5458 2.52001Z" fill="var(--fill-0, #DDEAFF)"/>
</svg>
