<svg preserveAspectRatio="none" width="100%" height="100%" overflow="visible" style="display: block;" viewBox="0 0 100.336 49.4793" fill="none" xmlns="http://www.w3.org/2000/svg">
<path id="Vector" fill-rule="evenodd" clip-rule="evenodd" d="M8.22523 48.7287C7.73406 48.5332 4.6424 47.16 2.43798 44.9478C0.808122 43.314 -0.31363 41.2399 0.078527 38.887C0.468078 36.5549 2.42756 33.798 7.4787 30.9422C17.8546 25.0742 42.864 11.4998 62.0002 4.46053C70.3815 1.378 77.6722 -0.430355 82.1944 0.0881783C89.5971 0.936332 95.2932 5.20055 98.1816 9.63805C100.245 12.8118 100.856 16.0976 99.8844 18.4271C98.2585 22.3161 96.7237 25.1849 89.9828 28.8003C83.5545 32.2464 72.1833 36.4246 50.8361 43.0248C22.692 51.7252 16.3055 49.2746 8.56918 48.8042C8.44932 48.7977 8.33337 48.7717 8.22523 48.7287ZM8.88838 46.605C16.3993 47.0936 22.7898 49.3762 50.1795 40.9077C71.3104 34.3752 82.5761 30.2595 88.9379 26.8487C94.9818 23.6072 96.3863 21.0601 97.8416 17.5724C98.5881 15.7797 97.9184 13.2912 96.3277 10.8484C93.7298 6.85907 88.5979 3.05216 81.9455 2.28869C77.6409 1.79621 70.7319 3.60847 62.765 6.53988C43.7421 13.5362 18.8825 27.0376 8.56918 32.8704C4.39486 35.2299 2.5826 37.3235 2.2634 39.2505C1.99371 40.8738 2.88095 42.2574 4.00531 43.3844C5.76155 45.1471 8.17051 46.2936 8.88838 46.6063V46.605Z" fill="var(--fill-0, #4356B1)"/>
</svg>
