<svg preserveAspectRatio="none" width="100%" height="100%" overflow="visible" style="display: block;" viewBox="0 0 26.0857 42.7163" fill="none" xmlns="http://www.w3.org/2000/svg">
<path id="Vector" fill-rule="evenodd" clip-rule="evenodd" d="M1.96995 10.45C1.8136 10.3901 1.68202 10.2702 1.61036 10.106C1.46574 9.77903 1.61297 9.39599 1.93737 9.25007L2.24745 9.11067L9.11215 5.18128C9.41181 5.01061 9.79354 5.10311 9.98115 5.39104C10.0176 5.45097 10.0463 5.51351 10.0645 5.57865L10.9361 5.03276C11.099 4.93113 11.2892 4.90899 11.4612 4.95849L12.4735 4.50119C12.7771 4.36439 13.1327 4.47905 13.3021 4.76176L16.5084 3.12539C16.67 3.04331 16.8485 3.03419 17.0074 3.08761C17.5572 2.80489 18.1552 2.49742 18.8105 2.15868C19.1193 1.99973 19.5011 2.11308 19.673 2.41534C19.7642 2.57168 19.7825 2.75017 19.7356 2.91172L21.3224 0.935302L21.798 1.92807L23.0969 0.25261C23.2949 -0.00274853 23.6467 -0.0744047 23.9281 0.0832397C24.2095 0.239581 24.3346 0.579624 24.2226 0.880582C23.7913 2.02318 23.3197 3.14884 22.8285 4.26668L23.4291 3.34557C23.6063 3.07327 23.9568 2.97295 24.2499 3.11236C24.319 3.14493 24.3815 3.18792 24.4323 3.23874C24.5626 2.91693 24.6942 2.58861 24.8323 2.25378C24.9665 1.92416 25.3417 1.76261 25.6726 1.89289C26.0036 2.02448 26.169 2.39579 26.044 2.72932L25.3 4.70314C25.5723 4.86208 25.6935 5.19952 25.5788 5.50178C25.5788 5.50308 25.5788 5.50308 25.5762 5.50439C24.4167 8.49572 23.0982 11.4258 21.9387 14.4172C21.8918 14.5357 21.8475 14.653 21.8019 14.7676C21.854 14.7728 21.9048 14.782 21.9582 14.8002C22.2761 14.9083 22.4611 15.2458 22.379 15.5741C21.3446 19.738 20.6176 22.6798 20.0978 24.7891C20.3114 24.965 20.3922 25.2621 20.2854 25.5304L19.32 27.9577C18.8079 30.0435 18.7324 30.3497 18.5513 30.979C17.8021 33.6016 16.6934 36.1122 15.943 38.7348C15.8466 39.0735 15.4987 39.2729 15.1587 39.1882C15.0583 39.1634 14.9711 39.1165 14.8994 39.054L14.0995 41.0591C13.9744 41.3692 13.6408 41.5346 13.3217 41.446C13.1718 41.4043 13.0468 41.3131 12.9621 41.1946C12.9034 41.2441 12.837 41.2832 12.7653 41.3092L12.5152 41.8395C12.3654 42.1626 11.981 42.3033 11.6566 42.1561C11.6371 42.147 11.6188 42.1365 11.6006 42.1261C11.3244 42.3385 11.0065 42.4596 10.5531 42.5808C9.7727 42.7919 9.32582 42.6759 9.06004 42.4805L8.80338 42.7163C8.54411 42.7163 8.30699 42.56 8.20407 42.3189L7.50444 40.6552C7.44711 40.6474 7.39109 40.6304 7.33898 40.6057C7.11359 40.5041 6.97288 40.2878 6.95724 40.0546L6.53252 40.5392C6.21723 40.5392 5.94884 40.3139 5.89152 40.0051L5.63876 38.6188C5.45506 38.7374 5.21403 38.7609 5.00428 38.6605C4.68899 38.5107 4.54828 38.1381 4.68638 37.8176C4.88311 37.3538 5.07072 36.9121 5.24791 36.4926L4.85184 34.3155C4.54828 34.1566 4.41669 33.7879 4.5587 33.4739C4.59258 33.3996 4.62384 33.328 4.65772 33.2563L4.26165 31.0897C4.13397 31.1496 3.98675 31.1666 3.83953 31.1327C3.71837 31.1027 3.61153 31.0428 3.53076 30.9594L2.3152 32.8368C2.14322 33.1039 1.80318 33.2068 1.50874 33.0804C1.2182 32.9528 1.06186 32.6323 1.13743 32.3235C1.54261 30.7119 1.88656 29.3582 2.17189 28.2208C1.89308 28.0905 1.74064 27.774 1.81881 27.4665L3.24934 21.9997C2.97444 22.2069 2.58749 22.1626 2.3621 21.9007C2.13671 21.6362 2.15886 21.2415 2.41291 21.0044L3.86819 19.6325L4.48444 17.2769L3.03437 18.2098C2.75296 18.3921 2.37774 18.3296 2.17189 18.0664C1.96213 17.8033 1.99079 17.4254 2.23182 17.1922L4.41148 15.0959L1.81621 17.0606C1.54001 17.2678 1.15697 17.2261 0.931576 16.9655C0.706184 16.7063 0.721818 16.3167 0.96545 16.0757L2.53408 14.5344L1.64032 15.234C1.36542 15.4503 0.968056 15.4086 0.740058 15.1402C0.515968 14.8732 0.540722 14.4745 0.799989 14.2387L4.31246 11.0454C4.30595 11.035 4.29944 11.0245 4.29292 11.0141C4.26165 10.9633 4.23951 10.9112 4.22387 10.8565L3.46822 11.2421L0.996718 12.7899C0.699669 12.9762 0.308815 12.8928 0.112085 12.6036C-0.0846447 12.3144 -0.0155937 11.9209 0.265821 11.7138L1.97125 10.4526L1.96995 10.45ZM3.67537 28.3303L3.99978 26.2965C3.82259 27.0001 3.61284 27.8287 3.36269 28.8097L3.67537 28.3303ZM11.1185 40.6813C11.0208 40.6278 10.9427 40.5536 10.8905 40.4663L10.815 40.6252C10.6651 40.9431 10.2899 41.0877 9.96812 40.947C9.92774 40.9301 9.89256 40.9119 9.85868 40.8884C9.8678 41.0656 9.88344 41.2571 9.89647 41.3822C9.98376 41.3705 10.1062 41.3509 10.2157 41.321C10.6612 41.2011 10.871 41.0695 11.1185 40.6813ZM17.0426 27.3688L15.7801 30.6454L17.2289 27.9485C17.2862 27.8443 17.3644 27.7609 17.4582 27.7036C17.7644 27.2176 18.0914 26.7421 18.3949 26.2561C18.6112 25.3884 18.8731 24.3149 19.204 22.973L17.4725 26.9962C17.3917 27.1864 17.2289 27.3193 17.0426 27.3688ZM20.757 5.72196L19.901 6.85804L19.9414 6.96097C19.9466 6.99224 19.9531 7.02351 19.9597 7.05477L20.2945 6.746C20.4469 6.40465 20.6007 6.06331 20.757 5.72196ZM9.3623 12.5841L11.1589 11.1731L9.03659 12.4512L7.95913 13.4882L9.3623 12.5841ZM17.2979 5.95257L18.0823 4.97673C16.3925 6.19229 15.173 7.08213 14.1242 7.86515L17.2979 5.95257ZM9.77139 39.7302C9.81569 39.6181 9.85868 39.5074 9.90298 39.398C9.84696 39.4279 9.78703 39.4488 9.7284 39.4618C9.74403 39.553 9.75837 39.6429 9.77139 39.7302ZM6.49994 20.0546L6.74618 19.3185C6.63023 19.4084 6.50906 19.4996 6.3866 19.5934L6.28367 20.2539L6.49994 20.0546ZM7.23084 22.3854L7.96565 21.6884L8.84637 20.3282L7.59434 21.2324L7.23084 22.3854ZM16.9292 22.6551C17.311 21.4942 17.6419 20.4819 17.9389 19.5777L17.892 19.596L17.6354 19.6259L17.4829 19.6116L17.3422 19.5647L17.139 19.4188L17.0387 19.2859L17.0009 19.196L15.9104 20.5458C16.1645 20.7216 16.2609 21.0565 16.1293 21.3457C14.4356 25.1057 13.4076 27.3388 12.5517 29.2918L15.9586 22.8661C16.1241 22.556 16.5019 22.431 16.8172 22.5847C16.8576 22.6043 16.8954 22.6277 16.9292 22.6551ZM8.56235 18.1668L9.93946 16.903C9.53037 17.2079 9.10824 17.5258 8.65616 17.8684L8.56235 18.1668ZM13.977 14.9735C13.977 14.9839 13.9796 14.9943 13.9835 15.0047L14.9059 14.3364C14.9424 14.2322 14.9776 14.1266 15.0141 14.0211L13.977 14.9735ZM6.76833 26.6235L6.21202 27.4938L6.45695 28.7224C6.52861 28.626 6.62762 28.5491 6.74749 28.5035C6.75921 28.4983 6.77485 28.4944 6.78787 28.4892C7.27774 27.3935 7.69075 26.475 8.0373 25.7011L6.76833 26.6235ZM16.9827 19.1582L16.9761 19.1426L16.9292 18.8338C16.924 18.5211 17.0048 17.7915 17.1455 16.8965L16.1918 18.2514L16.5514 19.3641L16.9827 19.1582ZM18.6881 15.4972C18.9044 14.967 19.1506 14.3481 19.4385 13.6276L18.9109 14.382C18.8327 14.7481 18.761 15.1259 18.6881 15.4972ZM14.6701 11.6473L14.6584 11.6551L14.661 11.659L14.6701 11.6473ZM12.9582 22.1287L12.6741 22.3359C12.6233 22.4466 12.5738 22.5574 12.5269 22.6694L12.949 22.143L12.9582 22.1287Z" fill="var(--fill-0, #4375C4)"/>
</svg>
