<svg preserveAspectRatio="none" width="100%" height="100%" overflow="visible" style="display: block;" viewBox="0 0 12.7126 16.8787" fill="none" xmlns="http://www.w3.org/2000/svg">
<path id="Vector" fill-rule="evenodd" clip-rule="evenodd" d="M0.936237 3.02482C1.04568 2.78249 1.29582 2.62093 1.57724 2.64048C1.93031 2.66393 2.1987 2.96749 2.18306 3.32187L2.12443 4.50094C2.20521 4.4345 2.30553 4.3889 2.41106 4.36805L2.87357 2.38903C2.95174 2.05029 3.28266 1.83402 3.62401 1.89655C3.96405 1.95779 4.19857 2.27698 4.15166 2.62224L4.08001 3.17986L5.39588 2.65872C5.5418 2.45678 5.79586 2.35646 6.0421 2.40336L8.96047 1.25034C9.0165 1.22819 9.07252 1.21516 9.12854 1.20865L11.5857 0.0608403C11.8437 -0.0590212 12.1472 0.00221215 12.3414 0.209365C12.5316 0.419123 12.5668 0.727898 12.426 0.974136L11.1232 3.25933C11.3486 3.08996 11.66 3.07823 11.8945 3.2463C12.1694 3.44173 12.2502 3.81434 12.0821 4.10488L11.5193 5.07029C11.5349 5.10025 11.5505 5.13022 11.5662 5.16279C11.6665 5.38297 11.7447 5.58231 11.8033 5.76992C12.0091 5.68132 12.2567 5.70347 12.4508 5.84678C12.7257 6.05263 12.7948 6.43697 12.6071 6.7249C11.4255 8.53195 10.6229 9.54557 8.71033 12.5695C8.29863 13.2743 7.83872 14.0756 7.33582 14.9915C7.26677 15.1191 7.16124 15.213 7.03877 15.269C6.78863 15.6742 6.52936 16.1054 6.25446 16.564C6.06815 16.8715 5.66818 16.9705 5.36071 16.7855C5.05193 16.6005 4.95161 16.1992 5.13922 15.8917C5.19524 15.7966 5.25257 15.7028 5.30859 15.6103C5.24606 15.6012 5.18352 15.5817 5.12619 15.553C4.9021 15.4449 4.77052 15.2273 4.75749 14.9954L4.65456 15.1726C4.53861 15.3732 4.32755 15.4983 4.09304 15.4983L3.49894 14.5798L3.53281 14.5016C3.46115 14.4912 3.3895 14.4677 3.32045 14.4299C3.20189 14.3648 3.10808 14.2658 3.05206 14.1524C3.04294 14.1537 3.03252 14.155 3.0234 14.1563C3.01428 14.4964 3.00516 14.8377 2.99864 15.1778V15.1791C2.99213 15.5387 2.69508 15.824 2.3355 15.8175C1.97721 15.811 1.68928 15.5139 1.6958 15.1543V15.153L1.72967 13.4202L1.66713 13.7772C1.63977 13.9257 1.56421 14.0547 1.46128 14.1485L1.45868 14.1681L0.824192 14.671C0.643097 14.671 0.473726 14.598 0.352562 14.469C0.336928 14.4547 0.323899 14.4404 0.312174 14.4247C0.21446 14.2997 0.164952 14.1446 0.174072 13.987L0.183192 13.7968C0.0594215 13.6678 -0.0135382 13.4893 0.00209594 13.2965L0.714753 3.47169C0.727782 3.2919 0.811164 3.13556 0.936237 3.02612V3.02482ZM10.6125 6.62979L10.5382 6.76008C10.5291 6.80959 10.5135 6.8604 10.4913 6.9086L10.3285 7.2721C10.348 7.27601 10.3662 7.28122 10.3845 7.28773C10.5135 7.03628 10.5916 6.83043 10.6125 6.62979ZM3.90152 4.51918L3.52109 7.42323L4.68583 4.42277L4.19205 4.5257C4.09304 4.54524 3.99532 4.54263 3.90152 4.51918ZM5.77892 5.26702L5.77241 5.22923L5.72029 5.36212L5.77892 5.26702Z" fill="var(--fill-0, #4375C4)"/>
</svg>
