<svg preserveAspectRatio="none" width="100%" height="100%" overflow="visible" style="display: block;" viewBox="0 0 21.3548 14.5848" fill="none" xmlns="http://www.w3.org/2000/svg">
<path id="Vector" fill-rule="evenodd" clip-rule="evenodd" d="M0.224097 3.25721C0.295754 3.07872 0.446884 2.94453 0.624071 2.8859C0.5459 2.76473 0.509421 2.61751 0.525055 2.46508C0.562837 2.13676 0.837738 1.88662 1.16866 1.88401L3.74569 1.86316L1.18039 1.35636C0.83383 1.28861 0.605831 0.95508 0.665762 0.607219C0.728299 0.258056 1.05271 0.0209382 1.40317 0.0730521L3.1086 0.327107C3.2467 0.0899893 3.5216 -0.0415983 3.79911 0.0118183L8.12326 0.857366C8.10762 0.719265 8.13629 0.573346 8.21706 0.446969C8.40467 0.1408 8.80465 0.0443896 9.11082 0.233302C9.41959 0.423518 9.55509 0.51602 10.5453 1.329L12.6728 1.74591C13.0194 1.81366 13.2513 2.14719 13.1874 2.49505C13.1379 2.79209 12.8943 3.00837 12.6064 3.03442C12.6194 3.04485 12.6324 3.05527 12.6441 3.06439C12.6976 3.0683 12.751 3.07872 12.8044 3.09566C13.0037 3.03833 13.2291 3.08002 13.3972 3.21943L13.7815 3.53602C16.184 4.05976 17.5845 4.27995 18.503 4.50534C19.8033 4.82454 20.271 5.15416 21.0019 6.12347C21.3029 6.52215 21.3954 6.85828 21.3393 7.17618L21.2872 7.3716L21.2025 7.54618C21.1491 7.63738 21.0775 7.73379 20.9837 7.83281C20.7934 8.03084 20.4769 8.26796 19.9935 8.57283C19.643 8.79431 19.1896 9.06139 18.6177 9.39492C18.6177 9.39883 18.6151 9.40144 18.6151 9.40404C18.6125 9.41707 18.606 9.4288 18.6021 9.44052C18.4991 9.68285 18.2659 9.8405 18.0001 9.8405L17.9129 9.80923C16.6243 10.5623 14.872 11.5967 12.5256 13.0716C12.2259 13.2579 11.8351 13.1745 11.6383 12.8813C11.6162 12.8475 11.5953 12.8123 11.5784 12.7758L11.1758 13.0194C11.1315 13.0468 11.0846 13.0677 11.0377 13.0833L10.9504 13.1927L10.3602 14.2506C10.1974 14.5438 9.83781 14.6649 9.52903 14.5294C9.48473 14.5099 9.44435 14.4851 9.40396 14.4565C9.34142 14.4382 9.28279 14.4083 9.22286 14.3692C8.94405 14.1738 8.86067 13.7959 9.03525 13.5028L9.35054 12.9673C9.24501 12.897 9.15642 12.7941 9.10691 12.6677L8.89454 12.1439C8.8724 12.1713 8.84504 12.196 8.81637 12.2182C8.81898 12.4983 8.63919 12.7576 8.35777 12.8449C8.22618 12.8853 8.09199 12.8813 7.96952 12.8423L7.9578 12.867L7.98255 12.9061L7.42233 13.8937C7.20084 13.8937 6.9989 13.7816 6.87643 13.5966L4.47008 9.88349L0.130292 4.14315C-0.0416838 3.91254 -0.0442892 3.59335 0.127686 3.36144C0.155046 3.32366 0.190223 3.28848 0.224097 3.25851V3.25721ZM15.9247 5.30789L15.969 5.34307C16.1032 5.35089 16.2348 5.40039 16.3442 5.49159C16.4289 5.56064 16.4901 5.64663 16.5279 5.74044L16.7377 5.8616C16.8784 5.94238 16.9787 6.07136 17.0282 6.21858L17.922 6.95469C17.9467 6.97684 17.9715 6.99899 17.9936 7.02374L18.4001 6.7749C18.5995 6.65113 18.8405 6.64983 19.0333 6.74884L19.5583 6.43355C19.2144 6.09742 18.8561 5.93456 18.193 5.7704C17.6458 5.63751 16.9279 5.50462 15.9247 5.30789ZM4.80751 5.98798L4.84269 6.06615L4.83618 5.9997L4.80882 5.98798H4.80751ZM6.32012 9.04576C6.4048 9.1539 6.496 9.26464 6.5859 9.37929C6.61456 9.41316 6.63932 9.44704 6.66798 9.48221L6.2667 8.14158L6.32012 9.04576ZM12.691 7.29995L12.8357 7.05631L12.7888 7.01071L12.691 7.29864V7.29995ZM7.57346 3.13474L6.74224 3.14126L7.63599 3.3445L7.60473 3.14907L7.57346 3.13474ZM7.83533 7.23871C7.8666 7.16445 7.89917 7.09149 7.92913 7.01853C7.88354 7.02374 7.83272 7.02635 7.7767 7.02374L7.83533 7.23871ZM7.98646 5.59712C8.06072 5.55934 8.13238 5.51895 8.18319 5.4942L8.51411 5.37825L8.76426 5.37043L8.77729 5.37303L8.50499 4.61347C8.39295 4.70988 8.24573 4.76721 8.08678 4.76721C8.06724 4.76721 8.049 4.76721 8.03076 4.7646L7.29856 4.70337L7.68681 5.66096L7.8679 5.73653C7.92392 5.75998 7.97734 5.79255 8.02424 5.82903L7.98646 5.59712ZM13.9131 9.52521L14.9567 8.88551C14.8134 8.879 14.6727 8.82688 14.5567 8.72787L13.9131 9.52521ZM15.8687 8.32529L15.6251 8.12856C15.6472 8.25884 15.629 8.39043 15.5716 8.50638L15.8687 8.32529ZM9.86126 4.17051L9.70492 4.10015L10.2951 5.75216L10.785 5.06817L9.85995 4.17051H9.86126Z" fill="var(--fill-0, #4375C4)"/>
</svg>
