<svg preserveAspectRatio="none" width="100%" height="100%" overflow="visible" style="display: block;" viewBox="0 0 28.3688 48.5022" fill="none" xmlns="http://www.w3.org/2000/svg">
<g id="Group">
<path id="Vector" fill-rule="evenodd" clip-rule="evenodd" d="M0.715487 9.95617L26.8714 0.0714668C27.2441 -0.0692407 27.6649 0.00111305 27.9697 0.256471C28.2746 0.510526 28.4218 0.911803 28.3515 1.30396C27.6922 4.97669 27.4291 4.8907 26.6969 8.54909C26.564 9.21485 25.3289 17.2717 24.2397 22.1378C22.9525 27.8651 20.2856 36.2554 18.046 41.4655C17.0076 43.8771 16.0122 45.632 15.297 46.2848C13.0925 48.3029 11.1578 48.8123 9.53837 48.3367C7.96713 47.8755 6.56918 46.3981 5.45134 43.9878C2.57335 37.7863 1.18451 24.9884 0.00413297 11.0857C-0.0375581 10.592 0.252977 10.1307 0.715487 9.95617ZM2.28281 11.7333C3.4189 24.9923 4.70481 37.1218 7.45642 43.055C8.23422 44.7331 9.06804 45.8913 10.1624 46.2118C11.2099 46.5193 12.3747 45.959 13.8039 44.6497C14.3993 44.1064 15.1471 42.599 16.0122 40.59C18.2075 35.4855 20.8223 27.2645 22.0809 21.6531C23.1661 16.8052 24.3934 8.77839 24.5276 8.11524C25.0957 5.27243 25.3784 4.70439 25.7888 2.84783L2.28281 11.7333Z" fill="var(--fill-0, #4356B1)"/>
</g>
</svg>
