<svg preserveAspectRatio="none" width="100%" height="100%" overflow="visible" style="display: block;" viewBox="0 0 17.1697 19.8211" fill="none" xmlns="http://www.w3.org/2000/svg">
<path id="Vector" fill-rule="evenodd" clip-rule="evenodd" d="M1.06548 1.77056L15.931 0.00780513C16.3127 -0.0377946 16.6918 0.118547 16.9302 0.420808C17.1687 0.723068 17.2351 1.12695 17.1022 1.48784C14.8796 7.57083 13.4425 12.192 11.711 15.2198C10.4108 17.4959 8.92034 18.9317 6.95435 19.5622C5.8821 19.9049 4.9636 19.8866 4.17798 19.6287C3.02887 19.2496 2.12469 18.3284 1.48239 17.0126C-0.514875 12.9229 0.080526 4.57819 0.0909488 2.86365C0.094857 2.30472 0.511768 1.8344 1.06548 1.76925V1.77056ZM2.27061 3.85772C2.18332 6.11164 1.98399 10.8879 2.86992 14.3391C3.40669 16.4289 4.27309 18.0952 6.27687 17.4529C7.7569 16.9787 8.81221 15.8309 9.78934 14.1202C11.3111 11.4559 12.5866 7.52132 14.4131 2.41938L2.27061 3.85772Z" fill="var(--fill-0, #4356B1)"/>
</svg>
