<svg preserveAspectRatio="none" width="100%" height="100%" overflow="visible" style="display: block;" viewBox="0 0 25.8493 19.1423" fill="none" xmlns="http://www.w3.org/2000/svg">
<path id="Vector" fill-rule="evenodd" clip-rule="evenodd" d="M9.98989 18.6999C4.00591 10.72 1.69987 7.45892 0.795694 6.04664C0.00616809 4.81154 0.0700078 4.63435 0.0348309 4.43502C-0.151476 3.41098 0.412656 2.43515 1.65427 1.729C3.51213 0.671091 7.09105 0.116078 8.85771 0.014456C10.799 -0.0988917 12.6751 0.457424 14.7466 1.57396C17.5816 3.0983 20.8387 5.71181 25.3817 8.92854C25.6892 9.14481 25.8651 9.50179 25.8481 9.87701C25.8338 10.2522 25.6306 10.5949 25.3035 10.7851L11.4413 18.9878C10.954 19.2757 10.3299 19.1507 9.98989 18.6999ZM2.2184 4.07804C2.23925 4.16924 2.29527 4.28519 2.66007 4.85193C3.52255 6.20298 5.68528 9.25555 11.1677 16.5762L22.7174 9.74412C19.657 7.5384 17.2207 5.67142 15.0762 4.33079C12.8392 2.92893 10.967 2.11074 8.98409 2.22539C7.65909 2.30226 5.15502 2.6449 3.44178 3.3276C3.05613 3.48003 2.71609 3.6481 2.45682 3.84222C2.36562 3.90997 2.25358 4.03635 2.2184 4.07804Z" fill="var(--fill-0, #4356B1)"/>
</svg>
