<svg preserveAspectRatio="none" width="100%" height="100%" overflow="visible" style="display: block;" viewBox="0 0 20.3266 17.437" fill="none" xmlns="http://www.w3.org/2000/svg">
<path id="Vector" fill-rule="evenodd" clip-rule="evenodd" d="M11.5012 0.278396C11.9572 -0.12679 12.6582 -0.0850988 13.0607 0.373503C13.4672 0.830803 13.4255 1.53173 12.9669 1.93692C7.31257 6.94506 6.5478 7.45448 2.26143 9.65759C2.68225 13.7485 5.38826 16.0976 8.58154 14.8885C14.2489 12.7401 16.6787 9.49734 18.435 7.72026C18.8623 7.28511 19.5632 7.2812 19.9984 7.71114C20.4322 8.13978 20.4361 8.84201 20.0088 9.27716C18.1184 11.191 15.4723 14.6462 9.36325 16.9601C6.9126 17.889 4.60265 17.4187 2.87116 15.9178C1.24391 14.5081 0.119551 12.1317 0.000992052 9.04786C-0.017248 8.61662 0.217265 8.21534 0.602907 8.01861C5.28273 5.62137 5.80908 5.32041 11.5012 0.278396Z" fill="var(--fill-0, #4356B1)"/>
</svg>
