<svg preserveAspectRatio="none" width="100%" height="100%" overflow="visible" style="display: block;" viewBox="0 0 54.3551 38.5212" fill="none" xmlns="http://www.w3.org/2000/svg">
<path id="Vector" fill-rule="evenodd" clip-rule="evenodd" d="M1.50461 2.58021C1.53414 2.56283 1.56367 2.5472 1.59667 2.5333C1.67658 2.49682 1.75475 2.47424 1.83813 2.46382L1.76344 2.25363C1.61404 1.82977 1.8086 1.36074 2.21683 1.1714C2.44613 1.06543 2.69628 1.0689 2.91689 1.15924L3.02459 1.08975L3.32164 1.02721L3.59264 1.06022L3.81325 1.15924L3.9887 1.30168L4.11725 1.47366C4.22148 1.64737 4.62449 2.46034 5.02403 3.27332C5.27071 3.76666 5.56254 4.34513 5.7241 4.67344C5.79879 4.74988 5.85786 4.84195 5.89955 4.94444C5.94992 5.07646 5.97424 5.15984 5.9864 5.19806L6.01246 5.43952L5.96729 5.62886C6.14969 6.02667 6.35468 6.47311 6.58745 6.97688L5.01187 1.85582C4.88332 1.43196 5.09178 0.975099 5.50348 0.801387C5.77447 0.686736 6.07152 0.719742 6.3043 0.865661C6.3043 0.561663 6.46585 0.269826 6.74553 0.113484C7.12422 -0.101919 7.6002 -0.0029032 7.86077 0.344522L8.63553 1.36595C8.65637 1.31037 8.68591 1.25651 8.71891 1.20614C8.93953 0.883032 9.34949 0.745799 9.7195 0.874346C10.694 1.20961 11.5522 1.50492 12.3269 1.76723C12.5232 1.663 12.7612 1.63695 12.9853 1.70817L26.5714 5.97976C27.0213 6.12221 27.2749 6.60166 27.1412 7.05678C27.0092 7.51017 26.5332 7.77248 26.0746 7.64567C25.3919 7.45459 24.7631 7.27914 24.1829 7.11758L24.4261 7.23397L24.1377 8.48296L24.2958 8.5594C24.2506 8.35615 24.2749 8.1338 24.3844 7.93924C24.6137 7.52928 25.1209 7.37468 25.5378 7.58834L26.6826 8.17897C26.6826 8.03305 26.7173 7.88366 26.7955 7.74816C27.0196 7.34167 27.5251 7.18533 27.942 7.39379L46.2305 16.5762C46.6457 16.7864 46.8264 17.2937 46.6249 17.7193C46.4251 18.1466 45.9265 18.336 45.4922 18.1483L45.4262 18.1188C45.421 18.1362 45.4141 18.1553 45.4089 18.1727L45.2386 18.6208L46.7499 19.2202C46.8958 19.1889 47.047 19.1941 47.1964 19.2427C47.4344 18.9266 47.8634 18.805 48.2386 18.9683C48.6 19.1263 48.805 19.5103 48.7511 19.8907L49.5206 20.2155C49.6092 20.2259 49.6926 20.2503 49.776 20.2885C49.842 20.318 49.9011 20.3528 49.9497 20.3962L53.82 22.0187C54.263 22.2028 54.4697 22.7066 54.2908 23.1478C54.1501 23.4952 53.8079 23.7019 53.4535 23.688L52.6701 24.1189C52.6614 24.1449 52.6527 24.171 52.6405 24.197C52.4651 24.5931 52.036 24.7946 51.6295 24.6904L50.417 25.3557C50.7662 25.3435 51.0997 25.5416 51.2456 25.8803C51.4367 26.3215 51.2335 26.8322 50.7905 27.0216L45.4506 29.3215C45.3585 29.3841 45.2543 29.4275 45.15 29.4501L40.4424 31.4756L40.1089 32.0749C39.8883 32.4744 39.3966 32.6342 38.9849 32.4414C38.872 32.3893 38.7765 32.3146 38.6966 32.226L38.3561 32.3737C38.3214 32.3893 38.2849 32.4032 38.2467 32.4136L36.5773 33.1311C36.4731 33.2023 36.3567 33.2527 36.2351 33.277L36.1691 33.3065L30.8934 36.0286L31.7602 37.1074C32.0399 37.4548 32.0104 37.9568 31.6942 38.2695C31.3763 38.5839 30.876 38.6065 30.5303 38.3216C19.2998 29.0314 19.2407 29.2243 18.4086 28.281C15.7751 25.307 14.0258 21.6243 11.3958 18.6504C11.0884 18.3029 11.1057 17.7766 11.4375 17.4535C11.6668 17.2294 11.9882 17.1582 12.28 17.2381C11.7589 16.5172 11.2378 15.7997 10.7045 15.091C10.6541 15.2282 10.5724 15.3533 10.4543 15.4506C10.5255 15.6 10.5915 15.7511 10.6628 15.904C10.6628 15.9074 10.668 15.9092 10.668 15.9109C10.8625 16.3469 10.6767 16.8594 10.2389 17.0609C9.80462 17.2607 9.29216 17.0713 9.08892 16.637V16.6318L8.26378 14.8634C8.24641 14.9069 8.22557 14.9486 8.20125 14.9902C8.18909 15.0059 8.1804 15.0215 8.16824 15.0389C8.00495 15.2647 7.74264 15.3985 7.4647 15.3985L6.68473 14.9138L5.58165 12.666C5.24812 12.6903 4.91807 12.5218 4.75304 12.2108L0.10274 3.58427C-0.117875 3.17083 0.0280437 2.65664 0.432795 2.42039C0.790644 2.21367 1.23709 2.28837 1.50287 2.58194L1.50461 2.58021ZM24.4278 30.7564L17.6408 24.4559C18.287 25.38 18.961 26.2816 19.7115 27.1258C20.3195 27.8172 20.5158 27.8797 25.1313 31.6371L24.4278 30.7582V30.7564ZM43.8454 17.4309L42.8622 17.0036C42.8622 17.08 42.8535 17.1547 42.8327 17.2311C42.9734 17.2225 43.1158 17.2468 43.2479 17.3076C43.4442 17.3962 43.5936 17.5508 43.6769 17.7332L43.8402 17.4396C43.8402 17.4396 43.8437 17.4344 43.8437 17.4309H43.8454ZM34.0098 29.4362L33.6763 29.1409L32.8755 30.4924L34.0098 29.4362ZM38.9572 16.4373L39.8205 17.278C39.8744 17.2919 39.9282 17.311 39.9821 17.3371C40.5744 17.6237 41.1077 17.8826 41.5941 18.1205C41.6983 18.1084 41.8026 18.1171 41.9068 18.1431L42.0284 17.8878C41.8825 17.8947 41.7314 17.8635 41.5941 17.7922L38.9572 16.4373ZM19.1486 9.19345C18.8916 9.58604 18.3617 9.70069 17.9622 9.44707V9.44533L17.1197 8.91204L19.3154 10.7308L19.5117 10.0499L23.1979 12.3932L19.1486 9.19345ZM30.817 15.8675L31.8749 16.9549L31.3259 16.1611L30.817 15.8675ZM12.4503 12.5722L14.1249 14.4014L12.6031 12.0667L12.6744 12.2369L12.4503 12.5722ZM10.5585 6.96819C10.5742 6.96298 10.5915 6.95777 10.6089 6.95256L10.4925 6.79969L10.5585 6.96819ZM28.9687 32.5734L29.6305 31.1629C29.4811 31.0309 29.33 30.9006 29.1841 30.772C28.9339 30.9857 28.5795 31.0483 28.2634 30.9075C27.8517 30.7234 27.6519 30.2544 27.7961 29.8288L27.8673 29.6273C27.4556 29.266 27.063 28.9255 26.693 28.6024C26.6669 28.7848 26.5801 28.9602 26.4394 29.0975C26.2136 29.3111 25.9009 29.3823 25.6229 29.3111C26.5923 30.2579 27.7005 31.3401 28.9687 32.5752V32.5734ZM30.5182 19.1072L30.4174 19.6249L30.7631 19.9306L31.0219 19.4269L30.5164 19.1072H30.5182ZM16.4995 8.52118L16.3032 8.39611L16.3953 8.50381C16.4318 8.50728 16.4665 8.5125 16.4995 8.51944V8.52118ZM39.2334 20.292L38.945 21.0841L39.4366 21.1953L39.7406 20.655L39.2334 20.292ZM23.448 20.4726L23.5523 20.1756L22.2564 19.0325L23.448 20.4726ZM22.1608 21.64L22.7028 22.6093L22.7775 22.3904L22.1608 21.64ZM27.2767 25.1073L26.8024 23.1408L26.2605 23.8791L27.2767 25.1073Z" fill="var(--fill-0, #4375C4)"/>
</svg>
