<svg preserveAspectRatio="none" width="100%" height="100%" overflow="visible" style="display: block;" viewBox="0 0 63.3967 42.3274" fill="none" xmlns="http://www.w3.org/2000/svg">
<g id="Group">
<path id="Vector" fill-rule="evenodd" clip-rule="evenodd" d="M31.5207 42.0374C30.8484 41.5389 9.31664 19.8595 3.83947 12.9649C2.85799 11.7333 1.31542 9.84152 0.538921 7.95153C-0.119452 6.336 -0.232366 4.71352 0.525023 3.32556C1.25462 1.98449 2.90316 0.730288 6.22281 0.143139C9.30275 -0.40232 13.7429 0.636483 19.0602 2.827C30.7355 7.63363 47.0193 17.8983 62.6292 26.4432C63.1243 26.7125 63.4196 27.2371 63.3953 27.7999C63.3727 28.361 63.0357 28.8596 62.5215 29.0872L32.999 42.2007C32.5126 42.4161 31.9463 42.3536 31.5207 42.0374ZM32.6863 39.1086L58.6112 27.595C46.1126 20.6447 33.3863 12.8485 23.1129 7.88725C16.1401 4.5207 10.3954 2.40314 6.73179 3.05109C4.70282 3.40894 3.56327 3.91965 3.11509 4.73958C2.77287 5.36842 2.96917 6.09801 3.26969 6.83108C3.93675 8.45877 5.30213 10.0656 6.14812 11.1253C11.0607 17.3129 29.1373 35.6535 32.6863 39.1086Z" fill="var(--fill-0, #4356B1)"/>
</g>
</svg>
