<svg preserveAspectRatio="none" width="100%" height="100%" overflow="visible" style="display: block;" viewBox="0 0 129.02 61.8537" fill="none" xmlns="http://www.w3.org/2000/svg">
<path id="Vector" fill-rule="evenodd" clip-rule="evenodd" d="M1.62446 49.8078C1.46464 49.4569 1.55671 49.0295 1.86592 48.7759C2.0709 48.6091 2.27067 48.4458 2.46175 48.2895C2.20292 48.2773 1.9493 48.1471 1.78948 47.916C1.52023 47.5252 1.61056 46.9884 1.99968 46.7139L16.6263 36.3137L16.6298 36.3103C16.9008 36.1192 17.2378 36.1036 17.5123 36.2373C21.0039 34.0763 24.3461 31.6721 27.9194 29.6519C32.7313 26.9298 48.2786 20.0681 53.5734 18.8417C55.2063 17.9315 56.8392 17.0264 58.4981 16.1683C66.7582 11.8949 72.2493 10.1839 72.9615 9.8764C73.0536 9.83644 73.1456 9.81386 73.2412 9.80517L82.8023 3.93889C83.2019 3.69222 83.7282 3.81035 83.9819 4.20641C84.2389 4.60074 84.1365 5.12883 83.7491 5.39461L79.712 8.17401L90.1226 3.41428C90.4926 3.24578 90.9269 3.35869 91.1684 3.6679C91.5384 3.53067 91.964 3.66443 92.1898 3.99969C92.3983 4.31238 92.3757 4.7206 92.1551 5.0107C96.2634 2.99911 97.6791 2.40675 104.332 0.0494646C104.749 -0.0981912 105.217 0.0946298 105.404 0.495906C105.533 0.770372 105.508 1.07958 105.362 1.32278L106.924 0.74779C107.353 0.589711 107.827 0.789481 108.015 1.20118C108.098 1.38879 108.116 1.5903 108.065 1.77443L110.02 1.15601C110.457 1.01704 110.928 1.24461 111.095 1.67542C111.095 1.6841 111.098 1.69279 111.102 1.69974L111.507 1.55729C111.936 1.40269 112.41 1.60941 112.594 2.02979C112.773 2.45018 112.598 2.93831 112.195 3.14676L111.191 3.66443L111.562 3.55151C111.983 3.42297 112.433 3.62968 112.606 4.0327C112.728 4.31064 112.695 4.62332 112.537 4.86305L112.874 4.73971C113.223 4.60943 113.61 4.72234 113.84 5.00028C113.961 5.00723 114.086 5.01418 114.211 5.02112L114.486 4.73624C114.76 4.45135 115.195 4.38881 115.54 4.58511C115.785 4.72408 115.945 4.96901 115.973 5.23827C116.169 5.36855 116.31 5.57701 116.348 5.82194C116.414 6.22495 116.19 6.61928 115.811 6.76867L115.598 6.85206L115.594 6.86422L116.586 7.42878L116.897 6.87464L116.786 6.70788L116.944 6.79126L117.168 6.38824C117.168 6.38824 117.173 6.38303 117.173 6.37956L116.557 5.44151C116.306 5.05934 116.393 4.54689 116.756 4.27068C117.123 3.99448 117.639 4.05007 117.939 4.39576L120.418 7.26549C120.493 7.02577 120.672 6.82079 120.922 6.72177C121.339 6.55501 121.813 6.7322 122.016 7.13173L123.159 9.36568L122.98 8.06284C122.918 7.60597 123.222 7.18037 123.675 7.09178C124.125 7.00319 124.572 7.2846 124.683 7.73278L126.25 13.9482C126.337 14.0889 126.384 14.2557 126.378 14.4346V14.4555L126.733 15.8573C127.132 15.972 127.395 16.3594 127.355 16.778L127.203 18.2876C127.459 18.0895 127.808 18.0392 128.112 18.1833C128.511 18.371 128.708 18.8296 128.567 19.2482L128.532 19.3385C128.579 19.3594 128.621 19.3837 128.663 19.415C129.036 19.686 129.132 20.2071 128.878 20.5962L120.347 33.5691C120.083 33.9669 119.555 34.0798 119.155 33.8244C118.756 33.5691 118.634 33.041 118.881 32.6362L119.372 31.8424C119.331 31.865 119.293 31.8875 119.256 31.9101L118.113 33.0445C117.851 33.305 117.463 33.3641 117.144 33.2182L114.677 35.5789C114.338 35.902 113.81 35.902 113.473 35.5772C113.398 35.5042 113.339 35.4191 113.294 35.3288C110.953 36.6316 108.745 37.7868 107.511 38.2576C107.044 38.4348 106.677 38.5216 106.448 38.5338L106.153 38.5129C96.821 41.9698 94.6218 42.7967 84.364 46.5333C84.2598 46.6427 84.1278 46.7278 83.9732 46.773C83.4816 46.9189 83.0021 47.0614 82.54 47.1986C81.5933 47.5408 80.5858 47.9073 79.507 48.2999C79.2951 48.3781 79.0658 48.3659 78.8695 48.2826C74.3043 49.6375 71.2799 50.553 68.4172 51.465C63.8311 53.0475 60.1571 54.333 51.1866 57.3017C50.7505 57.4476 50.278 57.2236 50.1078 56.7997C48.534 57.3 46.7794 57.8576 44.7713 58.4917C44.6341 58.5368 44.4882 58.542 44.3544 58.5177C44.1216 58.6028 43.8837 58.6897 43.6457 58.7783C43.201 58.9416 42.7041 58.714 42.5339 58.2676C42.5044 58.1824 42.4835 58.0956 42.48 58.0105C39.1552 58.7592 36.7805 59.2039 34.2148 59.5999C33.0318 59.8744 31.7064 60.1871 30.2072 60.5467C30.0283 60.5901 29.8442 60.5727 29.6861 60.5085C27.9854 60.8663 26.2622 61.2242 23.8788 61.8269C23.4289 61.9416 22.9669 61.6775 22.8331 61.2294C22.741 60.9097 22.8366 60.5797 23.0624 60.3608C21.1255 60.6127 19.7462 60.6457 18.6709 60.5866C13.1017 61.7001 10.6523 61.4882 9.08543 61.7766C8.63899 61.8582 8.20645 61.582 8.09006 61.1425C7.97367 60.703 8.21513 60.2496 8.6442 60.1002C9.55272 59.7858 10.4439 59.4245 11.3263 59.0475C10.7722 59.0058 10.2146 58.9867 9.66043 59.0163C9.35643 59.0319 9.07675 58.8877 8.90651 58.6549C8.52782 58.7018 8.13522 58.7505 7.727 58.7974C6.98177 59.0527 6.24523 59.3168 5.51042 59.5999C5.08135 59.7667 4.59495 59.5652 4.40734 59.1431C4.21973 58.7227 4.38997 58.2294 4.79819 58.0192L4.78951 57.9775L4.81904 57.6804L4.91458 57.4459L4.97712 57.3608C4.66965 57.4233 4.33612 57.3139 4.12245 57.0481C3.92268 56.7945 3.8862 56.4627 4.00259 56.1813C3.86883 56.1239 3.74897 56.0336 3.6569 55.912C3.60652 55.8425 3.56483 55.7696 3.5353 55.6931C3.13576 55.9068 2.71016 56.1309 2.26546 56.3706C1.86939 56.5826 1.37778 56.4592 1.13111 56.084C0.886174 55.7088 0.966083 55.2085 1.31525 54.9271C2.28109 54.154 3.14445 53.4644 3.92268 52.8425C3.90184 52.8182 3.88099 52.7921 3.86014 52.7661C3.80629 52.6914 3.7646 52.6132 3.73681 52.5298C3.37722 52.8008 2.99853 53.0892 2.59378 53.3932C2.21855 53.6763 1.68178 53.6086 1.38994 53.2368C1.2197 53.0197 1.16933 52.7452 1.22839 52.4968C0.87054 52.6601 0.441469 52.5628 0.186111 52.2467C-0.0918301 51.8923 -0.0553502 51.3799 0.274705 51.0724L1.62446 49.8078ZM7.45601 55.9502C7.41084 55.8547 7.38478 55.7539 7.3761 55.6532C7.04778 55.9033 6.70209 56.1656 6.33556 56.4401C6.65171 56.2925 7.03215 56.1274 7.45601 55.9502ZM109.969 35.162C109.886 35.1221 109.811 35.0682 109.74 35.0022C109.466 34.733 109.407 34.3213 109.568 33.9912C109.353 34.2448 109.148 34.5071 108.948 34.7781C108.918 34.8372 108.877 34.8928 108.832 34.9431C108.627 35.2315 108.43 35.5268 108.239 35.8239C108.602 35.7127 108.972 35.5963 109.356 35.4764C109.365 35.473 109.368 35.4712 109.377 35.4695C109.568 35.3705 109.768 35.268 109.968 35.162H109.969ZM125.353 22.7972C125.324 22.8232 125.3 22.8493 125.27 22.8718C125.275 22.8823 125.279 22.8927 125.284 22.9031L125.353 22.7972ZM115.118 8.59266L114.91 9.35178L115.521 9.32225L115.735 8.94182L115.118 8.59266ZM105.691 36.6195C105.774 36.4927 105.852 36.3659 105.936 36.2373L103.083 37.4255C103.888 37.1788 104.749 36.9113 105.691 36.6195ZM81.6697 44.8222C80.5319 45.2356 79.2899 45.6873 77.9332 46.1841C78.9355 45.9166 80.0108 45.6282 81.1694 45.3138C81.291 45.2825 81.4109 45.2756 81.5273 45.2947C81.569 45.2721 81.6107 45.2478 81.6524 45.2252C81.628 45.0897 81.6315 44.9507 81.6697 44.8222ZM114.427 11.115L114.343 11.4207L114.519 11.1098L114.427 11.115ZM82.5557 10.4879C82.7659 10.5643 82.9431 10.7189 83.0438 10.936C83.0473 10.9413 83.0525 10.9482 83.0525 10.9552C83.1359 10.9204 83.2175 10.8839 83.3026 10.8492L84.3484 9.88335C83.7473 10.0779 83.148 10.2777 82.5557 10.4879ZM18.8255 37.7608C18.8794 37.8059 18.9245 37.8563 18.9662 37.9154C19.0548 38.0335 19.1035 38.1655 19.1208 38.301C19.4335 38.0821 19.7584 37.8546 20.0919 37.6201C20.3038 37.4707 20.5627 37.4307 20.7954 37.488C21.9993 36.6629 23.3073 35.7752 25.2199 34.6079C23.2292 35.5876 21.0994 36.6351 18.8255 37.7608ZM17.5592 42.312C18.287 41.7492 19.1799 41.0752 20.25 40.3039C19.3779 40.7573 18.4573 41.2333 17.4914 41.7353C17.5835 41.9177 17.6043 42.121 17.5592 42.312ZM76.4444 45.3642C76.1578 45.4806 75.866 45.5987 75.5707 45.7186C75.8451 45.7985 76.071 46.0104 76.1613 46.3022C76.196 46.4169 76.203 46.5333 76.1908 46.6462C76.5452 46.5524 76.9083 46.4568 77.2783 46.3578C76.9413 46.3491 76.6251 46.1424 76.4948 45.8089C76.4375 45.663 76.4201 45.5101 76.4444 45.3642ZM122.755 21.7809C122.742 21.7062 122.725 21.6315 122.708 21.5551L121.5 22.9344L122.755 21.7809ZM124.304 17.7039L124.275 17.492C123.899 17.6483 123.462 17.5198 123.229 17.1793L122.529 16.1596L123.54 18.3449C123.745 18.4074 123.924 18.5429 124.037 18.7392C124.123 18.8904 124.162 19.0571 124.15 19.2187C124.153 19.2204 124.153 19.2204 124.153 19.2221L124.302 17.7039H124.304ZM30.44 46.8824C30.3827 46.7365 30.3601 46.575 30.3896 46.4099L30.5147 45.6873C30.2941 45.8158 30.0769 45.9461 29.8563 46.0764C29.5697 46.271 29.2935 46.4568 29.0364 46.6375C29.2396 46.7174 29.4186 46.8755 29.5141 47.0961C29.5436 47.1604 29.5645 47.2281 29.5766 47.2941L30.44 46.8807V46.8824ZM31.0115 52.5837C31.0115 52.5489 31.015 52.5177 31.0237 52.4847C31.0063 52.4916 30.9854 52.4968 30.9698 52.5038C30.7909 52.5872 30.6154 52.6688 30.4487 52.7487C30.6398 52.6914 30.8274 52.6375 31.0115 52.5837ZM121.876 18.8782L121.768 18.6402L121.304 19.1474L121.876 18.8782ZM92.1255 10.8978C91.7972 11.1775 91.4758 11.4468 91.1684 11.7073C91.2048 11.6882 91.2379 11.6656 91.2726 11.6448C91.2761 11.6448 91.2761 11.6448 91.2761 11.6431C91.3386 11.6066 91.4011 11.5788 91.4672 11.5597L92.3722 10.8144L92.1255 10.8978ZM45.9491 53.996C46.5953 53.8396 47.2867 53.6729 48.0371 53.4922C49.1454 53.1257 50.3249 52.7313 51.5826 52.304C52.6336 51.9479 53.391 51.6995 54.3777 51.4059C54.1779 51.3243 54.0077 51.1662 53.9121 50.9525C53.9034 50.9282 53.8913 50.9021 53.8826 50.8778C51.3238 51.6039 48.6121 52.3943 45.2456 53.3897C45.5704 53.4383 45.8501 53.6711 45.9508 53.996H45.9491ZM112.794 20.6084C112.702 20.4034 112.69 20.1654 112.777 19.9431L112.943 19.5053L111.701 20.0351C111.439 20.6692 111.173 21.305 110.893 21.9303L112.794 20.6084ZM116.51 18.0235L116.642 17.928L116.534 17.9749C116.527 17.9905 116.518 18.0062 116.51 18.0235ZM118.452 15.2702L118.297 13.7971L117.75 14.749L117.846 14.9314L117.901 15.1138L117.892 15.4543L117.866 15.5186L118.45 15.2702H118.452ZM107.708 24.1452C108.39 23.1706 108.927 22.1058 109.41 21.0096L108.607 21.3536C108.382 21.5013 108.161 21.6454 107.944 21.7914L101.013 28.8319C101.058 28.8163 101.103 28.8024 101.145 28.7885C101.207 28.6964 101.284 28.6148 101.379 28.5488L107.708 24.1452ZM100.525 31.9727C99.5448 32.506 98.5338 33.0618 97.4881 33.6403C96.6907 34.0781 95.9663 34.4776 95.2871 34.8441C96.4875 34.422 97.8337 33.9478 99.3416 33.4127C99.7168 32.9177 100.111 32.4399 100.525 31.9727ZM104.595 11.5805C103.737 12.4665 102.845 13.4497 101.942 14.5336C103.069 13.9778 103.987 13.5539 104.636 13.2551C104.899 13.0067 105.175 12.7427 105.465 12.4612L106.04 11.511L104.595 11.5805ZM32.6739 45.8193L32.6687 45.2669L32.4099 45.9444L32.6739 45.8176V45.8193ZM52.7118 26.5441C51.8901 27.0027 51.1032 27.4492 50.3493 27.8887L52.0985 27.0218C52.307 26.862 52.512 26.7022 52.7118 26.5441ZM37.2183 41.7093L37.6143 42.828C38.1841 42.048 38.7417 41.2611 39.3098 40.4811C38.6132 40.8893 37.9183 41.2993 37.2183 41.7093ZM81.0357 39.9148C81.0808 39.8992 81.1312 39.8818 81.1781 39.8662C81.9981 39.4718 82.7311 39.1262 83.4103 38.8065C83.4312 38.7822 83.452 38.7596 83.4729 38.7388C83.5059 38.7075 83.5354 38.6762 83.5649 38.645C82.7937 38.9715 82.0571 39.2825 81.3397 39.5848L81.0357 39.9148ZM96.1331 19.6165C95.8621 19.7728 95.5911 19.9309 95.3166 20.0942C95.5546 19.9986 95.7961 19.9031 96.0375 19.8058C96.0619 19.7468 96.0949 19.6842 96.1331 19.6165ZM97.0833 15.2337C96.3537 15.6159 95.5876 16.0171 94.7747 16.441C94.9414 16.481 95.0925 16.5695 95.2089 16.6946C96.0584 16.0345 96.6421 15.5811 97.0833 15.2337ZM71.9001 21.3953C71.4623 21.6229 71.0385 21.8452 70.6164 22.0641C70.0084 22.6113 69.416 23.1446 68.8341 23.6657C69.5585 23.3808 70.2828 23.0977 71.0072 22.8163C70.9412 22.5209 71.0281 22.1996 71.2661 21.9807L71.9001 21.3953ZM41.9381 39.8471C42.7788 39.0358 43.5675 38.2958 44.3127 37.6149C43.9636 37.8111 43.6127 38.0074 43.267 38.2055C42.8084 38.7405 42.3671 39.2894 41.9381 39.8471ZM76.9534 31.3855C76.9951 31.3317 77.0368 31.2795 77.082 31.2274C77.1445 31.1493 77.207 31.0728 77.2748 30.9964C77.287 30.92 77.3078 30.8435 77.3356 30.7723C75.2146 31.686 73.2499 32.5511 71.3077 33.4284C71.2608 33.477 71.2209 33.5257 71.174 33.576C73.0605 32.8395 74.987 32.1082 76.9534 31.3855ZM70.9794 30.0531C71.7333 29.6849 72.4456 29.3426 73.1283 29.0213C73.1995 28.9535 73.2707 28.8858 73.3454 28.818C71.6708 29.4851 70.1751 30.0861 68.7889 30.6559C67.2759 31.4081 65.7976 32.1481 64.3592 32.876C66.3847 32.0005 68.5839 31.0607 70.9794 30.0531ZM68.2209 25.7833C68.2209 25.7798 68.2261 25.7763 68.2261 25.7729C67.1421 26.2071 66.0599 26.6501 64.9846 27.1087C64.5729 27.4804 64.1629 27.8435 63.7634 28.1996C65.1514 27.437 66.6175 26.6449 68.2209 25.7833ZM57.8432 43.3144L63.2978 41.7544C63.3604 41.5911 63.4524 41.4035 63.5723 41.1968C63.6765 41.0196 63.7808 40.8442 63.8798 40.6705C61.618 41.6241 59.6186 42.5031 57.8432 43.3144ZM66.647 39.5222C66.4629 39.8002 66.284 40.0833 66.1016 40.3699C66.6349 39.993 67.2585 39.5309 67.9968 38.9733C67.5382 39.1592 67.0883 39.3416 66.647 39.5222ZM70.3801 39.3224C71.0923 39.0549 71.8046 38.7926 72.5168 38.5286C72.8364 37.9901 73.1456 37.4446 73.4531 36.8974C72.2996 37.8198 71.2782 38.6241 70.3784 39.3224H70.3801ZM84.0861 28.858C85.7728 28.2847 87.4822 27.7202 89.2054 27.1712C90.1261 26.3895 91.1354 25.521 92.2645 24.5412C92.2801 24.5169 92.301 24.4943 92.3218 24.4717C89.6484 25.5852 87.265 26.5789 85.0901 27.4891C84.7861 27.906 84.4526 28.3594 84.0861 28.858ZM83.5198 34.66L83.631 34.5384C83.5736 34.5853 83.5198 34.6322 83.4607 34.6791C83.4816 34.6722 83.4989 34.6652 83.5198 34.66ZM75.0078 37.6253C75.291 37.5228 75.5741 37.422 75.8625 37.3195C76.342 36.6334 76.7953 35.9854 77.2331 35.367C77.0715 35.4278 76.9083 35.4886 76.7328 35.5546C76.5 35.6432 76.2707 35.7318 76.0414 35.8187C75.6871 36.4145 75.35 37.019 75.0078 37.6253ZM79.9656 34.5193C80.0559 34.4498 80.148 34.3786 80.2401 34.3108C80.181 34.3299 80.1272 34.3508 80.0681 34.3699C80.0351 34.4185 79.9986 34.4689 79.9639 34.5193H79.9656Z" fill="var(--fill-0, #719DE3)"/>
</svg>
