<svg preserveAspectRatio="none" width="100%" height="100%" overflow="visible" style="display: block;" viewBox="0 0 21.1652 18.053" fill="none" xmlns="http://www.w3.org/2000/svg">
<path id="Vector" fill-rule="evenodd" clip-rule="evenodd" d="M1.4783 9.39395C1.553 9.26888 1.65722 9.16118 1.79446 9.08301L4.14132 7.73326C4.10658 7.69157 4.07878 7.64466 4.04925 7.59429C3.83732 7.18432 3.9815 6.68056 4.37931 6.44431L15.0262 0.121164C15.4309 -0.118559 15.9556 0.00825122 16.2057 0.406053C16.4558 0.805592 16.3429 1.33194 15.9469 1.59251L15.1686 2.11018C15.2364 2.17619 15.2937 2.25262 15.3389 2.34121C15.4692 2.59136 15.4639 2.87625 15.3528 3.11424C15.5525 3.18546 15.7315 3.33311 15.8357 3.53636C16.0355 3.93068 15.9104 4.41361 15.5386 4.65854L14.9306 5.05808C14.9515 5.07198 14.9689 5.08587 14.9845 5.10151L15.4136 4.88784L15.8027 6.53464L15.9764 6.486L16.9648 6.03782L16.6139 5.65739C16.3151 5.32907 16.3099 4.82704 16.607 4.49351C16.9023 4.15999 17.3974 4.1044 17.7604 4.36497C18.5439 4.9278 19.2856 5.54621 20.0691 6.10904C20.7882 6.63018 21.0645 7.09921 21.1357 7.47269L21.1652 7.74021L21.1392 8.00078L21.0262 8.34646C20.9845 8.43679 20.9307 8.52886 20.8647 8.62267C20.6145 8.98573 20.0778 9.387 19.4767 9.9811C19.4889 9.98458 19.5028 9.98805 19.5149 9.99326C19.8259 10.0975 20.0517 10.3702 20.0969 10.6951C20.1438 11.0216 20.0013 11.343 19.7303 11.5306L19.2891 11.8364C19.2266 11.9875 19.1189 12.123 18.9729 12.2203L10.5114 17.9059C10.1153 18.1717 9.58202 18.0674 9.31102 17.6731C9.04351 17.2788 9.14426 16.742 9.53685 16.471L10.7945 15.6007L6.5403 17.3483C6.12339 17.5185 5.64394 17.343 5.43548 16.94C5.33126 16.7368 5.31562 16.5092 5.37816 16.3025L4.81185 16.5752L4.43142 16.6604L3.9954 15.0431L4.28724 14.8711C4.26118 14.8364 4.23686 14.7982 4.21602 14.7565C4.1448 14.6279 4.11526 14.4872 4.11526 14.35C3.94155 14.4872 3.72094 14.5602 3.48295 14.5358C3.2328 14.5081 3.02087 14.3795 2.87843 14.1919C2.8072 14.1815 2.74119 14.1641 2.67866 14.138C1.71976 14.1467 1.18299 14.0651 0.887674 13.9574L0.554145 13.7924L0.250147 13.5214L0.116388 13.3077L0.0330055 13.0888L0 12.6181C0.145919 10.9678 0.833823 9.97415 1.4783 9.39569V9.39395ZM18.2295 8.77206C18.1218 8.76685 18.0088 8.76337 17.9046 8.75643C17.9758 8.79638 18.0384 8.84502 18.0974 8.90408C18.1426 8.85892 18.1878 8.81375 18.2295 8.77206Z" fill="var(--fill-0, #DDEAFF)"/>
</svg>
