<svg preserveAspectRatio="none" width="100%" height="100%" overflow="visible" style="display: block;" viewBox="0 0 11.7137 11.0434" fill="none" xmlns="http://www.w3.org/2000/svg">
<path id="Vector" fill-rule="evenodd" clip-rule="evenodd" d="M7.21804 0.327777C7.48556 0.282612 7.76871 0.362519 7.97196 0.5675C8.15088 0.744687 8.23948 0.982674 8.23079 1.21719L8.57648 0.94272C8.92564 0.668254 9.43115 0.702996 9.73862 1.02263C10.0305 1.32489 10.0635 1.79218 9.822 2.13092C10.1799 1.87903 10.6715 1.93115 10.9685 2.2612C11.2725 2.60168 11.2586 3.12282 10.939 3.4494L9.32692 5.09446L10.6471 4.28322C10.5881 4.32143 10.5308 4.36486 10.4839 4.4135L10.4925 4.40655C10.4456 4.45172 10.4057 4.50209 10.3709 4.55595C10.3292 4.61501 10.3015 4.67928 10.2806 4.74703C10.2302 4.89121 10.2215 5.04929 10.2511 5.20216C10.2545 5.22127 10.258 5.24037 10.2667 5.25948C10.2754 5.29075 10.2841 5.32202 10.2962 5.35329C10.43 5.67813 10.7462 5.8918 11.1005 5.8918L11.7137 5.63991L8.47573 8.84318L9.35471 8.69031C9.82548 8.60693 10.2754 8.92308 10.3588 9.39558C10.4422 9.86808 10.126 10.318 9.65003 10.3996L6.04201 11.0302C5.66679 11.0962 5.29678 10.9104 5.12133 10.5734C4.97193 10.2815 5.00146 9.93409 5.18386 9.67352L4.20933 10.2711C3.83411 10.5021 3.35119 10.4153 3.07672 10.0731C2.80573 9.72911 2.83005 9.23577 3.13405 8.92308L3.19658 8.86229C3.13405 8.82581 3.07499 8.78064 3.02635 8.72679C2.71714 8.40716 2.69629 7.90339 2.98465 7.56291L3.00897 7.53512L2.09698 8.25255C1.74261 8.53223 1.23015 8.49228 0.926154 8.16222C0.905309 8.14311 0.889674 8.12227 0.872303 8.10142C0.651687 8.10316 0.431072 8.01978 0.259096 7.85301C-0.069222 7.52991 -0.0900677 7.00182 0.222616 6.65613L5.8874 0.291297C6.1914 -0.050917 6.70906 -0.0978193 7.07039 0.183595C7.12598 0.227024 7.17462 0.275663 7.21631 0.329514L7.21804 0.327777Z" fill="var(--fill-0, #DDEAFF)"/>
</svg>
