<svg preserveAspectRatio="none" width="100%" height="100%" overflow="visible" style="display: block;" viewBox="0 0 9.93829 9.63205" fill="none" xmlns="http://www.w3.org/2000/svg">
<path id="Vector" fill-rule="evenodd" clip-rule="evenodd" d="M6.86137 0.744717L7.31476 0.527576C7.7143 0.336492 8.19375 0.4772 8.42826 0.852419C8.66104 1.22764 8.57418 1.71925 8.22849 1.99371L7.68998 2.41583C7.93318 2.47316 8.14511 2.63645 8.26497 2.87096C8.44389 3.23055 8.35356 3.6683 8.04435 3.9254L7.8359 4.10259L8.53249 3.77253C8.94071 3.57971 9.42711 3.73258 9.65294 4.12343C9.87703 4.51428 9.76411 5.01284 9.39758 5.27167L9.2725 5.35679C9.50181 5.41238 9.70158 5.5583 9.82665 5.77544C10.0403 6.15413 9.93956 6.63358 9.5904 6.89415C8.74442 7.53515 7.93144 7.72797 7.29044 7.88431C7.14452 7.92079 6.94128 7.98854 6.85268 8.01981C6.85268 8.12056 6.85789 8.36897 6.90306 8.58959C6.9986 9.05861 6.6946 9.51895 6.22384 9.61449C5.75308 9.71003 5.29621 9.40604 5.19893 8.93701C5.1833 8.85189 5.17114 8.76851 5.15898 8.6886L3.51218 9.34176C3.10048 9.50505 2.63319 9.33481 2.42473 8.9457C2.37088 8.83973 2.33788 8.72682 2.32572 8.61391C1.96266 8.7164 1.56659 8.57221 1.35814 8.24563C1.12536 7.87736 1.20006 7.39271 1.53359 7.11129L1.92097 6.78818C1.62565 6.8125 1.32166 6.68396 1.13752 6.42513C0.96207 6.17845 0.932539 5.86751 1.03677 5.60346C0.892585 5.57393 0.758825 5.50792 0.645912 5.41064C0.433982 5.35505 0.241161 5.21782 0.121298 5.01458C-0.108003 4.62894 -0.00377519 4.13038 0.36276 3.86807L5.49598 0.164517C5.87468 -0.111686 6.40798 -0.0317788 6.69113 0.341704C6.78667 0.463303 6.84052 0.602273 6.8631 0.744717H6.86137Z" fill="var(--fill-0, #DDEAFF)"/>
</svg>
