<svg preserveAspectRatio="none" width="100%" height="100%" overflow="visible" style="display: block;" viewBox="0 0 11.1878 10.046" fill="none" xmlns="http://www.w3.org/2000/svg">
<path id="Vector" fill-rule="evenodd" clip-rule="evenodd" d="M1.31618 3.73696C1.31618 3.73349 1.31618 3.73001 1.31271 3.72654C1.1251 3.29747 1.31271 2.79544 1.7331 2.59219L6.96881 0.0855188C7.38572 -0.114251 7.8808 0.0473021 8.10663 0.452053C8.26124 0.735205 8.23865 1.07047 8.08231 1.3293C8.19349 1.3901 8.29424 1.4787 8.37241 1.59161C8.82754 2.23956 9.04295 2.75722 9.11069 3.17761C9.43554 3.18108 9.74301 3.36695 9.88893 3.6779C10.0765 4.07223 9.9393 4.54473 9.57277 4.77924L8.59824 5.39939L8.63124 5.39418C8.99257 5.33686 9.34694 5.51057 9.5276 5.82325L10.4552 5.97091C10.7974 6.02476 11.0719 6.27838 11.1605 6.61364C11.2474 6.94891 11.1223 7.30502 10.8513 7.51695L9.81423 8.31603C9.75691 8.48106 9.64399 8.62871 9.48939 8.73294L7.7731 9.89682C7.38572 10.1591 6.8559 10.0671 6.58143 9.68662C6.51021 9.58934 6.46504 9.48164 6.44072 9.37047L6.15583 9.42258C5.77019 9.4938 5.38107 9.29577 5.21083 8.93792C5.04407 8.58007 5.13961 8.15621 5.44013 7.90259L5.78582 7.61597L4.73138 7.78621C4.32316 7.85222 3.92709 7.62292 3.78117 7.23901C3.71169 7.05487 3.70648 6.86205 3.76033 6.68487L2.69026 7.02882C2.2855 7.16084 1.84427 6.9767 1.64798 6.59627V6.5928L1.56981 6.57369L1.29534 6.40345L1.06604 6.08382L1.02087 5.9049C0.654338 5.97091 0.273906 5.79025 0.0949814 5.44629C-0.108263 5.04502 0.0237593 4.55515 0.404191 4.31542L1.31618 3.73696ZM1.75742 5.64606V5.64433C1.75742 5.63738 1.76089 5.63043 1.76089 5.62522H1.75742V5.64606ZM6.80726 2.22566L6.7065 2.2882C6.69087 2.31599 6.67002 2.34031 6.65265 2.36463C6.72387 2.37505 6.7951 2.39242 6.86111 2.41848C6.83679 2.35594 6.81594 2.29167 6.80726 2.22566ZM7.39441 3.36C7.38572 3.42254 7.36835 3.47987 7.3475 3.53719C7.36835 3.51113 7.3892 3.4816 7.40136 3.4486C7.41525 3.42254 7.40657 3.39301 7.39441 3.36Z" fill="var(--fill-0, #DDEAFF)"/>
</svg>
