<svg preserveAspectRatio="none" width="100%" height="100%" overflow="visible" style="display: block;" viewBox="0 0 133.781 65.9723" fill="none" xmlns="http://www.w3.org/2000/svg">
<path id="Vector" fill-rule="evenodd" clip-rule="evenodd" d="M10.967 64.9715C10.3121 64.7109 6.18987 62.88 3.25065 59.9303C1.0775 57.752 -0.418174 54.9865 0.104703 51.8492C0.624105 48.7398 3.23675 45.064 9.97161 41.2562C23.8061 33.4322 57.1521 15.3331 82.6671 5.94737C93.842 1.83733 103.563 -0.573806 109.593 0.117571C119.463 1.24844 127.058 6.93406 130.909 12.8507C133.661 17.0824 134.475 21.4634 133.179 24.5694C131.011 29.7547 128.965 33.5799 119.977 38.4004C111.406 42.9951 96.2445 48.5661 67.7816 57.3663C30.2561 68.9669 21.7407 65.6993 11.4256 65.0722C11.2658 65.0636 11.1112 65.0288 10.967 64.9715ZM11.8512 62.14C21.8657 62.7914 30.3864 65.8348 66.9061 54.5435C95.0806 45.8336 110.102 40.346 118.584 35.7982C126.643 31.4762 128.515 28.0801 130.456 23.4298C131.451 21.0395 130.558 17.7216 128.437 14.4645C124.973 9.14542 118.131 4.06954 109.261 3.05158C103.521 2.39495 94.3093 4.81129 83.6868 8.71983C58.3229 18.0482 25.1767 36.0501 11.4256 43.8272C5.85982 46.9731 3.44347 49.7647 3.01787 52.3339C2.65829 54.4983 3.84127 56.3432 5.34042 57.8458C7.68207 60.1961 10.894 61.7248 11.8512 62.1417V62.14Z" fill="var(--fill-0, #4356B1)"/>
</svg>
