<svg preserveAspectRatio="none" width="100%" height="100%" overflow="visible" style="display: block;" viewBox="0 0 34.7809 56.955" fill="none" xmlns="http://www.w3.org/2000/svg">
<path id="Vector" fill-rule="evenodd" clip-rule="evenodd" d="M2.6266 13.9333C2.41814 13.8534 2.24269 13.6936 2.14715 13.4747C1.95433 13.0387 2.15062 12.528 2.58317 12.3334L2.99661 12.1475L12.1496 6.90837C12.5491 6.6808 13.0581 6.80414 13.3082 7.18804C13.3569 7.26795 13.3951 7.35133 13.4194 7.43819L14.5815 6.71033C14.7987 6.57484 15.0523 6.54531 15.2816 6.61132L16.6313 6.00159C17.0361 5.81919 17.5103 5.97205 17.7362 6.34901L22.0112 4.16718C22.2266 4.05774 22.4646 4.04558 22.6766 4.1168C23.4096 3.73985 24.207 3.32988 25.0808 2.87823C25.4925 2.6663 26.0014 2.81743 26.2307 3.22044C26.3523 3.4289 26.3767 3.66689 26.3141 3.88229L28.4299 1.24707L29.064 2.57076L30.7959 0.336813C31.06 -0.0036647 31.529 -0.0992062 31.9042 0.110986C32.2794 0.319442 32.4462 0.772832 32.2968 1.17411C31.7218 2.69757 31.093 4.19845 30.4381 5.6889L31.2389 4.46075C31.4751 4.09769 31.9424 3.96394 32.3333 4.14981C32.4253 4.19324 32.5087 4.25056 32.5765 4.31831C32.7502 3.88924 32.9256 3.45148 33.1098 3.00504C33.2887 2.56555 33.789 2.35014 34.2302 2.52386C34.6715 2.69931 34.8921 3.19439 34.7253 3.63909L33.7334 6.27084C34.0965 6.48277 34.258 6.93269 34.1052 7.3357C34.1052 7.33744 34.1052 7.33744 34.1017 7.33917C32.5556 11.3276 30.7977 15.2344 29.2516 19.2229C29.1891 19.3809 29.13 19.5373 29.0692 19.6902C29.1387 19.6971 29.2064 19.7093 29.2777 19.7336C29.7015 19.8778 29.9482 20.3277 29.8388 20.7654C28.4595 26.3173 27.4902 30.2397 26.797 33.0521C27.0819 33.2867 27.1896 33.6827 27.0472 34.0406L25.76 37.2768C25.0773 40.058 24.9765 40.4662 24.7351 41.3052C23.7362 44.8021 22.2579 48.1495 21.2573 51.6464C21.1288 52.098 20.665 52.3638 20.2116 52.2509C20.0778 52.2179 19.9614 52.1553 19.8659 52.0719L18.7993 54.7454C18.6325 55.1588 18.1878 55.3794 17.7622 55.2613C17.5625 55.2057 17.3957 55.0841 17.2828 54.926C17.2046 54.9921 17.116 55.0442 17.0205 55.0789L16.6869 55.7859C16.4872 56.2167 15.9747 56.4043 15.5422 56.208C15.5161 56.1959 15.4918 56.182 15.4675 56.1681C15.0992 56.4512 14.6753 56.6128 14.0708 56.7744C13.0303 57.0558 12.4344 56.9012 12.0801 56.6406L11.7379 56.955C11.3922 56.955 11.076 56.7466 10.9388 56.4252L10.0059 54.2069C9.9295 54.1965 9.8548 54.1739 9.78531 54.1409C9.48479 54.0054 9.29718 53.717 9.27634 53.4061L8.71003 54.0523C8.28964 54.0523 7.9318 53.7518 7.85536 53.3401L7.51836 51.4917C7.27342 51.6498 6.95205 51.6811 6.67238 51.5473C6.25199 51.3476 6.06438 50.8507 6.24852 50.4234C6.51082 49.805 6.76097 49.2161 6.99722 48.6568L6.46913 45.754C6.06438 45.5421 5.88893 45.0505 6.07828 44.6318C6.12344 44.5328 6.16513 44.4373 6.2103 44.3417L5.68221 41.4529C5.51197 41.5328 5.31568 41.5554 5.11938 41.5102C4.95783 41.4703 4.81538 41.3904 4.70768 41.2792L3.08694 43.7824C2.85763 44.1385 2.40424 44.2757 2.01165 44.1072C1.62427 43.937 1.41582 43.5096 1.51657 43.0979C2.05682 40.9491 2.51542 39.1442 2.89585 37.6277C2.52411 37.454 2.32086 37.0319 2.42509 36.6219L4.33246 29.3329C3.96592 29.6092 3.45 29.5501 3.14947 29.2009C2.84895 28.8483 2.87848 28.3219 3.21722 28.0058L5.1576 26.1766L5.97926 23.0359L4.04583 24.2796C3.67061 24.5228 3.17032 24.4395 2.89585 24.0886C2.61617 23.7377 2.65439 23.2339 2.97576 22.9229L5.88198 20.1279L2.42161 22.7475C2.05334 23.0237 1.54263 22.9681 1.2421 22.6207C0.941579 22.275 0.962425 21.7556 1.28727 21.4342L3.37877 19.3792L2.1871 20.312C1.82057 20.6004 1.29074 20.5448 0.986745 20.187C0.687958 19.8309 0.720963 19.2993 1.06665 18.9849L5.74996 14.7272C5.74127 14.7133 5.73259 14.6994 5.7239 14.6855C5.68221 14.6177 5.65268 14.5483 5.63183 14.4753L4.6243 14.9895L1.32896 17.0532C0.932893 17.3016 0.411754 17.1904 0.149447 16.8048C-0.11286 16.4191 -0.0207916 15.8945 0.354429 15.6183L2.62833 13.9368L2.6266 13.9333ZM4.9005 37.7737L5.33305 35.062C5.0968 36 4.81712 37.1049 4.48359 38.4129L4.9005 37.7737ZM14.8247 54.2416C14.6944 54.1704 14.5902 54.0714 14.5207 53.955L14.42 54.1669C14.2202 54.5908 13.7199 54.7836 13.2908 54.596C13.237 54.5734 13.1901 54.5491 13.1449 54.5178C13.1571 54.7541 13.1779 55.0094 13.1953 55.1762C13.3117 55.1606 13.475 55.1345 13.6209 55.0946C14.215 54.9347 14.4947 54.7593 14.8247 54.2416ZM22.7235 36.4917L21.0402 40.8605L22.9719 37.2647C23.0483 37.1257 23.1525 37.0145 23.2776 36.9381C23.6858 36.2901 24.1219 35.6561 24.5266 35.0081C24.815 33.8512 25.1641 32.4198 25.6054 30.6306L23.2967 35.9948C23.189 36.2485 22.9719 36.4256 22.7235 36.4917ZM27.676 7.62927L26.5347 9.14405L26.5886 9.28128C26.5955 9.32297 26.6042 9.36467 26.6129 9.40636L27.0593 8.99466C27.2626 8.53953 27.4676 8.0844 27.676 7.62927ZM12.4831 16.7787L14.8786 14.8974L12.0488 16.6015L10.6122 17.9843L12.4831 16.7787ZM23.0639 7.93675L24.1097 6.63564C21.8566 8.25638 20.2307 9.44284 18.8323 10.4868L23.0639 7.93675ZM13.0285 52.9735C13.0876 52.8241 13.1449 52.6765 13.204 52.5306C13.1293 52.5705 13.0494 52.5983 12.9712 52.6157C12.9921 52.7373 13.0112 52.8571 13.0285 52.9735ZM8.6666 26.7394L8.99492 25.7579C8.84032 25.8778 8.67876 25.9994 8.51547 26.1245L8.37824 27.0052L8.6666 26.7394ZM9.64113 29.8471L10.6209 28.9178L11.7952 27.1042L10.1258 28.3098L9.64113 29.8471ZM22.5723 30.2067C23.0813 28.6589 23.5225 27.3092 23.9186 26.1036L23.8561 26.1279L23.5139 26.1679L23.3106 26.1488L23.123 26.0863L22.852 25.8917L22.7183 25.7145L22.6679 25.5946L21.2139 27.3943C21.5526 27.6288 21.6812 28.0753 21.5057 28.4609C19.2475 33.4743 17.8769 36.4517 16.7356 39.0557L21.2782 30.4881C21.4988 30.0747 22.0026 29.9079 22.4229 30.1129C22.4768 30.139 22.5272 30.1702 22.5723 30.2067ZM11.4165 24.2223L13.2526 22.5373C12.7072 22.9438 12.1443 23.3677 11.5416 23.8245L11.4165 24.2223ZM18.636 19.9646C18.636 19.9785 18.6395 19.9924 18.6447 20.0063L19.8746 19.1152C19.9232 18.9762 19.9701 18.8355 20.0188 18.6948L18.636 19.9646ZM9.02445 35.498L8.2827 36.6584L8.60928 38.2965C8.70482 38.168 8.83684 38.0655 8.99666 38.0047C9.01229 37.9977 9.03314 37.9925 9.05051 37.9856C9.70367 36.5247 10.2543 35.3 10.7164 34.2681L9.02445 35.498ZM22.6436 25.5443L22.6349 25.5234L22.5723 25.1117C22.5654 24.6948 22.6731 23.722 22.8607 22.5286L21.5891 24.3352L22.0686 25.8187L22.6436 25.5443ZM24.9175 20.6629C25.2058 19.9559 25.5341 19.1308 25.9181 18.1702L25.2145 19.176C25.1103 19.6641 25.0147 20.1679 24.9175 20.6629ZM19.5602 15.5297L19.5445 15.5402L19.548 15.5454L19.5602 15.5297ZM17.2776 29.5049L16.8989 29.7811C16.8311 29.9288 16.7651 30.0764 16.7026 30.2258L17.2654 29.524L17.2776 29.5049Z" fill="var(--fill-0, #4375C4)"/>
</svg>
