<svg preserveAspectRatio="none" width="100%" height="100%" overflow="visible" style="display: block;" viewBox="0 0 16.9502 22.5049" fill="none" xmlns="http://www.w3.org/2000/svg">
<path id="Vector" fill-rule="evenodd" clip-rule="evenodd" d="M1.24832 4.03309C1.39424 3.70998 1.72777 3.49458 2.10299 3.52063C2.57375 3.5519 2.9316 3.95665 2.91075 4.42915L2.83258 6.00125C2.94028 5.91266 3.07404 5.85186 3.21475 5.82406L3.83143 3.18537C3.93566 2.73371 4.37689 2.44535 4.83202 2.52873C5.28541 2.61038 5.59809 3.03597 5.53556 3.49631L5.44001 4.2398L7.19452 3.54495C7.38908 3.2757 7.72782 3.14194 8.05613 3.20448L11.9473 1.66712C12.022 1.63759 12.0967 1.62022 12.1714 1.61153L15.4476 0.0811204C15.7916 -0.0786949 16.1963 0.00294953 16.4552 0.279153C16.7088 0.55883 16.7557 0.970529 16.5681 1.29885L14.8309 4.34577C15.1315 4.11994 15.5466 4.10431 15.8593 4.3284C16.2259 4.58897 16.3336 5.08579 16.1095 5.47316L15.359 6.76038C15.3799 6.80033 15.4007 6.84028 15.4216 6.88371C15.5553 7.17729 15.6596 7.44307 15.7377 7.69321C16.0122 7.57509 16.3422 7.60462 16.6011 7.7957C16.9676 8.07017 17.0597 8.58262 16.8095 8.96653C15.234 11.3759 14.1639 12.7274 11.6138 16.7593C11.0648 17.6991 10.4516 18.7674 9.78111 19.9886C9.68904 20.1588 9.54833 20.2839 9.38504 20.3586C9.05151 20.8989 8.70582 21.4738 8.33929 22.0853C8.09088 22.4953 7.55758 22.6273 7.14762 22.3806C6.73592 22.134 6.60216 21.5989 6.8523 21.189C6.927 21.0621 7.00343 20.9371 7.07813 20.8137C6.99475 20.8016 6.91137 20.7755 6.83493 20.7373C6.53614 20.5931 6.36069 20.303 6.34332 19.9938L6.20609 20.2301C6.05149 20.4976 5.77007 20.6643 5.45739 20.6643L4.66525 19.4397L4.71042 19.3354C4.61488 19.3215 4.51934 19.2903 4.42727 19.2399C4.26919 19.153 4.14412 19.021 4.06942 18.8699C4.05726 18.8716 4.04336 18.8734 4.0312 18.8751C4.01904 19.3285 4.00688 19.7836 3.9982 20.237V20.2387C3.98951 20.7182 3.59344 21.0986 3.114 21.0899C2.63629 21.0813 2.25238 20.6852 2.26107 20.2057V20.204L2.30623 17.8936L2.22285 18.3696C2.18637 18.5676 2.08561 18.7396 1.94838 18.8647L1.94491 18.8907L1.09892 19.5613C0.857463 19.5613 0.631636 19.464 0.470083 19.292C0.449237 19.2729 0.431866 19.2538 0.416232 19.233C0.285947 19.0662 0.219936 18.8595 0.232096 18.6493L0.244256 18.3957C0.0792287 18.2237 -0.018051 17.9857 0.00279459 17.7286L0.953005 4.62892C0.970377 4.3892 1.08155 4.18074 1.24832 4.03482V4.03309ZM14.15 8.83972L14.051 9.01343C14.0388 9.07944 14.018 9.14719 13.9884 9.21146L13.7713 9.69612C13.7974 9.70133 13.8217 9.70828 13.846 9.71697C14.018 9.3817 14.1222 9.10723 14.15 8.83972ZM5.20203 6.02557L4.69479 9.89763L6.24778 5.89702L5.58941 6.03426C5.45739 6.06031 5.3271 6.05684 5.20203 6.02557ZM7.70523 7.02268L7.69655 6.97231L7.62706 7.14949L7.70523 7.02268Z" fill="var(--fill-0, #4375C4)"/>
</svg>
