<svg preserveAspectRatio="none" width="100%" height="100%" overflow="visible" style="display: block;" viewBox="0 0 28.4731 19.4463" fill="none" xmlns="http://www.w3.org/2000/svg">
<path id="Vector" fill-rule="evenodd" clip-rule="evenodd" d="M0.298796 4.34294C0.394339 4.10496 0.595846 3.92603 0.832096 3.84786C0.727868 3.68631 0.679228 3.49001 0.700074 3.28677C0.75045 2.84901 1.11699 2.51548 1.55822 2.51201L4.99426 2.48422L1.57385 1.80847C1.11177 1.71814 0.807776 1.27344 0.887684 0.809625C0.971066 0.344075 1.40361 0.0279176 1.8709 0.0974027L4.14481 0.436143C4.32894 0.119986 4.69548 -0.0554644 5.06548 0.0157577L10.831 1.14315C10.8102 0.959018 10.8484 0.76446 10.9561 0.595958C11.2062 0.187733 11.7395 0.059186 12.1478 0.311069C12.5595 0.56469 12.7401 0.688026 14.0604 1.77199L16.8971 2.32787C17.3592 2.41821 17.6684 2.86291 17.5833 3.32672C17.5172 3.72279 17.1924 4.01115 16.8085 4.04589C16.8259 4.05979 16.8432 4.07369 16.8589 4.08585C16.9301 4.09106 17.0013 4.10496 17.0725 4.12754C17.3383 4.0511 17.6388 4.10669 17.8629 4.29257L18.3754 4.71469C21.5787 5.41301 23.4461 5.70659 24.6708 6.00711C26.4044 6.43271 27.028 6.8722 28.0026 8.16462C28.4038 8.69618 28.5272 9.14436 28.4525 9.56822L28.383 9.82879L28.2701 10.0616C28.1989 10.1832 28.1033 10.3117 27.9782 10.4437C27.7246 10.7078 27.3025 11.0239 26.658 11.4304C26.1907 11.7257 25.5862 12.0818 24.8236 12.5266C24.8236 12.5318 24.8201 12.5352 24.8201 12.5387C24.8167 12.5561 24.808 12.5717 24.8028 12.5874C24.6655 12.9105 24.3546 13.1206 24.0002 13.1206L23.8838 13.079C22.1658 14.083 19.8294 15.4623 16.7008 17.4287C16.3013 17.6771 15.7801 17.566 15.5178 17.1751C15.4883 17.1299 15.4605 17.083 15.4379 17.0344L14.9011 17.3592C14.8421 17.3957 14.7795 17.4235 14.717 17.4444L14.6006 17.5903L13.8137 19.0008C13.5965 19.3917 13.1171 19.5532 12.7054 19.3726C12.6463 19.3465 12.5925 19.3135 12.5386 19.2753C12.4552 19.251 12.3771 19.211 12.2972 19.1589C11.9254 18.8983 11.8142 18.3946 12.047 18.0037L12.4674 17.2898C12.3267 17.1959 12.2086 17.0587 12.1426 16.8902L11.8594 16.1919C11.8299 16.2284 11.7934 16.2614 11.7552 16.2909C11.7587 16.6644 11.5189 17.0101 11.1437 17.1265C10.9683 17.1803 10.7893 17.1751 10.626 17.123L10.6104 17.156L10.6434 17.2081L9.89645 18.5249C9.60113 18.5249 9.33188 18.3755 9.16859 18.1288L5.96011 13.178L0.173723 5.52419C-0.0555785 5.21672 -0.0590523 4.79112 0.170249 4.48191C0.206729 4.43154 0.253631 4.38463 0.298796 4.34468V4.34294ZM21.233 7.07718L21.292 7.12408C21.471 7.13451 21.6464 7.20052 21.7923 7.32212C21.9052 7.41418 21.9869 7.52883 22.0373 7.65391L22.3169 7.81546C22.5045 7.92316 22.6383 8.09514 22.7043 8.29143L23.896 9.27291C23.929 9.30244 23.962 9.33197 23.9915 9.36498L24.5335 9.03319C24.7993 8.86816 25.1207 8.86642 25.3778 8.99844L26.0778 8.57806C25.6192 8.12988 25.1415 7.91274 24.2573 7.69386C23.5277 7.51667 22.5706 7.33949 21.233 7.07718ZM6.41002 7.98396L6.45693 8.08819L6.44824 7.9996L6.41176 7.98396H6.41002ZM8.42683 12.061C8.53975 12.2052 8.66135 12.3528 8.78121 12.5057C8.81943 12.5509 8.85243 12.596 8.89065 12.6429L8.35561 10.8554L8.42683 12.061ZM16.9214 9.73325L17.1142 9.40841L17.0517 9.34761L16.9214 9.73151V9.73325ZM10.098 4.17965L8.98966 4.18834L10.1813 4.45933L10.1396 4.19876L10.098 4.17965ZM10.4471 9.6516C10.4888 9.55259 10.5322 9.45531 10.5722 9.35803C10.5114 9.36498 10.4436 9.36845 10.3689 9.36498L10.4471 9.6516ZM10.6486 7.46282C10.7476 7.41245 10.8432 7.3586 10.9109 7.32559L11.3522 7.17099L11.6857 7.16056L11.7031 7.16404L11.34 6.15129C11.1906 6.27984 10.9943 6.35627 10.7824 6.35627C10.7563 6.35627 10.732 6.35627 10.7077 6.3528L9.73142 6.27115L10.2491 7.54794L10.4905 7.6487C10.5652 7.67996 10.6365 7.72339 10.699 7.77203L10.6486 7.46282ZM18.5508 12.7003L19.9423 11.8473C19.7512 11.8386 19.5636 11.7692 19.409 11.6371L18.5508 12.7003ZM21.1583 11.1004L20.8334 10.8381C20.863 11.0118 20.8386 11.1872 20.7622 11.3418L21.1583 11.1004ZM13.1484 5.56067L12.9399 5.46686L13.7268 7.66954L14.38 6.75755L13.1466 5.56067H13.1484Z" fill="var(--fill-0, #4375C4)"/>
</svg>
