<svg preserveAspectRatio="none" width="100%" height="100%" overflow="visible" style="display: block;" viewBox="0 0 37.8249 64.6695" fill="none" xmlns="http://www.w3.org/2000/svg">
<g id="Group">
<path id="Vector" fill-rule="evenodd" clip-rule="evenodd" d="M0.953765 13.2748L35.8284 0.0952502C36.3252 -0.0923596 36.8863 0.00144528 37.2928 0.341922C37.6993 0.680662 37.8956 1.2157 37.8018 1.73857C36.9228 6.63554 36.5719 6.52089 35.5956 11.3987C35.4184 12.2864 33.7716 23.0288 32.3194 29.517C30.6031 37.1534 27.0472 48.3405 24.0611 55.2873C22.6766 58.5027 21.3494 60.8426 20.3957 61.7129C17.4565 64.4037 14.8769 65.0829 12.7176 64.4489C10.6226 63.8339 8.7587 61.864 7.26824 58.6504C3.43091 50.3816 1.57913 33.3178 0.00529166 14.7809C-0.0502965 14.1226 0.337084 13.5076 0.953765 13.2748ZM3.04353 15.6443C4.55831 33.323 6.27286 49.4957 9.94168 57.4066C10.9787 59.644 12.0905 61.1883 13.5497 61.6156C14.9464 62.0256 16.4994 61.2786 18.405 59.5328C19.1989 58.8084 20.196 56.7986 21.3494 54.1199C24.2765 47.3139 27.7629 36.3526 29.441 28.8708C30.888 22.4069 32.5244 11.7045 32.7033 10.8203C33.4607 7.02986 33.8377 6.27248 34.3849 3.79707L3.04353 15.6443Z" fill="var(--fill-0, #4356B1)"/>
</g>
</svg>
