<svg preserveAspectRatio="none" width="100%" height="100%" overflow="visible" style="display: block;" viewBox="0 0 22.893 26.428" fill="none" xmlns="http://www.w3.org/2000/svg">
<path id="Vector" fill-rule="evenodd" clip-rule="evenodd" d="M1.42064 2.36074L21.2413 0.0104068C21.7503 -0.0503928 22.2558 0.158063 22.5737 0.561076C22.8916 0.96409 22.9802 1.5026 22.803 1.98378C19.8394 10.0944 17.9234 16.256 15.6147 20.2931C13.8811 23.3279 11.8938 25.2422 9.27247 26.083C7.84281 26.5398 6.61814 26.5155 5.57065 26.1715C4.0385 25.666 2.83293 24.4379 1.97652 22.6834C-0.686501 17.2306 0.107368 6.10425 0.121265 3.81819C0.126476 3.07296 0.682359 2.44586 1.42064 2.359V2.36074ZM3.02749 5.14362C2.9111 8.14885 2.64532 14.5172 3.82657 19.1188C4.54226 21.9052 5.69746 24.1269 8.36916 23.2705C10.3425 22.6382 11.7496 21.1078 13.0525 18.827C15.0814 15.2745 16.7821 10.0284 19.2175 3.22583L3.02749 5.14362Z" fill="var(--fill-0, #4356B1)"/>
</svg>
