<svg preserveAspectRatio="none" width="100%" height="100%" overflow="visible" style="display: block;" viewBox="0 0 34.4657 25.523" fill="none" xmlns="http://www.w3.org/2000/svg">
<path id="Vector" fill-rule="evenodd" clip-rule="evenodd" d="M13.3199 24.9332C5.34122 14.2933 2.26649 9.94522 1.06093 8.06218C0.00822413 6.41538 0.0933439 6.17913 0.0464412 5.91335C-0.201969 4.54797 0.550209 3.24686 2.2057 2.30533C4.68284 0.894787 9.45474 0.15477 11.8103 0.0192747C14.3986 -0.131856 16.9001 0.609898 19.6621 2.09862C23.4421 4.13106 27.785 7.61573 33.8423 11.9047C34.2523 12.1931 34.4868 12.669 34.4642 13.1693C34.4451 13.6696 34.1741 14.1265 33.7381 14.3801L15.255 25.3171C14.6053 25.701 13.7733 25.5342 13.3199 24.9332ZM2.95787 5.43738C2.98567 5.55897 3.06036 5.71358 3.54676 6.46923C4.69674 8.27063 7.58038 12.3407 14.8902 22.1016L30.2899 12.9921C26.2094 10.0512 22.9609 7.56188 20.1016 5.77438C17.119 3.90523 14.6227 2.81431 11.9788 2.96718C10.2121 3.06967 6.87337 3.52654 4.58904 4.43679C4.07485 4.64003 3.62146 4.86412 3.27577 5.12296C3.15417 5.21329 3.00478 5.38179 2.95787 5.43738Z" fill="var(--fill-0, #4356B1)"/>
</svg>
