<svg preserveAspectRatio="none" width="100%" height="100%" overflow="visible" style="display: block;" viewBox="0 0 27.1021 23.2493" fill="none" xmlns="http://www.w3.org/2000/svg">
<path id="Vector" fill-rule="evenodd" clip-rule="evenodd" d="M15.335 0.371194C15.943 -0.169053 16.8776 -0.113465 17.4143 0.498004C17.9563 1.10774 17.9007 2.04231 17.2893 2.58256C9.7501 9.26008 8.73041 9.93929 3.01525 12.8768C3.57634 18.3314 7.18436 21.4634 11.4421 19.8513C18.9986 16.9868 22.2383 12.6631 24.58 10.2937C25.1498 9.71347 26.0843 9.70825 26.6645 10.2815C27.243 10.853 27.2482 11.7893 26.6784 12.3695C24.1579 14.9214 20.6298 19.5282 12.4843 22.6134C9.2168 23.8519 6.13687 23.2248 3.82822 21.2237C1.65855 19.3441 0.159402 16.1756 0.00132274 12.0638C-0.0229973 11.4888 0.289687 10.9538 0.803877 10.6915C7.04365 7.49515 7.74545 7.09388 15.335 0.371194Z" fill="var(--fill-0, #4356B1)"/>
</svg>
