<svg preserveAspectRatio="none" width="100%" height="100%" overflow="visible" style="display: block;" viewBox="0 0 443 299" fill="none" xmlns="http://www.w3.org/2000/svg">
<g id="Vector" filter="url(#filter0_n_0_41)">
<path d="M420.299 172.078C431.916 162.536 443.137 147.465 442.999 136.76C442.509 99.7945 398.634 113.749 395.614 96.6925C392.595 79.6362 411.51 75.8557 407.242 57.9886C402.293 37.1606 378.567 42.8005 358.363 42.9768C326.234 43.2742 335.546 14.0898 314.947 10.327C300.013 7.58191 292.823 17.2403 285.59 26.0196C277.004 36.4402 259.614 36.2904 251.805 25.3586C249.769 22.4395 248.491 19.2605 247.977 15.8171C245.065 -1.53448 221.596 -5.14975 212.774 7.66122C210.811 10.5054 207.366 15.947 204.614 20.0646C201.616 24.5677 192.239 29.4674 187.034 27.2841C177.284 23.1952 174.809 19.6394 168.547 15.1165C161.859 10.2873 150.636 9.53605 147.755 24.9929C146.987 29.0907 140.363 31.0074 136.437 30.0887C131.103 28.8241 126.837 20.2122 120.244 15.3831C104.147 3.63177 86.1621 12.9442 81.575 31.6881C74.6943 59.8062 34.7236 43.7677 26.3059 62.5622C17.8907 81.3546 37.2836 85.1968 32.3444 98.5784C27.4051 111.962 15.7993 113.136 8.87582 118.263C0.0227715 124.78 -9.76055 145.293 20.396 157.54C23.1344 158.632 25.7777 159.897 28.3235 161.331C28.6685 161.527 28.9968 161.743 29.3133 161.977C29.6297 162.21 29.9318 162.459 30.215 162.726C30.4981 162.992 30.7646 163.274 31.012 163.572C31.2594 163.867 31.4855 164.178 31.6925 164.499C31.8995 164.821 32.085 165.154 32.2492 165.495C32.4134 165.839 32.5537 166.189 32.6703 166.546C32.7893 166.905 32.8821 167.268 32.9534 167.636C33.0248 168.007 33.07 168.377 33.0938 168.751C33.1152 169.126 33.1129 169.5 33.0867 169.873C33.0605 170.247 33.0082 170.617 32.9344 170.985C32.8607 171.353 32.7607 171.717 32.6394 172.073C32.5157 172.43 32.3729 172.778 32.204 173.12C32.0374 173.461 31.8471 173.792 31.6377 174.111C31.426 174.431 31.1952 174.737 30.9454 175.032C30.6956 175.325 30.4267 175.605 30.1388 175.869C29.851 176.134 29.5488 176.38 29.23 176.61C18.84 183.928 3.40363 199.088 17.1222 216.025C29.4013 231.204 57.2095 219.896 62.6817 226.395C68.87 233.427 50.7999 252.676 49.8815 264.033C48.8157 277.366 55.0658 288.11 68.0159 290.205C98.7506 295.142 110.611 260.428 124.553 264.063C139.2 267.875 138.774 290.501 161.25 288.87C183.726 287.242 188.92 273.07 199.206 269.346C208.016 266.156 213.607 271.153 224.178 280.961C239.933 295.568 267.168 295.074 278.517 272.724C283.137 263.607 300.322 276.507 306.915 284.517C327.823 309.956 357.894 296.98 361.585 282.799C363.719 274.768 358.17 253.218 363.771 246.494C382.174 224.39 423.894 270.038 435.307 232.903C439.734 218.504 428.769 209.339 417.91 196.363C417.539 195.92 417.191 195.464 416.868 194.99C416.544 194.519 416.245 194.034 415.969 193.536C415.695 193.036 415.445 192.527 415.221 192.007C414.998 191.487 414.803 190.958 414.634 190.423C414.462 189.885 414.322 189.341 414.208 188.793C414.091 188.244 414.006 187.691 413.949 187.134C413.889 186.576 413.858 186.019 413.858 185.459C413.856 184.9 413.882 184.34 413.937 183.783C413.991 183.228 414.075 182.673 414.187 182.124C414.296 181.573 414.434 181.029 414.6 180.491C414.767 179.954 414.96 179.423 415.181 178.903C415.4 178.381 415.645 177.872 415.916 177.372C416.19 176.872 416.485 176.385 416.806 175.911C417.127 175.435 417.472 174.977 417.839 174.534C418.207 174.089 418.595 173.662 419.007 173.252C419.418 172.842 419.849 172.45 420.299 172.078Z" fill="var(--fill-0, #62BFFF)" fill-opacity="0.2"/>
</g>
<defs>
<filter id="filter0_n_0_41" x="0" y="0" width="443" height="299" filterUnits="userSpaceOnUse" color-interpolation-filters="sRGB">
<feFlood flood-opacity="0" result="BackgroundImageFix"/>
<feBlend mode="normal" in="SourceGraphic" in2="BackgroundImageFix" result="shape"/>
<feTurbulence type="fractalNoise" baseFrequency="2 2" stitchTiles="stitch" numOctaves="3" result="noise" seed="9365" />
<feColorMatrix in="noise" type="luminanceToAlpha" result="alphaNoise" />
<feComponentTransfer in="alphaNoise" result="coloredNoise1">
<feFuncA type="discrete" tableValues="0 0 0 0 0 0 0 0 0 0 0 0 0 0 0 0 0 0 0 1 1 1 1 1 1 1 1 1 1 1 0 0 0 0 0 0 0 0 0 0 0 0 0 0 0 0 0 0 0 0 0 0 0 0 0 0 0 0 0 0 0 0 0 0 0 0 0 0 0 0 0 0 0 0 0 0 0 0 0 0 0 0 0 0 0 0 0 0 0 0 0 0 0 0 0 0 0 0 0 0 "/>
</feComponentTransfer>
<feComposite operator="in" in2="shape" in="coloredNoise1" result="noise1Clipped" />
<feFlood flood-color="rgba(0, 0, 0, 0.25)" result="color1Flood" />
<feComposite operator="in" in2="noise1Clipped" in="color1Flood" result="color1" />
<feMerge result="effect1_noise_0_41">
<feMergeNode in="shape" />
<feMergeNode in="color1" />
</feMerge>
</filter>
</defs>
</svg>
