<svg viewBox="0 0 393 852" xmlns="http://www.w3.org/2000/svg" overflow="visible">
  <g transform="translate(4.166, 655.273)">
    <path id="f2p1-Vector" fill-rule="evenodd" clip-rule="evenodd" d="M1.12845 1.93516C1.1506 1.92213 1.17275 1.9104 1.1975 1.89998C1.25743 1.87262 1.31606 1.85568 1.3786 1.84787L1.32258 1.69022C1.21053 1.37233 1.35645 1.02056 1.66262 0.878547C1.8346 0.799074 2.02221 0.801679 2.18767 0.869427L2.26844 0.817313L2.49123 0.770411L2.69447 0.795165L2.85994 0.869427L2.99152 0.976261L3.08793 1.10524C3.16611 1.23553 3.46837 1.84526 3.76802 2.45499C3.95303 2.825 4.1719 3.25885 4.29307 3.50509C4.34909 3.56241 4.39339 3.63146 4.42466 3.70833C4.46244 3.80735 4.48068 3.86988 4.4898 3.89855L4.50934 4.07964L4.47547 4.22165C4.61227 4.52001 4.766 4.85484 4.94058 5.23266L3.7589 1.39187C3.66249 1.07397 3.81883 0.731325 4.12761 0.601041C4.33085 0.515053 4.55364 0.539807 4.72822 0.649246C4.72822 0.421248 4.84938 0.20237 5.05914 0.0851134C5.34316 -0.0764393 5.70014 -0.0021774 5.89557 0.258392L6.47664 1.02447C6.49227 0.982775 6.51442 0.942387 6.53918 0.904604C6.70464 0.662274 7.01211 0.55935 7.28962 0.65576C8.02051 0.90721 8.66412 1.12869 9.24519 1.32542C9.39241 1.24725 9.5709 1.22771 9.73897 1.28113L19.9285 4.48483C20.266 4.59166 20.4562 4.95125 20.3559 5.29259C20.2569 5.63264 19.8999 5.82937 19.5559 5.73426C19.0439 5.59095 18.5723 5.45936 18.1371 5.33819L18.3195 5.42548L18.1032 6.36223L18.2218 6.41956C18.1879 6.26712 18.2062 6.10036 18.2883 5.95444C18.4602 5.64697 18.8407 5.53101 19.1533 5.69126L20.0119 6.13423C20.0119 6.02479 20.038 5.91275 20.0966 5.81113C20.2647 5.50626 20.6438 5.389 20.9565 5.54535L34.6729 12.4322C34.9842 12.5898 35.1197 12.9703 34.9686 13.2895C34.8188 13.61 34.4449 13.752 34.1191 13.6113L34.0696 13.5891C34.0657 13.6022 34.0605 13.6165 34.0566 13.6295L33.9289 13.9656L35.0624 14.4151C35.1718 14.3917 35.2852 14.3956 35.3972 14.4321C35.5757 14.1949 35.8975 14.1037 36.1789 14.2262C36.4499 14.3448 36.6037 14.6327 36.5633 14.918L37.1404 15.1617C37.2069 15.1695 37.2694 15.1877 37.332 15.2164C37.3815 15.2385 37.4258 15.2646 37.4623 15.2972L40.365 16.514C40.6972 16.6521 40.8523 17.0299 40.7181 17.3609C40.6125 17.6214 40.3559 17.7765 40.0901 17.7661L39.5025 18.0892C39.496 18.1087 39.4895 18.1282 39.4804 18.1478C39.3488 18.4448 39.027 18.596 38.7221 18.5178L37.8127 19.0168C38.0746 19.0077 38.3247 19.1562 38.4342 19.4102C38.5775 19.7412 38.4251 20.1242 38.0928 20.2662L34.0879 21.9912C34.0188 22.0381 33.9407 22.0707 33.8625 22.0876L30.3318 23.6067L30.0816 24.0562C29.9162 24.3559 29.5475 24.4757 29.2387 24.3311C29.154 24.292 29.0823 24.236 29.0224 24.1695L28.7671 24.2803C28.741 24.292 28.7136 24.3024 28.685 24.3103L27.4329 24.8483C27.3548 24.9017 27.2675 24.9395 27.1763 24.9578L27.1268 24.9799L23.17 27.0215L23.8201 27.8305C24.0299 28.0911 24.0078 28.4676 23.7706 28.7021C23.5322 28.938 23.157 28.9549 22.8977 28.7412C14.4748 21.7736 14.4305 21.9182 13.8065 21.2108C11.8313 18.9803 10.5194 16.2183 8.54686 13.9878C8.31626 13.7272 8.32929 13.3325 8.57813 13.0901C8.75011 12.9221 8.99113 12.8686 9.21001 12.9286C8.81916 12.3879 8.4283 11.8498 8.02833 11.3183C7.99055 11.4212 7.92931 11.515 7.84072 11.588C7.89414 11.7 7.94365 11.8133 7.99706 11.928C7.99706 11.9306 8.00097 11.9319 8.00097 11.9332C8.14689 12.2602 8.00749 12.6446 7.67917 12.7957C7.35346 12.9455 6.96912 12.8035 6.81668 12.4778V12.4739L6.19783 11.1476C6.1848 11.1802 6.16917 11.2114 6.15093 11.2427C6.14181 11.2544 6.13529 11.2661 6.12617 11.2792C6.00371 11.4485 5.80698 11.5489 5.59852 11.5489L5.01354 11.1854L4.18623 9.49949C3.93609 9.51773 3.68855 9.39135 3.56478 9.15814L0.0770551 2.6882C-0.0884065 2.37812 0.0210328 1.99248 0.324596 1.81529C0.592983 1.66026 0.927814 1.71628 1.12715 1.93646L1.12845 1.93516ZM18.3208 23.0673L13.2306 18.3419C13.7153 19.035 14.2208 19.7112 14.7836 20.3444C15.2396 20.8629 15.3868 20.9098 18.8485 23.7279L18.3208 23.0686V23.0673ZM32.884 13.0732L32.1466 12.7527C32.1466 12.81 32.1401 12.866 32.1245 12.9234C32.23 12.9169 32.3369 12.9351 32.4359 12.9807C32.5831 13.0471 32.6951 13.1631 32.7577 13.2999L32.8801 13.0797C32.8801 13.0797 32.8827 13.0758 32.8827 13.0732H32.884ZM25.5073 22.0772L25.2572 21.8557L24.6566 22.8693L25.5073 22.0772ZM29.2178 12.328L29.8654 12.9585C29.9057 12.969 29.9461 12.9833 29.9865 13.0028C30.4308 13.2178 30.8308 13.4119 31.1956 13.5904C31.2737 13.5813 31.3519 13.5878 31.4301 13.6074L31.5213 13.4158C31.4118 13.4211 31.2985 13.3976 31.1956 13.3442L29.2178 12.328ZM14.3615 6.89509C14.1686 7.18954 13.7713 7.27553 13.4716 7.08531V7.08401L12.8397 6.68403L14.4865 8.04811L14.6338 7.5374L17.3984 9.29494L14.3615 6.89509ZM23.1127 11.9006L23.9061 12.7162L23.4944 12.1208L23.1127 11.9006ZM9.33769 9.42913L10.5936 10.801L9.45234 9.05L9.50576 9.17768L9.33769 9.42913ZM7.91889 5.22615C7.93062 5.22224 7.94365 5.21833 7.95667 5.21442L7.86938 5.09977L7.91889 5.22615ZM21.7265 24.4301L22.2229 23.3722C22.1108 23.2732 21.9975 23.1755 21.888 23.0791C21.7004 23.2393 21.4346 23.2862 21.1975 23.1807C20.8887 23.0426 20.7389 22.6908 20.847 22.3716L20.9005 22.2205C20.5917 21.9495 20.2972 21.6941 20.0197 21.4518C20.0002 21.5886 19.9351 21.7202 19.8295 21.8231C19.6601 21.9834 19.4256 22.0368 19.2172 21.9834C19.9442 22.6934 20.7754 23.5051 21.7265 24.4314V24.4301ZM22.8886 14.3304L22.813 14.7187L23.0723 14.948L23.2664 14.5702L22.8873 14.3304H22.8886ZM12.3746 6.39089L12.2274 6.29709L12.2965 6.37786C12.3238 6.38047 12.3499 6.38438 12.3746 6.38959V6.39089ZM29.425 15.219L29.2087 15.8131L29.5774 15.8965L29.8054 15.4913L29.425 15.219ZM17.586 15.3545L17.6642 15.1317L16.6923 14.2744L17.586 15.3545ZM16.6206 16.23L17.0271 16.957L17.0831 16.7928L16.6206 16.23ZM20.4575 18.8305L20.1018 17.3557L19.6953 17.9094L20.4575 18.8305Z" fill="var(--fill-0, #4375C4)"/>
  </g>
  <g transform="translate(2.358, 652.973)">
    <g id="f2p2-Group">
<path id="f2p2-Vector" fill-rule="evenodd" clip-rule="evenodd" d="M23.6405 31.5281C23.1363 31.1542 6.98748 14.8947 2.8796 9.72369C2.14349 8.79997 0.986563 7.38117 0.40419 5.96367C-0.0895891 4.75202 -0.174274 3.53517 0.393767 2.49419C0.940963 1.48839 2.17737 0.547737 4.66711 0.107375C6.97705 -0.301719 10.3071 0.477384 14.2951 2.12027C23.0516 5.72525 35.2645 13.4238 46.9719 19.8325C47.3432 20.0344 47.5646 20.4279 47.5464 20.85C47.5295 21.2708 47.2767 21.6447 46.8911 21.8154L24.7492 31.6506C24.3844 31.8122 23.9597 31.7653 23.6405 31.5281ZM24.5147 29.3315L43.9584 20.6963C34.5844 15.4836 25.0397 9.6364 17.3347 5.91547C12.1051 3.39055 7.79654 1.80238 5.04884 2.28834C3.52711 2.55673 2.67245 2.93976 2.33631 3.55471C2.07965 4.02634 2.22687 4.57353 2.45227 5.12334C2.95256 6.3441 3.9766 7.54924 4.61108 8.34397C8.29553 12.9847 21.853 26.7402 24.5147 29.3315Z" fill="var(--fill-0, #4356B1)"/>
</g>
  </g>
  <g transform="translate(0.55, 661.322)">
    <path id="f2p3-Vector" fill-rule="evenodd" clip-rule="evenodd" d="M1.21834 37.3559C1.09848 37.0927 1.16753 36.7722 1.39944 36.582C1.55317 36.4569 1.703 36.3344 1.84631 36.2172C1.65219 36.208 1.46197 36.1103 1.34211 35.9371C1.14017 35.6439 1.20792 35.2413 1.49976 35.0355L12.4697 27.2353L12.4723 27.2327C12.6756 27.0894 12.9283 27.0777 13.1342 27.178C15.7529 25.5573 18.2596 23.7541 20.9395 22.2389C24.5484 20.1974 36.2089 15.0511 40.18 14.1313C41.4047 13.4486 42.6293 12.7698 43.8736 12.1262C50.0686 8.92121 54.1869 7.63791 54.7211 7.40731C54.7901 7.37734 54.8592 7.3604 54.9308 7.35389L62.1017 2.95417C62.4013 2.76917 62.7961 2.85776 62.9863 3.15481C63.1791 3.45056 63.1023 3.84662 62.8117 4.04596L59.7839 6.13051L67.5919 2.56071C67.8694 2.43434 68.1951 2.51902 68.3762 2.75093C68.6537 2.648 68.9729 2.74832 69.1423 2.99977C69.2986 3.23429 69.2817 3.54045 69.1162 3.75803C72.1975 2.24933 73.2593 1.80506 78.2492 0.0370985C78.5619 -0.0736434 78.9123 0.0709724 79.053 0.37193C79.1494 0.57778 79.1312 0.809687 79.0218 0.992085L80.193 0.560843C80.5148 0.442284 80.8705 0.592111 81.0112 0.900886C81.0738 1.04159 81.0868 1.19272 81.049 1.33083L82.5147 0.867012C82.843 0.762784 83.1961 0.933457 83.3212 1.25656C83.3212 1.26308 83.3238 1.26959 83.3264 1.2748L83.6299 1.16797C83.9517 1.05202 84.3074 1.20706 84.4455 1.52234C84.5797 1.83763 84.4481 2.20373 84.1459 2.36008L83.3928 2.74832L83.6716 2.66364C83.9869 2.56723 84.3244 2.72227 84.4546 3.02453C84.5458 3.23298 84.5211 3.4675 84.4025 3.64729L84.6553 3.55479C84.9172 3.45707 85.2077 3.54176 85.3797 3.75021C85.4709 3.75542 85.5647 3.76064 85.6585 3.76585L85.8643 3.55218C86.0702 3.33851 86.3959 3.29161 86.6552 3.43883C86.8389 3.54306 86.9587 3.72676 86.9796 3.9287C87.1268 4.02642 87.2323 4.18276 87.261 4.36646C87.3105 4.66872 87.1424 4.96447 86.8584 5.07651L86.6981 5.13905L86.6955 5.14817L87.4395 5.57159L87.6727 5.15598L87.5893 5.03091L87.7079 5.09345L87.8759 4.79119C87.8759 4.79119 87.8798 4.78728 87.8798 4.78467L87.4173 4.08114C87.2297 3.79451 87.2949 3.41017 87.5671 3.20302C87.842 2.99586 88.229 3.03756 88.4544 3.29682L90.3135 5.44913C90.3696 5.26933 90.5038 5.1156 90.6914 5.04133C91.0041 4.91626 91.3597 5.04915 91.5122 5.34881L92.3694 7.02427L92.2352 6.04713C92.1883 5.70448 92.4163 5.38529 92.7564 5.31884C93.0938 5.2524 93.4287 5.46346 93.512 5.79959L94.6872 10.4612C94.7523 10.5667 94.7875 10.6918 94.7836 10.826V10.8416L95.0494 11.893C95.3491 11.979 95.5458 12.2695 95.5158 12.5835L95.4025 13.7157C95.594 13.5672 95.8559 13.5294 96.0839 13.6375C96.3835 13.7782 96.5307 14.1222 96.4252 14.4362L96.3991 14.5039C96.4343 14.5195 96.4656 14.5378 96.4969 14.5612C96.777 14.7645 96.8486 15.1553 96.6584 15.4472L90.2601 25.1768C90.0621 25.4752 89.666 25.5599 89.3664 25.3684C89.0667 25.1768 88.9755 24.7808 89.1605 24.4772L89.5292 23.8818C89.498 23.8987 89.4693 23.9157 89.4419 23.9326L88.5847 24.7834C88.3879 24.9788 88.0974 25.0231 87.8577 24.9137L86.0076 26.6842C85.7536 26.9266 85.3575 26.9266 85.1048 26.6829C85.0487 26.6282 85.0044 26.5644 84.9706 26.4966C83.2143 27.4738 81.5584 28.3401 80.6334 28.6932C80.2829 28.8261 80.008 28.8913 79.836 28.9004L79.6146 28.8847C72.6157 31.4774 70.9663 32.0976 63.273 34.9C63.1948 34.9821 63.0958 35.0459 62.9798 35.0798C62.6111 35.1892 62.2515 35.2961 61.905 35.399C61.1949 35.6556 60.4393 35.9305 59.6302 36.225C59.4712 36.2836 59.2993 36.2745 59.152 36.212C55.7282 37.2282 53.4599 37.9148 51.3128 38.5988C47.8733 39.7857 45.1178 40.7498 38.3899 42.9763C38.0629 43.0858 37.7085 42.9177 37.5808 42.5998C36.4004 42.975 35.0845 43.3932 33.5785 43.8688C33.4755 43.9027 33.3661 43.9066 33.2658 43.8883C33.0912 43.9522 32.9127 44.0173 32.7342 44.0838C32.4007 44.2062 32.0281 44.0356 31.9004 43.7007C31.8782 43.6369 31.8626 43.5717 31.86 43.5079C29.3664 44.0694 27.5854 44.403 25.6611 44.7C24.7738 44.9059 23.7797 45.1404 22.6554 45.4101C22.5212 45.4426 22.3831 45.4296 22.2645 45.3814C20.989 45.6498 19.6966 45.9182 17.9091 46.3703C17.5717 46.4562 17.2251 46.2582 17.1248 45.9221C17.0558 45.6824 17.1274 45.4348 17.2968 45.2707C15.8441 45.4596 14.8096 45.4843 14.0032 45.44C9.82625 46.2751 7.98924 46.1162 6.81407 46.3325C6.47924 46.3937 6.15483 46.1866 6.06754 45.8569C5.98025 45.5273 6.16134 45.1873 6.48315 45.0752C7.16453 44.8394 7.8329 44.5684 8.49474 44.2857C8.07913 44.2544 7.66092 44.2401 7.24531 44.2622C7.01731 44.274 6.80755 44.1658 6.67988 43.9913C6.39586 44.0264 6.10141 44.0629 5.79524 44.0981C5.23632 44.2896 4.68391 44.4876 4.13281 44.7C3.81101 44.8251 3.44621 44.6739 3.3055 44.3574C3.16479 44.0421 3.29247 43.6721 3.59864 43.5144L3.59213 43.4831L3.61428 43.2604L3.68593 43.0845L3.73284 43.0206C3.50223 43.0675 3.25209 42.9855 3.09183 42.7861C2.94201 42.5959 2.91465 42.3471 3.00194 42.136C2.90162 42.093 2.81172 42.0253 2.74267 41.9341C2.70489 41.8819 2.67362 41.8272 2.65147 41.7699C2.35182 41.9301 2.03262 42.0982 1.69909 42.278C1.40204 42.437 1.03334 42.3445 0.848332 42.063C0.66463 41.7816 0.724561 41.4064 0.986434 41.1953C1.71082 40.6156 2.35833 40.0983 2.94201 39.6319C2.92637 39.6137 2.91074 39.5941 2.8951 39.5746C2.85472 39.5186 2.82345 39.46 2.8026 39.3974C2.53291 39.6007 2.24889 39.8169 1.94533 40.0449C1.66391 40.2573 1.26133 40.2065 1.04246 39.9277C0.914777 39.7648 0.876994 39.559 0.921291 39.3727C0.652905 39.4951 0.331101 39.4222 0.139583 39.185C-0.0688725 38.9193 -0.0415126 38.5349 0.206028 38.3043L1.21834 37.3559ZM5.592 41.9627C5.55812 41.8911 5.53858 41.8155 5.53207 41.7399C5.28583 41.9275 5.02656 42.1243 4.75166 42.3301C4.98878 42.2194 5.2741 42.0956 5.592 41.9627ZM82.4769 26.3715C82.4144 26.3416 82.3584 26.3012 82.3049 26.2517C82.0991 26.0497 82.0548 25.741 82.176 25.4934C82.0144 25.6836 81.8607 25.8804 81.7108 26.0836C81.6887 26.1279 81.6574 26.1696 81.6236 26.2074C81.4698 26.4237 81.3226 26.6451 81.1793 26.8679C81.4516 26.7846 81.7291 26.6973 82.017 26.6074C82.0235 26.6048 82.0261 26.6035 82.0326 26.6022C82.176 26.5279 82.3258 26.451 82.4756 26.3715H82.4769ZM94.0149 17.0979C93.9928 17.1174 93.9745 17.137 93.9524 17.1539C93.9563 17.1617 93.9589 17.1695 93.9628 17.1774L94.0149 17.0979ZM86.3386 6.4445L86.1822 7.01385L86.6408 6.9917L86.8011 6.70637L86.3386 6.4445ZM79.268 27.4646C79.3305 27.3695 79.3892 27.2744 79.4517 27.178L77.3124 28.0692C77.9157 27.8842 78.5619 27.6835 79.268 27.4646ZM61.2522 33.6167C60.3989 33.9268 59.4673 34.2655 58.4498 34.6381C59.2016 34.4375 60.008 34.2212 60.877 33.9854C60.9682 33.9619 61.0581 33.9567 61.1454 33.9711C61.1767 33.9541 61.2079 33.9359 61.2392 33.9189C61.221 33.8173 61.2236 33.7131 61.2522 33.6167ZM85.82 8.33624L85.7575 8.56554L85.8891 8.33233L85.82 8.33624ZM61.9167 7.86591C62.0743 7.92323 62.2072 8.03919 62.2828 8.20204C62.2854 8.20595 62.2893 8.21116 62.2893 8.21637C62.3518 8.19032 62.4131 8.16296 62.4769 8.1369L63.2612 7.41252C62.8104 7.55844 62.361 7.70826 61.9167 7.86591ZM14.1191 28.3206C14.1595 28.3545 14.1934 28.3923 14.2247 28.4366C14.2911 28.5252 14.3276 28.6242 14.3406 28.7258C14.5751 28.5616 14.8188 28.391 15.0689 28.2151C15.2279 28.103 15.422 28.0731 15.5966 28.1161C16.4994 27.4972 17.4805 26.8315 18.9149 25.9559C17.4219 26.6907 15.8246 27.4764 14.1191 28.3206ZM13.1694 31.7341C13.7153 31.3119 14.3849 30.8064 15.1875 30.228C14.5334 30.568 13.8429 30.925 13.1185 31.3015C13.1876 31.4383 13.2032 31.5908 13.1694 31.7341ZM57.3333 34.0232C57.1183 34.1105 56.8994 34.1991 56.6779 34.289C56.8838 34.3489 57.0532 34.5078 57.1209 34.7267C57.147 34.8127 57.1522 34.9 57.1431 34.9847C57.4088 34.9143 57.6811 34.8427 57.9586 34.7684C57.7059 34.7619 57.4688 34.6068 57.3711 34.3567C57.3281 34.2473 57.315 34.1326 57.3333 34.0232ZM92.0659 16.3357C92.0568 16.2797 92.0437 16.2237 92.0307 16.1663L91.1252 17.2008L92.0659 16.3357ZM93.228 13.2779L93.2059 13.119C92.9245 13.2362 92.5961 13.1398 92.4216 12.8845L91.8965 12.1197L92.6548 13.7587C92.8085 13.8056 92.9427 13.9072 93.0274 14.0544C93.0925 14.1678 93.1212 14.2929 93.1121 14.414C93.1147 14.4153 93.1147 14.4153 93.1147 14.4166L93.2267 13.2779H93.228ZM22.83 35.1619C22.787 35.0524 22.77 34.9313 22.7922 34.8075L22.886 34.2655C22.7205 34.3619 22.5577 34.4596 22.3922 34.5573C22.1772 34.7033 21.9701 34.8427 21.7773 34.9782C21.9297 35.0381 22.0639 35.1566 22.1356 35.3221C22.1577 35.3703 22.1733 35.4211 22.1825 35.4706L22.83 35.1606V35.1619ZM23.2586 39.4378C23.2586 39.4117 23.2612 39.3883 23.2677 39.3635C23.2547 39.3688 23.2391 39.3727 23.2273 39.3779C23.0931 39.4404 22.9616 39.5016 22.8365 39.5616C22.9798 39.5186 23.1205 39.4782 23.2586 39.4378ZM91.4066 14.1587L91.3259 13.9802L90.978 14.3606L91.4066 14.1587ZM69.0941 8.17338C68.8478 8.38314 68.6068 8.58508 68.3762 8.78051C68.4036 8.76617 68.4283 8.74924 68.4544 8.7336C68.457 8.7336 68.457 8.7336 68.457 8.7323C68.5039 8.70494 68.5508 8.6841 68.6003 8.66976L69.2791 8.11084L69.0941 8.17338ZM34.4618 40.497C34.9464 40.3798 35.465 40.2547 36.0278 40.1192C36.859 39.8443 37.7437 39.5485 38.6869 39.228C39.4751 38.961 40.0432 38.7747 40.7832 38.5545C40.6334 38.4932 40.5057 38.3747 40.434 38.2144C40.4275 38.1962 40.4184 38.1766 40.4119 38.1584C38.4928 38.703 36.4591 39.2958 33.9341 40.0423C34.1778 40.0788 34.3875 40.2534 34.4631 40.497H34.4618ZM84.5953 15.4563C84.5263 15.3026 84.5172 15.1241 84.5823 14.9573L84.7074 14.629L83.7759 15.0264C83.5791 15.5019 83.3798 15.9787 83.17 16.4478L84.5953 15.4563ZM87.3821 13.5177L87.4812 13.446L87.4004 13.4812C87.3952 13.4929 87.3887 13.5046 87.3821 13.5177ZM88.8387 11.4526L88.7228 10.3478L88.3124 11.0618L88.384 11.1986L88.4257 11.3354L88.4192 11.5907L88.3997 11.639L88.8374 11.4526H88.8387ZM80.7806 18.1089C81.2926 17.378 81.6952 16.5793 82.0574 15.7573L81.4555 16.0152C81.2861 16.126 81.1207 16.2341 80.9578 16.3435L75.7594 21.624C75.7933 21.6122 75.8272 21.6018 75.8585 21.5914C75.9054 21.5224 75.9627 21.4611 76.0343 21.4116L80.7806 18.1089ZM75.3933 23.9795C74.6585 24.3795 73.9003 24.7964 73.116 25.2303C72.518 25.5586 71.9747 25.8582 71.4653 26.1331C72.3655 25.8165 73.3752 25.4609 74.5061 25.0596C74.7875 24.6883 75.0833 24.33 75.3933 23.9795ZM78.4459 8.6854C77.8023 9.34985 77.1339 10.0873 76.4565 10.9002C77.302 10.4833 77.9899 10.1654 78.4772 9.94134C78.6739 9.75504 78.8811 9.557 79.0986 9.34594L79.5299 8.63328L78.4459 8.6854ZM24.5054 34.3645L24.5015 33.9502L24.3074 34.4583L24.5054 34.3632V34.3645ZM39.5338 19.9081C38.9175 20.2521 38.3273 20.5869 37.7619 20.9165L39.0739 20.2664C39.2302 20.1465 39.3839 20.0267 39.5338 19.9081ZM27.9137 31.282L28.2107 32.121C28.6381 31.536 29.0563 30.9458 29.4823 30.3609C28.9599 30.667 28.4387 30.9745 27.9137 31.282ZM60.7767 29.9361C60.8106 29.9244 60.8484 29.9114 60.8835 29.8997C61.4985 29.6039 62.0483 29.3446 62.5577 29.1049C62.5733 29.0867 62.589 29.0697 62.6046 29.0541C62.6293 29.0307 62.6515 29.0072 62.6736 28.9838C62.0952 29.2287 61.5428 29.4619 61.0047 29.6886L60.7767 29.9361ZM72.0997 14.7124C71.8965 14.8296 71.6933 14.9482 71.4874 15.0707C71.6659 14.999 71.847 14.9273 72.0281 14.8544C72.0463 14.8101 72.0711 14.7632 72.0997 14.7124ZM72.8124 11.4253C72.2652 11.7119 71.6906 12.0129 71.0809 12.3308C71.206 12.3607 71.3193 12.4272 71.4066 12.521C72.0437 12.0259 72.4815 11.6859 72.8124 11.4253ZM53.925 16.0465C53.5967 16.2172 53.2788 16.3839 52.9622 16.5481C52.5062 16.9585 52.062 17.3585 51.6255 17.7493C52.1688 17.5356 52.7121 17.3233 53.2554 17.1122C53.2059 16.8907 53.271 16.6497 53.4495 16.4855L53.925 16.0465ZM31.4535 29.8853C32.0841 29.2769 32.6756 28.7219 33.2345 28.2112C32.9726 28.3584 32.7095 28.5056 32.4502 28.6541C32.1062 29.0554 31.7753 29.4671 31.4535 29.8853ZM57.715 23.5392C57.7463 23.4988 57.7775 23.4597 57.8114 23.4206C57.8583 23.362 57.9052 23.3046 57.956 23.2473C57.9652 23.19 57.9808 23.1327 58.0016 23.0793C56.4109 23.7646 54.9373 24.4134 53.4808 25.0713C53.4456 25.1078 53.4156 25.1443 53.3804 25.182C54.7953 24.6296 56.2402 24.0811 57.715 23.5392ZM53.2345 22.5399C53.7999 22.2637 54.3341 22.007 54.8461 21.766C54.8996 21.7152 54.953 21.6644 55.009 21.6136C53.753 22.1138 52.6313 22.5646 51.5916 22.992C50.4568 23.5561 49.3481 24.1111 48.2694 24.657C49.7885 24.0004 51.4379 23.2955 53.2345 22.5399ZM51.1656 19.3375C51.1656 19.3349 51.1695 19.3323 51.1695 19.3297C50.3565 19.6554 49.5449 19.9876 48.7384 20.3315C48.4296 20.6104 48.1221 20.8827 47.8225 21.1497C48.8635 20.5778 49.9631 19.9837 51.1656 19.3375ZM43.3824 32.4858L47.4733 31.3159C47.5202 31.1934 47.5893 31.0527 47.6792 30.8976C47.7573 30.7647 47.8355 30.6332 47.9098 30.5029C46.2135 31.2181 44.7139 31.8774 43.3824 32.4858ZM49.9852 29.6417C49.8471 29.8501 49.7129 30.0625 49.5761 30.2775C49.9761 29.9948 50.4438 29.6482 50.9975 29.23C50.6536 29.3694 50.3161 29.5062 49.9852 29.6417ZM52.785 29.4919C53.3192 29.2912 53.8534 29.0945 54.3875 28.8965C54.6273 28.4926 54.8592 28.0835 55.0898 27.6731C54.2247 28.3649 53.4586 28.9681 52.7837 29.4919H52.785ZM63.0645 21.6435C64.3296 21.2136 65.6116 20.7902 66.904 20.3785C67.5945 19.7922 68.3514 19.1407 69.1983 18.4059C69.21 18.3877 69.2257 18.3708 69.2413 18.3538C67.2362 19.189 65.4487 19.9342 63.8175 20.6169C63.5895 20.9296 63.3394 21.2696 63.0645 21.6435ZM62.6398 25.995L62.7231 25.9038C62.6802 25.939 62.6398 25.9742 62.5955 26.0094C62.6111 26.0041 62.6241 25.9989 62.6398 25.995ZM56.2558 28.219C56.4682 28.1421 56.6805 28.0666 56.8968 27.9897C57.2564 27.4751 57.5964 26.9891 57.9248 26.5253C57.8036 26.5709 57.6811 26.6165 57.5495 26.666C57.375 26.7324 57.203 26.7989 57.031 26.864C56.7652 27.3109 56.5125 27.7643 56.2558 28.219ZM59.9741 25.8895C60.0419 25.8374 60.1109 25.784 60.18 25.7332C60.1357 25.7475 60.0953 25.7631 60.051 25.7774C60.0263 25.8139 59.9989 25.8517 59.9728 25.8895H59.9741Z" fill="var(--fill-0, #719DE3)"/>
  </g>
  <g transform="translate(78.561, 664.56)">
    <path id="f2p4-Vector" fill-rule="evenodd" clip-rule="evenodd" d="M1.10872 7.04547C1.16475 6.95167 1.24292 6.87089 1.34584 6.81226L3.10599 5.79995C3.07993 5.76868 3.05908 5.7335 3.03694 5.69572C2.87799 5.38825 2.98613 5.01042 3.28448 4.83324L11.2696 0.0908734C11.5732 -0.0889193 11.9667 0.00618842 12.1543 0.30454C12.3419 0.604195 12.2572 0.998958 11.9601 1.19438L11.3765 1.58263C11.4273 1.63214 11.4703 1.68947 11.5041 1.75591C11.6019 1.94352 11.5979 2.15719 11.5146 2.33568C11.6644 2.3891 11.7986 2.49984 11.8768 2.65227C12.0266 2.94802 11.9328 3.31021 11.654 3.49391L11.198 3.79356C11.2136 3.80399 11.2266 3.81441 11.2384 3.82614L11.5602 3.66589L11.852 4.90098L11.9823 4.8645L12.7236 4.52837L12.4604 4.24305C12.2363 3.99681 12.2324 3.62029 12.4552 3.37014C12.6767 3.11999 13.048 3.0783 13.3203 3.27373C13.9079 3.69585 14.4642 4.15966 15.0518 4.58179C15.5912 4.97264 15.7983 5.32441 15.8517 5.60452L15.8739 5.80516L15.8543 6.00059L15.7697 6.25985C15.7384 6.3276 15.698 6.39665 15.6485 6.46701C15.4609 6.7393 15.0583 7.04026 14.6075 7.48583C14.6166 7.48844 14.6271 7.49104 14.6362 7.49495C14.8694 7.57312 15.0388 7.77767 15.0726 8.0213C15.1078 8.26624 15.001 8.50727 14.7977 8.64797L14.4668 8.87727C14.4199 8.99062 14.3391 9.09224 14.2297 9.1652L7.88353 13.4294C7.58648 13.6288 7.1865 13.5506 6.98326 13.2548C6.78262 12.9591 6.85819 12.5565 7.15263 12.3533L8.09589 11.7005L4.90522 13.0112C4.59254 13.1389 4.23295 13.0073 4.07661 12.705C3.99844 12.5526 3.98671 12.3819 4.03361 12.2269L3.60889 12.4314L3.32356 12.4953L2.99655 11.2823L3.21543 11.1533C3.19588 11.1273 3.17764 11.0986 3.16201 11.0674C3.10859 10.9709 3.08644 10.8654 3.08644 10.7625C2.95616 10.8654 2.7907 10.9201 2.61221 10.9019C2.4246 10.8811 2.26565 10.7846 2.15882 10.6439C2.1054 10.6361 2.05589 10.6231 2.00899 10.6035C1.28982 10.6101 0.887239 10.5488 0.665755 10.4681L0.415608 10.3443L0.18761 10.141L0.0872908 9.98079L0.0247541 9.81663L0 9.46356C0.109439 8.22585 0.625367 7.48062 1.10872 7.04677V7.04547ZM13.6721 6.57905C13.5913 6.57514 13.5066 6.57254 13.4284 6.56733C13.4819 6.59729 13.5288 6.63377 13.5731 6.67807C13.6069 6.64419 13.6408 6.61032 13.6721 6.57905Z" fill="var(--fill-0, #DDEAFF)"/>
  </g>
  <g transform="translate(28.414, 687.99)">
    <path id="f2p5-Vector" fill-rule="evenodd" clip-rule="evenodd" d="M5.41353 0.245833C5.61417 0.211959 5.82653 0.27189 5.97896 0.425626C6.11316 0.558516 6.1796 0.737007 6.17309 0.912891L6.43235 0.707041C6.69423 0.501191 7.07335 0.527248 7.30396 0.766972C7.52284 0.993667 7.54759 1.34413 7.3665 1.59819C7.63488 1.40928 8.00359 1.44836 8.22637 1.6959C8.45437 1.95126 8.44395 2.34211 8.20423 2.58705L6.99518 3.82085L7.98535 3.21242C7.94105 3.24108 7.89806 3.27365 7.86288 3.31013L7.86939 3.30492C7.83422 3.33879 7.80425 3.37657 7.77819 3.41696C7.74693 3.46126 7.72608 3.50947 7.71045 3.56028C7.67266 3.66841 7.66615 3.78697 7.6883 3.90162C7.6909 3.91595 7.69351 3.93028 7.70002 3.94462C7.70654 3.96807 7.71305 3.99152 7.72217 4.01497C7.82249 4.2586 8.05961 4.41885 8.32539 4.41885L8.7853 4.22994L6.35679 6.63239L7.01603 6.51774C7.3691 6.4552 7.70654 6.69232 7.76907 7.0467C7.83161 7.40107 7.59449 7.73851 7.23751 7.79974L4.5315 8.27267C4.25008 8.32218 3.97258 8.18278 3.84099 7.93003C3.72895 7.71115 3.75109 7.45058 3.88789 7.25515L3.157 7.70333C2.87558 7.87661 2.51339 7.81147 2.30754 7.55481C2.1043 7.29684 2.12254 6.92683 2.35053 6.69232L2.39744 6.64672C2.35053 6.61936 2.30624 6.58549 2.26976 6.5451C2.03785 6.30538 2.02222 5.92755 2.23849 5.67219L2.25673 5.65135L1.57273 6.18942C1.30695 6.39918 0.922613 6.36921 0.694615 6.12167C0.678981 6.10734 0.667255 6.09171 0.654227 6.07607C0.488765 6.07738 0.323304 6.01484 0.194322 5.88977C-0.0519164 5.64744 -0.0675507 5.25137 0.166962 4.99211L4.41555 0.218473C4.64354 -0.0381878 5.03179 -0.0733646 5.30279 0.137697C5.34448 0.170268 5.38096 0.206747 5.41222 0.247136L5.41353 0.245833Z" fill="var(--fill-0, #DDEAFF)"/>
  </g>
  <g transform="translate(41.54, 683.389)">
    <path id="f2p6-Vector" fill-rule="evenodd" clip-rule="evenodd" d="M5.14602 0.558539L5.48606 0.395683C5.78572 0.252369 6.1453 0.3579 6.32119 0.639315C6.49577 0.92073 6.43063 1.28944 6.17136 1.49529L5.76748 1.81188C5.94988 1.85487 6.10882 1.97734 6.19872 2.15322C6.33291 2.42291 6.26517 2.75123 6.03326 2.94405L5.87692 3.07694L6.39936 2.8294C6.70553 2.68479 7.07033 2.79944 7.2397 3.09258C7.40776 3.38572 7.32308 3.75963 7.04818 3.95376L6.95437 4.0176C7.12635 4.05929 7.27617 4.16873 7.36998 4.33158C7.53023 4.6156 7.45467 4.97519 7.19279 5.17062C6.55831 5.65137 5.94857 5.79598 5.46782 5.91324C5.35838 5.9406 5.20595 5.99141 5.13951 6.01486C5.13951 6.09043 5.14341 6.27673 5.17729 6.4422C5.24895 6.79396 5.02095 7.13922 4.66788 7.21088C4.3148 7.28253 3.97216 7.05453 3.8992 6.70277C3.88747 6.63893 3.87835 6.57639 3.86923 6.51646L2.63413 7.00633C2.32536 7.1288 1.97489 7.00112 1.81855 6.70928C1.77816 6.62981 1.75341 6.54512 1.74429 6.46044C1.47199 6.5373 1.17494 6.42917 1.0186 6.18423C0.844019 5.90803 0.900042 5.54453 1.15019 5.33347L1.44072 5.09114C1.21924 5.10938 0.991241 5.01297 0.853139 4.81885C0.721552 4.63384 0.699403 4.40063 0.777574 4.2026C0.669438 4.18045 0.569118 4.13095 0.484433 4.05799C0.325486 4.01629 0.18087 3.91337 0.0909737 3.76094C-0.0810018 3.4717 -0.00283139 3.09779 0.272069 2.90106L4.12198 0.123388C4.406 -0.0837647 4.80598 -0.0238341 5.01834 0.256278C5.09 0.347478 5.13039 0.451705 5.14732 0.558539H5.14602Z" fill="var(--fill-0, #DDEAFF)"/>
  </g>
  <g transform="translate(54.745, 679.555)">
    <path id="f2p7-Vector" fill-rule="evenodd" clip-rule="evenodd" d="M0.987138 2.80272C0.987138 2.80012 0.987138 2.79751 0.984532 2.79491C0.843824 2.4731 0.984532 2.09658 1.29982 1.94415L5.2266 0.0641391C5.53929 -0.085688 5.9106 0.0354766 6.07997 0.33904C6.19592 0.551404 6.17898 0.802853 6.06173 0.996978C6.14511 1.04258 6.22067 1.10902 6.2793 1.19371C6.62065 1.67967 6.7822 2.06792 6.83301 2.38321C7.07665 2.38581 7.30725 2.52522 7.41669 2.75843C7.5574 3.05417 7.45447 3.40855 7.17957 3.58443L6.44867 4.04955L6.47343 4.04564C6.74442 4.00265 7.0102 4.13293 7.1457 4.36744L7.84142 4.47818C8.09808 4.51857 8.30393 4.70879 8.37037 4.96024C8.43552 5.21169 8.34171 5.47877 8.13847 5.63772L7.36067 6.23703C7.31767 6.3608 7.23299 6.47154 7.11703 6.54971L5.82982 7.42262C5.53929 7.61935 5.14192 7.5503 4.93607 7.26497C4.88265 7.19202 4.84878 7.11124 4.83054 7.02786L4.61687 7.06694C4.32764 7.12036 4.0358 6.97183 3.90812 6.70345C3.78305 6.43506 3.8547 6.11717 4.0801 5.92695L4.33936 5.71198L3.54854 5.83966C3.24237 5.88917 2.94532 5.71719 2.83588 5.42926C2.78376 5.29116 2.77986 5.14655 2.82024 5.01366L2.01769 5.27162C1.71413 5.37063 1.3832 5.23253 1.23598 4.94721V4.9446L1.17735 4.93027L0.971503 4.80259L0.799528 4.56287L0.765653 4.42868C0.490753 4.47818 0.205429 4.34269 0.071236 4.08473C-0.0811974 3.78377 0.0178195 3.41636 0.303143 3.23657L0.987138 2.80272ZM1.31806 4.23455V4.23325C1.31806 4.22804 1.32067 4.22283 1.32067 4.21892H1.31806V4.23455ZM5.10544 1.66925L5.02987 1.71615C5.01815 1.73699 5.00251 1.75523 4.98948 1.77347C5.0429 1.78129 5.09632 1.79432 5.14583 1.81386C5.12759 1.76696 5.11195 1.71876 5.10544 1.66925ZM5.5458 2.52001C5.53929 2.56691 5.52626 2.6099 5.51062 2.6529C5.52626 2.63335 5.54189 2.61121 5.55101 2.58645C5.56143 2.56691 5.55492 2.54476 5.5458 2.52001Z" fill="var(--fill-0, #DDEAFF)"/>
  </g>
  <g transform="translate(-1.336, 660.044)">
    <path id="f2p8-Vector" fill-rule="evenodd" clip-rule="evenodd" d="M8.22523 48.7287C7.73406 48.5332 4.6424 47.16 2.43798 44.9478C0.808122 43.314 -0.31363 41.2399 0.078527 38.887C0.468078 36.5549 2.42756 33.798 7.4787 30.9422C17.8546 25.0742 42.864 11.4998 62.0002 4.46053C70.3815 1.378 77.6722 -0.430355 82.1944 0.0881783C89.5971 0.936332 95.2932 5.20055 98.1816 9.63805C100.245 12.8118 100.856 16.0976 99.8844 18.4271C98.2585 22.3161 96.7237 25.1849 89.9828 28.8003C83.5545 32.2464 72.1833 36.4246 50.8361 43.0248C22.692 51.7252 16.3055 49.2746 8.56918 48.8042C8.44932 48.7977 8.33337 48.7717 8.22523 48.7287ZM8.88838 46.605C16.3993 47.0936 22.7898 49.3762 50.1795 40.9077C71.3104 34.3752 82.5761 30.2595 88.9379 26.8487C94.9818 23.6072 96.3863 21.0601 97.8416 17.5724C98.5881 15.7797 97.9184 13.2912 96.3277 10.8484C93.7298 6.85907 88.5979 3.05216 81.9455 2.28869C77.6409 1.79621 70.7319 3.60847 62.765 6.53988C43.7421 13.5362 18.8825 27.0376 8.56918 32.8704C4.39486 35.2299 2.5826 37.3235 2.2634 39.2505C1.99371 40.8738 2.88095 42.2574 4.00531 43.3844C5.76155 45.1471 8.17051 46.2936 8.88838 46.6063V46.605Z" fill="var(--fill-0, #4356B1)"/>
  </g>
  <g transform="translate(53.723, 678.192)">
    <path id="f2p9-Vector" fill-rule="evenodd" clip-rule="evenodd" d="M5.48629 0C8.51541 0 10.9752 2.46238 10.9752 5.4928C10.9752 8.52453 8.51541 10.9856 5.48629 10.9856C2.45717 10.9856 0 8.52453 0 5.4928C0 2.46238 2.45717 0 5.48629 0ZM5.48629 2.21484C3.68054 2.21484 2.21223 3.68445 2.21223 5.4928C2.21223 7.30246 3.68054 8.77077 5.48629 8.77077C7.29204 8.77077 8.76034 7.30246 8.76034 5.4928C8.76034 3.68445 7.29464 2.21484 5.48629 2.21484Z" fill="var(--fill-0, #4356B1)"/>
  </g>
  <g transform="translate(40.361, 682.282)">
    <path id="f2p10-Vector" fill-rule="evenodd" clip-rule="evenodd" d="M5.48629 0C8.51411 0 10.9752 2.46108 10.9752 5.4915C10.9752 8.52323 8.51411 10.9843 5.48629 10.9843C2.45717 10.9843 0 8.52323 0 5.4915C0 2.46108 2.45717 0 5.48629 0ZM5.48629 2.21484C3.68054 2.21484 2.21223 3.68315 2.21223 5.4915C2.21223 7.30116 3.68054 8.76946 5.48629 8.76946C7.29073 8.76946 8.76034 7.30116 8.76034 5.4915C8.76034 3.68315 7.29464 2.21484 5.48629 2.21484Z" fill="var(--fill-0, #4356B1)"/>
  </g>
  <g transform="translate(27.51, 687.138)">
    <path id="f2p11-Vector" fill-rule="evenodd" clip-rule="evenodd" d="M5.48629 0C8.51411 0 10.9752 2.46108 10.9752 5.4928C10.9752 8.52323 8.51411 10.9843 5.48629 10.9843C2.45717 10.9843 0 8.52323 0 5.4928C0 2.46108 2.45717 0 5.48629 0ZM5.48629 2.21484C3.68054 2.21484 2.21223 3.68315 2.21223 5.4915C2.21223 7.30116 3.68054 8.76946 5.48629 8.76946C7.29073 8.76946 8.76034 7.30116 8.76034 5.4915C8.76034 3.68315 7.29464 2.21484 5.48629 2.21484Z" fill="var(--fill-0, #4356B1)"/>
  </g>
  <g transform="translate(39.497, 692.846)">
    <path id="f2p12-Vector" fill-rule="evenodd" clip-rule="evenodd" d="M1.96995 10.45C1.8136 10.3901 1.68202 10.2702 1.61036 10.106C1.46574 9.77903 1.61297 9.39599 1.93737 9.25007L2.24745 9.11067L9.11215 5.18128C9.41181 5.01061 9.79354 5.10311 9.98115 5.39104C10.0176 5.45097 10.0463 5.51351 10.0645 5.57865L10.9361 5.03276C11.099 4.93113 11.2892 4.90899 11.4612 4.95849L12.4735 4.50119C12.7771 4.36439 13.1327 4.47905 13.3021 4.76176L16.5084 3.12539C16.67 3.04331 16.8485 3.03419 17.0074 3.08761C17.5572 2.80489 18.1552 2.49742 18.8105 2.15868C19.1193 1.99973 19.5011 2.11308 19.673 2.41534C19.7642 2.57168 19.7825 2.75017 19.7356 2.91172L21.3224 0.935302L21.798 1.92807L23.0969 0.25261C23.2949 -0.00274853 23.6467 -0.0744047 23.9281 0.0832397C24.2095 0.239581 24.3346 0.579624 24.2226 0.880582C23.7913 2.02318 23.3197 3.14884 22.8285 4.26668L23.4291 3.34557C23.6063 3.07327 23.9568 2.97295 24.2499 3.11236C24.319 3.14493 24.3815 3.18792 24.4323 3.23874C24.5626 2.91693 24.6942 2.58861 24.8323 2.25378C24.9665 1.92416 25.3417 1.76261 25.6726 1.89289C26.0036 2.02448 26.169 2.39579 26.044 2.72932L25.3 4.70314C25.5723 4.86208 25.6935 5.19952 25.5788 5.50178C25.5788 5.50308 25.5788 5.50308 25.5762 5.50439C24.4167 8.49572 23.0982 11.4258 21.9387 14.4172C21.8918 14.5357 21.8475 14.653 21.8019 14.7676C21.854 14.7728 21.9048 14.782 21.9582 14.8002C22.2761 14.9083 22.4611 15.2458 22.379 15.5741C21.3446 19.738 20.6176 22.6798 20.0978 24.7891C20.3114 24.965 20.3922 25.2621 20.2854 25.5304L19.32 27.9577C18.8079 30.0435 18.7324 30.3497 18.5513 30.979C17.8021 33.6016 16.6934 36.1122 15.943 38.7348C15.8466 39.0735 15.4987 39.2729 15.1587 39.1882C15.0583 39.1634 14.9711 39.1165 14.8994 39.054L14.0995 41.0591C13.9744 41.3692 13.6408 41.5346 13.3217 41.446C13.1718 41.4043 13.0468 41.3131 12.9621 41.1946C12.9034 41.2441 12.837 41.2832 12.7653 41.3092L12.5152 41.8395C12.3654 42.1626 11.981 42.3033 11.6566 42.1561C11.6371 42.147 11.6188 42.1365 11.6006 42.1261C11.3244 42.3385 11.0065 42.4596 10.5531 42.5808C9.7727 42.7919 9.32582 42.6759 9.06004 42.4805L8.80338 42.7163C8.54411 42.7163 8.30699 42.56 8.20407 42.3189L7.50444 40.6552C7.44711 40.6474 7.39109 40.6304 7.33898 40.6057C7.11359 40.5041 6.97288 40.2878 6.95724 40.0546L6.53252 40.5392C6.21723 40.5392 5.94884 40.3139 5.89152 40.0051L5.63876 38.6188C5.45506 38.7374 5.21403 38.7609 5.00428 38.6605C4.68899 38.5107 4.54828 38.1381 4.68638 37.8176C4.88311 37.3538 5.07072 36.9121 5.24791 36.4926L4.85184 34.3155C4.54828 34.1566 4.41669 33.7879 4.5587 33.4739C4.59258 33.3996 4.62384 33.328 4.65772 33.2563L4.26165 31.0897C4.13397 31.1496 3.98675 31.1666 3.83953 31.1327C3.71837 31.1027 3.61153 31.0428 3.53076 30.9594L2.3152 32.8368C2.14322 33.1039 1.80318 33.2068 1.50874 33.0804C1.2182 32.9528 1.06186 32.6323 1.13743 32.3235C1.54261 30.7119 1.88656 29.3582 2.17189 28.2208C1.89308 28.0905 1.74064 27.774 1.81881 27.4665L3.24934 21.9997C2.97444 22.2069 2.58749 22.1626 2.3621 21.9007C2.13671 21.6362 2.15886 21.2415 2.41291 21.0044L3.86819 19.6325L4.48444 17.2769L3.03437 18.2098C2.75296 18.3921 2.37774 18.3296 2.17189 18.0664C1.96213 17.8033 1.99079 17.4254 2.23182 17.1922L4.41148 15.0959L1.81621 17.0606C1.54001 17.2678 1.15697 17.2261 0.931576 16.9655C0.706184 16.7063 0.721818 16.3167 0.96545 16.0757L2.53408 14.5344L1.64032 15.234C1.36542 15.4503 0.968056 15.4086 0.740058 15.1402C0.515968 14.8732 0.540722 14.4745 0.799989 14.2387L4.31246 11.0454C4.30595 11.035 4.29944 11.0245 4.29292 11.0141C4.26165 10.9633 4.23951 10.9112 4.22387 10.8565L3.46822 11.2421L0.996718 12.7899C0.699669 12.9762 0.308815 12.8928 0.112085 12.6036C-0.0846447 12.3144 -0.0155937 11.9209 0.265821 11.7138L1.97125 10.4526L1.96995 10.45ZM3.67537 28.3303L3.99978 26.2965C3.82259 27.0001 3.61284 27.8287 3.36269 28.8097L3.67537 28.3303ZM11.1185 40.6813C11.0208 40.6278 10.9427 40.5536 10.8905 40.4663L10.815 40.6252C10.6651 40.9431 10.2899 41.0877 9.96812 40.947C9.92774 40.9301 9.89256 40.9119 9.85868 40.8884C9.8678 41.0656 9.88344 41.2571 9.89647 41.3822C9.98376 41.3705 10.1062 41.3509 10.2157 41.321C10.6612 41.2011 10.871 41.0695 11.1185 40.6813ZM17.0426 27.3688L15.7801 30.6454L17.2289 27.9485C17.2862 27.8443 17.3644 27.7609 17.4582 27.7036C17.7644 27.2176 18.0914 26.7421 18.3949 26.2561C18.6112 25.3884 18.8731 24.3149 19.204 22.973L17.4725 26.9962C17.3917 27.1864 17.2289 27.3193 17.0426 27.3688ZM20.757 5.72196L19.901 6.85804L19.9414 6.96097C19.9466 6.99224 19.9531 7.02351 19.9597 7.05477L20.2945 6.746C20.4469 6.40465 20.6007 6.06331 20.757 5.72196ZM9.3623 12.5841L11.1589 11.1731L9.03659 12.4512L7.95913 13.4882L9.3623 12.5841ZM17.2979 5.95257L18.0823 4.97673C16.3925 6.19229 15.173 7.08213 14.1242 7.86515L17.2979 5.95257ZM9.77139 39.7302C9.81569 39.6181 9.85868 39.5074 9.90298 39.398C9.84696 39.4279 9.78703 39.4488 9.7284 39.4618C9.74403 39.553 9.75837 39.6429 9.77139 39.7302ZM6.49994 20.0546L6.74618 19.3185C6.63023 19.4084 6.50906 19.4996 6.3866 19.5934L6.28367 20.2539L6.49994 20.0546ZM7.23084 22.3854L7.96565 21.6884L8.84637 20.3282L7.59434 21.2324L7.23084 22.3854ZM16.9292 22.6551C17.311 21.4942 17.6419 20.4819 17.9389 19.5777L17.892 19.596L17.6354 19.6259L17.4829 19.6116L17.3422 19.5647L17.139 19.4188L17.0387 19.2859L17.0009 19.196L15.9104 20.5458C16.1645 20.7216 16.2609 21.0565 16.1293 21.3457C14.4356 25.1057 13.4076 27.3388 12.5517 29.2918L15.9586 22.8661C16.1241 22.556 16.5019 22.431 16.8172 22.5847C16.8576 22.6043 16.8954 22.6277 16.9292 22.6551ZM8.56235 18.1668L9.93946 16.903C9.53037 17.2079 9.10824 17.5258 8.65616 17.8684L8.56235 18.1668ZM13.977 14.9735C13.977 14.9839 13.9796 14.9943 13.9835 15.0047L14.9059 14.3364C14.9424 14.2322 14.9776 14.1266 15.0141 14.0211L13.977 14.9735ZM6.76833 26.6235L6.21202 27.4938L6.45695 28.7224C6.52861 28.626 6.62762 28.5491 6.74749 28.5035C6.75921 28.4983 6.77485 28.4944 6.78787 28.4892C7.27774 27.3935 7.69075 26.475 8.0373 25.7011L6.76833 26.6235ZM16.9827 19.1582L16.9761 19.1426L16.9292 18.8338C16.924 18.5211 17.0048 17.7915 17.1455 16.8965L16.1918 18.2514L16.5514 19.3641L16.9827 19.1582ZM18.6881 15.4972C18.9044 14.967 19.1506 14.3481 19.4385 13.6276L18.9109 14.382C18.8327 14.7481 18.761 15.1259 18.6881 15.4972ZM14.6701 11.6473L14.6584 11.6551L14.661 11.659L14.6701 11.6473ZM12.9582 22.1287L12.6741 22.3359C12.6233 22.4466 12.5738 22.5574 12.5269 22.6694L12.949 22.143L12.9582 22.1287Z" fill="var(--fill-0, #4375C4)"/>
  </g>
  <g transform="translate(4.441, 701.196)">
    <path id="f2p13-Vector" fill-rule="evenodd" clip-rule="evenodd" d="M0.936237 3.02482C1.04568 2.78249 1.29582 2.62093 1.57724 2.64048C1.93031 2.66393 2.1987 2.96749 2.18306 3.32187L2.12443 4.50094C2.20521 4.4345 2.30553 4.3889 2.41106 4.36805L2.87357 2.38903C2.95174 2.05029 3.28266 1.83402 3.62401 1.89655C3.96405 1.95779 4.19857 2.27698 4.15166 2.62224L4.08001 3.17986L5.39588 2.65872C5.5418 2.45678 5.79586 2.35646 6.0421 2.40336L8.96047 1.25034C9.0165 1.22819 9.07252 1.21516 9.12854 1.20865L11.5857 0.0608403C11.8437 -0.0590212 12.1472 0.00221215 12.3414 0.209365C12.5316 0.419123 12.5668 0.727898 12.426 0.974136L11.1232 3.25933C11.3486 3.08996 11.66 3.07823 11.8945 3.2463C12.1694 3.44173 12.2502 3.81434 12.0821 4.10488L11.5193 5.07029C11.5349 5.10025 11.5505 5.13022 11.5662 5.16279C11.6665 5.38297 11.7447 5.58231 11.8033 5.76992C12.0091 5.68132 12.2567 5.70347 12.4508 5.84678C12.7257 6.05263 12.7948 6.43697 12.6071 6.7249C11.4255 8.53195 10.6229 9.54557 8.71033 12.5695C8.29863 13.2743 7.83872 14.0756 7.33582 14.9915C7.26677 15.1191 7.16124 15.213 7.03877 15.269C6.78863 15.6742 6.52936 16.1054 6.25446 16.564C6.06815 16.8715 5.66818 16.9705 5.36071 16.7855C5.05193 16.6005 4.95161 16.1992 5.13922 15.8917C5.19524 15.7966 5.25257 15.7028 5.30859 15.6103C5.24606 15.6012 5.18352 15.5817 5.12619 15.553C4.9021 15.4449 4.77052 15.2273 4.75749 14.9954L4.65456 15.1726C4.53861 15.3732 4.32755 15.4983 4.09304 15.4983L3.49894 14.5798L3.53281 14.5016C3.46115 14.4912 3.3895 14.4677 3.32045 14.4299C3.20189 14.3648 3.10808 14.2658 3.05206 14.1524C3.04294 14.1537 3.03252 14.155 3.0234 14.1563C3.01428 14.4964 3.00516 14.8377 2.99864 15.1778V15.1791C2.99213 15.5387 2.69508 15.824 2.3355 15.8175C1.97721 15.811 1.68928 15.5139 1.6958 15.1543V15.153L1.72967 13.4202L1.66713 13.7772C1.63977 13.9257 1.56421 14.0547 1.46128 14.1485L1.45868 14.1681L0.824192 14.671C0.643097 14.671 0.473726 14.598 0.352562 14.469C0.336928 14.4547 0.323899 14.4404 0.312174 14.4247C0.21446 14.2997 0.164952 14.1446 0.174072 13.987L0.183192 13.7968C0.0594215 13.6678 -0.0135382 13.4893 0.00209594 13.2965L0.714753 3.47169C0.727782 3.2919 0.811164 3.13556 0.936237 3.02612V3.02482ZM10.6125 6.62979L10.5382 6.76008C10.5291 6.80959 10.5135 6.8604 10.4913 6.9086L10.3285 7.2721C10.348 7.27601 10.3662 7.28122 10.3845 7.28773C10.5135 7.03628 10.5916 6.83043 10.6125 6.62979ZM3.90152 4.51918L3.52109 7.42323L4.68583 4.42277L4.19205 4.5257C4.09304 4.54524 3.99532 4.54263 3.90152 4.51918ZM5.77892 5.26702L5.77241 5.22923L5.72029 5.36212L5.77892 5.26702Z" fill="var(--fill-0, #4375C4)"/>
  </g>
  <g transform="translate(-6.17, 681.941)">
    <path id="f2p14-Vector" fill-rule="evenodd" clip-rule="evenodd" d="M0.224097 3.25721C0.295754 3.07872 0.446884 2.94453 0.624071 2.8859C0.5459 2.76473 0.509421 2.61751 0.525055 2.46508C0.562837 2.13676 0.837738 1.88662 1.16866 1.88401L3.74569 1.86316L1.18039 1.35636C0.83383 1.28861 0.605831 0.95508 0.665762 0.607219C0.728299 0.258056 1.05271 0.0209382 1.40317 0.0730521L3.1086 0.327107C3.2467 0.0899893 3.5216 -0.0415983 3.79911 0.0118183L8.12326 0.857366C8.10762 0.719265 8.13629 0.573346 8.21706 0.446969C8.40467 0.1408 8.80465 0.0443896 9.11082 0.233302C9.41959 0.423518 9.55509 0.51602 10.5453 1.329L12.6728 1.74591C13.0194 1.81366 13.2513 2.14719 13.1874 2.49505C13.1379 2.79209 12.8943 3.00837 12.6064 3.03442C12.6194 3.04485 12.6324 3.05527 12.6441 3.06439C12.6976 3.0683 12.751 3.07872 12.8044 3.09566C13.0037 3.03833 13.2291 3.08002 13.3972 3.21943L13.7815 3.53602C16.184 4.05976 17.5845 4.27995 18.503 4.50534C19.8033 4.82454 20.271 5.15416 21.0019 6.12347C21.3029 6.52215 21.3954 6.85828 21.3393 7.17618L21.2872 7.3716L21.2025 7.54618C21.1491 7.63738 21.0775 7.73379 20.9837 7.83281C20.7934 8.03084 20.4769 8.26796 19.9935 8.57283C19.643 8.79431 19.1896 9.06139 18.6177 9.39492C18.6177 9.39883 18.6151 9.40144 18.6151 9.40404C18.6125 9.41707 18.606 9.4288 18.6021 9.44052C18.4991 9.68285 18.2659 9.8405 18.0001 9.8405L17.9129 9.80923C16.6243 10.5623 14.872 11.5967 12.5256 13.0716C12.2259 13.2579 11.8351 13.1745 11.6383 12.8813C11.6162 12.8475 11.5953 12.8123 11.5784 12.7758L11.1758 13.0194C11.1315 13.0468 11.0846 13.0677 11.0377 13.0833L10.9504 13.1927L10.3602 14.2506C10.1974 14.5438 9.83781 14.6649 9.52903 14.5294C9.48473 14.5099 9.44435 14.4851 9.40396 14.4565C9.34142 14.4382 9.28279 14.4083 9.22286 14.3692C8.94405 14.1738 8.86067 13.7959 9.03525 13.5028L9.35054 12.9673C9.24501 12.897 9.15642 12.7941 9.10691 12.6677L8.89454 12.1439C8.8724 12.1713 8.84504 12.196 8.81637 12.2182C8.81898 12.4983 8.63919 12.7576 8.35777 12.8449C8.22618 12.8853 8.09199 12.8813 7.96952 12.8423L7.9578 12.867L7.98255 12.9061L7.42233 13.8937C7.20084 13.8937 6.9989 13.7816 6.87643 13.5966L4.47008 9.88349L0.130292 4.14315C-0.0416838 3.91254 -0.0442892 3.59335 0.127686 3.36144C0.155046 3.32366 0.190223 3.28848 0.224097 3.25851V3.25721ZM15.9247 5.30789L15.969 5.34307C16.1032 5.35089 16.2348 5.40039 16.3442 5.49159C16.4289 5.56064 16.4901 5.64663 16.5279 5.74044L16.7377 5.8616C16.8784 5.94238 16.9787 6.07136 17.0282 6.21858L17.922 6.95469C17.9467 6.97684 17.9715 6.99899 17.9936 7.02374L18.4001 6.7749C18.5995 6.65113 18.8405 6.64983 19.0333 6.74884L19.5583 6.43355C19.2144 6.09742 18.8561 5.93456 18.193 5.7704C17.6458 5.63751 16.9279 5.50462 15.9247 5.30789ZM4.80751 5.98798L4.84269 6.06615L4.83618 5.9997L4.80882 5.98798H4.80751ZM6.32012 9.04576C6.4048 9.1539 6.496 9.26464 6.5859 9.37929C6.61456 9.41316 6.63932 9.44704 6.66798 9.48221L6.2667 8.14158L6.32012 9.04576ZM12.691 7.29995L12.8357 7.05631L12.7888 7.01071L12.691 7.29864V7.29995ZM7.57346 3.13474L6.74224 3.14126L7.63599 3.3445L7.60473 3.14907L7.57346 3.13474ZM7.83533 7.23871C7.8666 7.16445 7.89917 7.09149 7.92913 7.01853C7.88354 7.02374 7.83272 7.02635 7.7767 7.02374L7.83533 7.23871ZM7.98646 5.59712C8.06072 5.55934 8.13238 5.51895 8.18319 5.4942L8.51411 5.37825L8.76426 5.37043L8.77729 5.37303L8.50499 4.61347C8.39295 4.70988 8.24573 4.76721 8.08678 4.76721C8.06724 4.76721 8.049 4.76721 8.03076 4.7646L7.29856 4.70337L7.68681 5.66096L7.8679 5.73653C7.92392 5.75998 7.97734 5.79255 8.02424 5.82903L7.98646 5.59712ZM13.9131 9.52521L14.9567 8.88551C14.8134 8.879 14.6727 8.82688 14.5567 8.72787L13.9131 9.52521ZM15.8687 8.32529L15.6251 8.12856C15.6472 8.25884 15.629 8.39043 15.5716 8.50638L15.8687 8.32529ZM9.86126 4.17051L9.70492 4.10015L10.2951 5.75216L10.785 5.06817L9.85995 4.17051H9.86126Z" fill="var(--fill-0, #4375C4)"/>
  </g>
  <g transform="translate(38.986, 689.779)">
    <g id="f2p15-Group">
<path id="f2p15-Vector" fill-rule="evenodd" clip-rule="evenodd" d="M0.715487 9.95617L26.8714 0.0714668C27.2441 -0.0692407 27.6649 0.00111305 27.9697 0.256471C28.2746 0.510526 28.4218 0.911803 28.3515 1.30396C27.6922 4.97669 27.4291 4.8907 26.6969 8.54909C26.564 9.21485 25.3289 17.2717 24.2397 22.1378C22.9525 27.8651 20.2856 36.2554 18.046 41.4655C17.0076 43.8771 16.0122 45.632 15.297 46.2848C13.0925 48.3029 11.1578 48.8123 9.53837 48.3367C7.96713 47.8755 6.56918 46.3981 5.45134 43.9878C2.57335 37.7863 1.18451 24.9884 0.00413297 11.0857C-0.0375581 10.592 0.252977 10.1307 0.715487 9.95617ZM2.28281 11.7333C3.4189 24.9923 4.70481 37.1218 7.45642 43.055C8.23422 44.7331 9.06804 45.8913 10.1624 46.2118C11.2099 46.5193 12.3747 45.959 13.8039 44.6497C14.3993 44.1064 15.1471 42.599 16.0122 40.59C18.2075 35.4855 20.8223 27.2645 22.0809 21.6531C23.1661 16.8052 24.3934 8.77839 24.5276 8.11524C25.0957 5.27243 25.3784 4.70439 25.7888 2.84783L2.28281 11.7333Z" fill="var(--fill-0, #4356B1)"/>
</g>
  </g>
  <g transform="translate(3.105, 700.174)">
    <path id="f2p16-Vector" fill-rule="evenodd" clip-rule="evenodd" d="M1.06548 1.77056L15.931 0.00780513C16.3127 -0.0377946 16.6918 0.118547 16.9302 0.420808C17.1687 0.723068 17.2351 1.12695 17.1022 1.48784C14.8796 7.57083 13.4425 12.192 11.711 15.2198C10.4108 17.4959 8.92034 18.9317 6.95435 19.5622C5.8821 19.9049 4.9636 19.8866 4.17798 19.6287C3.02887 19.2496 2.12469 18.3284 1.48239 17.0126C-0.514875 12.9229 0.080526 4.57819 0.0909488 2.86365C0.094857 2.30472 0.511768 1.8344 1.06548 1.76925V1.77056ZM2.27061 3.85772C2.18332 6.11164 1.98399 10.8879 2.86992 14.3391C3.40669 16.4289 4.27309 18.0952 6.27687 17.4529C7.7569 16.9787 8.81221 15.8309 9.78934 14.1202C11.3111 11.4559 12.5866 7.52132 14.4131 2.41938L2.27061 3.85772Z" fill="var(--fill-0, #4356B1)"/>
  </g>
  <g transform="translate(-9, 680.066)">
    <path id="f2p17-Vector" fill-rule="evenodd" clip-rule="evenodd" d="M9.98989 18.6999C4.00591 10.72 1.69987 7.45892 0.795694 6.04664C0.00616809 4.81154 0.0700078 4.63435 0.0348309 4.43502C-0.151476 3.41098 0.412656 2.43515 1.65427 1.729C3.51213 0.671091 7.09105 0.116078 8.85771 0.014456C10.799 -0.0988917 12.6751 0.457424 14.7466 1.57396C17.5816 3.0983 20.8387 5.71181 25.3817 8.92854C25.6892 9.14481 25.8651 9.50179 25.8481 9.87701C25.8338 10.2522 25.6306 10.5949 25.3035 10.7851L11.4413 18.9878C10.954 19.2757 10.3299 19.1507 9.98989 18.6999ZM2.2184 4.07804C2.23925 4.16924 2.29527 4.28519 2.66007 4.85193C3.52255 6.20298 5.68528 9.25555 11.1677 16.5762L22.7174 9.74412C19.657 7.5384 17.2207 5.67142 15.0762 4.33079C12.8392 2.92893 10.967 2.11074 8.98409 2.22539C7.65909 2.30226 5.15502 2.6449 3.44178 3.3276C3.05613 3.48003 2.71609 3.6481 2.45682 3.84222C2.36562 3.90997 2.25358 4.03635 2.2184 4.07804Z" fill="var(--fill-0, #4356B1)"/>
  </g>
  <g transform="translate(76.832, 662.771)">
    <path id="f2p18-Vector" fill-rule="evenodd" clip-rule="evenodd" d="M11.5012 0.278396C11.9572 -0.12679 12.6582 -0.0850988 13.0607 0.373503C13.4672 0.830803 13.4255 1.53173 12.9669 1.93692C7.31257 6.94506 6.5478 7.45448 2.26143 9.65759C2.68225 13.7485 5.38826 16.0976 8.58154 14.8885C14.2489 12.7401 16.6787 9.49734 18.435 7.72026C18.8623 7.28511 19.5632 7.2812 19.9984 7.71114C20.4322 8.13978 20.4361 8.84201 20.0088 9.27716C18.1184 11.191 15.4723 14.6462 9.36325 16.9601C6.9126 17.889 4.60265 17.4187 2.87116 15.9178C1.24391 14.5081 0.119551 12.1317 0.000992052 9.04786C-0.017248 8.61662 0.217265 8.21534 0.602907 8.01861C5.28273 5.62137 5.80908 5.32041 11.5012 0.278396Z" fill="var(--fill-0, #4356B1)"/>
  </g>
</svg>