<svg viewBox="0 0 393 852" xmlns="http://www.w3.org/2000/svg" overflow="visible">
  <g transform="translate(309.016, 220.668)">
    <path id="f4p1-Vector" fill-rule="evenodd" clip-rule="evenodd" d="M4.37477 7.50218C4.46063 7.45167 4.5465 7.40621 4.64246 7.36581C4.8748 7.25974 5.10209 7.19408 5.34453 7.16377L5.12735 6.55262C4.69297 5.32021 5.25867 3.95648 6.44562 3.40594C7.11233 3.09783 7.83966 3.10794 8.48111 3.37058L8.79427 3.16855L9.65796 2.98672L10.4459 3.08268L11.0874 3.37058L11.5975 3.78475L11.9713 4.28478C12.2743 4.78987 13.4461 7.15367 14.6078 9.51747C15.325 10.9519 16.1736 12.6338 16.6433 13.5885C16.8605 13.8107 17.0322 14.0784 17.1534 14.3764C17.2999 14.7603 17.3706 15.0027 17.406 15.1138L17.4817 15.8159L17.3504 16.3664C17.8808 17.5231 18.4768 18.8211 19.1536 20.2859L14.5724 5.39597C14.1987 4.16356 14.8048 2.83519 16.0018 2.3301C16.7898 1.99675 17.6535 2.09271 18.3303 2.51699C18.3303 1.63309 18.8 0.784543 19.6132 0.329966C20.7143 -0.296339 22.0982 -0.00844131 22.8559 1.00173L25.1085 3.97163C25.1691 3.81 25.255 3.65343 25.351 3.50695C25.9924 2.56749 27.1844 2.16848 28.2603 2.54224C31.0938 3.51705 33.5889 4.3757 35.8416 5.13838C36.4124 4.83533 37.1043 4.75957 37.7559 4.96665L77.2586 17.3867C78.5668 17.8009 79.3042 19.1949 78.9153 20.5182C78.5315 21.8365 77.1475 22.5992 75.8141 22.2305C73.8291 21.6749 72.0007 21.1647 70.3137 20.695L71.0208 21.0334L70.1824 24.665L70.642 24.8872C70.5107 24.2963 70.5814 23.6498 70.8996 23.0841C71.5663 21.8921 73.0412 21.4425 74.2534 22.0638L77.5819 23.7811C77.5819 23.3568 77.6829 22.9224 77.9102 22.5285C78.5618 21.3466 80.0316 20.892 81.2438 21.4981L134.419 48.1969C135.626 48.8081 136.152 50.2829 135.566 51.5204C134.985 52.7629 133.535 53.3134 132.273 52.7679L132.081 52.6821C132.065 52.7326 132.045 52.7881 132.03 52.8386L131.535 54.1418L135.929 55.8843C136.354 55.7934 136.793 55.8086 137.227 55.95C137.919 55.0307 139.167 54.6772 140.258 55.1519C141.309 55.6116 141.905 56.7278 141.748 57.8339L143.986 58.7785C144.243 58.8088 144.486 58.8795 144.728 58.9906C144.92 59.0765 145.092 59.1775 145.233 59.3037L156.486 64.0212C157.774 64.5566 158.375 66.0214 157.855 67.3043C157.446 68.3145 156.451 68.9155 155.421 68.8751L153.143 70.1277C153.117 70.2035 153.092 70.2792 153.057 70.355C152.547 71.5066 151.299 72.0925 150.117 71.7895L146.592 73.7239C147.607 73.6886 148.577 74.2644 149.001 75.2493C149.557 76.5322 148.966 78.0172 147.678 78.5677L132.151 85.255C131.884 85.4369 131.581 85.5631 131.278 85.6288L117.59 91.5181L116.62 93.2606C115.979 94.4223 114.549 94.887 113.352 94.3264C113.024 94.1748 112.746 93.9576 112.514 93.7001L111.524 94.1294C111.423 94.1748 111.317 94.2152 111.205 94.2455L106.352 96.3316C106.049 96.5386 105.71 96.6851 105.357 96.7558L105.165 96.8417L89.8252 104.756L92.3456 107.893C93.1587 108.903 93.0729 110.363 92.1536 111.272C91.2293 112.186 89.7747 112.252 88.7695 111.424C56.1158 84.4115 55.944 84.9722 53.5247 82.2296C45.8676 73.5825 40.7813 62.8747 33.1343 54.2276C32.2403 53.2175 32.2909 51.6871 33.2556 50.7476C33.9223 50.096 34.8567 49.889 35.7052 50.1213C34.19 48.0252 32.6747 45.9392 31.1241 43.8784C30.9776 44.2775 30.7402 44.6411 30.3968 44.924C30.6039 45.3583 30.7958 45.7978 31.0029 46.2422C31.0029 46.2523 31.018 46.2574 31.018 46.2624C31.5837 47.5302 31.0433 49.0202 29.7705 49.6061C28.5078 50.1869 27.0178 49.6364 26.4268 48.3737V48.3585L24.0277 43.2168C23.9771 43.343 23.9165 43.4643 23.8458 43.5855C23.8105 43.6309 23.7852 43.6764 23.7499 43.7269C23.2751 44.3835 22.5124 44.7724 21.7043 44.7724L19.4364 43.3632L16.2291 36.8274C15.2594 36.8981 14.2997 36.4082 13.8199 35.5041L0.298726 10.4216C-0.342733 9.21947 0.0815396 7.72442 1.25839 7.0375C2.29887 6.43645 3.59694 6.65364 4.36972 7.50723L4.37477 7.50218ZM71.0259 89.427L51.2922 71.1076C53.1711 73.7946 55.1308 76.416 57.3128 78.8708C59.0806 80.881 59.6513 81.0628 73.0715 91.9878L71.0259 89.4321V89.427ZM127.484 50.6819L124.626 49.4394C124.626 49.6617 124.6 49.8788 124.54 50.1011C124.949 50.0758 125.363 50.1465 125.747 50.3233C126.318 50.5809 126.752 51.0304 126.994 51.5608L127.469 50.7072C127.469 50.7072 127.479 50.692 127.479 50.6819H127.484ZM98.8864 85.5884L97.9166 84.7297L95.5882 88.6593L98.8864 85.5884ZM113.271 47.7928L115.782 50.2375C115.938 50.2779 116.095 50.3334 116.251 50.4092C117.974 51.2426 119.524 51.9952 120.938 52.6871C121.242 52.6518 121.545 52.677 121.848 52.7528L122.201 52.0103C121.777 52.0305 121.337 51.9396 120.938 51.7325L113.271 47.7928ZM55.6763 26.7308C54.9288 27.8723 53.3883 28.2056 52.2266 27.4682V27.4632L49.7769 25.9125L56.1612 31.2008L56.732 29.2209L67.4499 36.0345L55.6763 26.7308ZM89.6029 46.1362L92.6789 49.298L91.0828 46.9898L89.6029 46.1362ZM36.2002 36.5547L41.0692 41.8732L36.6447 35.0849L36.8518 35.5799L36.2002 36.5547ZM30.6998 20.2606C30.7453 20.2455 30.7958 20.2303 30.8463 20.2152L30.5079 19.7707L30.6998 20.2606ZM84.2288 94.7102L86.1532 90.6089C85.7188 90.2251 85.2794 89.8463 84.8551 89.4725C84.1278 90.0937 83.0974 90.2756 82.1782 89.8665C80.9811 89.3311 80.4003 87.9673 80.8195 86.7299L81.0266 86.144C79.8295 85.0934 78.688 84.1034 77.6122 83.164C77.5364 83.6943 77.2839 84.2044 76.8748 84.6035C76.2182 85.2247 75.309 85.4318 74.5009 85.2247C77.3192 87.9774 80.5417 91.1241 84.2288 94.7153V94.7102ZM88.7342 55.556L88.4412 57.0612L89.4464 57.9501L90.1989 56.4854L88.7291 55.556H88.7342ZM47.9738 24.7761L47.403 24.4124L47.6707 24.7256C47.7768 24.7357 47.8778 24.7508 47.9738 24.771V24.7761ZM114.074 59.0007L113.236 61.3039L114.665 61.6271L115.549 60.0563L114.074 59.0007ZM68.1772 59.526L68.4802 58.6623L64.7123 55.3388L68.1772 59.526ZM64.4345 62.9202L66.0104 65.7385L66.2276 65.1021L64.4345 62.9202ZM79.3093 73.0017L77.9304 67.2841L76.3545 69.4307L79.3093 73.0017Z" fill="var(--fill-0, #4375C4)"/>
  </g>
  <g transform="translate(302.02, 211.978)">
    <g id="f4p2-Group">
<path id="f4p2-Vector" fill-rule="evenodd" clip-rule="evenodd" d="M91.649 122.228C89.6943 120.778 27.0889 57.7434 11.1636 37.6965C8.30985 34.1155 3.82469 28.6151 1.56696 23.1198C-0.347318 18.4225 -0.675623 13.705 1.52655 9.66935C3.64791 5.77009 8.44118 2.12338 18.0934 0.416188C27.0485 -1.16978 39.9585 1.85063 55.4192 8.21976C89.366 22.1955 136.713 52.041 182.1 76.8861C183.539 77.669 184.398 79.1944 184.327 80.8308C184.262 82.4623 183.282 83.9119 181.787 84.5735L95.9473 122.702C94.533 123.329 92.8865 123.147 91.649 122.228ZM95.0381 113.712L170.417 80.2348C134.076 60.0264 97.0736 37.3581 67.2029 22.9329C46.9287 13.1443 30.2255 6.98735 19.5733 8.87132C13.6739 9.91179 10.3605 11.3967 9.05738 13.7807C8.06236 15.6092 8.63311 17.7305 9.50691 19.862C11.4464 24.5946 15.4164 29.2667 17.8762 32.3477C32.16 50.3388 84.7192 103.666 95.0381 113.712Z" fill="var(--fill-0, #4356B1)"/>
</g>
  </g>
  <g transform="translate(295.025, 244.268)">
    <path id="f4p3-Vector" fill-rule="evenodd" clip-rule="evenodd" d="M4.72324 144.821C4.25857 143.8 4.52626 142.558 5.42531 141.82C6.02132 141.335 6.60216 140.861 7.15776 140.406C6.40518 140.371 5.66775 139.992 5.20308 139.32C4.42019 138.184 4.68284 136.623 5.81423 135.825L48.3425 105.585L48.3526 105.575C49.1405 105.02 50.1204 104.974 50.9184 105.363C61.0706 99.08 70.7885 92.0896 81.1781 86.2154C95.169 78.3008 140.374 58.3499 155.769 54.784C160.517 52.1373 165.265 49.5058 170.088 47.0107C194.105 34.5856 210.071 29.6105 212.142 28.7165C212.409 28.6003 212.677 28.5347 212.955 28.5094L240.755 11.4527C241.917 10.7355 243.447 11.0789 244.184 12.2305C244.932 13.3771 244.634 14.9125 243.508 15.6853L231.769 23.7667L262.039 9.92733C263.115 9.4374 264.378 9.7657 265.08 10.6648C266.156 10.2657 267.393 10.6547 268.05 11.6295C268.656 12.5386 268.59 13.7256 267.949 14.5691C279.894 8.72018 284.01 6.99783 303.355 0.143823C304.567 -0.2855 305.926 0.275145 306.472 1.44189C306.845 2.23993 306.775 3.13898 306.35 3.8461L310.891 2.17427C312.139 1.71464 313.518 2.29549 314.063 3.49254C314.305 4.03803 314.356 4.62393 314.21 5.15932L319.892 3.36122C321.165 2.95715 322.533 3.61881 323.018 4.87142C323.018 4.89668 323.028 4.92193 323.038 4.94214L324.215 4.52797C325.463 4.07844 326.842 4.67949 327.377 5.9018C327.897 7.12411 327.387 8.5434 326.215 9.1495L323.296 10.6547L324.377 10.3263C325.599 9.95258 326.907 10.5536 327.412 11.7254C327.766 12.5336 327.67 13.4427 327.21 14.1397L328.19 13.7811C329.206 13.4023 330.332 13.7306 330.999 14.5388C331.352 14.559 331.716 14.5792 332.079 14.5994L332.878 13.771C333.676 12.9427 334.938 12.7609 335.943 13.3316C336.656 13.7357 337.12 14.4478 337.201 15.2307C337.772 15.6095 338.181 16.2156 338.292 16.9278C338.484 18.0996 337.832 19.2462 336.731 19.6805L336.11 19.923L336.1 19.9583L338.984 21.5999L339.888 19.9886L339.565 19.5038L340.024 19.7462L340.676 18.5744C340.676 18.5744 340.691 18.5592 340.691 18.5491L338.898 15.8217C338.171 14.7105 338.423 13.2205 339.479 12.4174C340.545 11.6143 342.045 11.7759 342.919 12.7811L350.126 21.1251C350.343 20.4281 350.864 19.8321 351.591 19.5442C352.803 19.0593 354.182 19.5745 354.773 20.7362L358.096 27.2316L357.576 23.4434C357.394 22.115 358.278 20.8776 359.597 20.62C360.905 20.3624 362.203 21.1806 362.526 22.4838L367.082 40.5557C367.334 40.9648 367.471 41.4497 367.456 41.97V42.0306L368.486 46.1066C369.648 46.44 370.41 47.5663 370.294 48.7836L369.855 53.1728C370.597 52.597 371.613 52.4505 372.496 52.8697C373.658 53.4152 374.229 54.7486 373.82 55.9659L373.719 56.2285C373.855 56.2891 373.976 56.3598 374.098 56.4508C375.183 57.2387 375.461 58.7539 374.724 59.8853L349.919 97.6051C349.151 98.7618 347.616 99.0901 346.454 98.3476C345.293 97.6051 344.939 96.0697 345.656 94.8928L347.086 92.5846C346.964 92.6502 346.853 92.7159 346.747 92.7816L343.424 96.0798C342.661 96.8374 341.535 97.0091 340.605 96.5849L333.433 103.449C332.448 104.388 330.913 104.388 329.933 103.444C329.716 103.232 329.544 102.984 329.413 102.722C322.604 106.51 316.184 109.869 312.598 111.237C311.24 111.753 310.174 112.005 309.507 112.04L308.649 111.98C281.515 122.031 275.121 124.435 245.296 135.3C244.993 135.618 244.609 135.865 244.159 135.997C242.73 136.421 241.336 136.835 239.992 137.234C237.239 138.229 234.31 139.295 231.173 140.436C230.557 140.664 229.89 140.628 229.32 140.386C216.046 144.326 207.253 146.987 198.929 149.639C185.594 154.24 174.912 157.978 148.829 166.61C147.562 167.034 146.188 166.383 145.693 165.15C141.117 166.605 136.015 168.226 130.176 170.07C129.777 170.201 129.353 170.216 128.964 170.146C128.287 170.393 127.595 170.646 126.903 170.903C125.61 171.378 124.166 170.716 123.671 169.418C123.585 169.171 123.524 168.918 123.514 168.671C113.847 170.848 106.943 172.141 99.4824 173.292C96.0428 174.09 92.189 174.999 87.8301 176.045C87.3098 176.171 86.7744 176.121 86.3148 175.934C81.37 176.974 76.3596 178.015 69.4298 179.767C68.1216 180.101 66.7781 179.333 66.3892 178.03C66.1215 177.101 66.3993 176.141 67.0559 175.504C61.4242 176.237 57.4138 176.333 54.2873 176.161C38.0943 179.399 30.9726 178.782 26.4167 179.621C25.1186 179.858 23.8609 179.055 23.5225 177.777C23.1841 176.499 23.8862 175.181 25.1338 174.747C27.7754 173.833 30.3664 172.782 32.9323 171.686C31.3211 171.565 29.6997 171.509 28.0885 171.595C27.2046 171.641 26.3914 171.221 25.8964 170.545C24.7954 170.681 23.6539 170.822 22.4669 170.959C20.3001 171.701 18.1585 172.469 16.022 173.292C14.7745 173.777 13.3602 173.191 12.8147 171.964C12.2692 170.742 12.7642 169.307 13.9512 168.696L13.9259 168.575L14.0118 167.711L14.2896 167.029L14.4714 166.782C13.5774 166.963 12.6076 166.645 11.9864 165.872C11.4055 165.135 11.2995 164.17 11.6379 163.352C11.249 163.185 10.9004 162.923 10.6327 162.569C10.4863 162.367 10.3651 162.155 10.2792 161.933C9.11749 162.554 7.88003 163.206 6.58701 163.903C5.43542 164.519 4.00602 164.16 3.2888 163.069C2.57663 161.978 2.80897 160.524 3.82419 159.705C6.63247 157.458 9.14274 155.453 11.4055 153.644C11.3449 153.574 11.2843 153.498 11.2237 153.422C11.0671 153.205 10.9459 152.978 10.8651 152.735C9.81956 153.523 8.71847 154.362 7.54162 155.245C6.45064 156.069 4.88992 155.872 4.04138 154.791C3.54639 154.16 3.39992 153.362 3.57165 152.639C2.53117 153.114 1.28361 152.831 0.541133 151.912C-0.267004 150.882 -0.160935 149.392 0.798727 148.498L4.72324 144.821ZM21.679 162.68C21.5477 162.403 21.4719 162.11 21.4466 161.817C20.492 162.544 19.4869 163.307 18.4212 164.105C19.3404 163.675 20.4466 163.196 21.679 162.68ZM319.745 102.237C319.503 102.121 319.286 101.964 319.079 101.772C318.281 100.989 318.109 99.7921 318.579 98.8325C317.952 99.5699 317.356 100.333 316.775 101.121C316.689 101.292 316.568 101.454 316.437 101.6C315.841 102.439 315.27 103.297 314.715 104.161C315.77 103.838 316.846 103.499 317.962 103.151C317.988 103.141 317.998 103.136 318.023 103.131C318.579 102.843 319.159 102.545 319.74 102.237H319.745ZM364.476 66.2848C364.39 66.3605 364.319 66.4363 364.233 66.502C364.248 66.5323 364.258 66.5626 364.274 66.5929L364.476 66.2848ZM334.716 24.9839L334.11 27.1912L335.888 27.1053L336.509 25.9992L334.716 24.9839ZM307.305 106.474C307.547 106.106 307.775 105.737 308.017 105.363L299.724 108.818C302.062 108.101 304.567 107.323 307.305 106.474ZM237.462 130.325C234.153 131.527 230.542 132.84 226.597 134.284C229.512 133.507 232.638 132.668 236.007 131.754C236.361 131.663 236.709 131.643 237.048 131.698C237.169 131.633 237.29 131.562 237.411 131.496C237.341 131.102 237.351 130.698 237.462 130.325ZM332.706 32.3178L332.463 33.2067L332.973 32.3026L332.706 32.3178ZM240.038 30.4944C240.649 30.7166 241.164 31.1662 241.457 31.7975C241.467 31.8127 241.482 31.8329 241.482 31.8531C241.725 31.7521 241.962 31.646 242.21 31.545L245.25 28.7367C243.503 29.3024 241.76 29.8833 240.038 30.4944ZM54.7368 109.793C54.8934 109.924 55.0247 110.071 55.146 110.242C55.4036 110.586 55.545 110.97 55.5955 111.364C56.5046 110.727 57.4491 110.066 58.4189 109.384C59.0351 108.949 59.7877 108.833 60.4645 109C63.9648 106.601 67.7681 104.02 73.329 100.626C67.5408 103.474 61.3484 106.52 54.7368 109.793ZM51.0548 123.026C53.1711 121.39 55.7672 119.43 58.8785 117.187C56.343 118.506 53.6661 119.889 50.8578 121.349C51.1255 121.88 51.1861 122.47 51.0548 123.026ZM222.269 131.9C221.435 132.239 220.587 132.582 219.728 132.931C220.526 133.163 221.183 133.779 221.445 134.628C221.546 134.961 221.567 135.3 221.531 135.628C222.562 135.355 223.617 135.077 224.693 134.79C223.713 134.764 222.794 134.163 222.415 133.193C222.249 132.769 222.198 132.325 222.269 131.9ZM356.92 63.33C356.884 63.1128 356.834 62.8956 356.783 62.6734L353.273 66.6838L356.92 63.33ZM361.425 51.4757L361.339 50.8595C360.248 51.314 358.975 50.9403 358.298 49.9503L356.263 46.9855L359.203 53.3394C359.799 53.5213 360.319 53.9152 360.647 54.486C360.9 54.9254 361.011 55.4103 360.975 55.88C360.986 55.8851 360.986 55.8851 360.986 55.8901L361.42 51.4757H361.425ZM88.5069 136.315C88.3402 135.891 88.2745 135.421 88.3604 134.941L88.7241 132.84C88.0826 133.214 87.4512 133.592 86.8098 133.971C85.9764 134.537 85.1733 135.077 84.4258 135.603C85.0167 135.835 85.537 136.295 85.8148 136.936C85.9006 137.123 85.9612 137.32 85.9966 137.512L88.5069 136.31V136.315ZM90.1686 152.892C90.1686 152.791 90.1787 152.7 90.204 152.604C90.1535 152.624 90.0928 152.639 90.0474 152.659C89.5271 152.902 89.017 153.139 88.5321 153.372C89.0877 153.205 89.6332 153.048 90.1686 152.892ZM354.364 54.89L354.051 54.1981L352.702 55.6729L354.364 54.89ZM267.863 31.6864C266.908 32.4996 265.974 33.2825 265.08 34.0401C265.186 33.9846 265.282 33.9189 265.383 33.8583C265.393 33.8583 265.393 33.8583 265.393 33.8532C265.575 33.7472 265.757 33.6663 265.949 33.6108L268.58 31.444L267.863 31.6864ZM133.601 156.998C135.48 156.544 137.49 156.059 139.672 155.533C142.895 154.468 146.324 153.321 149.981 152.079C153.037 151.043 155.239 150.321 158.108 149.467C157.527 149.23 157.032 148.77 156.754 148.149C156.729 148.078 156.693 148.003 156.668 147.932C149.228 150.043 141.344 152.341 131.555 155.235C132.5 155.377 133.313 156.054 133.606 156.998H133.601ZM327.958 59.9207C327.69 59.3247 327.655 58.6327 327.907 57.9862L328.392 56.7134L324.781 58.2539C324.018 60.0975 323.246 61.9461 322.432 63.7644L327.958 59.9207ZM338.762 52.405L339.146 52.1272L338.832 52.2636C338.812 52.3091 338.787 52.3545 338.762 52.405ZM344.409 44.3994L343.959 40.1163L342.368 42.8842L342.646 43.4145L342.807 43.9448L342.782 44.9348L342.706 45.1217L344.404 44.3994H344.409ZM313.169 70.2042C315.154 67.3707 316.715 64.2745 318.119 61.0874L315.785 62.0875C315.129 62.5168 314.487 62.9361 313.856 63.3603L293.703 83.8314C293.834 83.786 293.966 83.7456 294.087 83.7052C294.269 83.4375 294.491 83.2001 294.769 83.0082L313.169 70.2042ZM292.284 92.9634C289.435 94.514 286.495 96.1303 283.455 97.8122C281.136 99.085 279.03 100.247 277.055 101.312C280.546 100.085 284.46 98.7062 288.844 97.1505C289.935 95.7111 291.082 94.3221 292.284 92.9634ZM304.118 33.6714C301.623 36.2473 299.032 39.1061 296.405 42.2579C299.683 40.6416 302.35 39.4092 304.239 38.5404C305.002 37.8182 305.805 37.0504 306.648 36.2322L308.32 33.4694L304.118 33.6714ZM95.0023 133.224L94.9871 131.618L94.2345 133.587L95.0023 133.219V133.224ZM153.264 77.1795C150.875 78.5129 148.587 79.811 146.395 81.0888L151.481 78.5685C152.087 78.1038 152.683 77.6391 153.264 77.1795ZM108.215 121.273L109.367 124.526C111.024 122.258 112.645 119.97 114.297 117.702C112.271 118.889 110.251 120.081 108.215 121.273ZM235.618 116.056C235.749 116.01 235.896 115.96 236.032 115.914C238.416 114.768 240.548 113.763 242.523 112.833C242.583 112.763 242.644 112.697 242.705 112.636C242.8 112.546 242.886 112.455 242.972 112.364C240.73 113.313 238.588 114.217 236.502 115.096L235.618 116.056ZM279.515 57.0367C278.727 57.4912 277.939 57.9509 277.141 58.4256C277.833 58.1478 278.535 57.87 279.237 57.5872C279.308 57.4155 279.404 57.2336 279.515 57.0367ZM282.278 44.2933C280.157 45.4045 277.929 46.5713 275.565 47.8037C276.05 47.9199 276.49 48.1775 276.828 48.5411C279.298 46.6218 280.995 45.3035 282.278 44.2933ZM209.056 62.2087C207.783 62.8704 206.55 63.5169 205.323 64.1533C203.555 65.7443 201.833 67.2949 200.141 68.8102C202.247 67.9819 204.353 67.1586 206.46 66.3403C206.268 65.4817 206.52 64.5473 207.212 63.9109L209.056 62.2087ZM121.939 115.859C124.383 113.5 126.676 111.349 128.843 109.369C127.828 109.939 126.808 110.51 125.802 111.086C124.469 112.642 123.186 114.238 121.939 115.859ZM223.749 91.2562C223.87 91.0996 223.991 90.9481 224.122 90.7966C224.304 90.5693 224.486 90.347 224.683 90.1248C224.718 89.9026 224.779 89.6803 224.86 89.4732C218.693 92.13 212.98 94.6453 207.333 97.196C207.197 97.3374 207.081 97.4789 206.944 97.6253C212.43 95.4838 218.031 93.3574 223.749 91.2562ZM206.379 87.3822C208.571 86.3114 210.642 85.3164 212.627 84.382C212.834 84.185 213.041 83.988 213.258 83.791C208.389 85.7306 204.04 87.4782 200.01 89.1348C195.61 91.3219 191.312 93.4735 187.13 95.5898C193.019 93.0442 199.414 90.3117 206.379 87.3822ZM198.358 74.9672C198.358 74.9571 198.373 74.947 198.373 74.9369C195.221 76.1996 192.075 77.4876 188.948 78.821C187.751 79.9019 186.559 80.9575 185.397 81.9929C189.433 79.7756 193.696 77.4724 198.358 74.9672ZM168.184 125.94L184.044 121.405C184.226 120.93 184.493 120.384 184.842 119.783C185.145 119.268 185.448 118.758 185.736 118.253C179.16 121.026 173.346 123.582 168.184 125.94ZM193.782 114.914C193.247 115.723 192.726 116.546 192.196 117.379C193.747 116.283 195.56 114.94 197.706 113.318C196.373 113.859 195.065 114.389 193.782 114.914ZM204.636 114.334C206.707 113.556 208.778 112.793 210.849 112.025C211.778 110.46 212.677 108.874 213.571 107.283C210.217 109.965 207.247 112.303 204.631 114.334H204.636ZM244.487 83.9072C249.392 82.2404 254.362 80.5989 259.372 79.0028C262.049 76.7299 264.984 74.2045 268.267 71.3558C268.312 71.2851 268.373 71.2195 268.434 71.1538C260.66 74.3914 253.731 77.2805 247.407 79.9271C246.523 81.1393 245.553 82.4576 244.487 83.9072ZM242.841 100.777L243.164 100.424C242.997 100.56 242.841 100.696 242.669 100.833C242.73 100.812 242.78 100.792 242.841 100.777ZM218.092 109.399C218.915 109.101 219.738 108.808 220.577 108.51C221.971 106.515 223.289 104.631 224.562 102.833C224.092 103.01 223.617 103.186 223.107 103.378C222.43 103.636 221.764 103.893 221.097 104.146C220.067 105.878 219.087 107.636 218.092 109.399ZM232.507 100.368C232.769 100.166 233.037 99.9588 233.305 99.7618C233.133 99.8174 232.977 99.878 232.805 99.9336C232.709 100.075 232.603 100.221 232.502 100.368H232.507Z" fill="var(--fill-0, #719DE3)"/>
  </g>
  <g transform="translate(597.399, 256.963)">
    <path id="f4p4-Vector" fill-rule="evenodd" clip-rule="evenodd" d="M4.29828 27.3138C4.51547 26.9501 4.81852 26.6369 5.21754 26.4097L12.0412 22.4851C11.9402 22.3639 11.8594 22.2275 11.7735 22.0811C11.1573 20.8891 11.5766 19.4243 12.7332 18.7374L43.6899 0.352296C44.8668 -0.344721 46.3921 0.0239912 47.1195 1.18064C47.8468 2.34233 47.5185 3.87274 46.3669 4.63037L44.1041 6.13552C44.3011 6.32746 44.4677 6.54969 44.5991 6.80729C44.9779 7.53461 44.9627 8.36295 44.6395 9.05492C45.2203 9.262 45.7406 9.69133 46.0436 10.2823C46.6245 11.4288 46.2608 12.833 45.1799 13.5451L43.4121 14.7068C43.4727 14.7472 43.5232 14.7876 43.5687 14.8331L44.8163 14.2118L45.9477 19L46.4527 18.8586L49.3267 17.5555L48.3064 16.4494C47.4377 15.4948 47.4225 14.0351 48.2862 13.0653C49.1448 12.0955 50.5843 11.9339 51.64 12.6915C53.9179 14.328 56.0746 16.1261 58.3526 17.7626C60.4436 19.2778 61.2467 20.6416 61.4538 21.7275L61.5396 22.5053L61.4639 23.263L61.1356 24.2681C61.0144 24.5307 60.8578 24.7984 60.6659 25.0712C59.9385 26.1268 58.3778 27.2936 56.6302 29.0209C56.6656 29.031 56.706 29.0411 56.7413 29.0563C57.6454 29.3594 58.302 30.1523 58.4334 31.0968C58.5697 32.0464 58.1556 32.9808 57.3676 33.5263L56.0847 34.4153C55.9029 34.8547 55.5897 35.2486 55.1655 35.5315L30.5627 52.0629C29.4111 52.8357 27.8605 52.5327 27.0726 51.3861C26.2948 50.2396 26.5877 48.6789 27.7292 47.8909L31.386 45.3605L19.0165 50.4416C17.8043 50.9366 16.4102 50.4265 15.8041 49.2547C15.5011 48.6637 15.4556 48.0021 15.6375 47.401L13.9909 48.194L12.8847 48.4415L11.617 43.7391L12.4655 43.2391C12.3898 43.1381 12.319 43.027 12.2584 42.9057C12.0513 42.532 11.9655 42.1229 11.9655 41.7238C11.4604 42.1229 10.8189 42.335 10.127 42.2643C9.39965 42.1835 8.78344 41.8097 8.36927 41.2642C8.16218 41.2339 7.97025 41.1834 7.78842 41.1076C5.00035 41.1329 3.43963 40.8955 2.58099 40.5824L1.61122 40.1025L0.727323 39.3146L0.338407 38.6933L0.0959663 38.0569L0 36.6881C0.424272 31.8898 2.42441 29.0007 4.29828 27.3188V27.3138ZM53.0037 25.5056C52.6905 25.4904 52.3622 25.4803 52.0592 25.4601C52.2663 25.5763 52.4481 25.7177 52.6198 25.8894C52.7512 25.7581 52.8825 25.6268 53.0037 25.5056Z" fill="var(--fill-0, #DDEAFF)"/>
  </g>
  <g transform="translate(403.1, 347.616)">
    <path id="f4p5-Vector" fill-rule="evenodd" clip-rule="evenodd" d="M20.9871 0.95304C21.7649 0.821719 22.5882 1.05406 23.1791 1.65006C23.6994 2.16524 23.957 2.85721 23.9317 3.53908L24.9368 2.74104C25.9521 1.94301 27.4219 2.04403 28.3159 2.97338C29.1644 3.85223 29.2604 5.21091 28.5583 6.19583C29.5988 5.46345 31.0282 5.61498 31.8919 6.57464C32.7758 7.56461 32.7354 9.07987 31.806 10.0294L27.1188 14.8126L30.9575 12.4538C30.7857 12.565 30.6191 12.6912 30.4827 12.8327L30.5079 12.8124C30.3716 12.9438 30.2554 13.0902 30.1544 13.2468C30.0332 13.4185 29.9523 13.6054 29.8917 13.8024C29.7453 14.2216 29.72 14.6813 29.8059 15.1257C29.816 15.1813 29.8261 15.2369 29.8513 15.2924C29.8766 15.3833 29.9018 15.4742 29.9372 15.5652C30.3261 16.5097 31.2454 17.1309 32.2757 17.1309L34.0587 16.3986L24.6439 25.7123L27.1996 25.2679C28.5684 25.0254 29.8766 25.9447 30.119 27.3185C30.3615 28.6923 29.4422 30.0005 28.0583 30.2379L17.5676 32.0714C16.4767 32.2633 15.4008 31.7228 14.8907 30.743C14.4563 29.8944 14.5422 28.8843 15.0725 28.1266L12.239 29.8641C11.148 30.5359 9.74387 30.2834 8.94583 29.2883C8.1579 28.2883 8.22861 26.8538 9.11251 25.9447L9.29434 25.7679C9.11251 25.6618 8.94078 25.5305 8.79936 25.3739C7.90031 24.4446 7.8397 22.9798 8.67814 21.9899L8.74885 21.909L6.09715 23.995C5.06678 24.8082 3.57677 24.6921 2.69287 23.7324C2.63226 23.6768 2.5868 23.6162 2.5363 23.5556C1.89484 23.5607 1.25338 23.3182 0.753343 22.8333C-0.201269 21.8939 -0.261879 20.3584 0.647275 19.3533L17.1181 0.846972C18.002 -0.148046 19.5072 -0.284418 20.5578 0.533819C20.7194 0.660092 20.8608 0.801514 20.982 0.958091L20.9871 0.95304Z" fill="var(--fill-0, #DDEAFF)"/>
  </g>
  <g transform="translate(453.994, 329.639)">
    <path id="f4p6-Vector" fill-rule="evenodd" clip-rule="evenodd" d="M19.95 2.16533L21.2683 1.53398C22.43 0.978381 23.824 1.3875 24.5059 2.47849C25.1827 3.56947 24.9302 4.99886 23.925 5.7969L22.3593 7.02425C23.0664 7.19093 23.6826 7.66571 24.0311 8.34758C24.5513 9.39311 24.2887 10.6659 23.3896 11.4134L22.7835 11.9286L24.8089 10.969C25.9959 10.4083 27.4101 10.8528 28.0667 11.9892C28.7183 13.1257 28.39 14.5753 27.3243 15.3279L26.9606 15.5754C27.6273 15.737 28.2082 16.1613 28.5718 16.7926C29.1931 17.8937 28.9001 19.2877 27.8849 20.0454C25.4251 21.9091 23.0613 22.4698 21.1976 22.9243C20.7733 23.0304 20.1824 23.2274 19.9248 23.3183C19.9248 23.6113 19.9399 24.3335 20.0712 24.975C20.349 26.3387 19.4651 27.6772 18.0963 27.955C16.7276 28.2328 15.3992 27.3489 15.1163 25.9852C15.0709 25.7377 15.0355 25.4952 15.0002 25.2629L10.212 27.162C9.01491 27.6368 7.65623 27.1418 7.05012 26.0104C6.89355 25.7023 6.79758 25.374 6.76222 25.0457C5.70659 25.3437 4.555 24.9245 3.9489 23.9749C3.27208 22.9041 3.48927 21.495 4.45903 20.6767L5.58537 19.7373C4.72673 19.808 3.84283 19.4342 3.30744 18.6816C2.7973 17.9644 2.71144 17.0603 3.01449 16.2926C2.59527 16.2067 2.20635 16.0148 1.87804 15.7319C1.26184 15.5703 0.701195 15.1713 0.352685 14.5803C-0.314027 13.459 -0.0109767 12.0094 1.05475 11.2468L15.98 0.478347C17.0811 -0.324738 18.6317 -0.0923996 19.455 0.993534C19.7328 1.34709 19.8894 1.75116 19.9551 2.16533H19.95Z" fill="var(--fill-0, #DDEAFF)"/>
  </g>
  <g transform="translate(505.084, 314.814)">
    <path id="f4p7-Vector" fill-rule="evenodd" clip-rule="evenodd" d="M3.82692 10.8656C3.82692 10.8554 3.82692 10.8453 3.81682 10.8352C3.27132 9.58768 3.81682 8.12799 5.03913 7.53704L20.2624 0.248653C21.4746 -0.332194 22.9141 0.137535 23.5707 1.31438C24.0202 2.13767 23.9546 3.11249 23.5 3.86507C23.8233 4.04185 24.1162 4.29944 24.3435 4.62774C25.6668 6.51171 26.2931 8.01687 26.4901 9.23917C27.4346 9.24928 28.3286 9.78972 28.7529 10.6938C29.2984 11.8404 28.8994 13.2142 27.8336 13.8961L25.0001 15.6992L25.0961 15.6841C26.1467 15.5174 27.177 16.0225 27.7023 16.9316L30.3995 17.3609C31.3945 17.5175 32.1925 18.255 32.4501 19.2298C32.7027 20.2046 32.339 21.24 31.5511 21.8562L28.5357 24.1796C28.369 24.6594 28.0407 25.0888 27.5912 25.3918L22.601 28.7759C21.4746 29.5386 19.9341 29.2709 19.1361 28.1647C18.929 27.8819 18.7977 27.5687 18.7269 27.2455L17.8986 27.397C16.7773 27.6041 15.6459 27.0283 15.1509 25.9878C14.6661 24.9473 14.9439 23.7149 15.8177 22.9775L16.8228 22.1441L13.7569 22.6391C12.57 22.831 11.4184 22.1643 10.9941 21.0481C10.7921 20.5127 10.7769 19.952 10.9335 19.4369L7.82215 20.4369C6.6453 20.8208 5.36238 20.2854 4.79163 19.1793V19.1692L4.56434 19.1136L3.76631 18.6186L3.0996 17.6893L2.96827 17.169C1.90254 17.3609 0.796405 16.8357 0.276166 15.8356C-0.314785 14.6688 0.0690823 13.2445 1.17522 12.5475L3.82692 10.8656ZM5.10984 16.4164V16.4114C5.10984 16.3912 5.11994 16.371 5.11994 16.3558H5.10984V16.4164ZM19.7927 6.47131L19.4997 6.65314C19.4543 6.73395 19.3937 6.80466 19.3432 6.87537C19.5502 6.90568 19.7573 6.95619 19.9493 7.03195C19.8785 6.85012 19.8179 6.66324 19.7927 6.47131ZM21.4999 9.76951C21.4746 9.95134 21.4241 10.118 21.3635 10.2847C21.4241 10.2089 21.4847 10.1231 21.5201 10.0271C21.5605 9.95135 21.5352 9.86548 21.4999 9.76951Z" fill="var(--fill-0, #DDEAFF)"/>
  </g>
  <g transform="translate(287.715, 239.156)">
    <path id="f4p8-Vector" fill-rule="evenodd" clip-rule="evenodd" d="M31.8874 188.91C29.9833 188.153 17.9976 182.829 9.45153 174.253C3.13291 167.919 -1.21588 159.878 0.304432 150.756C1.81464 141.715 9.41113 131.028 28.9933 119.956C69.2183 97.2071 166.175 44.5823 240.362 17.2925C272.854 5.3422 301.118 -1.66839 318.65 0.341848C347.349 3.62995 369.431 20.1614 380.629 37.3646C388.629 49.6685 390.998 62.4068 387.23 71.4377C380.927 86.5145 374.977 97.6365 348.844 111.653C323.923 125.012 279.839 141.21 197.081 166.798C87.9722 200.527 63.2129 191.027 33.2209 189.203C32.7562 189.178 32.3067 189.077 31.8874 188.91ZM34.4583 180.678C63.5765 182.572 88.351 191.421 194.535 158.59C276.455 133.265 320.13 117.31 344.793 104.086C368.224 91.5199 373.669 81.6455 379.311 68.1243C382.205 61.1743 379.609 51.5272 373.442 42.0569C363.37 26.5911 343.475 11.8325 317.685 8.87274C300.997 6.96352 274.212 13.9893 243.326 25.3537C169.579 52.4768 73.2035 104.819 33.2209 127.431C17.0379 136.579 10.0122 144.695 8.77472 152.165C7.72919 158.459 11.1688 163.823 15.5277 168.192C22.3363 175.026 31.6753 179.47 34.4583 180.683V180.678Z" fill="var(--fill-0, #4356B1)"/>
  </g>
  <g transform="translate(501.193, 309.532)">
    <path id="f4p9-Vector" fill-rule="evenodd" clip-rule="evenodd" d="M21.2692 0C33.0124 0 42.5484 9.54611 42.5484 21.2944C42.5484 33.0477 33.0124 42.5888 21.2692 42.5888C9.52592 42.5888 0 33.0477 0 21.2944C0 9.54611 9.52592 0 21.2692 0ZM21.2692 8.58645C14.2687 8.58645 8.57636 14.2838 8.57636 21.2944C8.57636 28.31 14.2687 34.0024 21.2692 34.0024C28.2696 34.0024 33.962 28.31 33.962 21.2944C33.962 14.2838 28.2797 8.58645 21.2692 8.58645Z" fill="var(--fill-0, #4356B1)"/>
  </g>
  <g transform="translate(449.356, 325.634)">
    <path id="f4p10-Vector" fill-rule="evenodd" clip-rule="evenodd" d="M21.2692 0C33.0073 0 42.5484 9.54107 42.5484 21.2894C42.5484 33.0427 33.0073 42.5838 21.2692 42.5838C9.52592 42.5838 0 33.0427 0 21.2894C0 9.54107 9.52592 0 21.2692 0ZM21.2692 8.58645C14.2687 8.58645 8.57636 14.2788 8.57636 21.2894C8.57636 28.305 14.2687 33.9973 21.2692 33.9973C28.2646 33.9973 33.962 28.305 33.962 21.2894C33.962 14.2788 28.2797 8.58645 21.2692 8.58645Z" fill="var(--fill-0, #4356B1)"/>
  </g>
  <g transform="translate(399.484, 344.208)">
    <path id="f4p11-Vector" fill-rule="evenodd" clip-rule="evenodd" d="M21.2692 0C33.0074 0 42.5484 9.54107 42.5484 21.2944C42.5484 33.0427 33.0074 42.5838 21.2692 42.5838C9.52592 42.5838 0 33.0427 0 21.2944C0 9.54107 9.52592 0 21.2692 0ZM21.2692 8.58645C14.2687 8.58645 8.57636 14.2788 8.57636 21.2894C8.57636 28.305 14.2687 33.9973 21.2692 33.9973C28.2646 33.9973 33.962 28.305 33.962 21.2894C33.962 14.2788 28.2797 8.58645 21.2692 8.58645Z" fill="var(--fill-0, #4356B1)"/>
  </g>
  <g transform="translate(445.976, 366.53)">
    <path id="f4p12-Vector" fill-rule="evenodd" clip-rule="evenodd" d="M7.63705 40.5124C7.03095 40.28 6.52081 39.8153 6.24302 39.1789C5.68237 37.9112 6.25312 36.4262 7.51078 35.8605L8.71289 35.3201L35.3259 20.0867C36.4876 19.425 37.9675 19.7836 38.6948 20.8999C38.8362 21.1322 38.9473 21.3747 39.018 21.6272L42.3971 19.5109C43.0284 19.1169 43.7658 19.0311 44.4326 19.223L48.3571 17.4502C49.5339 16.9198 50.9128 17.3643 51.5694 18.4603L63.9996 12.1164C64.6259 11.7982 65.3178 11.7629 65.9341 11.97C68.0655 10.8739 70.3839 9.68194 72.9244 8.36871C74.1215 7.75251 75.6014 8.19193 76.2681 9.36373C76.6217 9.96983 76.6924 10.6618 76.5105 11.2881L82.6625 3.62596L84.5061 7.47471L89.5418 0.979313C90.3095 -0.0106554 91.6732 -0.288451 92.7642 0.322702C93.8552 0.928805 94.3401 2.24708 93.9057 3.41383C92.2339 7.84342 90.4055 12.2074 88.5013 16.541L90.8297 12.97C91.5166 11.9144 92.8753 11.5255 94.0118 12.0659C94.2795 12.1922 94.5219 12.3589 94.7189 12.5559C95.224 11.3083 95.7341 10.0355 96.2695 8.73743C96.7897 7.45956 98.2444 6.83325 99.5273 7.33834C100.81 7.84848 101.452 9.28797 100.967 10.581L98.0828 18.233C99.1384 18.8492 99.6081 20.1574 99.1636 21.3292C99.1636 21.3343 99.1636 21.3343 99.1535 21.3393C94.6583 32.9361 89.5468 44.2954 85.0515 55.8922C84.8697 56.3518 84.698 56.8064 84.5212 57.2509C84.7232 57.2711 84.9202 57.3064 85.1273 57.3772C86.3597 57.7964 87.0769 59.1045 86.7587 60.3774C82.7484 76.5199 79.93 87.9247 77.9147 96.1021C78.743 96.7839 79.0562 97.9355 78.642 98.976L74.8993 108.386C72.9143 116.472 72.6214 117.659 71.9193 120.099C69.0151 130.266 64.7168 139.999 61.8075 150.166C61.4337 151.48 60.0852 152.252 58.7669 151.924C58.378 151.828 58.0396 151.646 57.7618 151.404L54.6605 159.177C54.1757 160.379 52.8826 161.021 51.6452 160.677C51.0643 160.516 50.5794 160.162 50.2511 159.702C50.0239 159.894 49.7663 160.046 49.4885 160.147L48.5187 162.203C47.9378 163.455 46.4478 164.001 45.1902 163.43C45.1144 163.395 45.0437 163.354 44.973 163.314C43.9022 164.137 42.6698 164.607 40.9121 165.077C37.8866 165.895 36.1542 165.445 35.1238 164.688L34.1288 165.602C33.1237 165.602 32.2044 164.996 31.8054 164.061L29.0931 157.611C28.8709 157.581 28.6537 157.515 28.4516 157.419C27.5778 157.025 27.0323 156.187 26.9717 155.283L25.3252 157.162C24.1028 157.162 23.0624 156.288 22.8401 155.091L21.8603 149.717C21.1481 150.177 20.2137 150.267 19.4005 149.879C18.1782 149.298 17.6327 147.853 18.1681 146.611C18.9308 144.813 19.6581 143.1 20.345 141.474L18.8096 133.034C17.6327 132.418 17.1226 130.988 17.6731 129.771C17.8044 129.483 17.9256 129.205 18.057 128.928L16.5215 120.528C16.0265 120.76 15.4558 120.826 14.885 120.695C14.4153 120.579 14.0011 120.346 13.688 120.023L8.97553 127.301C8.30882 128.337 6.99054 128.736 5.84905 128.246C4.72271 127.751 4.11661 126.508 4.40956 125.311C5.98037 119.063 7.3138 113.815 8.41994 109.406C7.33905 108.901 6.7481 107.674 7.05115 106.482L12.597 85.2882C11.5313 86.0913 10.0312 85.9195 9.15736 84.9043C8.28356 83.879 8.36943 82.3486 9.35434 81.4293L14.9962 76.1108L17.3852 66.9788L11.7636 70.5952C10.6726 71.3024 9.21797 71.0599 8.41994 70.0397C7.60675 69.0194 7.71787 67.5546 8.65228 66.6505L17.1024 58.5237L7.04105 66.1404C5.97027 66.9435 4.48532 66.7818 3.61152 65.7717C2.73772 64.7666 2.79833 63.2564 3.74284 62.3219L9.82407 56.3468L6.35919 59.0591C5.29346 59.8975 3.75294 59.7359 2.86904 58.6954C2.0003 57.66 2.09626 56.1144 3.10138 55.2002L16.7185 42.8206C16.6932 42.7802 16.668 42.7398 16.6427 42.6994C16.5215 42.5024 16.4356 42.3004 16.375 42.0882L13.4455 43.5833L3.86406 49.5837C2.71247 50.306 1.19721 49.9827 0.434531 48.8614C-0.328149 47.7401 -0.0604534 46.2148 1.03053 45.4117L7.6421 40.5225L7.63705 40.5124ZM14.2486 109.83L15.5063 101.946C14.8194 104.673 14.0062 107.886 13.0364 111.689L14.2486 109.83ZM43.1042 157.712C42.7254 157.505 42.4223 157.217 42.2203 156.879L41.9273 157.495C41.3465 158.728 39.8918 159.288 38.6443 158.743C38.4877 158.677 38.3513 158.606 38.22 158.515C38.2554 159.202 38.316 159.945 38.3665 160.43C38.7049 160.384 39.1797 160.309 39.6039 160.192C41.3313 159.728 42.1445 159.218 43.1042 157.712ZM66.0704 106.103L61.1761 118.806L66.7927 108.35C67.0149 107.946 67.318 107.623 67.6816 107.401C68.8686 105.517 70.1364 103.673 71.3132 101.789C72.1517 98.4255 73.1669 94.2636 74.4498 89.0612L67.7372 104.658C67.4241 105.396 66.7927 105.911 66.0704 106.103ZM80.4704 22.1828L77.152 26.5871L77.3086 26.9862C77.3288 27.1074 77.354 27.2286 77.3793 27.3498L78.6774 26.1528C79.2683 24.8294 79.8643 23.5061 80.4704 22.1828ZM36.2956 48.7857L43.2608 43.3156L35.0329 48.2705L30.8558 52.2909L36.2956 48.7857ZM67.0604 23.0768L70.101 19.2937C63.55 24.0062 58.8224 27.4559 54.7565 30.4915L67.0604 23.0768ZM37.8816 154.025C38.0533 153.591 38.22 153.162 38.3917 152.737C38.1745 152.853 37.9422 152.934 37.7149 152.985C37.7755 153.338 37.8311 153.687 37.8816 154.025ZM25.1989 77.7473L26.1535 74.8935C25.704 75.242 25.2342 75.5956 24.7595 75.9593L24.3604 78.52L25.1989 77.7473ZM28.0324 86.7832L30.8811 84.081L34.2955 78.8079L29.4416 82.3132L28.0324 86.7832ZM65.631 87.8288C67.1109 83.3285 68.3938 79.4039 69.5454 75.8986L69.3636 75.9694L68.3686 76.0855L67.7776 76.03L67.2321 75.8481L66.4442 75.2824L66.0553 74.7673L65.9088 74.4187L61.6812 79.6514C62.6661 80.3333 63.0399 81.6314 62.5298 82.7527C55.9637 97.3294 51.9785 105.987 48.6601 113.558L61.8681 88.647C62.5096 87.4449 63.9743 86.96 65.1966 87.556C65.3532 87.6318 65.4997 87.7227 65.631 87.8288ZM33.1944 70.4286L38.5332 65.5292C36.9472 66.7111 35.3107 67.9435 33.5581 69.2719L33.1944 70.4286ZM54.1858 58.0489C54.1858 58.0893 54.1959 58.1297 54.211 58.1701L57.787 55.5791C57.9284 55.175 58.0648 54.7659 58.2062 54.3567L54.1858 58.0489ZM26.2394 103.214L24.0826 106.588L25.0322 111.351C25.31 110.977 25.6939 110.679 26.1585 110.502C26.204 110.482 26.2646 110.467 26.3151 110.446C28.2142 106.199 29.8154 102.638 31.1589 99.6377L26.2394 103.214ZM65.8381 74.2723L65.8128 74.2117L65.631 73.0146C65.6108 71.8024 65.924 68.9739 66.4694 65.504L62.7722 70.7569L64.1663 75.0703L65.8381 74.2723ZM72.4497 60.0794C73.2881 58.0237 74.2427 55.6245 75.359 52.8314L73.3134 55.7558C73.0103 57.1751 72.7325 58.6399 72.4497 60.0794ZM56.8728 45.1541L56.8274 45.1844L56.8375 45.1995L56.8728 45.1541ZM50.236 85.7882L49.1349 86.5913C48.9379 87.0206 48.746 87.4499 48.5642 87.8843L50.2006 85.8438L50.236 85.7882Z" fill="var(--fill-0, #4375C4)"/>
  </g>
  <g transform="translate(310.077, 398.736)">
    <path id="f4p13-Vector" fill-rule="evenodd" clip-rule="evenodd" d="M3.62959 11.7266C4.05386 10.7871 5.02363 10.1608 6.11461 10.2366C7.48339 10.3275 8.52387 11.5043 8.46326 12.8782L8.23597 17.4492C8.54912 17.1916 8.93804 17.0148 9.34716 16.934L11.1402 9.26174C11.4433 7.94852 12.7262 7.11008 14.0495 7.35252C15.3678 7.58991 16.2769 8.82737 16.0951 10.1658L15.8173 12.3276L20.9187 10.3073C21.4844 9.52439 22.4693 9.13547 23.4239 9.3173L34.7378 4.84729C34.955 4.76143 35.1722 4.71092 35.3894 4.68567L44.9153 0.235865C45.9154 -0.228813 47.0922 0.00857603 47.8448 0.811662C48.5822 1.62485 48.7186 2.8219 48.1731 3.77651L43.1222 12.6357C43.996 11.9791 45.2032 11.9336 46.1123 12.5852C47.1781 13.3428 47.4912 14.7874 46.8397 15.9137L44.6577 19.6564C44.7183 19.7726 44.7789 19.8887 44.8395 20.015C45.2284 20.8686 45.5315 21.6414 45.7588 22.3687C46.5568 22.0252 47.5165 22.1111 48.2691 22.6667C49.3348 23.4647 49.6025 24.9547 48.8752 26.071C44.294 33.0765 41.1827 37.0061 33.7681 48.7291C32.172 51.4616 30.389 54.5679 28.4394 58.1187C28.1717 58.6136 27.7626 58.9773 27.2878 59.1945C26.318 60.7653 25.3129 62.4371 24.2472 64.215C23.5249 65.407 21.9743 65.7909 20.7823 65.0737C19.5852 64.3565 19.1963 62.8008 19.9237 61.6088C20.1408 61.2401 20.3631 60.8764 20.5803 60.5178C20.3378 60.4825 20.0954 60.4067 19.8731 60.2956C19.0044 59.8764 18.4943 59.0329 18.4438 58.1338L18.0447 58.8207C17.5952 59.5986 16.777 60.0834 15.8678 60.0834L13.5646 56.5226L13.6959 56.2195C13.4182 56.1791 13.1404 56.0882 12.8727 55.9417C12.413 55.6892 12.0494 55.3053 11.8322 54.8659C11.7968 54.871 11.7564 54.876 11.7211 54.8811C11.6857 56.1993 11.6504 57.5227 11.6251 58.8409V58.846C11.5998 60.24 10.4482 61.3462 9.05421 61.3209C7.66522 61.2956 6.54899 60.144 6.57424 58.75V58.745L6.70556 52.0273L6.46312 53.4113C6.35705 53.9871 6.0641 54.4871 5.66509 54.8508L5.65498 54.9265L3.19522 56.8761C2.49315 56.8761 1.83654 56.5933 1.36681 56.0933C1.3062 56.0377 1.25569 55.9821 1.21023 55.9215C0.831415 55.4367 0.639482 54.8356 0.674839 54.2244L0.710195 53.487C0.230364 52.987 -0.0524848 52.295 0.0081255 51.5475L2.77094 13.459C2.82145 12.762 3.14471 12.1559 3.62959 11.7316V11.7266ZM41.1423 25.7023L40.8544 26.2074C40.8191 26.3993 40.7584 26.5963 40.6726 26.7832L40.0412 28.1923C40.117 28.2075 40.1877 28.2277 40.2584 28.253C40.7584 27.2781 41.0615 26.4801 41.1423 25.7023ZM15.1253 17.5199L13.6505 28.7782L18.166 17.1461L16.2517 17.5451C15.8678 17.6209 15.489 17.6108 15.1253 17.5199ZM22.4036 20.4191L22.3784 20.2726L22.1763 20.7878L22.4036 20.4191Z" fill="var(--fill-0, #4375C4)"/>
  </g>
  <g transform="translate(268.891, 324.101)">
    <path id="f4p14-Vector" fill-rule="evenodd" clip-rule="evenodd" d="M0.868776 12.6275C1.14657 11.9355 1.73247 11.4153 2.41939 11.188C2.11634 10.7183 1.97491 10.1475 2.03552 9.55658C2.182 8.28376 3.24773 7.314 4.53065 7.30389L14.5212 7.22308L4.5761 5.2583C3.23258 4.99565 2.34868 3.70264 2.58102 2.35406C2.82346 1.00043 4.08112 0.081173 5.4398 0.283207L12.0514 1.26812C12.5868 0.348869 13.6525 -0.161268 14.7283 0.045817L31.4921 3.32382C31.4315 2.78843 31.5426 2.22274 31.8558 1.7328C32.5831 0.545851 34.1337 0.172089 35.3207 0.904462C36.5177 1.64189 37.043 2.0005 40.8817 5.15223L49.1297 6.7685C50.4732 7.03115 51.3723 8.32417 51.1248 9.67275C50.9329 10.8243 49.9884 11.6628 48.8721 11.7638C48.9226 11.8042 48.9731 11.8446 49.0186 11.88C49.2257 11.8951 49.4328 11.9355 49.6399 12.0012C50.4126 11.7789 51.2864 11.9406 51.938 12.481L53.428 13.7084C62.7418 15.7388 68.1715 16.5924 71.7323 17.4662C76.7731 18.7037 78.5863 19.9815 81.4199 23.7394C82.5866 25.2849 82.9452 26.5881 82.728 27.8205L82.526 28.5781L82.1977 29.2549C81.9906 29.6085 81.7128 29.9822 81.3491 30.3661C80.6117 31.1338 79.3844 32.0531 77.5105 33.235C76.1518 34.0936 74.3941 35.1291 72.1768 36.4221C72.1768 36.4372 72.1667 36.4473 72.1667 36.4574C72.1566 36.5079 72.1313 36.5534 72.1162 36.5989C71.7172 37.5383 70.8131 38.1495 69.7827 38.1495L69.4443 38.0282C64.449 40.9476 57.6556 44.958 48.559 50.6756C47.3973 51.3979 45.882 51.0746 45.1193 49.9382C45.0335 49.8068 44.9527 49.6705 44.887 49.529L43.3263 50.4735C43.1546 50.5796 42.9727 50.6604 42.7909 50.721L42.4525 51.1453L40.1644 55.2466C39.5331 56.383 38.1391 56.8528 36.942 56.3275C36.7703 56.2517 36.6137 56.1558 36.4571 56.0446C36.2147 55.9739 35.9874 55.8578 35.755 55.7062C34.6742 54.9486 34.3509 53.4839 35.0277 52.3474L36.25 50.2715C35.8409 49.9988 35.4975 49.5997 35.3055 49.1098L34.4822 47.0794C34.3964 47.1854 34.2903 47.2814 34.1792 47.3673C34.1893 48.4532 33.4923 49.4583 32.4013 49.7967C31.8911 49.9533 31.3709 49.9382 30.8961 49.7866L30.8507 49.8826L30.9466 50.0341L28.7748 53.8627C27.9161 53.8627 27.1332 53.4283 26.6585 52.7111L17.3295 38.3161L0.505114 16.0621C-0.161599 15.1681 -0.1717 13.9306 0.495012 13.0316C0.601081 12.8851 0.737453 12.7487 0.868776 12.6325V12.6275ZM61.7367 20.5775L61.9084 20.7139C62.4286 20.7442 62.9388 20.9362 63.363 21.2897C63.6913 21.5574 63.9287 21.8908 64.0752 22.2544L64.8884 22.7242C65.4339 23.0373 65.8228 23.5373 66.0147 24.1081L69.4796 26.9618C69.5756 27.0477 69.6716 27.1335 69.7574 27.2295L71.3333 26.2648C72.1061 25.785 73.0405 25.7799 73.788 26.1638L75.8235 24.9415C74.4901 23.6384 73.1011 23.007 70.5302 22.3706C68.4088 21.8554 65.6258 21.3402 61.7367 20.5775ZM18.6377 23.2141L18.7741 23.5171L18.7488 23.2595L18.6427 23.2141H18.6377ZM24.5017 35.0684C24.83 35.4877 25.1836 35.917 25.5321 36.3615C25.6432 36.4928 25.7392 36.6241 25.8503 36.7605L24.2947 31.5631L24.5017 35.0684ZM49.2004 28.3003L49.7611 27.3558L49.5792 27.179L49.2004 28.2952V28.3003ZM29.3607 12.1527L26.1382 12.178L29.6031 12.9659L29.4819 12.2083L29.3607 12.1527ZM30.3759 28.0629C30.4971 27.775 30.6234 27.4922 30.7395 27.2093C30.5628 27.2295 30.3658 27.2396 30.1486 27.2295L30.3759 28.0629ZM30.9618 21.6988C31.2497 21.5524 31.5275 21.3958 31.7245 21.2998L33.0074 20.8503L33.9771 20.82L34.0277 20.8301L32.972 17.8854C32.5377 18.2592 31.9669 18.4814 31.3507 18.4814C31.2749 18.4814 31.2042 18.4814 31.1335 18.4713L28.2949 18.2339L29.8001 21.9463L30.5022 22.2393C30.7193 22.3302 30.9264 22.4565 31.1083 22.5979L30.9618 21.6988ZM53.9381 36.9272L57.9839 34.4472C57.4283 34.4219 56.8828 34.2199 56.4333 33.836L53.9381 36.9272ZM61.5195 32.2753L60.575 31.5126C60.6608 32.0177 60.5901 32.5279 60.3679 32.9774L61.5195 32.2753ZM38.23 16.1681L37.6239 15.8954L39.9119 22.2999L41.811 19.6482L38.2249 16.1681H38.23Z" fill="var(--fill-0, #4375C4)"/>
  </g>
  <g transform="translate(444.011, 354.688)">
    <g id="f4p15-Group">
<path id="f4p15-Vector" fill-rule="evenodd" clip-rule="evenodd" d="M2.77318 38.5975L104.174 0.276662C105.619 -0.26883 107.25 0.00391629 108.432 0.993884C109.614 1.9788 110.185 3.53446 109.912 5.05477C107.356 19.2931 106.336 18.9598 103.497 33.1426C102.982 35.7236 98.194 66.958 93.9715 85.823C88.9812 108.027 78.6421 140.554 69.9597 160.752C65.9342 170.102 62.0753 176.905 59.3024 179.436C50.7563 187.259 43.2558 189.234 36.9776 187.391C30.8863 185.603 25.4667 179.875 21.133 170.531C9.9757 146.489 4.59149 96.8743 0.0154088 42.9766C-0.146219 41.0623 0.980122 39.2743 2.77318 38.5975ZM8.84936 45.4869C13.2537 96.8894 18.2389 143.913 28.9063 166.914C31.9217 173.42 35.1542 177.91 39.3969 179.153C43.4578 180.345 47.9733 178.173 53.5141 173.097C55.8223 170.991 58.7215 165.147 62.0753 157.358C70.586 137.569 80.7231 105.698 85.6022 83.9441C89.8096 65.1498 94.5675 34.0315 95.0877 31.4606C97.2899 20.4397 98.3859 18.2375 99.9769 11.04L8.84936 45.4869Z" fill="var(--fill-0, #4356B1)"/>
</g>
  </g>
  <g transform="translate(304.929, 394.732)">
    <path id="f4p16-Vector" fill-rule="evenodd" clip-rule="evenodd" d="M4.13063 6.86407L61.7609 0.0302588C63.2408 -0.146521 64.7106 0.459581 65.6349 1.63138C66.5592 2.80318 66.8168 4.36894 66.3016 5.76803C57.6849 29.3505 52.1138 47.2659 45.4012 59.004C40.3604 67.8279 34.5822 73.3939 26.9605 75.8385C22.8036 77.1669 19.2428 77.0962 16.1971 76.0961C11.7423 74.6263 8.23698 71.0554 5.7469 65.954C-1.99606 50.0994 0.312182 17.7487 0.352589 11.1017C0.36774 8.93492 1.98402 7.11156 4.13063 6.85901V6.86407ZM8.80267 14.9555C8.46427 23.6935 7.69148 42.2099 11.1261 55.5897C13.207 63.6912 16.5658 70.1513 24.3341 67.6612C30.0718 65.8227 34.163 61.3729 37.9512 54.7411C43.8506 44.4121 48.7954 29.1585 55.8767 9.37939L8.80267 14.9555Z" fill="var(--fill-0, #4356B1)"/>
  </g>
  <g transform="translate(258.005, 316.944)">
    <path id="f4p17-Vector" fill-rule="evenodd" clip-rule="evenodd" d="M38.7286 72.4954C15.53 41.5589 6.59003 28.9166 3.08473 23.4415C0.0239124 18.6533 0.271405 17.9664 0.135032 17.1936C-0.587241 13.2236 1.59978 9.44053 6.41325 6.70297C13.6158 2.60167 27.4905 0.450009 34.3394 0.0560429C41.8652 -0.383382 49.1384 1.77333 57.1693 6.10192C68.16 12.0114 80.7871 22.1434 98.3995 34.614C99.5915 35.4524 100.273 36.8364 100.208 38.291C100.152 39.7457 99.3642 41.074 98.0964 41.8115L44.3553 73.6116C42.4663 74.7279 40.0469 74.243 38.7286 72.4954ZM8.60027 15.8097C8.68108 16.1632 8.89827 16.6127 10.3125 18.8099C13.6562 24.0476 22.0406 35.8818 43.2946 64.2625L88.0705 37.7758C76.206 29.2247 66.7609 21.9869 58.4472 16.7895C49.7749 11.3548 42.5168 8.18287 34.8294 8.62734C29.6926 8.92534 19.9849 10.2537 13.343 12.9004C11.848 13.4913 10.5297 14.1429 9.52457 14.8955C9.17101 15.1581 8.73664 15.648 8.60027 15.8097Z" fill="var(--fill-0, #4356B1)"/>
  </g>
  <g transform="translate(590.797, 249.977)">
    <path id="f4p18-Vector" fill-rule="evenodd" clip-rule="evenodd" d="M44.5878 1.07928C46.3556 -0.491536 49.0729 -0.329909 50.6336 1.44799C52.2095 3.22084 52.0479 5.9382 50.27 7.50902C28.3493 26.9245 25.3844 28.8994 8.76708 37.4404C10.3985 53.3001 20.8891 62.4068 33.2688 57.7196C55.24 49.3907 64.6599 36.8191 71.4684 29.9298C73.1251 28.2428 75.8425 28.2276 77.5295 29.8944C79.2114 31.5561 79.2265 34.2785 77.5699 35.9655C70.2411 43.3852 59.9828 56.7801 36.2993 65.7504C26.7986 69.3517 17.8435 67.5283 11.1309 61.7097C4.82236 56.2447 0.463474 47.032 0.00384597 35.0766C-0.0668667 33.4048 0.842288 31.8491 2.33734 31.0864C20.48 21.7928 22.5206 20.6261 44.5878 1.07928Z" fill="var(--fill-0, #4356B1)"/>
  </g>
</svg>