<svg viewBox="0 0 393 852" xmlns="http://www.w3.org/2000/svg" overflow="visible">
  <g transform="translate(151.462, 397.884)">
    <path id="f3p1-Vector" fill-rule="evenodd" clip-rule="evenodd" d="M2.4433 4.18995C2.49125 4.16174 2.53921 4.13635 2.5928 4.11378C2.72256 4.05454 2.8495 4.01787 2.98491 4.00095L2.86361 3.65962C2.62101 2.97132 2.93695 2.20968 3.59986 1.90221C3.97222 1.73013 4.37842 1.73577 4.73668 1.88246L4.91157 1.76962L5.39395 1.66807L5.834 1.72167L6.19226 1.88246L6.47717 2.11377L6.68591 2.39304C6.85517 2.67513 7.50961 3.9953 8.15842 5.31548C8.55898 6.11661 9.03289 7.05597 9.29523 7.58912C9.41653 7.71323 9.51244 7.86274 9.58014 8.02917C9.66195 8.24356 9.70144 8.37896 9.72119 8.44102L9.7635 8.83313L9.69016 9.1406C9.98635 9.78659 10.3192 10.5116 10.6972 11.3296L8.13867 3.01364C7.92992 2.32534 8.26843 1.58344 8.93698 1.30136C9.37704 1.11518 9.85941 1.16877 10.2374 1.40573C10.2374 0.912074 10.4998 0.438165 10.9539 0.184285C11.5689 -0.165504 12.3418 -0.00471445 12.7649 0.559463L14.023 2.21814C14.0569 2.12788 14.1048 2.04043 14.1584 1.95862C14.5167 1.43394 15.1824 1.21109 15.7833 1.41983C17.3658 1.96426 18.7593 2.44382 20.0174 2.86977C20.3362 2.70052 20.7227 2.6582 21.0866 2.77386L43.1487 9.71042C43.8793 9.94174 44.2912 10.7203 44.074 11.4594C43.8596 12.1956 43.0867 12.6216 42.3419 12.4157C41.2333 12.1054 40.2122 11.8204 39.27 11.5581L39.6649 11.7471L39.1967 13.7753L39.4534 13.8994C39.38 13.5694 39.4195 13.2083 39.5972 12.8924C39.9696 12.2267 40.7933 11.9756 41.4703 12.3226L43.3293 13.2817C43.3293 13.0447 43.3857 12.8021 43.5126 12.5821C43.8765 11.922 44.6974 11.6681 45.3744 12.0066L75.0727 26.9178C75.7469 27.2592 76.0403 28.0829 75.7131 28.774C75.3887 29.4679 74.5791 29.7754 73.8738 29.4707L73.7667 29.4228C73.7582 29.451 73.7469 29.482 73.7384 29.5102L73.462 30.238L75.9162 31.2112C76.1531 31.1605 76.3985 31.1689 76.6411 31.2479C77.0276 30.7345 77.7244 30.537 78.3337 30.8022C78.9204 31.0589 79.2533 31.6823 79.1658 32.3001L80.4155 32.8276C80.5594 32.8445 80.6948 32.884 80.8302 32.9461C80.9374 32.994 81.0333 33.0504 81.1123 33.121L87.3972 35.7557C88.1165 36.0547 88.4522 36.8727 88.1617 37.5893C87.9332 38.1534 87.3774 38.4891 86.802 38.4666L85.5298 39.1661C85.5157 39.2084 85.5016 39.2508 85.4818 39.2931C85.1969 39.9362 84.5001 40.2635 83.84 40.0942L81.8711 41.1746C82.4381 41.1549 82.9797 41.4764 83.2166 42.0265C83.5269 42.743 83.1969 43.5724 82.4776 43.8798L73.8061 47.6147C73.6566 47.7162 73.4874 47.7868 73.3181 47.8234L65.6735 51.1126L65.1319 52.0858C64.7737 52.7346 63.9753 52.9941 63.3068 52.681C63.1234 52.5964 62.9683 52.4751 62.8385 52.3312L62.2856 52.571C62.2292 52.5964 62.17 52.6189 62.1079 52.6359L59.397 53.8009C59.2278 53.9166 59.0388 53.9984 58.8413 54.0378L58.7341 54.0858L50.1671 58.5061L51.5747 60.2579C52.0289 60.8221 51.9809 61.6373 51.4675 62.1451C50.9513 62.6557 50.1389 62.6923 49.5775 62.2297C31.3405 47.1436 31.2446 47.4567 29.8934 45.925C25.6169 41.0956 22.7763 35.1153 18.5054 30.286C18.0061 29.7218 18.0343 28.8671 18.5731 28.3424C18.9455 27.9785 19.4674 27.8628 19.9413 27.9926C19.095 26.8219 18.2487 25.6569 17.3827 24.506C17.3009 24.7288 17.1683 24.9319 16.9765 25.0899C17.0922 25.3325 17.1994 25.5779 17.315 25.8262C17.315 25.8318 17.3235 25.8346 17.3235 25.8374C17.6394 26.5455 17.3376 27.3776 16.6267 27.7049C15.9215 28.0293 15.0893 27.7218 14.7593 27.0166V27.0081L13.4194 24.1364C13.3912 24.207 13.3573 24.2747 13.3178 24.3424C13.2981 24.3678 13.284 24.3931 13.2642 24.4214C12.9991 24.7881 12.5731 25.0053 12.1218 25.0053L10.8552 24.2182L9.06392 20.568C8.52231 20.6075 7.98634 20.3339 7.71836 19.8289L0.166838 5.82042C-0.191415 5.14905 0.0455396 4.31406 0.702807 3.93042C1.28391 3.59474 2.00888 3.71604 2.44047 4.19277L2.4433 4.18995ZM39.6677 49.9447L28.6465 39.7134C29.6959 41.2141 30.7904 42.6781 32.009 44.0491C32.9963 45.1718 33.3151 45.2734 40.8102 51.3749L39.6677 49.9476V49.9447ZM71.1996 28.3057L69.603 27.6118C69.603 27.7359 69.5889 27.8572 69.5551 27.9813C69.7836 27.9672 70.0149 28.0067 70.2293 28.1054C70.548 28.2493 70.7906 28.5004 70.926 28.7965L71.1912 28.3198C71.1912 28.3198 71.1968 28.3114 71.1968 28.3057H71.1996ZM55.2278 47.8009L54.6862 47.3213L53.3857 49.516L55.2278 47.8009ZM63.2617 26.6922L64.6636 28.0575C64.7511 28.08 64.8385 28.1111 64.926 28.1534C65.8879 28.6188 66.7539 29.0391 67.5438 29.4256C67.713 29.4059 67.8823 29.42 68.0515 29.4623L68.249 29.0476C68.012 29.0589 67.7666 29.0081 67.5438 28.8925L63.2617 26.6922ZM31.0951 14.9291C30.6776 15.5666 29.8172 15.7528 29.1684 15.3409V15.3381L27.8003 14.4721L31.3659 17.4255L31.6846 16.3198L37.6706 20.1251L31.0951 14.9291ZM50.043 25.7669L51.7609 27.5328L50.8695 26.2436L50.043 25.7669ZM20.2177 20.4157L22.9371 23.3861L20.466 19.5948L20.5816 19.8713L20.2177 20.4157ZM17.1458 11.3155C17.1712 11.307 17.1994 11.2986 17.2276 11.2901L17.0386 11.0419L17.1458 11.3155ZM47.0416 52.8954L48.1163 50.6048C47.8737 50.3904 47.6283 50.1789 47.3913 49.9701C46.9851 50.3171 46.4097 50.4186 45.8963 50.1902C45.2277 49.8911 44.9033 49.1295 45.1374 48.4384L45.2531 48.1112C44.5846 47.5244 43.947 46.9715 43.3462 46.4468C43.3039 46.743 43.1628 47.0279 42.9343 47.2508C42.5676 47.5978 42.0599 47.7134 41.6085 47.5978C43.1826 49.1351 44.9823 50.8926 47.0416 52.8982V52.8954ZM49.5578 31.0279L49.3942 31.8685L49.9555 32.365L50.3758 31.5469L49.555 31.0279H49.5578ZM26.7932 13.8374L26.4744 13.6343L26.624 13.8092C26.6832 13.8148 26.7396 13.8233 26.7932 13.8346V13.8374ZM63.7102 32.9517L63.2419 34.238L64.0402 34.4186L64.5339 33.5413L63.7102 32.9517ZM38.0768 33.2451L38.246 32.7627L36.1416 30.9066L38.0768 33.2451ZM35.9865 35.1407L36.8666 36.7148L36.9879 36.3593L35.9865 35.1407ZM44.294 40.7712L43.5239 37.578L42.6438 38.7768L44.294 40.7712Z" fill="var(--fill-0, #4375C4)"/>
  </g>
  <g transform="translate(147.611, 393.028)">
    <g id="f3p2-Group">
<path id="f3p2-Vector" fill-rule="evenodd" clip-rule="evenodd" d="M51.1857 68.2638C50.094 67.4542 15.1291 32.2495 6.23483 21.0534C4.64103 19.0534 2.13608 15.9815 0.875141 12.9123C-0.193976 10.2889 -0.377334 7.65419 0.852574 5.40031C2.03735 3.22258 4.71437 1.1859 10.1051 0.23244C15.1065 -0.653319 22.3167 1.03357 30.9515 4.59071C49.9107 12.3961 76.3537 29.0647 101.702 42.9407C102.506 43.3779 102.986 44.2298 102.946 45.1438C102.91 46.0549 102.362 46.8645 101.527 47.2341L53.5863 68.5289C52.7964 68.8787 51.8768 68.7772 51.1857 68.2638ZM53.0785 63.5078L95.1775 44.8109C74.8812 33.5246 54.2153 20.8644 37.5326 12.808C26.2095 7.34108 16.8809 3.90241 10.9316 4.95461C7.63681 5.53571 5.78631 6.36505 5.05852 7.69651C4.5028 8.71767 4.82157 9.90244 5.30958 11.0929C6.3928 13.736 8.61002 16.3453 9.98379 18.0661C17.9613 28.1141 47.3154 57.897 53.0785 63.5078Z" fill="var(--fill-0, #4356B1)"/>
</g>
  </g>
  <g transform="translate(143.681, 411.005)">
    <path id="f3p3-Vector" fill-rule="evenodd" clip-rule="evenodd" d="M2.63792 80.8818C2.3784 80.312 2.5279 79.6181 3.03002 79.2062C3.36289 78.9354 3.68729 78.6703 3.99759 78.4164C3.57727 78.3966 3.16542 78.1851 2.9059 77.8099C2.46867 77.1752 2.61535 76.3035 3.24723 75.8578L26.9991 58.9692L27.0048 58.9635C27.4448 58.6532 27.9921 58.6279 28.4378 58.8451C34.1078 55.3359 39.5352 51.4318 45.3377 48.1511C53.1516 43.7307 78.3985 32.5882 86.9966 30.5967C89.6483 29.1185 92.2999 27.6489 94.9938 26.2553C108.407 19.316 117.324 16.5374 118.481 16.0381C118.63 15.9732 118.78 15.9365 118.935 15.9224L134.461 6.39629C135.11 5.99573 135.964 6.18755 136.376 6.83071C136.794 7.47105 136.627 8.3286 135.998 8.7602L129.443 13.2736L146.348 5.54438C146.949 5.27076 147.654 5.45412 148.046 5.95623C148.647 5.73338 149.338 5.95059 149.705 6.49502C150.043 7.00278 150.007 7.66569 149.649 8.13678C156.32 4.87019 158.619 3.90827 169.423 0.0803246C170.1 -0.159451 170.859 0.153667 171.163 0.805293C171.372 1.25099 171.333 1.75311 171.096 2.14804L173.632 1.21432C174.329 0.95762 175.099 1.28202 175.403 1.95057C175.539 2.25523 175.567 2.58245 175.485 2.88147L178.659 1.87723C179.369 1.65156 180.134 2.0211 180.405 2.72068C180.405 2.73478 180.41 2.74888 180.416 2.76017L181.073 2.52886C181.77 2.2778 182.54 2.61348 182.839 3.29614C183.13 3.97879 182.845 4.77146 182.19 5.10997L180.56 5.95059L181.164 5.76723C181.846 5.55849 182.577 5.89417 182.859 6.54862C183.056 6.99996 183.003 7.50772 182.746 7.897L183.293 7.69672C183.86 7.48516 184.489 7.66851 184.862 8.11985C185.059 8.13114 185.262 8.14242 185.465 8.15371L185.911 7.69108C186.357 7.22845 187.062 7.1269 187.623 7.44566C188.021 7.67133 188.281 8.06908 188.326 8.50632C188.645 8.71788 188.873 9.05639 188.935 9.45413C189.042 10.1086 188.678 10.7489 188.063 10.9915L187.716 11.1269L187.711 11.1467L189.322 12.0635L189.827 11.1636L189.646 10.8928L189.903 11.0282L190.267 10.3737C190.267 10.3737 190.275 10.3653 190.275 10.3596L189.274 8.83636C188.867 8.21576 189.008 7.3836 189.598 6.93508C190.193 6.48656 191.031 6.57683 191.519 7.13819L195.544 11.7983C195.666 11.409 195.956 11.0761 196.363 10.9154C197.04 10.6445 197.81 10.9323 198.14 11.5811L199.996 15.2087L199.705 13.0931C199.604 12.3512 200.097 11.6601 200.834 11.5162C201.564 11.3723 202.289 11.8293 202.47 12.5571L205.014 22.6502C205.155 22.8787 205.231 23.1495 205.223 23.4401V23.4739L205.798 25.7504C206.447 25.9366 206.873 26.5656 206.808 27.2455L206.563 29.6968C206.978 29.3752 207.545 29.2934 208.038 29.5276C208.687 29.8322 209.006 30.5769 208.777 31.2568L208.721 31.4035C208.797 31.4373 208.865 31.4768 208.932 31.5276C209.539 31.9676 209.694 32.8139 209.282 33.4458L195.429 54.5122C195 55.1582 194.142 55.3415 193.494 54.9268C192.845 54.5122 192.647 53.6546 193.048 52.9974L193.846 51.7082C193.779 51.7449 193.717 51.7816 193.657 51.8182L191.801 53.6603C191.375 54.0834 190.746 54.1793 190.227 53.9424L186.221 57.7759C185.671 58.3006 184.814 58.3006 184.267 57.7731C184.145 57.6546 184.049 57.5164 183.976 57.3697C180.173 59.4854 176.588 61.3613 174.585 62.1258C173.826 62.4135 173.231 62.5545 172.859 62.5743L172.379 62.5404C157.225 68.154 153.654 69.4967 136.997 75.5645C136.828 75.7422 136.613 75.8804 136.362 75.9537C135.564 76.1907 134.785 76.422 134.035 76.6449C132.498 77.2006 130.861 77.7958 129.11 78.4333C128.766 78.5602 128.393 78.5405 128.074 78.4051C120.661 80.6054 115.75 82.092 111.101 83.573C103.654 86.1428 97.6878 88.2303 83.1207 93.0512C82.4127 93.2881 81.6454 92.9242 81.3689 92.2359C78.8132 93.0483 75.9641 93.9538 72.7032 94.9835C72.4803 95.0568 72.2434 95.0653 72.0262 95.0258C71.6482 95.164 71.2617 95.305 70.8752 95.4489C70.1531 95.7141 69.3463 95.3445 69.0699 94.6196C69.0219 94.4813 68.9881 94.3403 68.9824 94.2021C63.5832 95.4179 59.7271 96.14 55.5606 96.7832C53.6396 97.2289 51.4873 97.7366 49.0528 98.3206C48.7623 98.3911 48.4633 98.3629 48.2066 98.2585C45.4449 98.8396 42.6466 99.4207 38.7763 100.4C38.0457 100.586 37.2954 100.157 37.0782 99.4292C36.9286 98.9101 37.0838 98.3742 37.4505 98.0187C34.3052 98.4278 32.0654 98.4814 30.3193 98.3854C21.2755 100.194 17.2981 99.8495 14.7536 100.318C14.0287 100.45 13.3263 100.002 13.1373 99.2881C12.9483 98.5744 13.3404 97.8382 14.0371 97.5956C15.5125 97.085 16.9596 96.4983 18.3926 95.8861C17.4927 95.8184 16.5872 95.7874 15.6874 95.8354C15.1937 95.8608 14.7395 95.6266 14.4631 95.2486C13.8481 95.3248 13.2106 95.4038 12.5477 95.4799C11.3375 95.8946 10.1415 96.3234 8.94825 96.7832C8.25149 97.054 7.46164 96.7268 7.15698 96.0413C6.85233 95.3586 7.12877 94.5575 7.79168 94.2162L7.77758 94.1485L7.82553 93.6661L7.98068 93.2853L8.08223 93.1471C7.58294 93.2486 7.04133 93.0709 6.69436 92.6393C6.36995 92.2275 6.31072 91.6887 6.49972 91.2317C6.28251 91.1386 6.08787 90.9919 5.93836 90.7944C5.85655 90.6816 5.78885 90.5631 5.7409 90.439C5.09209 90.786 4.40097 91.1499 3.67883 91.5391C3.03566 91.8833 2.23735 91.683 1.83679 91.0737C1.43904 90.4644 1.5688 89.652 2.1358 89.195C3.70421 87.9397 5.1062 86.8198 6.36995 85.8099C6.3361 85.7704 6.30225 85.7281 6.2684 85.6858C6.18095 85.5645 6.11325 85.4376 6.06812 85.3022C5.4842 85.7422 4.86924 86.2105 4.21197 86.7041C3.60266 87.164 2.73101 87.0539 2.2571 86.4503C1.98065 86.0977 1.89884 85.652 1.99476 85.2486C1.41365 85.5137 0.716892 85.3558 0.302221 84.8424C-0.149121 84.2669 -0.0898819 83.4347 0.446087 82.9354L2.63792 80.8818ZM12.1076 90.8565C12.0343 90.7013 11.992 90.5377 11.9779 90.3741C11.4447 90.7803 10.8834 91.2063 10.2882 91.652C10.8016 91.4122 11.4193 91.1442 12.1076 90.8565ZM178.577 57.0989C178.441 57.034 178.32 56.9466 178.204 56.8394C177.759 56.4022 177.663 55.7336 177.925 55.1977C177.575 55.6095 177.243 56.0355 176.918 56.4755C176.87 56.5714 176.802 56.6617 176.729 56.7435C176.396 57.2118 176.077 57.6913 175.767 58.1737C176.357 57.9932 176.958 57.8042 177.581 57.6095C177.595 57.6039 177.601 57.601 177.615 57.5982C177.925 57.4374 178.25 57.271 178.574 57.0989H178.577ZM203.559 37.0198C203.511 37.0622 203.471 37.1045 203.423 37.1411C203.432 37.1581 203.437 37.175 203.446 37.1919L203.559 37.0198ZM186.938 13.9535L186.599 15.1862L187.592 15.1382L187.939 14.5204L186.938 13.9535ZM171.629 59.4657C171.764 59.2597 171.891 59.0538 172.027 58.8451L167.395 60.7745C168.701 60.374 170.1 59.9396 171.629 59.4657ZM132.622 72.7859C130.774 73.4573 128.757 74.1907 126.554 74.9975C128.182 74.563 129.928 74.0948 131.809 73.5842C132.007 73.5334 132.201 73.5221 132.39 73.5532C132.458 73.5165 132.526 73.477 132.593 73.4403C132.554 73.2203 132.56 72.9946 132.622 72.7859ZM185.815 18.0494L185.68 18.5459L185.965 18.0409L185.815 18.0494ZM134.06 17.031C134.402 17.1552 134.689 17.4062 134.853 17.7588C134.859 17.7673 134.867 17.7786 134.867 17.7899C135.003 17.7334 135.135 17.6742 135.273 17.6178L136.971 16.0494C135.995 16.3653 135.022 16.6897 134.06 17.031ZM30.5704 61.319C30.6578 61.3923 30.7312 61.4741 30.7989 61.57C30.9427 61.7619 31.0217 61.9762 31.0499 62.1963C31.5577 61.8408 32.0852 61.4713 32.6268 61.0905C32.9709 60.8479 33.3913 60.783 33.7693 60.8761C35.7241 59.5362 37.8483 58.0947 40.9541 56.1991C37.7213 57.79 34.2629 59.491 30.5704 61.319ZM28.5139 68.7097C29.6959 67.7957 31.1458 66.7012 32.8835 65.4488C31.4674 66.185 29.9723 66.9579 28.4039 67.7732C28.5534 68.0694 28.5873 68.3994 28.5139 68.7097ZM124.136 73.666C123.671 73.855 123.197 74.0468 122.718 74.2415C123.163 74.3712 123.53 74.7154 123.677 75.1893C123.733 75.3755 123.744 75.5645 123.725 75.7478C124.3 75.5955 124.89 75.4403 125.49 75.2796C124.943 75.2654 124.43 74.9298 124.218 74.3882C124.125 74.1512 124.097 73.903 124.136 73.666ZM199.339 35.3696C199.319 35.2483 199.291 35.127 199.262 35.0029L197.302 37.2427L199.339 35.3696ZM201.855 28.749L201.807 28.4049C201.198 28.6587 200.487 28.45 200.109 27.8971L198.972 26.2412L200.614 29.7899C200.946 29.8915 201.237 30.1115 201.42 30.4303C201.561 30.6757 201.623 30.9465 201.604 31.2088C201.609 31.2116 201.609 31.2116 201.609 31.2145L201.852 28.749H201.855ZM49.4308 76.1315C49.3377 75.8945 49.3011 75.6322 49.349 75.3642L49.5521 74.1907C49.1939 74.3994 48.8413 74.611 48.483 74.8226C48.0176 75.1385 47.569 75.4403 47.1516 75.7337C47.4816 75.8635 47.7721 76.1202 47.9273 76.4784C47.9753 76.5828 48.0091 76.6928 48.0288 76.8L49.4308 76.1286V76.1315ZM50.3589 85.3896C50.3589 85.3332 50.3645 85.2824 50.3787 85.2288C50.3504 85.2401 50.3166 85.2486 50.2912 85.2599C50.0007 85.3953 49.7157 85.5278 49.4449 85.6576C49.7552 85.5645 50.0599 85.4771 50.3589 85.3896ZM197.911 30.6559L197.736 30.2695L196.983 31.0932L197.911 30.6559ZM149.601 17.6968C149.067 18.1509 148.546 18.5882 148.046 19.0113C148.106 18.9803 148.159 18.9436 148.216 18.9098C148.221 18.9098 148.221 18.9098 148.221 18.9069C148.323 18.8477 148.424 18.8026 148.531 18.7715L150.001 17.5614L149.601 17.6968ZM74.6157 87.683C75.6651 87.4291 76.7878 87.1583 78.0064 86.8649C79.8062 86.2697 81.7216 85.6294 83.7639 84.9355C85.4705 84.3572 86.7004 83.9538 88.3027 83.4771C87.9783 83.3445 87.7018 83.0878 87.5467 82.7408C87.5326 82.7013 87.5128 82.659 87.4987 82.6195C83.3436 83.7986 78.9402 85.0821 73.4733 86.6985C74.0008 86.7775 74.4549 87.1555 74.6186 87.683H74.6157ZM183.164 33.4655C183.014 33.1327 182.994 32.7462 183.135 32.3851L183.406 31.6743L181.389 32.5346C180.963 33.5643 180.532 34.5967 180.078 35.6122L183.164 33.4655ZM189.197 29.2681L189.412 29.1129L189.237 29.1891C189.226 29.2145 189.212 29.2398 189.197 29.2681ZM192.351 24.7969L192.1 22.4048L191.212 23.9507L191.367 24.2469L191.457 24.5431L191.443 25.096L191.401 25.2003L192.348 24.7969H192.351ZM174.904 39.2089C176.013 37.6263 176.884 35.8971 177.668 34.1172L176.365 34.6757C175.998 34.9155 175.64 35.1496 175.288 35.3866L164.032 46.8196C164.106 46.7942 164.179 46.7717 164.247 46.7491C164.348 46.5996 164.472 46.467 164.627 46.3598L174.904 39.2089ZM163.24 51.9198C161.649 52.7858 160.007 53.6885 158.309 54.6278C157.014 55.3387 155.838 55.9875 154.735 56.5827C156.684 55.8972 158.87 55.1271 161.319 54.2583C161.928 53.4543 162.568 52.6786 163.24 51.9198ZM169.849 18.8054C168.455 20.244 167.008 21.8407 165.541 23.6009C167.372 22.6982 168.862 22.0099 169.917 21.5247C170.343 21.1213 170.791 20.6926 171.262 20.2356L172.196 18.6925L169.849 18.8054ZM53.0585 74.4051L53.05 73.508L52.6297 74.6082L53.0585 74.4023V74.4051ZM85.5975 43.1045C84.2632 43.8492 82.9853 44.5742 81.761 45.2879L84.6017 43.8802C84.9402 43.6207 85.2731 43.3612 85.5975 43.1045ZM60.4379 67.7309L61.0811 69.5475C62.0064 68.2809 62.9119 67.0031 63.8343 65.7365C62.7031 66.3994 61.5748 67.0651 60.4379 67.7309ZM131.592 64.8169C131.665 64.7915 131.747 64.7633 131.823 64.7379C133.155 64.0976 134.345 63.5362 135.448 63.0172C135.482 62.9777 135.516 62.941 135.55 62.9071C135.603 62.8564 135.651 62.8056 135.699 62.7548C134.447 63.2851 133.251 63.7901 132.086 64.2809L131.592 64.8169ZM156.108 31.8548C155.668 32.1087 155.228 32.3654 154.783 32.6305C155.169 32.4754 155.561 32.3203 155.953 32.1623C155.993 32.0664 156.046 31.9648 156.108 31.8548ZM157.651 24.7377C156.467 25.3583 155.223 26.0099 153.902 26.6982C154.173 26.7631 154.419 26.907 154.608 27.1101C155.987 26.0381 156.935 25.3019 157.651 24.7377ZM116.757 34.7434C116.046 35.1129 115.358 35.474 114.672 35.8294C113.685 36.718 112.723 37.584 111.778 38.4303C112.954 37.9677 114.131 37.5079 115.307 37.0509C115.2 36.5713 115.341 36.0495 115.727 35.694L116.757 34.7434ZM68.1023 64.7069C69.4676 63.3895 70.7483 62.1878 71.9585 61.082C71.3915 61.4008 70.8216 61.7195 70.2603 62.0411C69.5156 62.91 68.7991 63.8014 68.1023 64.7069ZM124.963 50.9663C125.031 50.8789 125.098 50.7942 125.172 50.7096C125.273 50.5827 125.375 50.4586 125.485 50.3344C125.505 50.2103 125.538 50.0862 125.584 49.9705C122.139 51.4543 118.949 52.8591 115.795 54.2837C115.719 54.3627 115.654 54.4417 115.578 54.5235C118.641 53.3274 121.77 52.1398 124.963 50.9663ZM115.262 48.8027C116.486 48.2047 117.643 47.649 118.751 47.1271C118.867 47.0171 118.983 46.9071 119.104 46.797C116.385 47.8803 113.956 48.8563 111.705 49.7815C109.248 51.003 106.847 52.2047 104.512 53.3866C107.801 51.9649 111.372 50.4388 115.262 48.8027ZM110.782 41.869C110.782 41.8633 110.791 41.8577 110.791 41.852C109.031 42.5573 107.273 43.2766 105.527 44.0213C104.858 44.625 104.193 45.2145 103.544 45.7928C105.798 44.5544 108.179 43.2681 110.782 41.869ZM93.9304 70.3374L102.788 67.8042C102.89 67.539 103.039 67.2344 103.234 66.8987C103.403 66.611 103.572 66.3261 103.733 66.044C100.06 67.5926 96.8133 69.02 93.9304 70.3374ZM108.227 64.1794C107.928 64.6307 107.637 65.0905 107.341 65.556C108.207 64.9438 109.22 64.1935 110.418 63.288C109.674 63.5898 108.943 63.886 108.227 64.1794ZM114.289 63.855C115.445 63.4205 116.602 62.9946 117.758 62.5658C118.277 61.6913 118.78 60.8056 119.279 59.917C117.406 61.4149 115.747 62.721 114.286 63.855H114.289ZM136.546 46.8619C139.285 45.931 142.06 45.0142 144.859 44.1228C146.354 42.8534 147.993 41.443 149.826 39.852C149.852 39.8125 149.886 39.7759 149.919 39.7392C145.578 41.5474 141.708 43.1609 138.176 44.6391C137.682 45.3161 137.141 46.0523 136.546 46.8619ZM135.626 56.2837L135.806 56.0862C135.713 56.1624 135.626 56.2386 135.53 56.3147C135.564 56.3034 135.592 56.2922 135.626 56.2837ZM121.804 61.0989C122.263 60.9325 122.723 60.7689 123.191 60.6025C123.97 59.4882 124.706 58.436 125.417 57.4318C125.155 57.5305 124.89 57.6293 124.605 57.7365C124.227 57.8803 123.854 58.0242 123.482 58.1652C122.907 59.1328 122.359 60.1145 121.804 61.0989ZM129.854 56.0552C130.001 55.9424 130.151 55.8267 130.3 55.7167C130.204 55.7477 130.117 55.7816 130.021 55.8126C129.967 55.8916 129.908 55.9734 129.852 56.0552H129.854Z" fill="var(--fill-0, #719DE3)"/>
  </g>
  <g transform="translate(312.553, 418.162)">
    <path id="f3p4-Vector" fill-rule="evenodd" clip-rule="evenodd" d="M2.40058 15.2547C2.52187 15.0515 2.69113 14.8767 2.91398 14.7497L6.725 12.5579C6.66858 12.4902 6.62345 12.414 6.57549 12.3322C6.23134 11.6665 6.46548 10.8484 7.11146 10.4648L24.4007 0.196756C25.058 -0.192526 25.9099 0.013399 26.3161 0.659382C26.7223 1.30819 26.5389 2.16291 25.8958 2.58605L24.632 3.42667C24.742 3.53387 24.8351 3.65799 24.9084 3.80185C25.12 4.20806 25.1116 4.67068 24.931 5.05715C25.2554 5.1728 25.546 5.41258 25.7152 5.74262C26.0396 6.38296 25.8365 7.16717 25.2329 7.56491L24.2455 8.21372C24.2794 8.23629 24.3076 8.25885 24.333 8.28424L25.0297 7.93727L25.6616 10.6115L25.9437 10.5325L27.5488 9.8047L26.979 9.18692C26.4938 8.65378 26.4853 7.83854 26.9677 7.29693C27.4473 6.75532 28.2512 6.66505 28.8408 7.08818C30.113 8.00215 31.3175 9.00639 32.5897 9.92035C33.7576 10.7666 34.2061 11.5283 34.3218 12.1348L34.3697 12.5692L34.3274 12.9923L34.144 13.5537C34.0763 13.7003 33.9889 13.8499 33.8817 14.0022C33.4755 14.5917 32.6038 15.2434 31.6278 16.2081C31.6476 16.2138 31.6701 16.2194 31.6899 16.2279C32.1948 16.3971 32.5615 16.84 32.6349 17.3675C32.711 17.8978 32.4797 18.4197 32.0397 18.7243L31.3232 19.2208C31.2216 19.4662 31.0467 19.6863 30.8097 19.8442L17.0692 29.077C16.426 29.5086 15.56 29.3393 15.12 28.699C14.6855 28.0587 14.8492 27.187 15.4867 26.7469L17.529 25.3337L10.6206 28.1715C9.94363 28.4479 9.16507 28.163 8.82656 27.5086C8.65731 27.1785 8.63192 26.809 8.73347 26.4733L7.81386 26.9162L7.19609 27.0544L6.48804 24.4282L6.96195 24.1489C6.91964 24.0925 6.88015 24.0304 6.8463 23.9627C6.73064 23.754 6.68269 23.5255 6.68269 23.3026C6.4006 23.5255 6.04234 23.644 5.65588 23.6045C5.24967 23.5593 4.90553 23.3506 4.67421 23.0459C4.55856 23.029 4.45136 23.0008 4.34981 22.9585C2.79268 22.9726 1.92103 22.84 1.44147 22.6651L0.899864 22.3971L0.406208 21.9571L0.189 21.6101L0.0535969 21.2547L0 20.4902C0.236955 17.8104 1.35403 16.1968 2.40058 15.2575V15.2547ZM29.6024 14.2448C29.4275 14.2363 29.2442 14.2307 29.0749 14.2194C29.1906 14.2843 29.2921 14.3633 29.388 14.4592C29.4614 14.3858 29.5347 14.3125 29.6024 14.2448Z" fill="var(--fill-0, #DDEAFF)"/>
  </g>
  <g transform="translate(204.046, 468.77)">
    <path id="f3p5-Vector" fill-rule="evenodd" clip-rule="evenodd" d="M11.7212 0.53227C12.1556 0.458928 12.6154 0.588688 12.9455 0.921553C13.236 1.20928 13.3799 1.59575 13.3658 1.97656L13.9272 1.53086C14.4942 1.08516 15.315 1.14158 15.8143 1.66063C16.2882 2.15146 16.3418 2.91028 15.9497 3.46035C16.5308 3.05132 17.3292 3.13595 17.8115 3.67192C18.3052 4.22481 18.2826 5.07108 17.7636 5.60141L15.1458 8.27279L17.2897 6.95543C17.1937 7.01749 17.1007 7.08801 17.0245 7.167L17.0386 7.15571C16.9624 7.22906 16.8976 7.31086 16.8411 7.39831C16.7734 7.49422 16.7283 7.59859 16.6944 7.70861C16.6126 7.94274 16.5985 8.19944 16.6465 8.44768C16.6521 8.47871 16.6578 8.50974 16.6719 8.54077C16.686 8.59155 16.7001 8.64232 16.7198 8.6931C16.937 9.2206 17.4504 9.56757 18.0259 9.56757L19.0217 9.15854L13.7635 14.3603L15.1909 14.112C15.9554 13.9766 16.686 14.49 16.8214 15.2573C16.9568 16.0246 16.4434 16.7552 15.6705 16.8878L9.81148 17.9118C9.20217 18.019 8.60132 17.7171 8.31641 17.1699C8.07381 16.696 8.12177 16.1318 8.41796 15.7086L6.83544 16.679C6.22613 17.0542 5.44192 16.9132 4.99622 16.3574C4.55616 15.7989 4.59566 14.9978 5.08931 14.49L5.19086 14.3913C5.08931 14.3321 4.9934 14.2587 4.91442 14.1713C4.4123 13.6522 4.37845 12.8342 4.84672 12.2813L4.88621 12.2361L3.40524 13.4012C2.82978 13.8553 1.99762 13.7904 1.50396 13.2545C1.47011 13.2234 1.44472 13.1896 1.41651 13.1557C1.05826 13.1586 0.700008 13.0232 0.42074 12.7524C-0.112408 12.2277 -0.146259 11.3701 0.361501 10.8088L9.56042 0.473032C10.0541 -0.082683 10.8947 -0.158847 11.4814 0.298137C11.5717 0.368659 11.6507 0.447643 11.7184 0.535091L11.7212 0.53227Z" fill="var(--fill-0, #DDEAFF)"/>
  </g>
  <g transform="translate(232.46, 458.717)">
    <path id="f3p6-Vector" fill-rule="evenodd" clip-rule="evenodd" d="M11.142 1.20933L11.8783 0.856721C12.5271 0.546423 13.3056 0.774915 13.6865 1.38423C14.0645 1.99354 13.9234 2.79185 13.3621 3.23755L12.4876 3.92303C12.8825 4.01612 13.2267 4.28128 13.4213 4.6621C13.7119 5.24602 13.5652 5.95689 13.063 6.37438L12.7245 6.66211L13.8557 6.12614C14.5186 5.81302 15.3085 6.06126 15.6752 6.69596C16.0391 7.33066 15.8557 8.14025 15.2605 8.56057L15.0574 8.69879C15.4298 8.78906 15.7542 9.02601 15.9573 9.37862C16.3043 9.99358 16.1406 10.7721 15.5736 11.1953C14.1999 12.2362 12.8797 12.5493 11.8388 12.8032C11.6018 12.8624 11.2718 12.9724 11.1279 13.0232C11.1279 13.1868 11.1364 13.5902 11.2097 13.9485C11.3649 14.7101 10.8712 15.4576 10.1068 15.6128C9.3423 15.7679 8.6004 15.2743 8.44243 14.5126C8.41705 14.3744 8.3973 14.239 8.37755 14.1093L5.70335 15.1699C5.0348 15.4351 4.27598 15.1586 3.93747 14.5267C3.85002 14.3547 3.79643 14.1713 3.77668 13.988C3.18712 14.1544 2.54395 13.9203 2.20545 13.3899C1.82745 12.7919 1.94875 12.0049 2.49036 11.5479L3.11941 11.0232C2.63986 11.0627 2.14621 10.8539 1.84719 10.4336C1.56228 10.0331 1.51433 9.52813 1.68358 9.09935C1.44945 9.0514 1.23224 8.94421 1.04888 8.78624C0.704734 8.69597 0.391616 8.47312 0.196974 8.14307C-0.175383 7.51684 -0.00613045 6.70724 0.589077 6.28129L8.92481 0.267156C9.53976 -0.181365 10.4058 -0.0516049 10.8656 0.554886C11.0207 0.752349 11.1082 0.97802 11.1448 1.20933H11.142Z" fill="var(--fill-0, #DDEAFF)"/>
  </g>
  <g transform="translate(260.991, 450.367)">
    <path id="f3p7-Vector" fill-rule="evenodd" clip-rule="evenodd" d="M2.13732 6.06838C2.13732 6.06274 2.13732 6.05709 2.13168 6.05145C1.82703 5.35469 2.13168 4.53946 2.81434 4.20941L11.3165 0.138872C11.9935 -0.185529 12.7975 0.0768129 13.1642 0.73408C13.4152 1.19388 13.3786 1.73832 13.1247 2.15863C13.3052 2.25736 13.4688 2.40122 13.5958 2.58458C14.3348 3.63677 14.6846 4.4774 14.7947 5.16005C15.3222 5.16569 15.8215 5.46753 16.0584 5.97247C16.3631 6.61281 16.1402 7.38009 15.545 7.76091L13.9625 8.76797L14.0161 8.7595C14.6028 8.66642 15.1783 8.9485 15.4717 9.45626L16.978 9.69604C17.5337 9.78349 17.9794 10.1953 18.1233 10.7398C18.2643 11.2842 18.0612 11.8625 17.6212 12.2066L15.9371 13.5042C15.844 13.7722 15.6607 14.012 15.4096 14.1813L12.6226 16.0712C11.9935 16.4972 11.1331 16.3477 10.6874 15.7299C10.5718 15.5719 10.4984 15.3971 10.4589 15.2165L9.99632 15.3011C9.37008 15.4168 8.7382 15.0952 8.46176 14.5141C8.19095 13.933 8.3461 13.2447 8.83411 12.8329L9.39547 12.3674L7.68319 12.6439C7.02028 12.7511 6.37712 12.3787 6.14017 11.7553C6.02733 11.4563 6.01887 11.1432 6.10631 10.8554L4.36865 11.414C3.71138 11.6283 2.99487 11.3293 2.67611 10.7116V10.7059L2.54917 10.6749L2.10347 10.3984L1.73112 9.8794L1.65777 9.58885C1.06256 9.69604 0.44479 9.40267 0.154238 8.84413C-0.175806 8.19251 0.0385823 7.39702 0.656356 7.00773L2.13732 6.06838ZM2.85383 9.16853V9.16571C2.85383 9.15443 2.85947 9.14314 2.85947 9.13468H2.85383V9.16853ZM11.0542 3.61421L10.8905 3.71576C10.8652 3.76089 10.8313 3.80038 10.8031 3.83988C10.9188 3.8568 11.0344 3.88501 11.1416 3.92732C11.1021 3.82577 11.0683 3.7214 11.0542 3.61421ZM12.0076 5.45625C11.9935 5.5578 11.9653 5.65089 11.9315 5.74398C11.9653 5.70166 11.9992 5.65371 12.0189 5.60011C12.0415 5.5578 12.0274 5.50984 12.0076 5.45625Z" fill="var(--fill-0, #DDEAFF)"/>
  </g>
  <g transform="translate(139.594, 408.193)">
    <path id="f3p8-Vector" fill-rule="evenodd" clip-rule="evenodd" d="M17.809 105.506C16.7456 105.083 10.0516 102.11 5.27865 97.3197C1.74972 93.7823 -0.679064 89.2915 0.170024 84.197C1.01347 79.1476 5.25609 73.1786 16.1927 66.9952C38.6582 54.2899 92.808 24.8991 134.241 9.65782C152.388 2.9836 168.174 -0.931792 177.965 0.190921C193.993 2.02732 206.326 11.2601 212.58 20.868C217.048 27.7397 218.371 34.854 216.267 39.8977C212.747 48.3181 209.424 54.5297 194.828 62.3576C180.91 69.8189 156.289 78.8655 110.069 93.1561C49.1322 111.994 35.3042 106.688 18.5538 105.67C18.2942 105.655 18.0432 105.599 17.809 105.506ZM19.2449 100.908C35.5073 101.966 49.3438 106.908 108.647 88.5722C154.399 74.4282 178.792 65.517 192.566 58.132C205.652 51.1136 208.693 45.5988 211.844 38.0472C213.46 34.1657 212.01 28.7778 208.566 23.4886C202.941 14.8511 191.83 6.60844 177.426 4.9554C168.106 3.8891 153.147 7.81296 135.897 14.16C94.7093 29.3081 40.8839 58.541 18.5538 71.1701C9.51563 76.2787 5.59177 80.8119 4.90066 84.984C4.31673 88.4988 6.23776 91.4946 8.67218 93.9347C12.4747 97.7513 17.6906 100.234 19.2449 100.911V100.908Z" fill="var(--fill-0, #4356B1)"/>
  </g>
  <g transform="translate(258.83, 447.47)">
    <path id="f3p9-Vector" fill-rule="evenodd" clip-rule="evenodd" d="M11.8788 0C18.4373 0 23.7632 5.33148 23.7632 11.8929C23.7632 18.4571 18.4373 23.7857 11.8788 23.7857C5.3202 23.7857 0 18.4571 0 11.8929C0 5.33148 5.3202 0 11.8788 0ZM11.8788 4.79551C7.96901 4.79551 4.78987 7.97747 4.78987 11.8929C4.78987 15.8111 7.96901 18.9902 11.8788 18.9902C15.7885 18.9902 18.9677 15.8111 18.9677 11.8929C18.9677 7.97747 15.7942 4.79551 11.8788 4.79551Z" fill="var(--fill-0, #4356B1)"/>
  </g>
  <g transform="translate(229.866, 456.502)">
    <path id="f3p10-Vector" fill-rule="evenodd" clip-rule="evenodd" d="M11.8788 0C18.4345 0 23.7632 5.32866 23.7632 11.89C23.7632 18.4542 18.4345 23.7829 11.8788 23.7829C5.3202 23.7829 0 18.4542 0 11.89C0 5.32866 5.3202 0 11.8788 0ZM11.8788 4.79551C7.96901 4.79551 4.78987 7.97465 4.78987 11.89C4.78987 15.8083 7.96901 18.9874 11.8788 18.9874C15.7857 18.9874 18.9677 15.8083 18.9677 11.89C18.9677 7.97465 15.7942 4.79551 11.8788 4.79551Z" fill="var(--fill-0, #4356B1)"/>
  </g>
  <g transform="translate(202.002, 466.811)">
    <path id="f3p11-Vector" fill-rule="evenodd" clip-rule="evenodd" d="M11.8788 0C18.4345 0 23.7632 5.32866 23.7632 11.8929C23.7632 18.4542 18.4345 23.7829 11.8788 23.7829C5.3202 23.7829 0 18.4542 0 11.8929C0 5.32866 5.3202 0 11.8788 0ZM11.8788 4.79551C7.96901 4.79551 4.78987 7.97465 4.78987 11.89C4.78987 15.8083 7.96901 18.9874 11.8788 18.9874C15.7857 18.9874 18.9677 15.8083 18.9677 11.89C18.9677 7.97465 15.7942 4.79551 11.8788 4.79551Z" fill="var(--fill-0, #4356B1)"/>
  </g>
  <g transform="translate(227.979, 479.335)">
    <path id="f3p12-Vector" fill-rule="evenodd" clip-rule="evenodd" d="M4.26527 22.626C3.92677 22.4963 3.64186 22.2367 3.48671 21.8813C3.17359 21.1733 3.49235 20.3439 4.19475 20.028L4.86612 19.7262L19.7294 11.2184C20.3782 10.8488 21.2047 11.0491 21.6109 11.6725C21.6899 11.8023 21.752 11.9377 21.7915 12.0787L23.6786 10.8968C24.0312 10.6768 24.4431 10.6288 24.8155 10.736L27.0073 9.74586C27.6645 9.44966 28.4347 9.6979 28.8014 10.31L35.7436 6.767C36.0934 6.58928 36.4798 6.56954 36.824 6.6852C38.0144 6.07306 39.3092 5.40733 40.7281 4.6739C41.3966 4.32975 42.2232 4.57517 42.5955 5.22962C42.793 5.56812 42.8325 5.95459 42.7309 6.30438L46.1668 2.02509L47.1964 4.17461L50.0088 0.546944C50.4376 -0.00595104 51.1992 -0.161099 51.8085 0.180228C52.4179 0.518735 52.6887 1.25499 52.4461 1.90661C51.5123 4.38053 50.4912 6.81778 49.4277 9.2381L50.7281 7.24373C51.1118 6.65417 51.8706 6.43696 52.5053 6.73879C52.6548 6.80931 52.7902 6.9024 52.9002 7.01242C53.1823 6.31566 53.4672 5.60479 53.7662 4.87983C54.0568 4.16614 54.8692 3.81635 55.5857 4.09844C56.3022 4.38335 56.6605 5.1873 56.3897 5.90945L54.7789 10.1831C55.3685 10.5272 55.6308 11.2579 55.3826 11.9123C55.3826 11.9151 55.3826 11.9151 55.377 11.9179C52.8664 18.3947 50.0116 24.7389 47.501 31.2156C47.3995 31.4723 47.3036 31.7262 47.2048 31.9745C47.3177 31.9857 47.4277 32.0055 47.5434 32.045C48.2317 32.2791 48.6322 33.0097 48.4545 33.7206C46.2147 42.7361 44.6407 49.1057 43.5151 53.6727C43.9778 54.0535 44.1526 54.6967 43.9213 55.2778L41.8311 60.5331C40.7224 65.0494 40.5588 65.7123 40.1667 67.0748C38.5447 72.7532 36.1441 78.1891 34.5193 83.8675C34.3106 84.6009 33.5574 85.0325 32.8211 84.8492C32.6039 84.7956 32.4149 84.694 32.2598 84.5586L30.5278 88.9C30.2569 89.5713 29.5348 89.9296 28.8437 89.7378C28.5193 89.6475 28.2485 89.45 28.0651 89.1933C27.9382 89.3005 27.7943 89.3852 27.6392 89.4416L27.0976 90.5897C26.7731 91.2893 25.941 91.5939 25.2386 91.2752C25.1963 91.2554 25.1568 91.2328 25.1173 91.2103C24.5193 91.6701 23.831 91.9324 22.8493 92.1948C21.1596 92.6517 20.192 92.4007 19.6166 91.9776L19.0608 92.4881C18.4995 92.4881 17.9861 92.1496 17.7632 91.6278L16.2484 88.0255C16.1243 88.0086 16.003 87.9719 15.8902 87.9183C15.4021 87.6983 15.0975 87.23 15.0636 86.7251L14.144 87.7744C13.4614 87.7744 12.8803 87.2864 12.7561 86.6179L12.2089 83.6164C11.8112 83.8731 11.2893 83.9239 10.8351 83.7067C10.1525 83.3823 9.84781 82.5755 10.1468 81.8816C10.5728 80.8774 10.979 79.9211 11.3626 79.0128L10.5051 74.2991C9.84781 73.9549 9.5629 73.1566 9.87038 72.4768C9.94372 72.316 10.0114 72.1608 10.0848 72.0057L9.22722 67.3145C8.95077 67.4443 8.63201 67.481 8.31325 67.4076C8.05091 67.3427 7.81959 67.213 7.6447 67.0324L5.01281 71.0973C4.64045 71.6756 3.9042 71.8985 3.26668 71.6248C2.63762 71.3484 2.29911 70.6545 2.46272 69.9859C3.34002 66.4965 4.08473 63.5656 4.70251 61.1029C4.09884 60.8208 3.7688 60.1354 3.93805 59.4696L7.03539 47.6332C6.44018 48.0817 5.60237 47.9858 5.11436 47.4188C4.62635 46.8462 4.6743 45.9914 5.22437 45.478L8.37531 42.5076L9.70959 37.4075L6.56994 39.4272C5.96063 39.8222 5.14821 39.6868 4.70251 39.1169C4.24835 38.5471 4.31041 37.7291 4.83227 37.2241L9.55162 32.6853L3.93241 36.9392C3.33438 37.3877 2.50504 37.2975 2.01702 36.7333C1.52901 36.1719 1.56286 35.3285 2.09037 34.8066L5.48672 31.4695L3.55159 32.9843C2.95638 33.4526 2.09601 33.3623 1.60235 32.7812C1.11716 32.2029 1.17076 31.3398 1.73211 30.8292L9.33723 23.9152C9.32313 23.8926 9.30902 23.87 9.29492 23.8475C9.22722 23.7375 9.17926 23.6246 9.14541 23.5061L7.50929 24.3411L2.15807 27.6923C1.51491 28.0957 0.668638 27.9152 0.242684 27.289C-0.18327 26.6627 -0.0337631 25.8108 0.575549 25.3623L4.26809 22.6317L4.26527 22.626ZM7.95782 61.3399L8.66022 56.9365C8.27658 58.4598 7.82241 60.2539 7.2808 62.378L7.95782 61.3399ZM24.0736 88.0819C23.862 87.9663 23.6927 87.8055 23.5799 87.6165L23.4163 87.9606C23.0919 88.6489 22.2795 88.962 21.5827 88.6574C21.4953 88.6207 21.4191 88.5812 21.3458 88.5304C21.3655 88.9141 21.3994 89.3287 21.4276 89.5995C21.6166 89.5742 21.8817 89.5318 22.1187 89.467C23.0834 89.2074 23.5376 88.9225 24.0736 88.0819ZM36.9001 59.2581L34.1667 66.3526L37.3035 60.5134C37.4276 60.2877 37.5969 60.1072 37.8 59.983C38.4629 58.9309 39.171 57.9012 39.8282 56.849C40.2965 54.9703 40.8635 52.6459 41.58 49.7404L37.831 58.4513C37.6561 58.8632 37.3035 59.1509 36.9001 59.2581ZM44.9425 12.389L43.0892 14.8488L43.1766 15.0717C43.1879 15.1394 43.202 15.2071 43.2161 15.2748L43.9411 14.6062C44.2711 13.8672 44.604 13.1281 44.9425 12.389ZM20.271 27.2466L24.161 24.1916L19.5658 26.9589L17.2329 29.2043L20.271 27.2466ZM37.453 12.8883L39.1512 10.7755C35.4925 13.4074 32.8522 15.334 30.5813 17.0294L37.453 12.8883ZM21.1568 86.0227C21.2527 85.7801 21.3458 85.5403 21.4417 85.3033C21.3204 85.3682 21.1906 85.4133 21.0637 85.4416C21.0975 85.639 21.1285 85.8337 21.1568 86.0227ZM14.0735 43.4216L14.6067 41.8278C14.3556 42.0225 14.0933 42.2199 13.8281 42.423L13.6052 43.8532L14.0735 43.4216ZM15.656 48.4682L17.247 46.959L19.1539 44.014L16.4431 45.9717L15.656 48.4682ZM36.6547 49.0521C37.4812 46.5387 38.1977 44.3469 38.8409 42.3892L38.7394 42.4287L38.1836 42.4935L37.8536 42.4625L37.5489 42.361L37.1089 42.045L36.8917 41.7573L36.8099 41.5626L34.4488 44.4851C34.9989 44.8659 35.2076 45.5909 34.9227 46.2171C31.2555 54.3582 29.0299 59.1932 27.1765 63.4217L34.5532 49.5091C34.9114 48.8377 35.7295 48.5669 36.4121 48.8998C36.4996 48.9421 36.5814 48.9929 36.6547 49.0521ZM18.539 39.3341L21.5207 36.5979C20.6349 37.258 19.7209 37.9463 18.7421 38.6882L18.539 39.3341ZM30.2626 32.4202C30.2626 32.4427 30.2682 32.4653 30.2767 32.4879L32.2739 31.0407C32.3529 30.8151 32.429 30.5866 32.508 30.3581L30.2626 32.4202ZM14.6546 57.6445L13.4501 59.5289L13.9804 62.189C14.1356 61.9802 14.35 61.8138 14.6095 61.7151C14.6349 61.7038 14.6687 61.6953 14.6969 61.684C15.7576 59.3117 16.6518 57.3229 17.4022 55.6473L14.6546 57.6445ZM36.7704 41.4808L36.7563 41.447L36.6547 40.7784C36.6434 40.1014 36.8183 38.5217 37.123 36.5838L35.0581 39.5175L35.8367 41.9265L36.7704 41.4808ZM40.4629 33.5541C40.9312 32.406 41.4643 31.0661 42.0878 29.5062L40.9453 31.1395C40.776 31.9321 40.6209 32.7502 40.4629 33.5541ZM31.7633 25.2184L31.7379 25.2354L31.7436 25.2438L31.7633 25.2184ZM28.0567 47.9125L27.4417 48.361C27.3317 48.6008 27.2245 48.8405 27.1229 49.0831L28.0369 47.9435L28.0567 47.9125Z" fill="var(--fill-0, #4375C4)"/>
  </g>
  <g transform="translate(152.091, 497.312)">
    <path id="f3p13-Vector" fill-rule="evenodd" clip-rule="evenodd" d="M2.02712 6.54925C2.26407 6.02456 2.80568 5.67477 3.41499 5.71709C4.17945 5.76786 4.76056 6.42513 4.72671 7.19241L4.59977 9.74531C4.77466 9.60145 4.99187 9.50272 5.22036 9.45758L6.22178 5.17266C6.39103 4.43922 7.10754 3.97096 7.84661 4.10636C8.58286 4.23894 9.09062 4.93006 8.98907 5.67759L8.83392 6.88493L11.683 5.75658C11.999 5.31934 12.549 5.10213 13.0822 5.20369L19.401 2.7072C19.5223 2.65924 19.6436 2.63104 19.7649 2.61693L25.0851 0.13173C25.6436 -0.127791 26.3009 0.00478969 26.7212 0.453311C27.133 0.907474 27.2092 1.57602 26.9045 2.10917L24.0836 7.05701C24.5717 6.69029 25.2459 6.66491 25.7536 7.0288C26.3488 7.45193 26.5237 8.25871 26.1598 8.88776L24.9412 10.978C24.975 11.0429 25.0089 11.1078 25.0427 11.1783C25.26 11.6551 25.4292 12.0866 25.5562 12.4929C26.0019 12.301 26.5378 12.349 26.9581 12.6593C27.5533 13.105 27.7028 13.9372 27.2966 14.5606C24.7381 18.4731 23.0004 20.6678 18.8594 27.2151C17.968 28.7412 16.9722 30.476 15.8833 32.4591C15.7338 32.7355 15.5053 32.9387 15.2402 33.0599C14.6986 33.9372 14.1372 34.871 13.542 35.8639C13.1386 36.5296 12.2726 36.744 11.6069 36.3435C10.9383 35.9429 10.7211 35.0741 11.1273 34.4083C11.2486 34.2024 11.3727 33.9993 11.494 33.799C11.3586 33.7793 11.2232 33.737 11.0991 33.6749C10.6139 33.4408 10.329 32.9697 10.3008 32.4676L10.0779 32.8512C9.82687 33.2856 9.36989 33.5564 8.86213 33.5564L7.5758 31.5677L7.64915 31.3984C7.494 31.3759 7.33885 31.3251 7.18934 31.2433C6.93264 31.1023 6.72954 30.8879 6.60824 30.6424C6.58849 30.6453 6.56593 30.6481 6.54618 30.6509C6.52643 31.3872 6.50669 32.1262 6.49258 32.8625V32.8653C6.47848 33.6439 5.83532 34.2616 5.05675 34.2475C4.28101 34.2334 3.65759 33.5903 3.67169 32.8117V32.8089L3.74504 29.0571L3.60963 29.83C3.5504 30.1516 3.38678 30.4309 3.16393 30.634L3.15829 30.6763L1.78452 31.7652C1.39242 31.7652 1.0257 31.6072 0.763357 31.3279C0.729507 31.2969 0.701298 31.2659 0.67591 31.232C0.464343 30.9612 0.357149 30.6255 0.376895 30.2842L0.396642 29.8723C0.128658 29.5931 -0.0293126 29.2066 0.00453807 28.7891L1.54756 7.51681C1.57577 7.12753 1.75631 6.78902 2.02712 6.55207V6.54925ZM22.9779 14.3546L22.8171 14.6367C22.7973 14.7439 22.7635 14.8539 22.7155 14.9583L22.3629 15.7453C22.4052 15.7538 22.4447 15.7651 22.4842 15.7792C22.7635 15.2348 22.9327 14.7891 22.9779 14.3546ZM8.44746 9.78481L7.62376 16.0726L10.1456 9.57606L9.07652 9.79891C8.86213 9.84122 8.65056 9.83558 8.44746 9.78481ZM12.5124 11.404L12.4983 11.3222L12.3854 11.6099L12.5124 11.404Z" fill="var(--fill-0, #4375C4)"/>
  </g>
  <g transform="translate(129.101, 455.65)">
    <path id="f3p14-Vector" fill-rule="evenodd" clip-rule="evenodd" d="M0.485209 7.05242C0.640358 6.66596 0.967581 6.37541 1.35122 6.24847C1.18197 5.98612 1.10298 5.66736 1.13683 5.33732C1.21864 4.62646 1.81385 4.08485 2.53035 4.0792L8.11007 4.03407L2.55574 2.93674C1.80539 2.79006 1.31173 2.06791 1.44149 1.31473C1.57689 0.558736 2.27929 0.0453349 3.03811 0.15817L6.73066 0.708243C7.02967 0.194842 7.62488 -0.0900675 8.22573 0.0255887L17.5883 1.85634C17.5544 1.55733 17.6165 1.24139 17.7914 0.967765C18.1976 0.304856 19.0636 0.096111 19.7265 0.50514C20.395 0.916989 20.6884 1.11727 22.8323 2.87751L27.4388 3.78019C28.1892 3.92688 28.6913 4.64902 28.5531 5.4022C28.4459 6.04536 27.9184 6.51363 27.2949 6.57005C27.3232 6.59261 27.3514 6.61518 27.3767 6.63493C27.4924 6.64339 27.6081 6.66596 27.7237 6.70263C28.1553 6.57851 28.6433 6.66878 29.0072 6.97061L29.8394 7.65609C35.0411 8.79009 38.0736 9.26682 40.0623 9.75483C42.8775 10.4459 43.8902 11.1596 45.4728 13.2584C46.1244 14.1216 46.3247 14.8494 46.2034 15.5376L46.0905 15.9608L45.9072 16.3388C45.7915 16.5362 45.6364 16.745 45.4333 16.9594C45.0214 17.3882 44.3359 17.9016 43.2894 18.5616C42.5306 19.0412 41.5489 19.6195 40.3105 20.3416C40.3105 20.3501 40.3049 20.3557 40.3049 20.3614C40.2992 20.3896 40.2851 20.415 40.2767 20.4404C40.0538 20.965 39.5489 21.3064 38.9734 21.3064L38.7844 21.2387C35.9946 22.8691 32.2005 25.1089 27.12 28.3022C26.4712 28.7056 25.625 28.525 25.199 27.8903C25.1511 27.817 25.1059 27.7408 25.0693 27.6618L24.1976 28.1893C24.1017 28.2486 24.0001 28.2937 23.8986 28.3276L23.7096 28.5645L22.4317 30.8551C22.0791 31.4898 21.3006 31.7521 20.632 31.4587C20.5361 31.4164 20.4486 31.3628 20.3612 31.3008C20.2258 31.2613 20.0989 31.1964 19.9691 31.1118C19.3654 30.6886 19.1849 29.8706 19.5629 29.2359L20.2455 28.0765C20.017 27.9242 19.8252 27.7013 19.718 27.4277L19.2582 26.2937C19.2103 26.3529 19.151 26.4065 19.089 26.4545C19.0946 27.061 18.7053 27.6223 18.096 27.8113C17.8111 27.8988 17.5206 27.8903 17.2554 27.8057L17.23 27.8593L17.2836 27.9439L16.0706 30.0821C15.5911 30.0821 15.1538 29.8395 14.8887 29.439L9.67849 21.3995L0.282105 8.97062C-0.0902527 8.47133 -0.0958938 7.78021 0.276463 7.27809C0.335702 7.19628 0.411865 7.12012 0.485209 7.05524V7.05242ZM34.4797 11.4925L34.5757 11.5687C34.8662 11.5856 35.1511 11.6928 35.3881 11.8902C35.5714 12.0397 35.704 12.2259 35.7858 12.429L36.24 12.6914C36.5446 12.8663 36.7618 13.1455 36.869 13.4643L38.8042 15.0581C38.8578 15.1061 38.9114 15.154 38.9593 15.2076L39.8394 14.6688C40.271 14.4008 40.7929 14.398 41.2104 14.6124L42.3472 13.9297C41.6025 13.202 40.8267 12.8493 39.3909 12.4939C38.2061 12.2062 36.6518 11.9184 34.4797 11.4925ZM10.4091 12.965L10.4853 13.1343L10.4712 12.9904L10.4119 12.965H10.4091ZM13.6841 19.5856C13.8675 19.8198 14.065 20.0595 14.2596 20.3078C14.3217 20.3811 14.3753 20.4545 14.4373 20.5306L13.5685 17.6279L13.6841 19.5856ZM27.4783 15.8056L27.7914 15.2781L27.6899 15.1794L27.4783 15.8028V15.8056ZM16.3978 6.78726L14.5981 6.80136L16.5332 7.24142L16.4655 6.81829L16.3978 6.78726ZM16.9648 15.6731C17.0325 15.5123 17.1031 15.3543 17.1679 15.1963C17.0692 15.2076 16.9592 15.2132 16.8379 15.2076L16.9648 15.6731ZM17.2921 12.1187C17.4529 12.0369 17.608 11.9495 17.718 11.8959L18.4345 11.6448L18.9761 11.6279L19.0043 11.6335L18.4148 9.98896C18.1722 10.1977 17.8534 10.3218 17.5093 10.3218C17.467 10.3218 17.4275 10.3218 17.388 10.3162L15.8026 10.1836L16.6433 12.257L17.0354 12.4206C17.1567 12.4713 17.2723 12.5419 17.3739 12.6209L17.2921 12.1187ZM30.1243 20.6237L32.3838 19.2387C32.0735 19.2245 31.7689 19.1117 31.5178 18.8973L30.1243 20.6237ZM34.3585 18.0257L33.8309 17.5997C33.8789 17.8818 33.8394 18.1667 33.7153 18.4178L34.3585 18.0257ZM21.3513 9.02986L21.0128 8.87753L22.2907 12.4544L23.3513 10.9735L21.3485 9.02986H21.3513Z" fill="var(--fill-0, #4375C4)"/>
  </g>
  <g transform="translate(226.879, 472.69)">
    <g id="f3p15-Group">
<path id="f3p15-Vector" fill-rule="evenodd" clip-rule="evenodd" d="M1.5489 21.5566L58.1811 0.154533C58.9878 -0.150123 59.899 0.00220493 60.5591 0.555099C61.2192 1.10517 61.5379 1.97401 61.3856 2.82309C59.9582 10.7752 59.3884 10.589 57.8031 18.51C57.5153 19.9515 54.8411 37.3959 52.4829 47.9319C49.6958 60.3325 43.9215 78.499 39.0724 89.7798C36.8241 95.0012 34.669 98.801 33.1203 100.214C28.3474 104.584 24.1583 105.687 20.652 104.657C17.25 103.659 14.2232 100.46 11.8028 95.241C5.57149 81.8136 2.56442 54.104 0.00869787 24.0023C-0.0815706 22.9332 0.547488 21.9346 1.5489 21.5566ZM4.94243 25.4043C7.40225 54.1125 10.1865 80.3749 16.1442 93.2213C17.8283 96.8546 19.6336 99.3623 22.0032 100.056C24.2712 100.722 26.793 99.509 29.8876 96.674C31.1767 95.4977 32.7959 92.2339 34.669 87.8841C39.4222 76.8319 45.0837 59.0321 47.8087 46.8825C50.1585 36.386 52.8157 19.0065 53.1063 17.5707C54.3362 11.4155 54.9483 10.1856 55.8369 6.16584L4.94243 25.4043Z" fill="var(--fill-0, #4356B1)"/>
</g>
  </g>
  <g transform="translate(149.183, 495.097)">
    <path id="f3p16-Vector" fill-rule="evenodd" clip-rule="evenodd" d="M2.30694 3.83356L34.4933 0.0168994C35.3198 -0.0818318 36.1407 0.256675 36.6569 0.911121C37.1731 1.56557 37.317 2.44004 37.0293 3.22143C32.2168 16.3922 29.1054 26.3978 25.3564 32.9536C22.5412 37.8817 19.3141 40.9903 15.0574 42.3556C12.7358 43.0975 10.747 43.058 9.04605 42.4995C6.55802 41.6786 4.60033 39.6842 3.20963 36.8351C-1.11479 27.9804 0.174353 9.91257 0.19692 6.20028C0.205382 4.99012 1.10807 3.97178 2.30694 3.83074V3.83356ZM4.91627 8.35262C4.72727 13.2328 4.29567 23.5741 6.21388 31.0467C7.37608 35.5714 9.25197 39.1793 13.5905 37.7886C16.795 36.7618 19.08 34.2766 21.1956 30.5728C24.4904 24.804 27.2521 16.285 31.207 5.23836L4.91627 8.35262Z" fill="var(--fill-0, #4356B1)"/>
  </g>
  <g transform="translate(123.009, 451.56)">
    <path id="f3p17-Vector" fill-rule="evenodd" clip-rule="evenodd" d="M21.6298 40.4885C8.67349 23.2105 3.68051 16.1499 1.72281 13.092C0.013355 10.4178 0.151579 10.0342 0.0754148 9.60257C-0.327972 7.38535 0.893472 5.27251 3.58178 3.74359C7.60437 1.45303 15.3534 0.251329 19.1785 0.0312998C23.3816 -0.214118 27.4437 0.990401 31.9289 3.4079C38.0672 6.70834 45.1194 12.367 54.9558 19.3318C55.6215 19.8001 56.0024 20.573 55.9657 21.3854C55.9347 22.1978 55.4946 22.9397 54.7866 23.3516L24.7723 41.1119C23.7173 41.7353 22.3661 41.4645 21.6298 40.4885ZM4.80323 8.82965C4.84836 9.02711 4.96966 9.27817 5.75951 10.5053C7.62694 13.4305 12.3096 20.0399 24.1799 35.8904L49.1871 21.0977C42.5608 16.3219 37.2858 12.2796 32.6426 9.3769C27.7991 6.34163 23.7455 4.57011 19.4521 4.81835C16.5833 4.98478 11.1615 5.72667 7.45204 7.20482C6.61706 7.53486 5.8808 7.89876 5.31945 8.31907C5.12199 8.46575 4.87939 8.73938 4.80323 8.82965Z" fill="var(--fill-0, #4356B1)"/>
  </g>
  <g transform="translate(308.859, 414.242)">
    <path id="f3p18-Vector" fill-rule="evenodd" clip-rule="evenodd" d="M24.9021 0.602774C25.8894 -0.274521 27.4071 -0.184253 28.2787 0.808699C29.1589 1.79883 29.0686 3.31647 28.0756 4.19376C15.833 15.0373 14.1771 16.1402 4.89639 20.9103C5.80754 29.7679 11.6665 34.854 18.5805 32.2362C30.8514 27.5846 36.1123 20.5634 39.9149 16.7157C40.8402 15.7735 42.3578 15.765 43.3 16.6959C44.2393 17.624 44.2478 19.1445 43.3225 20.0866C39.2294 24.2305 33.5002 31.7115 20.2731 36.7214C14.967 38.7327 9.96553 37.7144 6.21657 34.4647C2.69328 31.4125 0.258849 26.2672 0.00214796 19.5902C-0.0373448 18.6565 0.470416 17.7876 1.3054 17.3617C11.438 12.1712 12.5777 11.5196 24.9021 0.602774Z" fill="var(--fill-0, #4356B1)"/>
  </g>
</svg>