<svg viewBox="0 0 393 852" xmlns="http://www.w3.org/2000/svg" overflow="visible">
  <g transform="translate(69.522, 541.02)">
    <path id="f1p1-Vector" fill-rule="evenodd" clip-rule="evenodd" d="M1.50461 2.58021C1.53414 2.56283 1.56367 2.5472 1.59667 2.5333C1.67658 2.49682 1.75475 2.47424 1.83813 2.46382L1.76344 2.25363C1.61404 1.82977 1.8086 1.36074 2.21683 1.1714C2.44613 1.06543 2.69628 1.0689 2.91689 1.15924L3.02459 1.08975L3.32164 1.02721L3.59264 1.06022L3.81325 1.15924L3.9887 1.30168L4.11725 1.47366C4.22148 1.64737 4.62449 2.46034 5.02403 3.27332C5.27071 3.76666 5.56254 4.34513 5.7241 4.67344C5.79879 4.74988 5.85786 4.84195 5.89955 4.94444C5.94992 5.07646 5.97424 5.15984 5.9864 5.19806L6.01246 5.43952L5.96729 5.62886C6.14969 6.02667 6.35468 6.47311 6.58745 6.97688L5.01187 1.85582C4.88332 1.43196 5.09178 0.975099 5.50348 0.801387C5.77447 0.686736 6.07152 0.719742 6.3043 0.865661C6.3043 0.561663 6.46585 0.269826 6.74553 0.113484C7.12422 -0.101919 7.6002 -0.0029032 7.86077 0.344522L8.63553 1.36595C8.65637 1.31037 8.68591 1.25651 8.71891 1.20614C8.93953 0.883032 9.34949 0.745799 9.7195 0.874346C10.694 1.20961 11.5522 1.50492 12.3269 1.76723C12.5232 1.663 12.7612 1.63695 12.9853 1.70817L26.5714 5.97976C27.0213 6.12221 27.2749 6.60166 27.1412 7.05678C27.0092 7.51017 26.5332 7.77248 26.0746 7.64567C25.3919 7.45459 24.7631 7.27914 24.1829 7.11758L24.4261 7.23397L24.1377 8.48296L24.2958 8.5594C24.2506 8.35615 24.2749 8.1338 24.3844 7.93924C24.6137 7.52928 25.1209 7.37468 25.5378 7.58834L26.6826 8.17897C26.6826 8.03305 26.7173 7.88366 26.7955 7.74816C27.0196 7.34167 27.5251 7.18533 27.942 7.39379L46.2305 16.5762C46.6457 16.7864 46.8264 17.2937 46.6249 17.7193C46.4251 18.1466 45.9265 18.336 45.4922 18.1483L45.4262 18.1188C45.421 18.1362 45.4141 18.1553 45.4089 18.1727L45.2386 18.6208L46.7499 19.2202C46.8958 19.1889 47.047 19.1941 47.1964 19.2427C47.4344 18.9266 47.8634 18.805 48.2386 18.9683C48.6 19.1263 48.805 19.5103 48.7511 19.8907L49.5206 20.2155C49.6092 20.2259 49.6926 20.2503 49.776 20.2885C49.842 20.318 49.9011 20.3528 49.9497 20.3962L53.82 22.0187C54.263 22.2028 54.4697 22.7066 54.2908 23.1478C54.1501 23.4952 53.8079 23.7019 53.4535 23.688L52.6701 24.1189C52.6614 24.1449 52.6527 24.171 52.6405 24.197C52.4651 24.5931 52.036 24.7946 51.6295 24.6904L50.417 25.3557C50.7662 25.3435 51.0997 25.5416 51.2456 25.8803C51.4367 26.3215 51.2335 26.8322 50.7905 27.0216L45.4506 29.3215C45.3585 29.3841 45.2543 29.4275 45.15 29.4501L40.4424 31.4756L40.1089 32.0749C39.8883 32.4744 39.3966 32.6342 38.9849 32.4414C38.872 32.3893 38.7765 32.3146 38.6966 32.226L38.3561 32.3737C38.3214 32.3893 38.2849 32.4032 38.2467 32.4136L36.5773 33.1311C36.4731 33.2023 36.3567 33.2527 36.2351 33.277L36.1691 33.3065L30.8934 36.0286L31.7602 37.1074C32.0399 37.4548 32.0104 37.9568 31.6942 38.2695C31.3763 38.5839 30.876 38.6065 30.5303 38.3216C19.2998 29.0314 19.2407 29.2243 18.4086 28.281C15.7751 25.307 14.0258 21.6243 11.3958 18.6504C11.0884 18.3029 11.1057 17.7766 11.4375 17.4535C11.6668 17.2294 11.9882 17.1582 12.28 17.2381C11.7589 16.5172 11.2378 15.7997 10.7045 15.091C10.6541 15.2282 10.5724 15.3533 10.4543 15.4506C10.5255 15.6 10.5915 15.7511 10.6628 15.904C10.6628 15.9074 10.668 15.9092 10.668 15.9109C10.8625 16.3469 10.6767 16.8594 10.2389 17.0609C9.80462 17.2607 9.29216 17.0713 9.08892 16.637V16.6318L8.26378 14.8634C8.24641 14.9069 8.22557 14.9486 8.20125 14.9902C8.18909 15.0059 8.1804 15.0215 8.16824 15.0389C8.00495 15.2647 7.74264 15.3985 7.4647 15.3985L6.68473 14.9138L5.58165 12.666C5.24812 12.6903 4.91807 12.5218 4.75304 12.2108L0.10274 3.58427C-0.117875 3.17083 0.0280437 2.65664 0.432795 2.42039C0.790644 2.21367 1.23709 2.28837 1.50287 2.58194L1.50461 2.58021ZM24.4278 30.7564L17.6408 24.4559C18.287 25.38 18.961 26.2816 19.7115 27.1258C20.3195 27.8172 20.5158 27.8797 25.1313 31.6371L24.4278 30.7582V30.7564ZM43.8454 17.4309L42.8622 17.0036C42.8622 17.08 42.8535 17.1547 42.8327 17.2311C42.9734 17.2225 43.1158 17.2468 43.2479 17.3076C43.4442 17.3962 43.5936 17.5508 43.6769 17.7332L43.8402 17.4396C43.8402 17.4396 43.8437 17.4344 43.8437 17.4309H43.8454ZM34.0098 29.4362L33.6763 29.1409L32.8755 30.4924L34.0098 29.4362ZM38.9572 16.4373L39.8205 17.278C39.8744 17.2919 39.9282 17.311 39.9821 17.3371C40.5744 17.6237 41.1077 17.8826 41.5941 18.1205C41.6983 18.1084 41.8026 18.1171 41.9068 18.1431L42.0284 17.8878C41.8825 17.8947 41.7314 17.8635 41.5941 17.7922L38.9572 16.4373ZM19.1486 9.19345C18.8916 9.58604 18.3617 9.70069 17.9622 9.44707V9.44533L17.1197 8.91204L19.3154 10.7308L19.5117 10.0499L23.1979 12.3932L19.1486 9.19345ZM30.817 15.8675L31.8749 16.9549L31.3259 16.1611L30.817 15.8675ZM12.4503 12.5722L14.1249 14.4014L12.6031 12.0667L12.6744 12.2369L12.4503 12.5722ZM10.5585 6.96819C10.5742 6.96298 10.5915 6.95777 10.6089 6.95256L10.4925 6.79969L10.5585 6.96819ZM28.9687 32.5734L29.6305 31.1629C29.4811 31.0309 29.33 30.9006 29.1841 30.772C28.9339 30.9857 28.5795 31.0483 28.2634 30.9075C27.8517 30.7234 27.6519 30.2544 27.7961 29.8288L27.8673 29.6273C27.4556 29.266 27.063 28.9255 26.693 28.6024C26.6669 28.7848 26.5801 28.9602 26.4394 29.0975C26.2136 29.3111 25.9009 29.3823 25.6229 29.3111C26.5923 30.2579 27.7005 31.3401 28.9687 32.5752V32.5734ZM30.5182 19.1072L30.4174 19.6249L30.7631 19.9306L31.0219 19.4269L30.5164 19.1072H30.5182ZM16.4995 8.52118L16.3032 8.39611L16.3953 8.50381C16.4318 8.50728 16.4665 8.5125 16.4995 8.51944V8.52118ZM39.2334 20.292L38.945 21.0841L39.4366 21.1953L39.7406 20.655L39.2334 20.292ZM23.448 20.4726L23.5523 20.1756L22.2564 19.0325L23.448 20.4726ZM22.1608 21.64L22.7028 22.6093L22.7775 22.3904L22.1608 21.64ZM27.2767 25.1073L26.8024 23.1408L26.2605 23.8791L27.2767 25.1073Z" fill="var(--fill-0, #4375C4)"/>
  </g>
  <g transform="translate(67.164, 538.038)">
    <g id="f1p2-Group">
<path id="f1p2-Vector" fill-rule="evenodd" clip-rule="evenodd" d="M31.5207 42.0374C30.8484 41.5389 9.31664 19.8595 3.83947 12.9649C2.85799 11.7333 1.31542 9.84152 0.538921 7.95153C-0.119452 6.336 -0.232366 4.71352 0.525023 3.32556C1.25462 1.98449 2.90316 0.730288 6.22281 0.143139C9.30275 -0.40232 13.7429 0.636483 19.0602 2.827C30.7355 7.63363 47.0193 17.8983 62.6292 26.4432C63.1243 26.7125 63.4196 27.2371 63.3953 27.7999C63.3727 28.361 63.0357 28.8596 62.5215 29.0872L32.999 42.2007C32.5126 42.4161 31.9463 42.3536 31.5207 42.0374ZM32.6863 39.1086L58.6112 27.595C46.1126 20.6447 33.3863 12.8485 23.1129 7.88725C16.1401 4.5207 10.3954 2.40314 6.73179 3.05109C4.70282 3.40894 3.56327 3.91965 3.11509 4.73958C2.77287 5.36842 2.96917 6.09801 3.26969 6.83108C3.93675 8.45877 5.30213 10.0656 6.14812 11.1253C11.0607 17.3129 29.1373 35.6535 32.6863 39.1086Z" fill="var(--fill-0, #4356B1)"/>
</g>
  </g>
  <g transform="translate(64.727, 549.114)">
    <path id="f1p3-Vector" fill-rule="evenodd" clip-rule="evenodd" d="M1.62446 49.8078C1.46464 49.4569 1.55671 49.0295 1.86592 48.7759C2.0709 48.6091 2.27067 48.4458 2.46175 48.2895C2.20292 48.2773 1.9493 48.1471 1.78948 47.916C1.52023 47.5252 1.61056 46.9884 1.99968 46.7139L16.6263 36.3137L16.6298 36.3103C16.9008 36.1192 17.2378 36.1036 17.5123 36.2373C21.0039 34.0763 24.3461 31.6721 27.9194 29.6519C32.7313 26.9298 48.2786 20.0681 53.5734 18.8417C55.2063 17.9315 56.8392 17.0264 58.4981 16.1683C66.7582 11.8949 72.2493 10.1839 72.9615 9.8764C73.0536 9.83644 73.1456 9.81386 73.2412 9.80517L82.8023 3.93889C83.2019 3.69222 83.7282 3.81035 83.9819 4.20641C84.2389 4.60074 84.1365 5.12883 83.7491 5.39461L79.712 8.17401L90.1226 3.41428C90.4926 3.24578 90.9269 3.35869 91.1684 3.6679C91.5384 3.53067 91.964 3.66443 92.1898 3.99969C92.3983 4.31238 92.3757 4.7206 92.1551 5.0107C96.2634 2.99911 97.6791 2.40675 104.332 0.0494646C104.749 -0.0981912 105.217 0.0946298 105.404 0.495906C105.533 0.770372 105.508 1.07958 105.362 1.32278L106.924 0.74779C107.353 0.589711 107.827 0.789481 108.015 1.20118C108.098 1.38879 108.116 1.5903 108.065 1.77443L110.02 1.15601C110.457 1.01704 110.928 1.24461 111.095 1.67542C111.095 1.6841 111.098 1.69279 111.102 1.69974L111.507 1.55729C111.936 1.40269 112.41 1.60941 112.594 2.02979C112.773 2.45018 112.598 2.93831 112.195 3.14676L111.191 3.66443L111.562 3.55151C111.983 3.42297 112.433 3.62968 112.606 4.0327C112.728 4.31064 112.695 4.62332 112.537 4.86305L112.874 4.73971C113.223 4.60943 113.61 4.72234 113.84 5.00028C113.961 5.00723 114.086 5.01418 114.211 5.02112L114.486 4.73624C114.76 4.45135 115.195 4.38881 115.54 4.58511C115.785 4.72408 115.945 4.96901 115.973 5.23827C116.169 5.36855 116.31 5.57701 116.348 5.82194C116.414 6.22495 116.19 6.61928 115.811 6.76867L115.598 6.85206L115.594 6.86422L116.586 7.42878L116.897 6.87464L116.786 6.70788L116.944 6.79126L117.168 6.38824C117.168 6.38824 117.173 6.38303 117.173 6.37956L116.557 5.44151C116.306 5.05934 116.393 4.54689 116.756 4.27068C117.123 3.99448 117.639 4.05007 117.939 4.39576L120.418 7.26549C120.493 7.02577 120.672 6.82079 120.922 6.72177C121.339 6.55501 121.813 6.7322 122.016 7.13173L123.159 9.36568L122.98 8.06284C122.918 7.60597 123.222 7.18037 123.675 7.09178C124.125 7.00319 124.572 7.2846 124.683 7.73278L126.25 13.9482C126.337 14.0889 126.384 14.2557 126.378 14.4346V14.4555L126.733 15.8573C127.132 15.972 127.395 16.3594 127.355 16.778L127.203 18.2876C127.459 18.0895 127.808 18.0392 128.112 18.1833C128.511 18.371 128.708 18.8296 128.567 19.2482L128.532 19.3385C128.579 19.3594 128.621 19.3837 128.663 19.415C129.036 19.686 129.132 20.2071 128.878 20.5962L120.347 33.5691C120.083 33.9669 119.555 34.0798 119.155 33.8244C118.756 33.5691 118.634 33.041 118.881 32.6362L119.372 31.8424C119.331 31.865 119.293 31.8875 119.256 31.9101L118.113 33.0445C117.851 33.305 117.463 33.3641 117.144 33.2182L114.677 35.5789C114.338 35.902 113.81 35.902 113.473 35.5772C113.398 35.5042 113.339 35.4191 113.294 35.3288C110.953 36.6316 108.745 37.7868 107.511 38.2576C107.044 38.4348 106.677 38.5216 106.448 38.5338L106.153 38.5129C96.821 41.9698 94.6218 42.7967 84.364 46.5333C84.2598 46.6427 84.1278 46.7278 83.9732 46.773C83.4816 46.9189 83.0021 47.0614 82.54 47.1986C81.5933 47.5408 80.5858 47.9073 79.507 48.2999C79.2951 48.3781 79.0658 48.3659 78.8695 48.2826C74.3043 49.6375 71.2799 50.553 68.4172 51.465C63.8311 53.0475 60.1571 54.333 51.1866 57.3017C50.7505 57.4476 50.278 57.2236 50.1078 56.7997C48.534 57.3 46.7794 57.8576 44.7713 58.4917C44.6341 58.5368 44.4882 58.542 44.3544 58.5177C44.1216 58.6028 43.8837 58.6897 43.6457 58.7783C43.201 58.9416 42.7041 58.714 42.5339 58.2676C42.5044 58.1824 42.4835 58.0956 42.48 58.0105C39.1552 58.7592 36.7805 59.2039 34.2148 59.5999C33.0318 59.8744 31.7064 60.1871 30.2072 60.5467C30.0283 60.5901 29.8442 60.5727 29.6861 60.5085C27.9854 60.8663 26.2622 61.2242 23.8788 61.8269C23.4289 61.9416 22.9669 61.6775 22.8331 61.2294C22.741 60.9097 22.8366 60.5797 23.0624 60.3608C21.1255 60.6127 19.7462 60.6457 18.6709 60.5866C13.1017 61.7001 10.6523 61.4882 9.08543 61.7766C8.63899 61.8582 8.20645 61.582 8.09006 61.1425C7.97367 60.703 8.21513 60.2496 8.6442 60.1002C9.55272 59.7858 10.4439 59.4245 11.3263 59.0475C10.7722 59.0058 10.2146 58.9867 9.66043 59.0163C9.35643 59.0319 9.07675 58.8877 8.90651 58.6549C8.52782 58.7018 8.13522 58.7505 7.727 58.7974C6.98177 59.0527 6.24523 59.3168 5.51042 59.5999C5.08135 59.7667 4.59495 59.5652 4.40734 59.1431C4.21973 58.7227 4.38997 58.2294 4.79819 58.0192L4.78951 57.9775L4.81904 57.6804L4.91458 57.4459L4.97712 57.3608C4.66965 57.4233 4.33612 57.3139 4.12245 57.0481C3.92268 56.7945 3.8862 56.4627 4.00259 56.1813C3.86883 56.1239 3.74897 56.0336 3.6569 55.912C3.60652 55.8425 3.56483 55.7696 3.5353 55.6931C3.13576 55.9068 2.71016 56.1309 2.26546 56.3706C1.86939 56.5826 1.37778 56.4592 1.13111 56.084C0.886174 55.7088 0.966083 55.2085 1.31525 54.9271C2.28109 54.154 3.14445 53.4644 3.92268 52.8425C3.90184 52.8182 3.88099 52.7921 3.86014 52.7661C3.80629 52.6914 3.7646 52.6132 3.73681 52.5298C3.37722 52.8008 2.99853 53.0892 2.59378 53.3932C2.21855 53.6763 1.68178 53.6086 1.38994 53.2368C1.2197 53.0197 1.16933 52.7452 1.22839 52.4968C0.87054 52.6601 0.441469 52.5628 0.186111 52.2467C-0.0918301 51.8923 -0.0553502 51.3799 0.274705 51.0724L1.62446 49.8078ZM7.45601 55.9502C7.41084 55.8547 7.38478 55.7539 7.3761 55.6532C7.04778 55.9033 6.70209 56.1656 6.33556 56.4401C6.65171 56.2925 7.03215 56.1274 7.45601 55.9502ZM109.969 35.162C109.886 35.1221 109.811 35.0682 109.74 35.0022C109.466 34.733 109.407 34.3213 109.568 33.9912C109.353 34.2448 109.148 34.5071 108.948 34.7781C108.918 34.8372 108.877 34.8928 108.832 34.9431C108.627 35.2315 108.43 35.5268 108.239 35.8239C108.602 35.7127 108.972 35.5963 109.356 35.4764C109.365 35.473 109.368 35.4712 109.377 35.4695C109.568 35.3705 109.768 35.268 109.968 35.162H109.969ZM125.353 22.7972C125.324 22.8232 125.3 22.8493 125.27 22.8718C125.275 22.8823 125.279 22.8927 125.284 22.9031L125.353 22.7972ZM115.118 8.59266L114.91 9.35178L115.521 9.32225L115.735 8.94182L115.118 8.59266ZM105.691 36.6195C105.774 36.4927 105.852 36.3659 105.936 36.2373L103.083 37.4255C103.888 37.1788 104.749 36.9113 105.691 36.6195ZM81.6697 44.8222C80.5319 45.2356 79.2899 45.6873 77.9332 46.1841C78.9355 45.9166 80.0108 45.6282 81.1694 45.3138C81.291 45.2825 81.4109 45.2756 81.5273 45.2947C81.569 45.2721 81.6107 45.2478 81.6524 45.2252C81.628 45.0897 81.6315 44.9507 81.6697 44.8222ZM114.427 11.115L114.343 11.4207L114.519 11.1098L114.427 11.115ZM82.5557 10.4879C82.7659 10.5643 82.9431 10.7189 83.0438 10.936C83.0473 10.9413 83.0525 10.9482 83.0525 10.9552C83.1359 10.9204 83.2175 10.8839 83.3026 10.8492L84.3484 9.88335C83.7473 10.0779 83.148 10.2777 82.5557 10.4879ZM18.8255 37.7608C18.8794 37.8059 18.9245 37.8563 18.9662 37.9154C19.0548 38.0335 19.1035 38.1655 19.1208 38.301C19.4335 38.0821 19.7584 37.8546 20.0919 37.6201C20.3038 37.4707 20.5627 37.4307 20.7954 37.488C21.9993 36.6629 23.3073 35.7752 25.2199 34.6079C23.2292 35.5876 21.0994 36.6351 18.8255 37.7608ZM17.5592 42.312C18.287 41.7492 19.1799 41.0752 20.25 40.3039C19.3779 40.7573 18.4573 41.2333 17.4914 41.7353C17.5835 41.9177 17.6043 42.121 17.5592 42.312ZM76.4444 45.3642C76.1578 45.4806 75.866 45.5987 75.5707 45.7186C75.8451 45.7985 76.071 46.0104 76.1613 46.3022C76.196 46.4169 76.203 46.5333 76.1908 46.6462C76.5452 46.5524 76.9083 46.4568 77.2783 46.3578C76.9413 46.3491 76.6251 46.1424 76.4948 45.8089C76.4375 45.663 76.4201 45.5101 76.4444 45.3642ZM122.755 21.7809C122.742 21.7062 122.725 21.6315 122.708 21.5551L121.5 22.9344L122.755 21.7809ZM124.304 17.7039L124.275 17.492C123.899 17.6483 123.462 17.5198 123.229 17.1793L122.529 16.1596L123.54 18.3449C123.745 18.4074 123.924 18.5429 124.037 18.7392C124.123 18.8904 124.162 19.0571 124.15 19.2187C124.153 19.2204 124.153 19.2204 124.153 19.2221L124.302 17.7039H124.304ZM30.44 46.8824C30.3827 46.7365 30.3601 46.575 30.3896 46.4099L30.5147 45.6873C30.2941 45.8158 30.0769 45.9461 29.8563 46.0764C29.5697 46.271 29.2935 46.4568 29.0364 46.6375C29.2396 46.7174 29.4186 46.8755 29.5141 47.0961C29.5436 47.1604 29.5645 47.2281 29.5766 47.2941L30.44 46.8807V46.8824ZM31.0115 52.5837C31.0115 52.5489 31.015 52.5177 31.0237 52.4847C31.0063 52.4916 30.9854 52.4968 30.9698 52.5038C30.7909 52.5872 30.6154 52.6688 30.4487 52.7487C30.6398 52.6914 30.8274 52.6375 31.0115 52.5837ZM121.876 18.8782L121.768 18.6402L121.304 19.1474L121.876 18.8782ZM92.1255 10.8978C91.7972 11.1775 91.4758 11.4468 91.1684 11.7073C91.2048 11.6882 91.2379 11.6656 91.2726 11.6448C91.2761 11.6448 91.2761 11.6448 91.2761 11.6431C91.3386 11.6066 91.4011 11.5788 91.4672 11.5597L92.3722 10.8144L92.1255 10.8978ZM45.9491 53.996C46.5953 53.8396 47.2867 53.6729 48.0371 53.4922C49.1454 53.1257 50.3249 52.7313 51.5826 52.304C52.6336 51.9479 53.391 51.6995 54.3777 51.4059C54.1779 51.3243 54.0077 51.1662 53.9121 50.9525C53.9034 50.9282 53.8913 50.9021 53.8826 50.8778C51.3238 51.6039 48.6121 52.3943 45.2456 53.3897C45.5704 53.4383 45.8501 53.6711 45.9508 53.996H45.9491ZM112.794 20.6084C112.702 20.4034 112.69 20.1654 112.777 19.9431L112.943 19.5053L111.701 20.0351C111.439 20.6692 111.173 21.305 110.893 21.9303L112.794 20.6084ZM116.51 18.0235L116.642 17.928L116.534 17.9749C116.527 17.9905 116.518 18.0062 116.51 18.0235ZM118.452 15.2702L118.297 13.7971L117.75 14.749L117.846 14.9314L117.901 15.1138L117.892 15.4543L117.866 15.5186L118.45 15.2702H118.452ZM107.708 24.1452C108.39 23.1706 108.927 22.1058 109.41 21.0096L108.607 21.3536C108.382 21.5013 108.161 21.6454 107.944 21.7914L101.013 28.8319C101.058 28.8163 101.103 28.8024 101.145 28.7885C101.207 28.6964 101.284 28.6148 101.379 28.5488L107.708 24.1452ZM100.525 31.9727C99.5448 32.506 98.5338 33.0618 97.4881 33.6403C96.6907 34.0781 95.9663 34.4776 95.2871 34.8441C96.4875 34.422 97.8337 33.9478 99.3416 33.4127C99.7168 32.9177 100.111 32.4399 100.525 31.9727ZM104.595 11.5805C103.737 12.4665 102.845 13.4497 101.942 14.5336C103.069 13.9778 103.987 13.5539 104.636 13.2551C104.899 13.0067 105.175 12.7427 105.465 12.4612L106.04 11.511L104.595 11.5805ZM32.6739 45.8193L32.6687 45.2669L32.4099 45.9444L32.6739 45.8176V45.8193ZM52.7118 26.5441C51.8901 27.0027 51.1032 27.4492 50.3493 27.8887L52.0985 27.0218C52.307 26.862 52.512 26.7022 52.7118 26.5441ZM37.2183 41.7093L37.6143 42.828C38.1841 42.048 38.7417 41.2611 39.3098 40.4811C38.6132 40.8893 37.9183 41.2993 37.2183 41.7093ZM81.0357 39.9148C81.0808 39.8992 81.1312 39.8818 81.1781 39.8662C81.9981 39.4718 82.7311 39.1262 83.4103 38.8065C83.4312 38.7822 83.452 38.7596 83.4729 38.7388C83.5059 38.7075 83.5354 38.6762 83.5649 38.645C82.7937 38.9715 82.0571 39.2825 81.3397 39.5848L81.0357 39.9148ZM96.1331 19.6165C95.8621 19.7728 95.5911 19.9309 95.3166 20.0942C95.5546 19.9986 95.7961 19.9031 96.0375 19.8058C96.0619 19.7468 96.0949 19.6842 96.1331 19.6165ZM97.0833 15.2337C96.3537 15.6159 95.5876 16.0171 94.7747 16.441C94.9414 16.481 95.0925 16.5695 95.2089 16.6946C96.0584 16.0345 96.6421 15.5811 97.0833 15.2337ZM71.9001 21.3953C71.4623 21.6229 71.0385 21.8452 70.6164 22.0641C70.0084 22.6113 69.416 23.1446 68.8341 23.6657C69.5585 23.3808 70.2828 23.0977 71.0072 22.8163C70.9412 22.5209 71.0281 22.1996 71.2661 21.9807L71.9001 21.3953ZM41.9381 39.8471C42.7788 39.0358 43.5675 38.2958 44.3127 37.6149C43.9636 37.8111 43.6127 38.0074 43.267 38.2055C42.8084 38.7405 42.3671 39.2894 41.9381 39.8471ZM76.9534 31.3855C76.9951 31.3317 77.0368 31.2795 77.082 31.2274C77.1445 31.1493 77.207 31.0728 77.2748 30.9964C77.287 30.92 77.3078 30.8435 77.3356 30.7723C75.2146 31.686 73.2499 32.5511 71.3077 33.4284C71.2608 33.477 71.2209 33.5257 71.174 33.576C73.0605 32.8395 74.987 32.1082 76.9534 31.3855ZM70.9794 30.0531C71.7333 29.6849 72.4456 29.3426 73.1283 29.0213C73.1995 28.9535 73.2707 28.8858 73.3454 28.818C71.6708 29.4851 70.1751 30.0861 68.7889 30.6559C67.2759 31.4081 65.7976 32.1481 64.3592 32.876C66.3847 32.0005 68.5839 31.0607 70.9794 30.0531ZM68.2209 25.7833C68.2209 25.7798 68.2261 25.7763 68.2261 25.7729C67.1421 26.2071 66.0599 26.6501 64.9846 27.1087C64.5729 27.4804 64.1629 27.8435 63.7634 28.1996C65.1514 27.437 66.6175 26.6449 68.2209 25.7833ZM57.8432 43.3144L63.2978 41.7544C63.3604 41.5911 63.4524 41.4035 63.5723 41.1968C63.6765 41.0196 63.7808 40.8442 63.8798 40.6705C61.618 41.6241 59.6186 42.5031 57.8432 43.3144ZM66.647 39.5222C66.4629 39.8002 66.284 40.0833 66.1016 40.3699C66.6349 39.993 67.2585 39.5309 67.9968 38.9733C67.5382 39.1592 67.0883 39.3416 66.647 39.5222ZM70.3801 39.3224C71.0923 39.0549 71.8046 38.7926 72.5168 38.5286C72.8364 37.9901 73.1456 37.4446 73.4531 36.8974C72.2996 37.8198 71.2782 38.6241 70.3784 39.3224H70.3801ZM84.0861 28.858C85.7728 28.2847 87.4822 27.7202 89.2054 27.1712C90.1261 26.3895 91.1354 25.521 92.2645 24.5412C92.2801 24.5169 92.301 24.4943 92.3218 24.4717C89.6484 25.5852 87.265 26.5789 85.0901 27.4891C84.7861 27.906 84.4526 28.3594 84.0861 28.858ZM83.5198 34.66L83.631 34.5384C83.5736 34.5853 83.5198 34.6322 83.4607 34.6791C83.4816 34.6722 83.4989 34.6652 83.5198 34.66ZM75.0078 37.6253C75.291 37.5228 75.5741 37.422 75.8625 37.3195C76.342 36.6334 76.7953 35.9854 77.2331 35.367C77.0715 35.4278 76.9083 35.4886 76.7328 35.5546C76.5 35.6432 76.2707 35.7318 76.0414 35.8187C75.6871 36.4145 75.35 37.019 75.0078 37.6253ZM79.9656 34.5193C80.0559 34.4498 80.148 34.3786 80.2401 34.3108C80.181 34.3299 80.1272 34.3508 80.0681 34.3699C80.0351 34.4185 79.9986 34.4689 79.9639 34.5193H79.9656Z" fill="var(--fill-0, #719DE3)"/>
  </g>
  <g transform="translate(168.715, 553.459)">
    <path id="f1p4-Vector" fill-rule="evenodd" clip-rule="evenodd" d="M1.4783 9.39395C1.553 9.26888 1.65722 9.16118 1.79446 9.08301L4.14132 7.73326C4.10658 7.69157 4.07878 7.64466 4.04925 7.59429C3.83732 7.18432 3.9815 6.68056 4.37931 6.44431L15.0262 0.121164C15.4309 -0.118559 15.9556 0.00825122 16.2057 0.406053C16.4558 0.805592 16.3429 1.33194 15.9469 1.59251L15.1686 2.11018C15.2364 2.17619 15.2937 2.25262 15.3389 2.34121C15.4692 2.59136 15.4639 2.87625 15.3528 3.11424C15.5525 3.18546 15.7315 3.33311 15.8357 3.53636C16.0355 3.93068 15.9104 4.41361 15.5386 4.65854L14.9306 5.05808C14.9515 5.07198 14.9689 5.08587 14.9845 5.10151L15.4136 4.88784L15.8027 6.53464L15.9764 6.486L16.9648 6.03782L16.6139 5.65739C16.3151 5.32907 16.3099 4.82704 16.607 4.49351C16.9023 4.15999 17.3974 4.1044 17.7604 4.36497C18.5439 4.9278 19.2856 5.54621 20.0691 6.10904C20.7882 6.63018 21.0645 7.09921 21.1357 7.47269L21.1652 7.74021L21.1392 8.00078L21.0262 8.34646C20.9845 8.43679 20.9307 8.52886 20.8647 8.62267C20.6145 8.98573 20.0778 9.387 19.4767 9.9811C19.4889 9.98458 19.5028 9.98805 19.5149 9.99326C19.8259 10.0975 20.0517 10.3702 20.0969 10.6951C20.1438 11.0216 20.0013 11.343 19.7303 11.5306L19.2891 11.8364C19.2266 11.9875 19.1189 12.123 18.9729 12.2203L10.5114 17.9059C10.1153 18.1717 9.58202 18.0674 9.31102 17.6731C9.04351 17.2788 9.14426 16.742 9.53685 16.471L10.7945 15.6007L6.5403 17.3483C6.12339 17.5185 5.64394 17.343 5.43548 16.94C5.33126 16.7368 5.31562 16.5092 5.37816 16.3025L4.81185 16.5752L4.43142 16.6604L3.9954 15.0431L4.28724 14.8711C4.26118 14.8364 4.23686 14.7982 4.21602 14.7565C4.1448 14.6279 4.11526 14.4872 4.11526 14.35C3.94155 14.4872 3.72094 14.5602 3.48295 14.5358C3.2328 14.5081 3.02087 14.3795 2.87843 14.1919C2.8072 14.1815 2.74119 14.1641 2.67866 14.138C1.71976 14.1467 1.18299 14.0651 0.887674 13.9574L0.554145 13.7924L0.250147 13.5214L0.116388 13.3077L0.0330055 13.0888L0 12.6181C0.145919 10.9678 0.833823 9.97415 1.4783 9.39569V9.39395ZM18.2295 8.77206C18.1218 8.76685 18.0088 8.76337 17.9046 8.75643C17.9758 8.79638 18.0384 8.84502 18.0974 8.90408C18.1426 8.85892 18.1878 8.81375 18.2295 8.77206Z" fill="var(--fill-0, #DDEAFF)"/>
  </g>
  <g transform="translate(101.905, 584.642)">
    <path id="f1p5-Vector" fill-rule="evenodd" clip-rule="evenodd" d="M7.21804 0.327777C7.48556 0.282612 7.76871 0.362519 7.97196 0.5675C8.15088 0.744687 8.23948 0.982674 8.23079 1.21719L8.57648 0.94272C8.92564 0.668254 9.43115 0.702996 9.73862 1.02263C10.0305 1.32489 10.0635 1.79218 9.822 2.13092C10.1799 1.87903 10.6715 1.93115 10.9685 2.2612C11.2725 2.60168 11.2586 3.12282 10.939 3.4494L9.32692 5.09446L10.6471 4.28322C10.5881 4.32143 10.5308 4.36486 10.4839 4.4135L10.4925 4.40655C10.4456 4.45172 10.4057 4.50209 10.3709 4.55595C10.3292 4.61501 10.3015 4.67928 10.2806 4.74703C10.2302 4.89121 10.2215 5.04929 10.2511 5.20216C10.2545 5.22127 10.258 5.24037 10.2667 5.25948C10.2754 5.29075 10.2841 5.32202 10.2962 5.35329C10.43 5.67813 10.7462 5.8918 11.1005 5.8918L11.7137 5.63991L8.47573 8.84318L9.35471 8.69031C9.82548 8.60693 10.2754 8.92308 10.3588 9.39558C10.4422 9.86808 10.126 10.318 9.65003 10.3996L6.04201 11.0302C5.66679 11.0962 5.29678 10.9104 5.12133 10.5734C4.97193 10.2815 5.00146 9.93409 5.18386 9.67352L4.20933 10.2711C3.83411 10.5021 3.35119 10.4153 3.07672 10.0731C2.80573 9.72911 2.83005 9.23577 3.13405 8.92308L3.19658 8.86229C3.13405 8.82581 3.07499 8.78064 3.02635 8.72679C2.71714 8.40716 2.69629 7.90339 2.98465 7.56291L3.00897 7.53512L2.09698 8.25255C1.74261 8.53223 1.23015 8.49228 0.926154 8.16222C0.905309 8.14311 0.889674 8.12227 0.872303 8.10142C0.651687 8.10316 0.431072 8.01978 0.259096 7.85301C-0.069222 7.52991 -0.0900677 7.00182 0.222616 6.65613L5.8874 0.291297C6.1914 -0.050917 6.70906 -0.0978193 7.07039 0.183595C7.12598 0.227024 7.17462 0.275663 7.21631 0.329514L7.21804 0.327777Z" fill="var(--fill-0, #DDEAFF)"/>
  </g>
  <g transform="translate(119.393, 578.508)">
    <path id="f1p6-Vector" fill-rule="evenodd" clip-rule="evenodd" d="M6.86137 0.744717L7.31476 0.527576C7.7143 0.336492 8.19375 0.4772 8.42826 0.852419C8.66104 1.22764 8.57418 1.71925 8.22849 1.99371L7.68998 2.41583C7.93318 2.47316 8.14511 2.63645 8.26497 2.87096C8.44389 3.23055 8.35356 3.6683 8.04435 3.9254L7.8359 4.10259L8.53249 3.77253C8.94071 3.57971 9.42711 3.73258 9.65294 4.12343C9.87703 4.51428 9.76411 5.01284 9.39758 5.27167L9.2725 5.35679C9.50181 5.41238 9.70158 5.5583 9.82665 5.77544C10.0403 6.15413 9.93956 6.63358 9.5904 6.89415C8.74442 7.53515 7.93144 7.72797 7.29044 7.88431C7.14452 7.92079 6.94128 7.98854 6.85268 8.01981C6.85268 8.12056 6.85789 8.36897 6.90306 8.58959C6.9986 9.05861 6.6946 9.51895 6.22384 9.61449C5.75308 9.71003 5.29621 9.40604 5.19893 8.93701C5.1833 8.85189 5.17114 8.76851 5.15898 8.6886L3.51218 9.34176C3.10048 9.50505 2.63319 9.33481 2.42473 8.9457C2.37088 8.83973 2.33788 8.72682 2.32572 8.61391C1.96266 8.7164 1.56659 8.57221 1.35814 8.24563C1.12536 7.87736 1.20006 7.39271 1.53359 7.11129L1.92097 6.78818C1.62565 6.8125 1.32166 6.68396 1.13752 6.42513C0.96207 6.17845 0.932539 5.86751 1.03677 5.60346C0.892585 5.57393 0.758825 5.50792 0.645912 5.41064C0.433982 5.35505 0.241161 5.21782 0.121298 5.01458C-0.108003 4.62894 -0.00377519 4.13038 0.36276 3.86807L5.49598 0.164517C5.87468 -0.111686 6.40798 -0.0317788 6.69113 0.341704C6.78667 0.463303 6.84052 0.602273 6.8631 0.744717H6.86137Z" fill="var(--fill-0, #DDEAFF)"/>
  </g>
  <g transform="translate(137, 573.311)">
    <path id="f1p7-Vector" fill-rule="evenodd" clip-rule="evenodd" d="M1.31618 3.73696C1.31618 3.73349 1.31618 3.73001 1.31271 3.72654C1.1251 3.29747 1.31271 2.79544 1.7331 2.59219L6.96881 0.0855188C7.38572 -0.114251 7.8808 0.0473021 8.10663 0.452053C8.26124 0.735205 8.23865 1.07047 8.08231 1.3293C8.19349 1.3901 8.29424 1.4787 8.37241 1.59161C8.82754 2.23956 9.04295 2.75722 9.11069 3.17761C9.43554 3.18108 9.74301 3.36695 9.88893 3.6779C10.0765 4.07223 9.9393 4.54473 9.57277 4.77924L8.59824 5.39939L8.63124 5.39418C8.99257 5.33686 9.34694 5.51057 9.5276 5.82325L10.4552 5.97091C10.7974 6.02476 11.0719 6.27838 11.1605 6.61364C11.2474 6.94891 11.1223 7.30502 10.8513 7.51695L9.81423 8.31603C9.75691 8.48106 9.64399 8.62871 9.48939 8.73294L7.7731 9.89682C7.38572 10.1591 6.8559 10.0671 6.58143 9.68662C6.51021 9.58934 6.46504 9.48164 6.44072 9.37047L6.15583 9.42258C5.77019 9.4938 5.38107 9.29577 5.21083 8.93792C5.04407 8.58007 5.13961 8.15621 5.44013 7.90259L5.78582 7.61597L4.73138 7.78621C4.32316 7.85222 3.92709 7.62292 3.78117 7.23901C3.71169 7.05487 3.70648 6.86205 3.76033 6.68487L2.69026 7.02882C2.2855 7.16084 1.84427 6.9767 1.64798 6.59627V6.5928L1.56981 6.57369L1.29534 6.40345L1.06604 6.08382L1.02087 5.9049C0.654338 5.97091 0.273906 5.79025 0.0949814 5.44629C-0.108263 5.04502 0.0237593 4.55515 0.404191 4.31542L1.31618 3.73696ZM1.75742 5.64606V5.64433C1.75742 5.63738 1.76089 5.63043 1.76089 5.62522H1.75742V5.64606ZM6.80726 2.22566L6.7065 2.2882C6.69087 2.31599 6.67002 2.34031 6.65265 2.36463C6.72387 2.37505 6.7951 2.39242 6.86111 2.41848C6.83679 2.35594 6.81594 2.29167 6.80726 2.22566ZM7.39441 3.36C7.38572 3.42254 7.36835 3.47987 7.3475 3.53719C7.36835 3.51113 7.3892 3.4816 7.40136 3.4486C7.41525 3.42254 7.40657 3.39301 7.39441 3.36Z" fill="var(--fill-0, #DDEAFF)"/>
  </g>
  <g transform="translate(62.212, 547.325)">
    <path id="f1p8-Vector" fill-rule="evenodd" clip-rule="evenodd" d="M10.967 64.9715C10.3121 64.7109 6.18987 62.88 3.25065 59.9303C1.0775 57.752 -0.418174 54.9865 0.104703 51.8492C0.624105 48.7398 3.23675 45.064 9.97161 41.2562C23.8061 33.4322 57.1521 15.3331 82.6671 5.94737C93.842 1.83733 103.563 -0.573806 109.593 0.117571C119.463 1.24844 127.058 6.93406 130.909 12.8507C133.661 17.0824 134.475 21.4634 133.179 24.5694C131.011 29.7547 128.965 33.5799 119.977 38.4004C111.406 42.9951 96.2445 48.5661 67.7816 57.3663C30.2561 68.9669 21.7407 65.6993 11.4256 65.0722C11.2658 65.0636 11.1112 65.0288 10.967 64.9715ZM11.8512 62.14C21.8657 62.7914 30.3864 65.8348 66.9061 54.5435C95.0806 45.8336 110.102 40.346 118.584 35.7982C126.643 31.4762 128.515 28.0801 130.456 23.4298C131.451 21.0395 130.558 17.7216 128.437 14.4645C124.973 9.14542 118.131 4.06954 109.261 3.05158C103.521 2.39495 94.3093 4.81129 83.6868 8.71983C58.3229 18.0482 25.1767 36.0501 11.4256 43.8272C5.85982 46.9731 3.44347 49.7647 3.01787 52.3339C2.65829 54.4983 3.84127 56.3432 5.34042 57.8458C7.68207 60.1961 10.894 61.7248 11.8512 62.1417V62.14Z" fill="var(--fill-0, #4356B1)"/>
  </g>
  <g transform="translate(135.624, 571.522)">
    <path id="f1p9-Vector" fill-rule="evenodd" clip-rule="evenodd" d="M7.31506 0C11.3539 0 14.6336 3.28317 14.6336 7.32373C14.6336 11.366 11.3539 14.6475 7.31506 14.6475C3.27623 14.6475 0 11.366 0 7.32373C0 3.28317 3.27623 0 7.31506 0ZM7.31506 2.95312C4.9074 2.95312 2.94965 4.9126 2.94965 7.32373C2.94965 9.7366 4.9074 11.6943 7.31506 11.6943C9.72272 11.6943 11.6805 9.7366 11.6805 7.32373C11.6805 4.9126 9.7262 2.95312 7.31506 2.95312Z" fill="var(--fill-0, #4356B1)"/>
  </g>
  <g transform="translate(117.821, 577.06)">
    <path id="f1p10-Vector" fill-rule="evenodd" clip-rule="evenodd" d="M7.31506 0C11.3522 0 14.6336 3.28143 14.6336 7.32199C14.6336 11.3643 11.3522 14.6457 7.31506 14.6457C3.27623 14.6457 0 11.3643 0 7.32199C0 3.28143 3.27623 0 7.31506 0ZM7.31506 2.95312C4.9074 2.95312 2.94965 4.91086 2.94965 7.32199C2.94965 9.73486 4.9074 11.6926 7.31506 11.6926C9.72099 11.6926 11.6805 9.73486 11.6805 7.32199C11.6805 4.91086 9.7262 2.95312 7.31506 2.95312Z" fill="var(--fill-0, #4356B1)"/>
  </g>
  <g transform="translate(100.647, 583.45)">
    <path id="f1p11-Vector" fill-rule="evenodd" clip-rule="evenodd" d="M7.31506 0C11.3522 0 14.6336 3.28143 14.6336 7.32373C14.6336 11.3643 11.3522 14.6457 7.31506 14.6457C3.27623 14.6457 0 11.3643 0 7.32373C0 3.28143 3.27623 0 7.31506 0ZM7.31506 2.95312C4.9074 2.95312 2.94965 4.91086 2.94965 7.32199C2.94965 9.73486 4.9074 11.6926 7.31506 11.6926C9.72099 11.6926 11.6805 9.73486 11.6805 7.32199C11.6805 4.91086 9.7262 2.95312 7.31506 2.95312Z" fill="var(--fill-0, #4356B1)"/>
  </g>
  <g transform="translate(116.642, 591.203)">
    <path id="f1p12-Vector" fill-rule="evenodd" clip-rule="evenodd" d="M2.6266 13.9333C2.41814 13.8534 2.24269 13.6936 2.14715 13.4747C1.95433 13.0387 2.15062 12.528 2.58317 12.3334L2.99661 12.1475L12.1496 6.90837C12.5491 6.6808 13.0581 6.80414 13.3082 7.18804C13.3569 7.26795 13.3951 7.35133 13.4194 7.43819L14.5815 6.71033C14.7987 6.57484 15.0523 6.54531 15.2816 6.61132L16.6313 6.00159C17.0361 5.81919 17.5103 5.97205 17.7362 6.34901L22.0112 4.16718C22.2266 4.05774 22.4646 4.04558 22.6766 4.1168C23.4096 3.73985 24.207 3.32988 25.0808 2.87823C25.4925 2.6663 26.0014 2.81743 26.2307 3.22044C26.3523 3.4289 26.3767 3.66689 26.3141 3.88229L28.4299 1.24707L29.064 2.57076L30.7959 0.336813C31.06 -0.0036647 31.529 -0.0992062 31.9042 0.110986C32.2794 0.319442 32.4462 0.772832 32.2968 1.17411C31.7218 2.69757 31.093 4.19845 30.4381 5.6889L31.2389 4.46075C31.4751 4.09769 31.9424 3.96394 32.3333 4.14981C32.4253 4.19324 32.5087 4.25056 32.5765 4.31831C32.7502 3.88924 32.9256 3.45148 33.1098 3.00504C33.2887 2.56555 33.789 2.35014 34.2302 2.52386C34.6715 2.69931 34.8921 3.19439 34.7253 3.63909L33.7334 6.27084C34.0965 6.48277 34.258 6.93269 34.1052 7.3357C34.1052 7.33744 34.1052 7.33744 34.1017 7.33917C32.5556 11.3276 30.7977 15.2344 29.2516 19.2229C29.1891 19.3809 29.13 19.5373 29.0692 19.6902C29.1387 19.6971 29.2064 19.7093 29.2777 19.7336C29.7015 19.8778 29.9482 20.3277 29.8388 20.7654C28.4595 26.3173 27.4902 30.2397 26.797 33.0521C27.0819 33.2867 27.1896 33.6827 27.0472 34.0406L25.76 37.2768C25.0773 40.058 24.9765 40.4662 24.7351 41.3052C23.7362 44.8021 22.2579 48.1495 21.2573 51.6464C21.1288 52.098 20.665 52.3638 20.2116 52.2509C20.0778 52.2179 19.9614 52.1553 19.8659 52.0719L18.7993 54.7454C18.6325 55.1588 18.1878 55.3794 17.7622 55.2613C17.5625 55.2057 17.3957 55.0841 17.2828 54.926C17.2046 54.9921 17.116 55.0442 17.0205 55.0789L16.6869 55.7859C16.4872 56.2167 15.9747 56.4043 15.5422 56.208C15.5161 56.1959 15.4918 56.182 15.4675 56.1681C15.0992 56.4512 14.6753 56.6128 14.0708 56.7744C13.0303 57.0558 12.4344 56.9012 12.0801 56.6406L11.7379 56.955C11.3922 56.955 11.076 56.7466 10.9388 56.4252L10.0059 54.2069C9.9295 54.1965 9.8548 54.1739 9.78531 54.1409C9.48479 54.0054 9.29718 53.717 9.27634 53.4061L8.71003 54.0523C8.28964 54.0523 7.9318 53.7518 7.85536 53.3401L7.51836 51.4917C7.27342 51.6498 6.95205 51.6811 6.67238 51.5473C6.25199 51.3476 6.06438 50.8507 6.24852 50.4234C6.51082 49.805 6.76097 49.2161 6.99722 48.6568L6.46913 45.754C6.06438 45.5421 5.88893 45.0505 6.07828 44.6318C6.12344 44.5328 6.16513 44.4373 6.2103 44.3417L5.68221 41.4529C5.51197 41.5328 5.31568 41.5554 5.11938 41.5102C4.95783 41.4703 4.81538 41.3904 4.70768 41.2792L3.08694 43.7824C2.85763 44.1385 2.40424 44.2757 2.01165 44.1072C1.62427 43.937 1.41582 43.5096 1.51657 43.0979C2.05682 40.9491 2.51542 39.1442 2.89585 37.6277C2.52411 37.454 2.32086 37.0319 2.42509 36.6219L4.33246 29.3329C3.96592 29.6092 3.45 29.5501 3.14947 29.2009C2.84895 28.8483 2.87848 28.3219 3.21722 28.0058L5.1576 26.1766L5.97926 23.0359L4.04583 24.2796C3.67061 24.5228 3.17032 24.4395 2.89585 24.0886C2.61617 23.7377 2.65439 23.2339 2.97576 22.9229L5.88198 20.1279L2.42161 22.7475C2.05334 23.0237 1.54263 22.9681 1.2421 22.6207C0.941579 22.275 0.962425 21.7556 1.28727 21.4342L3.37877 19.3792L2.1871 20.312C1.82057 20.6004 1.29074 20.5448 0.986745 20.187C0.687958 19.8309 0.720963 19.2993 1.06665 18.9849L5.74996 14.7272C5.74127 14.7133 5.73259 14.6994 5.7239 14.6855C5.68221 14.6177 5.65268 14.5483 5.63183 14.4753L4.6243 14.9895L1.32896 17.0532C0.932893 17.3016 0.411754 17.1904 0.149447 16.8048C-0.11286 16.4191 -0.0207916 15.8945 0.354429 15.6183L2.62833 13.9368L2.6266 13.9333ZM4.9005 37.7737L5.33305 35.062C5.0968 36 4.81712 37.1049 4.48359 38.4129L4.9005 37.7737ZM14.8247 54.2416C14.6944 54.1704 14.5902 54.0714 14.5207 53.955L14.42 54.1669C14.2202 54.5908 13.7199 54.7836 13.2908 54.596C13.237 54.5734 13.1901 54.5491 13.1449 54.5178C13.1571 54.7541 13.1779 55.0094 13.1953 55.1762C13.3117 55.1606 13.475 55.1345 13.6209 55.0946C14.215 54.9347 14.4947 54.7593 14.8247 54.2416ZM22.7235 36.4917L21.0402 40.8605L22.9719 37.2647C23.0483 37.1257 23.1525 37.0145 23.2776 36.9381C23.6858 36.2901 24.1219 35.6561 24.5266 35.0081C24.815 33.8512 25.1641 32.4198 25.6054 30.6306L23.2967 35.9948C23.189 36.2485 22.9719 36.4256 22.7235 36.4917ZM27.676 7.62927L26.5347 9.14405L26.5886 9.28128C26.5955 9.32297 26.6042 9.36467 26.6129 9.40636L27.0593 8.99466C27.2626 8.53953 27.4676 8.0844 27.676 7.62927ZM12.4831 16.7787L14.8786 14.8974L12.0488 16.6015L10.6122 17.9843L12.4831 16.7787ZM23.0639 7.93675L24.1097 6.63564C21.8566 8.25638 20.2307 9.44284 18.8323 10.4868L23.0639 7.93675ZM13.0285 52.9735C13.0876 52.8241 13.1449 52.6765 13.204 52.5306C13.1293 52.5705 13.0494 52.5983 12.9712 52.6157C12.9921 52.7373 13.0112 52.8571 13.0285 52.9735ZM8.6666 26.7394L8.99492 25.7579C8.84032 25.8778 8.67876 25.9994 8.51547 26.1245L8.37824 27.0052L8.6666 26.7394ZM9.64113 29.8471L10.6209 28.9178L11.7952 27.1042L10.1258 28.3098L9.64113 29.8471ZM22.5723 30.2067C23.0813 28.6589 23.5225 27.3092 23.9186 26.1036L23.8561 26.1279L23.5139 26.1679L23.3106 26.1488L23.123 26.0863L22.852 25.8917L22.7183 25.7145L22.6679 25.5946L21.2139 27.3943C21.5526 27.6288 21.6812 28.0753 21.5057 28.4609C19.2475 33.4743 17.8769 36.4517 16.7356 39.0557L21.2782 30.4881C21.4988 30.0747 22.0026 29.9079 22.4229 30.1129C22.4768 30.139 22.5272 30.1702 22.5723 30.2067ZM11.4165 24.2223L13.2526 22.5373C12.7072 22.9438 12.1443 23.3677 11.5416 23.8245L11.4165 24.2223ZM18.636 19.9646C18.636 19.9785 18.6395 19.9924 18.6447 20.0063L19.8746 19.1152C19.9232 18.9762 19.9701 18.8355 20.0188 18.6948L18.636 19.9646ZM9.02445 35.498L8.2827 36.6584L8.60928 38.2965C8.70482 38.168 8.83684 38.0655 8.99666 38.0047C9.01229 37.9977 9.03314 37.9925 9.05051 37.9856C9.70367 36.5247 10.2543 35.3 10.7164 34.2681L9.02445 35.498ZM22.6436 25.5443L22.6349 25.5234L22.5723 25.1117C22.5654 24.6948 22.6731 23.722 22.8607 22.5286L21.5891 24.3352L22.0686 25.8187L22.6436 25.5443ZM24.9175 20.6629C25.2058 19.9559 25.5341 19.1308 25.9181 18.1702L25.2145 19.176C25.1103 19.6641 25.0147 20.1679 24.9175 20.6629ZM19.5602 15.5297L19.5445 15.5402L19.548 15.5454L19.5602 15.5297ZM17.2776 29.5049L16.8989 29.7811C16.8311 29.9288 16.7651 30.0764 16.7026 30.2258L17.2654 29.524L17.2776 29.5049Z" fill="var(--fill-0, #4375C4)"/>
  </g>
  <g transform="translate(69.915, 602.279)">
    <path id="f1p13-Vector" fill-rule="evenodd" clip-rule="evenodd" d="M1.24832 4.03309C1.39424 3.70998 1.72777 3.49458 2.10299 3.52063C2.57375 3.5519 2.9316 3.95665 2.91075 4.42915L2.83258 6.00125C2.94028 5.91266 3.07404 5.85186 3.21475 5.82406L3.83143 3.18537C3.93566 2.73371 4.37689 2.44535 4.83202 2.52873C5.28541 2.61038 5.59809 3.03597 5.53556 3.49631L5.44001 4.2398L7.19452 3.54495C7.38908 3.2757 7.72782 3.14194 8.05613 3.20448L11.9473 1.66712C12.022 1.63759 12.0967 1.62022 12.1714 1.61153L15.4476 0.0811204C15.7916 -0.0786949 16.1963 0.00294953 16.4552 0.279153C16.7088 0.55883 16.7557 0.970529 16.5681 1.29885L14.8309 4.34577C15.1315 4.11994 15.5466 4.10431 15.8593 4.3284C16.2259 4.58897 16.3336 5.08579 16.1095 5.47316L15.359 6.76038C15.3799 6.80033 15.4007 6.84028 15.4216 6.88371C15.5553 7.17729 15.6596 7.44307 15.7377 7.69321C16.0122 7.57509 16.3422 7.60462 16.6011 7.7957C16.9676 8.07017 17.0597 8.58262 16.8095 8.96653C15.234 11.3759 14.1639 12.7274 11.6138 16.7593C11.0648 17.6991 10.4516 18.7674 9.78111 19.9886C9.68904 20.1588 9.54833 20.2839 9.38504 20.3586C9.05151 20.8989 8.70582 21.4738 8.33929 22.0853C8.09088 22.4953 7.55758 22.6273 7.14762 22.3806C6.73592 22.134 6.60216 21.5989 6.8523 21.189C6.927 21.0621 7.00343 20.9371 7.07813 20.8137C6.99475 20.8016 6.91137 20.7755 6.83493 20.7373C6.53614 20.5931 6.36069 20.303 6.34332 19.9938L6.20609 20.2301C6.05149 20.4976 5.77007 20.6643 5.45739 20.6643L4.66525 19.4397L4.71042 19.3354C4.61488 19.3215 4.51934 19.2903 4.42727 19.2399C4.26919 19.153 4.14412 19.021 4.06942 18.8699C4.05726 18.8716 4.04336 18.8734 4.0312 18.8751C4.01904 19.3285 4.00688 19.7836 3.9982 20.237V20.2387C3.98951 20.7182 3.59344 21.0986 3.114 21.0899C2.63629 21.0813 2.25238 20.6852 2.26107 20.2057V20.204L2.30623 17.8936L2.22285 18.3696C2.18637 18.5676 2.08561 18.7396 1.94838 18.8647L1.94491 18.8907L1.09892 19.5613C0.857463 19.5613 0.631636 19.464 0.470083 19.292C0.449237 19.2729 0.431866 19.2538 0.416232 19.233C0.285947 19.0662 0.219936 18.8595 0.232096 18.6493L0.244256 18.3957C0.0792287 18.2237 -0.018051 17.9857 0.00279459 17.7286L0.953005 4.62892C0.970377 4.3892 1.08155 4.18074 1.24832 4.03482V4.03309ZM14.15 8.83972L14.051 9.01343C14.0388 9.07944 14.018 9.14719 13.9884 9.21146L13.7713 9.69612C13.7974 9.70133 13.8217 9.70828 13.846 9.71697C14.018 9.3817 14.1222 9.10723 14.15 8.83972ZM5.20203 6.02557L4.69479 9.89763L6.24778 5.89702L5.58941 6.03426C5.45739 6.06031 5.3271 6.05684 5.20203 6.02557ZM7.70523 7.02268L7.69655 6.97231L7.62706 7.14949L7.70523 7.02268Z" fill="var(--fill-0, #4375C4)"/>
  </g>
  <g transform="translate(55.767, 576.548)">
    <path id="f1p14-Vector" fill-rule="evenodd" clip-rule="evenodd" d="M0.298796 4.34294C0.394339 4.10496 0.595846 3.92603 0.832096 3.84786C0.727868 3.68631 0.679228 3.49001 0.700074 3.28677C0.75045 2.84901 1.11699 2.51548 1.55822 2.51201L4.99426 2.48422L1.57385 1.80847C1.11177 1.71814 0.807776 1.27344 0.887684 0.809625C0.971066 0.344075 1.40361 0.0279176 1.8709 0.0974027L4.14481 0.436143C4.32894 0.119986 4.69548 -0.0554644 5.06548 0.0157577L10.831 1.14315C10.8102 0.959018 10.8484 0.76446 10.9561 0.595958C11.2062 0.187733 11.7395 0.059186 12.1478 0.311069C12.5595 0.56469 12.7401 0.688026 14.0604 1.77199L16.8971 2.32787C17.3592 2.41821 17.6684 2.86291 17.5833 3.32672C17.5172 3.72279 17.1924 4.01115 16.8085 4.04589C16.8259 4.05979 16.8432 4.07369 16.8589 4.08585C16.9301 4.09106 17.0013 4.10496 17.0725 4.12754C17.3383 4.0511 17.6388 4.10669 17.8629 4.29257L18.3754 4.71469C21.5787 5.41301 23.4461 5.70659 24.6708 6.00711C26.4044 6.43271 27.028 6.8722 28.0026 8.16462C28.4038 8.69618 28.5272 9.14436 28.4525 9.56822L28.383 9.82879L28.2701 10.0616C28.1989 10.1832 28.1033 10.3117 27.9782 10.4437C27.7246 10.7078 27.3025 11.0239 26.658 11.4304C26.1907 11.7257 25.5862 12.0818 24.8236 12.5266C24.8236 12.5318 24.8201 12.5352 24.8201 12.5387C24.8167 12.5561 24.808 12.5717 24.8028 12.5874C24.6655 12.9105 24.3546 13.1206 24.0002 13.1206L23.8838 13.079C22.1658 14.083 19.8294 15.4623 16.7008 17.4287C16.3013 17.6771 15.7801 17.566 15.5178 17.1751C15.4883 17.1299 15.4605 17.083 15.4379 17.0344L14.9011 17.3592C14.8421 17.3957 14.7795 17.4235 14.717 17.4444L14.6006 17.5903L13.8137 19.0008C13.5965 19.3917 13.1171 19.5532 12.7054 19.3726C12.6463 19.3465 12.5925 19.3135 12.5386 19.2753C12.4552 19.251 12.3771 19.211 12.2972 19.1589C11.9254 18.8983 11.8142 18.3946 12.047 18.0037L12.4674 17.2898C12.3267 17.1959 12.2086 17.0587 12.1426 16.8902L11.8594 16.1919C11.8299 16.2284 11.7934 16.2614 11.7552 16.2909C11.7587 16.6644 11.5189 17.0101 11.1437 17.1265C10.9683 17.1803 10.7893 17.1751 10.626 17.123L10.6104 17.156L10.6434 17.2081L9.89645 18.5249C9.60113 18.5249 9.33188 18.3755 9.16859 18.1288L5.96011 13.178L0.173723 5.52419C-0.0555785 5.21672 -0.0590523 4.79112 0.170249 4.48191C0.206729 4.43154 0.253631 4.38463 0.298796 4.34468V4.34294ZM21.233 7.07718L21.292 7.12408C21.471 7.13451 21.6464 7.20052 21.7923 7.32212C21.9052 7.41418 21.9869 7.52883 22.0373 7.65391L22.3169 7.81546C22.5045 7.92316 22.6383 8.09514 22.7043 8.29143L23.896 9.27291C23.929 9.30244 23.962 9.33197 23.9915 9.36498L24.5335 9.03319C24.7993 8.86816 25.1207 8.86642 25.3778 8.99844L26.0778 8.57806C25.6192 8.12988 25.1415 7.91274 24.2573 7.69386C23.5277 7.51667 22.5706 7.33949 21.233 7.07718ZM6.41002 7.98396L6.45693 8.08819L6.44824 7.9996L6.41176 7.98396H6.41002ZM8.42683 12.061C8.53975 12.2052 8.66135 12.3528 8.78121 12.5057C8.81943 12.5509 8.85243 12.596 8.89065 12.6429L8.35561 10.8554L8.42683 12.061ZM16.9214 9.73325L17.1142 9.40841L17.0517 9.34761L16.9214 9.73151V9.73325ZM10.098 4.17965L8.98966 4.18834L10.1813 4.45933L10.1396 4.19876L10.098 4.17965ZM10.4471 9.6516C10.4888 9.55259 10.5322 9.45531 10.5722 9.35803C10.5114 9.36498 10.4436 9.36845 10.3689 9.36498L10.4471 9.6516ZM10.6486 7.46282C10.7476 7.41245 10.8432 7.3586 10.9109 7.32559L11.3522 7.17099L11.6857 7.16056L11.7031 7.16404L11.34 6.15129C11.1906 6.27984 10.9943 6.35627 10.7824 6.35627C10.7563 6.35627 10.732 6.35627 10.7077 6.3528L9.73142 6.27115L10.2491 7.54794L10.4905 7.6487C10.5652 7.67996 10.6365 7.72339 10.699 7.77203L10.6486 7.46282ZM18.5508 12.7003L19.9423 11.8473C19.7512 11.8386 19.5636 11.7692 19.409 11.6371L18.5508 12.7003ZM21.1583 11.1004L20.8334 10.8381C20.863 11.0118 20.8386 11.1872 20.7622 11.3418L21.1583 11.1004ZM13.1484 5.56067L12.9399 5.46686L13.7268 7.66954L14.38 6.75755L13.1466 5.56067H13.1484Z" fill="var(--fill-0, #4375C4)"/>
  </g>
  <g transform="translate(115.974, 587.028)">
    <g id="f1p15-Group">
<path id="f1p15-Vector" fill-rule="evenodd" clip-rule="evenodd" d="M0.953765 13.2748L35.8284 0.0952502C36.3252 -0.0923596 36.8863 0.00144528 37.2928 0.341922C37.6993 0.680662 37.8956 1.2157 37.8018 1.73857C36.9228 6.63554 36.5719 6.52089 35.5956 11.3987C35.4184 12.2864 33.7716 23.0288 32.3194 29.517C30.6031 37.1534 27.0472 48.3405 24.0611 55.2873C22.6766 58.5027 21.3494 60.8426 20.3957 61.7129C17.4565 64.4037 14.8769 65.0829 12.7176 64.4489C10.6226 63.8339 8.7587 61.864 7.26824 58.6504C3.43091 50.3816 1.57913 33.3178 0.00529166 14.7809C-0.0502965 14.1226 0.337084 13.5076 0.953765 13.2748ZM3.04353 15.6443C4.55831 33.323 6.27286 49.4957 9.94168 57.4066C10.9787 59.644 12.0905 61.1883 13.5497 61.6156C14.9464 62.0256 16.4994 61.2786 18.405 59.5328C19.1989 58.8084 20.196 56.7986 21.3494 54.1199C24.2765 47.3139 27.7629 36.3526 29.441 28.8708C30.888 22.4069 32.5244 11.7045 32.7033 10.8203C33.4607 7.02986 33.8377 6.27248 34.3849 3.79707L3.04353 15.6443Z" fill="var(--fill-0, #4356B1)"/>
</g>
  </g>
  <g transform="translate(68.146, 600.83)">
    <path id="f1p16-Vector" fill-rule="evenodd" clip-rule="evenodd" d="M1.42064 2.36074L21.2413 0.0104068C21.7503 -0.0503928 22.2558 0.158063 22.5737 0.561076C22.8916 0.96409 22.9802 1.5026 22.803 1.98378C19.8394 10.0944 17.9234 16.256 15.6147 20.2931C13.8811 23.3279 11.8938 25.2422 9.27247 26.083C7.84281 26.5398 6.61814 26.5155 5.57065 26.1715C4.0385 25.666 2.83293 24.4379 1.97652 22.6834C-0.686501 17.2306 0.107368 6.10425 0.121265 3.81819C0.126476 3.07296 0.682359 2.44586 1.42064 2.359V2.36074ZM3.02749 5.14362C2.9111 8.14885 2.64532 14.5172 3.82657 19.1188C4.54226 21.9052 5.69746 24.1269 8.36916 23.2705C10.3425 22.6382 11.7496 21.1078 13.0525 18.827C15.0814 15.2745 16.7821 10.0284 19.2175 3.22583L3.02749 5.14362Z" fill="var(--fill-0, #4356B1)"/>
  </g>
  <g transform="translate(51.994, 574.078)">
    <path id="f1p17-Vector" fill-rule="evenodd" clip-rule="evenodd" d="M13.3199 24.9332C5.34122 14.2933 2.26649 9.94522 1.06093 8.06218C0.00822413 6.41538 0.0933439 6.17913 0.0464412 5.91335C-0.201969 4.54797 0.550209 3.24686 2.2057 2.30533C4.68284 0.894787 9.45474 0.15477 11.8103 0.0192747C14.3986 -0.131856 16.9001 0.609898 19.6621 2.09862C23.4421 4.13106 27.785 7.61573 33.8423 11.9047C34.2523 12.1931 34.4868 12.669 34.4642 13.1693C34.4451 13.6696 34.1741 14.1265 33.7381 14.3801L15.255 25.3171C14.6053 25.701 13.7733 25.5342 13.3199 24.9332ZM2.95787 5.43738C2.98567 5.55897 3.06036 5.71358 3.54676 6.46923C4.69674 8.27063 7.58038 12.3407 14.8902 22.1016L30.2899 12.9921C26.2094 10.0512 22.9609 7.56188 20.1016 5.77438C17.119 3.90523 14.6227 2.81431 11.9788 2.96718C10.2121 3.06967 6.87337 3.52654 4.58904 4.43679C4.07485 4.64003 3.62146 4.86412 3.27577 5.12296C3.15417 5.21329 3.00478 5.38179 2.95787 5.43738Z" fill="var(--fill-0, #4356B1)"/>
  </g>
  <g transform="translate(166.435, 551.074)">
    <path id="f1p18-Vector" fill-rule="evenodd" clip-rule="evenodd" d="M15.335 0.371194C15.943 -0.169053 16.8776 -0.113465 17.4143 0.498004C17.9563 1.10774 17.9007 2.04231 17.2893 2.58256C9.7501 9.26008 8.73041 9.93929 3.01525 12.8768C3.57634 18.3314 7.18436 21.4634 11.4421 19.8513C18.9986 16.9868 22.2383 12.6631 24.58 10.2937C25.1498 9.71347 26.0843 9.70825 26.6645 10.2815C27.243 10.853 27.2482 11.7893 26.6784 12.3695C24.1579 14.9214 20.6298 19.5282 12.4843 22.6134C9.2168 23.8519 6.13687 23.2248 3.82822 21.2237C1.65855 19.3441 0.159402 16.1756 0.00132274 12.0638C-0.0229973 11.4888 0.289687 10.9538 0.803877 10.6915C7.04365 7.49515 7.74545 7.09388 15.335 0.371194Z" fill="var(--fill-0, #4356B1)"/>
  </g>
</svg>