<svg preserveAspectRatio="none" width="100%" height="100%" overflow="visible" style="display: block;" viewBox="0 0 88.266 62.5538" fill="none" xmlns="http://www.w3.org/2000/svg">
<path id="Vector" fill-rule="evenodd" clip-rule="evenodd" d="M2.4433 4.18995C2.49125 4.16174 2.53921 4.13635 2.5928 4.11378C2.72256 4.05454 2.8495 4.01787 2.98491 4.00095L2.86361 3.65962C2.62101 2.97132 2.93695 2.20968 3.59986 1.90221C3.97222 1.73013 4.37842 1.73577 4.73668 1.88246L4.91157 1.76962L5.39395 1.66807L5.834 1.72167L6.19226 1.88246L6.47717 2.11377L6.68591 2.39304C6.85517 2.67513 7.50961 3.9953 8.15842 5.31548C8.55898 6.11661 9.03289 7.05597 9.29523 7.58912C9.41653 7.71323 9.51244 7.86274 9.58014 8.02917C9.66195 8.24356 9.70144 8.37896 9.72119 8.44102L9.7635 8.83313L9.69016 9.1406C9.98635 9.78659 10.3192 10.5116 10.6972 11.3296L8.13867 3.01364C7.92992 2.32534 8.26843 1.58344 8.93698 1.30136C9.37704 1.11518 9.85941 1.16877 10.2374 1.40573C10.2374 0.912074 10.4998 0.438165 10.9539 0.184285C11.5689 -0.165504 12.3418 -0.00471445 12.7649 0.559463L14.023 2.21814C14.0569 2.12788 14.1048 2.04043 14.1584 1.95862C14.5167 1.43394 15.1824 1.21109 15.7833 1.41983C17.3658 1.96426 18.7593 2.44382 20.0174 2.86977C20.3362 2.70052 20.7227 2.6582 21.0866 2.77386L43.1487 9.71042C43.8793 9.94174 44.2912 10.7203 44.074 11.4594C43.8596 12.1956 43.0867 12.6216 42.3419 12.4157C41.2333 12.1054 40.2122 11.8204 39.27 11.5581L39.6649 11.7471L39.1967 13.7753L39.4534 13.8994C39.38 13.5694 39.4195 13.2083 39.5972 12.8924C39.9696 12.2267 40.7933 11.9756 41.4703 12.3226L43.3293 13.2817C43.3293 13.0447 43.3857 12.8021 43.5126 12.5821C43.8765 11.922 44.6974 11.6681 45.3744 12.0066L75.0727 26.9178C75.7469 27.2592 76.0403 28.0829 75.7131 28.774C75.3887 29.4679 74.5791 29.7754 73.8738 29.4707L73.7667 29.4228C73.7582 29.451 73.7469 29.482 73.7384 29.5102L73.462 30.238L75.9162 31.2112C76.1531 31.1605 76.3985 31.1689 76.6411 31.2479C77.0276 30.7345 77.7244 30.537 78.3337 30.8022C78.9204 31.0589 79.2533 31.6823 79.1658 32.3001L80.4155 32.8276C80.5594 32.8445 80.6948 32.884 80.8302 32.9461C80.9374 32.994 81.0333 33.0504 81.1123 33.121L87.3972 35.7557C88.1165 36.0547 88.4522 36.8727 88.1617 37.5893C87.9332 38.1534 87.3774 38.4891 86.802 38.4666L85.5298 39.1661C85.5157 39.2084 85.5016 39.2508 85.4818 39.2931C85.1969 39.9362 84.5001 40.2635 83.84 40.0942L81.8711 41.1746C82.4381 41.1549 82.9797 41.4764 83.2166 42.0265C83.5269 42.743 83.1969 43.5724 82.4776 43.8798L73.8061 47.6147C73.6566 47.7162 73.4874 47.7868 73.3181 47.8234L65.6735 51.1126L65.1319 52.0858C64.7737 52.7346 63.9753 52.9941 63.3068 52.681C63.1234 52.5964 62.9683 52.4751 62.8385 52.3312L62.2856 52.571C62.2292 52.5964 62.17 52.6189 62.1079 52.6359L59.397 53.8009C59.2278 53.9166 59.0388 53.9984 58.8413 54.0378L58.7341 54.0858L50.1671 58.5061L51.5747 60.2579C52.0289 60.8221 51.9809 61.6373 51.4675 62.1451C50.9513 62.6557 50.1389 62.6923 49.5775 62.2297C31.3405 47.1436 31.2446 47.4567 29.8934 45.925C25.6169 41.0956 22.7763 35.1153 18.5054 30.286C18.0061 29.7218 18.0343 28.8671 18.5731 28.3424C18.9455 27.9785 19.4674 27.8628 19.9413 27.9926C19.095 26.8219 18.2487 25.6569 17.3827 24.506C17.3009 24.7288 17.1683 24.9319 16.9765 25.0899C17.0922 25.3325 17.1994 25.5779 17.315 25.8262C17.315 25.8318 17.3235 25.8346 17.3235 25.8374C17.6394 26.5455 17.3376 27.3776 16.6267 27.7049C15.9215 28.0293 15.0893 27.7218 14.7593 27.0166V27.0081L13.4194 24.1364C13.3912 24.207 13.3573 24.2747 13.3178 24.3424C13.2981 24.3678 13.284 24.3931 13.2642 24.4214C12.9991 24.7881 12.5731 25.0053 12.1218 25.0053L10.8552 24.2182L9.06392 20.568C8.52231 20.6075 7.98634 20.3339 7.71836 19.8289L0.166838 5.82042C-0.191415 5.14905 0.0455396 4.31406 0.702807 3.93042C1.28391 3.59474 2.00888 3.71604 2.44047 4.19277L2.4433 4.18995ZM39.6677 49.9447L28.6465 39.7134C29.6959 41.2141 30.7904 42.6781 32.009 44.0491C32.9963 45.1718 33.3151 45.2734 40.8102 51.3749L39.6677 49.9476V49.9447ZM71.1996 28.3057L69.603 27.6118C69.603 27.7359 69.5889 27.8572 69.5551 27.9813C69.7836 27.9672 70.0149 28.0067 70.2293 28.1054C70.548 28.2493 70.7906 28.5004 70.926 28.7965L71.1912 28.3198C71.1912 28.3198 71.1968 28.3114 71.1968 28.3057H71.1996ZM55.2278 47.8009L54.6862 47.3213L53.3857 49.516L55.2278 47.8009ZM63.2617 26.6922L64.6636 28.0575C64.7511 28.08 64.8385 28.1111 64.926 28.1534C65.8879 28.6188 66.7539 29.0391 67.5438 29.4256C67.713 29.4059 67.8823 29.42 68.0515 29.4623L68.249 29.0476C68.012 29.0589 67.7666 29.0081 67.5438 28.8925L63.2617 26.6922ZM31.0951 14.9291C30.6776 15.5666 29.8172 15.7528 29.1684 15.3409V15.3381L27.8003 14.4721L31.3659 17.4255L31.6846 16.3198L37.6706 20.1251L31.0951 14.9291ZM50.043 25.7669L51.7609 27.5328L50.8695 26.2436L50.043 25.7669ZM20.2177 20.4157L22.9371 23.3861L20.466 19.5948L20.5816 19.8713L20.2177 20.4157ZM17.1458 11.3155C17.1712 11.307 17.1994 11.2986 17.2276 11.2901L17.0386 11.0419L17.1458 11.3155ZM47.0416 52.8954L48.1163 50.6048C47.8737 50.3904 47.6283 50.1789 47.3913 49.9701C46.9851 50.3171 46.4097 50.4186 45.8963 50.1902C45.2277 49.8911 44.9033 49.1295 45.1374 48.4384L45.2531 48.1112C44.5846 47.5244 43.947 46.9715 43.3462 46.4468C43.3039 46.743 43.1628 47.0279 42.9343 47.2508C42.5676 47.5978 42.0599 47.7134 41.6085 47.5978C43.1826 49.1351 44.9823 50.8926 47.0416 52.8982V52.8954ZM49.5578 31.0279L49.3942 31.8685L49.9555 32.365L50.3758 31.5469L49.555 31.0279H49.5578ZM26.7932 13.8374L26.4744 13.6343L26.624 13.8092C26.6832 13.8148 26.7396 13.8233 26.7932 13.8346V13.8374ZM63.7102 32.9517L63.2419 34.238L64.0402 34.4186L64.5339 33.5413L63.7102 32.9517ZM38.0768 33.2451L38.246 32.7627L36.1416 30.9066L38.0768 33.2451ZM35.9865 35.1407L36.8666 36.7148L36.9879 36.3593L35.9865 35.1407ZM44.294 40.7712L43.5239 37.578L42.6438 38.7768L44.294 40.7712Z" fill="var(--fill-0, #4375C4)"/>
</svg>
