<svg preserveAspectRatio="none" width="100%" height="100%" overflow="visible" style="display: block;" viewBox="0 0 102.948 68.7346" fill="none" xmlns="http://www.w3.org/2000/svg">
<g id="Group">
<path id="Vector" fill-rule="evenodd" clip-rule="evenodd" d="M51.1857 68.2638C50.094 67.4542 15.1291 32.2495 6.23483 21.0534C4.64103 19.0534 2.13608 15.9815 0.875141 12.9123C-0.193976 10.2889 -0.377334 7.65419 0.852574 5.40031C2.03735 3.22258 4.71437 1.1859 10.1051 0.23244C15.1065 -0.653319 22.3167 1.03357 30.9515 4.59071C49.9107 12.3961 76.3537 29.0647 101.702 42.9407C102.506 43.3779 102.986 44.2298 102.946 45.1438C102.91 46.0549 102.362 46.8645 101.527 47.2341L53.5863 68.5289C52.7964 68.8787 51.8768 68.7772 51.1857 68.2638ZM53.0785 63.5078L95.1775 44.8109C74.8812 33.5246 54.2153 20.8644 37.5326 12.808C26.2095 7.34108 16.8809 3.90241 10.9316 4.95461C7.63681 5.53571 5.78631 6.36505 5.05852 7.69651C4.5028 8.71767 4.82157 9.90244 5.30958 11.0929C6.3928 13.736 8.61002 16.3453 9.98379 18.0661C17.9613 28.1141 47.3154 57.897 53.0785 63.5078Z" fill="var(--fill-0, #4356B1)"/>
</g>
</svg>
