<svg preserveAspectRatio="none" width="100%" height="100%" overflow="visible" style="display: block;" viewBox="0 0 209.512 100.443" fill="none" xmlns="http://www.w3.org/2000/svg">
<path id="Vector" fill-rule="evenodd" clip-rule="evenodd" d="M2.63792 80.8818C2.3784 80.312 2.5279 79.6181 3.03002 79.2062C3.36289 78.9354 3.68729 78.6703 3.99759 78.4164C3.57727 78.3966 3.16542 78.1851 2.9059 77.8099C2.46867 77.1752 2.61535 76.3035 3.24723 75.8578L26.9991 58.9692L27.0048 58.9635C27.4448 58.6532 27.9921 58.6279 28.4378 58.8451C34.1078 55.3359 39.5352 51.4318 45.3377 48.1511C53.1516 43.7307 78.3985 32.5882 86.9966 30.5967C89.6483 29.1185 92.2999 27.6489 94.9938 26.2553C108.407 19.316 117.324 16.5374 118.481 16.0381C118.63 15.9732 118.78 15.9365 118.935 15.9224L134.461 6.39629C135.11 5.99573 135.964 6.18755 136.376 6.83071C136.794 7.47105 136.627 8.3286 135.998 8.7602L129.443 13.2736L146.348 5.54438C146.949 5.27076 147.654 5.45412 148.046 5.95623C148.647 5.73338 149.338 5.95059 149.705 6.49502C150.043 7.00278 150.007 7.66569 149.649 8.13678C156.32 4.87019 158.619 3.90827 169.423 0.0803246C170.1 -0.159451 170.859 0.153667 171.163 0.805293C171.372 1.25099 171.333 1.75311 171.096 2.14804L173.632 1.21432C174.329 0.95762 175.099 1.28202 175.403 1.95057C175.539 2.25523 175.567 2.58245 175.485 2.88147L178.659 1.87723C179.369 1.65156 180.134 2.0211 180.405 2.72068C180.405 2.73478 180.41 2.74888 180.416 2.76017L181.073 2.52886C181.77 2.2778 182.54 2.61348 182.839 3.29614C183.13 3.97879 182.845 4.77146 182.19 5.10997L180.56 5.95059L181.164 5.76723C181.846 5.55849 182.577 5.89417 182.859 6.54862C183.056 6.99996 183.003 7.50772 182.746 7.897L183.293 7.69672C183.86 7.48516 184.489 7.66851 184.862 8.11985C185.059 8.13114 185.262 8.14242 185.465 8.15371L185.911 7.69108C186.357 7.22845 187.062 7.1269 187.623 7.44566C188.021 7.67133 188.281 8.06908 188.326 8.50632C188.645 8.71788 188.873 9.05639 188.935 9.45413C189.042 10.1086 188.678 10.7489 188.063 10.9915L187.716 11.1269L187.711 11.1467L189.322 12.0635L189.827 11.1636L189.646 10.8928L189.903 11.0282L190.267 10.3737C190.267 10.3737 190.275 10.3653 190.275 10.3596L189.274 8.83636C188.867 8.21576 189.008 7.3836 189.598 6.93508C190.193 6.48656 191.031 6.57683 191.519 7.13819L195.544 11.7983C195.666 11.409 195.956 11.0761 196.363 10.9154C197.04 10.6445 197.81 10.9323 198.14 11.5811L199.996 15.2087L199.705 13.0931C199.604 12.3512 200.097 11.6601 200.834 11.5162C201.564 11.3723 202.289 11.8293 202.47 12.5571L205.014 22.6502C205.155 22.8787 205.231 23.1495 205.223 23.4401V23.4739L205.798 25.7504C206.447 25.9366 206.873 26.5656 206.808 27.2455L206.563 29.6968C206.978 29.3752 207.545 29.2934 208.038 29.5276C208.687 29.8322 209.006 30.5769 208.777 31.2568L208.721 31.4035C208.797 31.4373 208.865 31.4768 208.932 31.5276C209.539 31.9676 209.694 32.8139 209.282 33.4458L195.429 54.5122C195 55.1582 194.142 55.3415 193.494 54.9268C192.845 54.5122 192.647 53.6546 193.048 52.9974L193.846 51.7082C193.779 51.7449 193.717 51.7816 193.657 51.8182L191.801 53.6603C191.375 54.0834 190.746 54.1793 190.227 53.9424L186.221 57.7759C185.671 58.3006 184.814 58.3006 184.267 57.7731C184.145 57.6546 184.049 57.5164 183.976 57.3697C180.173 59.4854 176.588 61.3613 174.585 62.1258C173.826 62.4135 173.231 62.5545 172.859 62.5743L172.379 62.5404C157.225 68.154 153.654 69.4967 136.997 75.5645C136.828 75.7422 136.613 75.8804 136.362 75.9537C135.564 76.1907 134.785 76.422 134.035 76.6449C132.498 77.2006 130.861 77.7958 129.11 78.4333C128.766 78.5602 128.393 78.5405 128.074 78.4051C120.661 80.6054 115.75 82.092 111.101 83.573C103.654 86.1428 97.6878 88.2303 83.1207 93.0512C82.4127 93.2881 81.6454 92.9242 81.3689 92.2359C78.8132 93.0483 75.9641 93.9538 72.7032 94.9835C72.4803 95.0568 72.2434 95.0653 72.0262 95.0258C71.6482 95.164 71.2617 95.305 70.8752 95.4489C70.1531 95.7141 69.3463 95.3445 69.0699 94.6196C69.0219 94.4813 68.9881 94.3403 68.9824 94.2021C63.5832 95.4179 59.7271 96.14 55.5606 96.7832C53.6396 97.2289 51.4873 97.7366 49.0528 98.3206C48.7623 98.3911 48.4633 98.3629 48.2066 98.2585C45.4449 98.8396 42.6466 99.4207 38.7763 100.4C38.0457 100.586 37.2954 100.157 37.0782 99.4292C36.9286 98.9101 37.0838 98.3742 37.4505 98.0187C34.3052 98.4278 32.0654 98.4814 30.3193 98.3854C21.2755 100.194 17.2981 99.8495 14.7536 100.318C14.0287 100.45 13.3263 100.002 13.1373 99.2881C12.9483 98.5744 13.3404 97.8382 14.0371 97.5956C15.5125 97.085 16.9596 96.4983 18.3926 95.8861C17.4927 95.8184 16.5872 95.7874 15.6874 95.8354C15.1937 95.8608 14.7395 95.6266 14.4631 95.2486C13.8481 95.3248 13.2106 95.4038 12.5477 95.4799C11.3375 95.8946 10.1415 96.3234 8.94825 96.7832C8.25149 97.054 7.46164 96.7268 7.15698 96.0413C6.85233 95.3586 7.12877 94.5575 7.79168 94.2162L7.77758 94.1485L7.82553 93.6661L7.98068 93.2853L8.08223 93.1471C7.58294 93.2486 7.04133 93.0709 6.69436 92.6393C6.36995 92.2275 6.31072 91.6887 6.49972 91.2317C6.28251 91.1386 6.08787 90.9919 5.93836 90.7944C5.85655 90.6816 5.78885 90.5631 5.7409 90.439C5.09209 90.786 4.40097 91.1499 3.67883 91.5391C3.03566 91.8833 2.23735 91.683 1.83679 91.0737C1.43904 90.4644 1.5688 89.652 2.1358 89.195C3.70421 87.9397 5.1062 86.8198 6.36995 85.8099C6.3361 85.7704 6.30225 85.7281 6.2684 85.6858C6.18095 85.5645 6.11325 85.4376 6.06812 85.3022C5.4842 85.7422 4.86924 86.2105 4.21197 86.7041C3.60266 87.164 2.73101 87.0539 2.2571 86.4503C1.98065 86.0977 1.89884 85.652 1.99476 85.2486C1.41365 85.5137 0.716892 85.3558 0.302221 84.8424C-0.149121 84.2669 -0.0898819 83.4347 0.446087 82.9354L2.63792 80.8818ZM12.1076 90.8565C12.0343 90.7013 11.992 90.5377 11.9779 90.3741C11.4447 90.7803 10.8834 91.2063 10.2882 91.652C10.8016 91.4122 11.4193 91.1442 12.1076 90.8565ZM178.577 57.0989C178.441 57.034 178.32 56.9466 178.204 56.8394C177.759 56.4022 177.663 55.7336 177.925 55.1977C177.575 55.6095 177.243 56.0355 176.918 56.4755C176.87 56.5714 176.802 56.6617 176.729 56.7435C176.396 57.2118 176.077 57.6913 175.767 58.1737C176.357 57.9932 176.958 57.8042 177.581 57.6095C177.595 57.6039 177.601 57.601 177.615 57.5982C177.925 57.4374 178.25 57.271 178.574 57.0989H178.577ZM203.559 37.0198C203.511 37.0622 203.471 37.1045 203.423 37.1411C203.432 37.1581 203.437 37.175 203.446 37.1919L203.559 37.0198ZM186.938 13.9535L186.599 15.1862L187.592 15.1382L187.939 14.5204L186.938 13.9535ZM171.629 59.4657C171.764 59.2597 171.891 59.0538 172.027 58.8451L167.395 60.7745C168.701 60.374 170.1 59.9396 171.629 59.4657ZM132.622 72.7859C130.774 73.4573 128.757 74.1907 126.554 74.9975C128.182 74.563 129.928 74.0948 131.809 73.5842C132.007 73.5334 132.201 73.5221 132.39 73.5532C132.458 73.5165 132.526 73.477 132.593 73.4403C132.554 73.2203 132.56 72.9946 132.622 72.7859ZM185.815 18.0494L185.68 18.5459L185.965 18.0409L185.815 18.0494ZM134.06 17.031C134.402 17.1552 134.689 17.4062 134.853 17.7588C134.859 17.7673 134.867 17.7786 134.867 17.7899C135.003 17.7334 135.135 17.6742 135.273 17.6178L136.971 16.0494C135.995 16.3653 135.022 16.6897 134.06 17.031ZM30.5704 61.319C30.6578 61.3923 30.7312 61.4741 30.7989 61.57C30.9427 61.7619 31.0217 61.9762 31.0499 62.1963C31.5577 61.8408 32.0852 61.4713 32.6268 61.0905C32.9709 60.8479 33.3913 60.783 33.7693 60.8761C35.7241 59.5362 37.8483 58.0947 40.9541 56.1991C37.7213 57.79 34.2629 59.491 30.5704 61.319ZM28.5139 68.7097C29.6959 67.7957 31.1458 66.7012 32.8835 65.4488C31.4674 66.185 29.9723 66.9579 28.4039 67.7732C28.5534 68.0694 28.5873 68.3994 28.5139 68.7097ZM124.136 73.666C123.671 73.855 123.197 74.0468 122.718 74.2415C123.163 74.3712 123.53 74.7154 123.677 75.1893C123.733 75.3755 123.744 75.5645 123.725 75.7478C124.3 75.5955 124.89 75.4403 125.49 75.2796C124.943 75.2654 124.43 74.9298 124.218 74.3882C124.125 74.1512 124.097 73.903 124.136 73.666ZM199.339 35.3696C199.319 35.2483 199.291 35.127 199.262 35.0029L197.302 37.2427L199.339 35.3696ZM201.855 28.749L201.807 28.4049C201.198 28.6587 200.487 28.45 200.109 27.8971L198.972 26.2412L200.614 29.7899C200.946 29.8915 201.237 30.1115 201.42 30.4303C201.561 30.6757 201.623 30.9465 201.604 31.2088C201.609 31.2116 201.609 31.2116 201.609 31.2145L201.852 28.749H201.855ZM49.4308 76.1315C49.3377 75.8945 49.3011 75.6322 49.349 75.3642L49.5521 74.1907C49.1939 74.3994 48.8413 74.611 48.483 74.8226C48.0176 75.1385 47.569 75.4403 47.1516 75.7337C47.4816 75.8635 47.7721 76.1202 47.9273 76.4784C47.9753 76.5828 48.0091 76.6928 48.0288 76.8L49.4308 76.1286V76.1315ZM50.3589 85.3896C50.3589 85.3332 50.3645 85.2824 50.3787 85.2288C50.3504 85.2401 50.3166 85.2486 50.2912 85.2599C50.0007 85.3953 49.7157 85.5278 49.4449 85.6576C49.7552 85.5645 50.0599 85.4771 50.3589 85.3896ZM197.911 30.6559L197.736 30.2695L196.983 31.0932L197.911 30.6559ZM149.601 17.6968C149.067 18.1509 148.546 18.5882 148.046 19.0113C148.106 18.9803 148.159 18.9436 148.216 18.9098C148.221 18.9098 148.221 18.9098 148.221 18.9069C148.323 18.8477 148.424 18.8026 148.531 18.7715L150.001 17.5614L149.601 17.6968ZM74.6157 87.683C75.6651 87.4291 76.7878 87.1583 78.0064 86.8649C79.8062 86.2697 81.7216 85.6294 83.7639 84.9355C85.4705 84.3572 86.7004 83.9538 88.3027 83.4771C87.9783 83.3445 87.7018 83.0878 87.5467 82.7408C87.5326 82.7013 87.5128 82.659 87.4987 82.6195C83.3436 83.7986 78.9402 85.0821 73.4733 86.6985C74.0008 86.7775 74.4549 87.1555 74.6186 87.683H74.6157ZM183.164 33.4655C183.014 33.1327 182.994 32.7462 183.135 32.3851L183.406 31.6743L181.389 32.5346C180.963 33.5643 180.532 34.5967 180.078 35.6122L183.164 33.4655ZM189.197 29.2681L189.412 29.1129L189.237 29.1891C189.226 29.2145 189.212 29.2398 189.197 29.2681ZM192.351 24.7969L192.1 22.4048L191.212 23.9507L191.367 24.2469L191.457 24.5431L191.443 25.096L191.401 25.2003L192.348 24.7969H192.351ZM174.904 39.2089C176.013 37.6263 176.884 35.8971 177.668 34.1172L176.365 34.6757C175.998 34.9155 175.64 35.1496 175.288 35.3866L164.032 46.8196C164.106 46.7942 164.179 46.7717 164.247 46.7491C164.348 46.5996 164.472 46.467 164.627 46.3598L174.904 39.2089ZM163.24 51.9198C161.649 52.7858 160.007 53.6885 158.309 54.6278C157.014 55.3387 155.838 55.9875 154.735 56.5827C156.684 55.8972 158.87 55.1271 161.319 54.2583C161.928 53.4543 162.568 52.6786 163.24 51.9198ZM169.849 18.8054C168.455 20.244 167.008 21.8407 165.541 23.6009C167.372 22.6982 168.862 22.0099 169.917 21.5247C170.343 21.1213 170.791 20.6926 171.262 20.2356L172.196 18.6925L169.849 18.8054ZM53.0585 74.4051L53.05 73.508L52.6297 74.6082L53.0585 74.4023V74.4051ZM85.5975 43.1045C84.2632 43.8492 82.9853 44.5742 81.761 45.2879L84.6017 43.8802C84.9402 43.6207 85.2731 43.3612 85.5975 43.1045ZM60.4379 67.7309L61.0811 69.5475C62.0064 68.2809 62.9119 67.0031 63.8343 65.7365C62.7031 66.3994 61.5748 67.0651 60.4379 67.7309ZM131.592 64.8169C131.665 64.7915 131.747 64.7633 131.823 64.7379C133.155 64.0976 134.345 63.5362 135.448 63.0172C135.482 62.9777 135.516 62.941 135.55 62.9071C135.603 62.8564 135.651 62.8056 135.699 62.7548C134.447 63.2851 133.251 63.7901 132.086 64.2809L131.592 64.8169ZM156.108 31.8548C155.668 32.1087 155.228 32.3654 154.783 32.6305C155.169 32.4754 155.561 32.3203 155.953 32.1623C155.993 32.0664 156.046 31.9648 156.108 31.8548ZM157.651 24.7377C156.467 25.3583 155.223 26.0099 153.902 26.6982C154.173 26.7631 154.419 26.907 154.608 27.1101C155.987 26.0381 156.935 25.3019 157.651 24.7377ZM116.757 34.7434C116.046 35.1129 115.358 35.474 114.672 35.8294C113.685 36.718 112.723 37.584 111.778 38.4303C112.954 37.9677 114.131 37.5079 115.307 37.0509C115.2 36.5713 115.341 36.0495 115.727 35.694L116.757 34.7434ZM68.1023 64.7069C69.4676 63.3895 70.7483 62.1878 71.9585 61.082C71.3915 61.4008 70.8216 61.7195 70.2603 62.0411C69.5156 62.91 68.7991 63.8014 68.1023 64.7069ZM124.963 50.9663C125.031 50.8789 125.098 50.7942 125.172 50.7096C125.273 50.5827 125.375 50.4586 125.485 50.3344C125.505 50.2103 125.538 50.0862 125.584 49.9705C122.139 51.4543 118.949 52.8591 115.795 54.2837C115.719 54.3627 115.654 54.4417 115.578 54.5235C118.641 53.3274 121.77 52.1398 124.963 50.9663ZM115.262 48.8027C116.486 48.2047 117.643 47.649 118.751 47.1271C118.867 47.0171 118.983 46.9071 119.104 46.797C116.385 47.8803 113.956 48.8563 111.705 49.7815C109.248 51.003 106.847 52.2047 104.512 53.3866C107.801 51.9649 111.372 50.4388 115.262 48.8027ZM110.782 41.869C110.782 41.8633 110.791 41.8577 110.791 41.852C109.031 42.5573 107.273 43.2766 105.527 44.0213C104.858 44.625 104.193 45.2145 103.544 45.7928C105.798 44.5544 108.179 43.2681 110.782 41.869ZM93.9304 70.3374L102.788 67.8042C102.89 67.539 103.039 67.2344 103.234 66.8987C103.403 66.611 103.572 66.3261 103.733 66.044C100.06 67.5926 96.8133 69.02 93.9304 70.3374ZM108.227 64.1794C107.928 64.6307 107.637 65.0905 107.341 65.556C108.207 64.9438 109.22 64.1935 110.418 63.288C109.674 63.5898 108.943 63.886 108.227 64.1794ZM114.289 63.855C115.445 63.4205 116.602 62.9946 117.758 62.5658C118.277 61.6913 118.78 60.8056 119.279 59.917C117.406 61.4149 115.747 62.721 114.286 63.855H114.289ZM136.546 46.8619C139.285 45.931 142.06 45.0142 144.859 44.1228C146.354 42.8534 147.993 41.443 149.826 39.852C149.852 39.8125 149.886 39.7759 149.919 39.7392C145.578 41.5474 141.708 43.1609 138.176 44.6391C137.682 45.3161 137.141 46.0523 136.546 46.8619ZM135.626 56.2837L135.806 56.0862C135.713 56.1624 135.626 56.2386 135.53 56.3147C135.564 56.3034 135.592 56.2922 135.626 56.2837ZM121.804 61.0989C122.263 60.9325 122.723 60.7689 123.191 60.6025C123.97 59.4882 124.706 58.436 125.417 57.4318C125.155 57.5305 124.89 57.6293 124.605 57.7365C124.227 57.8803 123.854 58.0242 123.482 58.1652C122.907 59.1328 122.359 60.1145 121.804 61.0989ZM129.854 56.0552C130.001 55.9424 130.151 55.8267 130.3 55.7167C130.204 55.7477 130.117 55.7816 130.021 55.8126C129.967 55.8916 129.908 55.9734 129.852 56.0552H129.854Z" fill="var(--fill-0, #719DE3)"/>
</svg>
