<svg preserveAspectRatio="none" width="100%" height="100%" overflow="visible" style="display: block;" viewBox="0 0 34.3697 29.3159" fill="none" xmlns="http://www.w3.org/2000/svg">
<path id="Vector" fill-rule="evenodd" clip-rule="evenodd" d="M2.40058 15.2547C2.52187 15.0515 2.69113 14.8767 2.91398 14.7497L6.725 12.5579C6.66858 12.4902 6.62345 12.414 6.57549 12.3322C6.23134 11.6665 6.46548 10.8484 7.11146 10.4648L24.4007 0.196756C25.058 -0.192526 25.9099 0.013399 26.3161 0.659382C26.7223 1.30819 26.5389 2.16291 25.8958 2.58605L24.632 3.42667C24.742 3.53387 24.8351 3.65799 24.9084 3.80185C25.12 4.20806 25.1116 4.67068 24.931 5.05715C25.2554 5.1728 25.546 5.41258 25.7152 5.74262C26.0396 6.38296 25.8365 7.16717 25.2329 7.56491L24.2455 8.21372C24.2794 8.23629 24.3076 8.25885 24.333 8.28424L25.0297 7.93727L25.6616 10.6115L25.9437 10.5325L27.5488 9.8047L26.979 9.18692C26.4938 8.65378 26.4853 7.83854 26.9677 7.29693C27.4473 6.75532 28.2512 6.66505 28.8408 7.08818C30.113 8.00215 31.3175 9.00639 32.5897 9.92035C33.7576 10.7666 34.2061 11.5283 34.3218 12.1348L34.3697 12.5692L34.3274 12.9923L34.144 13.5537C34.0763 13.7003 33.9889 13.8499 33.8817 14.0022C33.4755 14.5917 32.6038 15.2434 31.6278 16.2081C31.6476 16.2138 31.6701 16.2194 31.6899 16.2279C32.1948 16.3971 32.5615 16.84 32.6349 17.3675C32.711 17.8978 32.4797 18.4197 32.0397 18.7243L31.3232 19.2208C31.2216 19.4662 31.0467 19.6863 30.8097 19.8442L17.0692 29.077C16.426 29.5086 15.56 29.3393 15.12 28.699C14.6855 28.0587 14.8492 27.187 15.4867 26.7469L17.529 25.3337L10.6206 28.1715C9.94363 28.4479 9.16507 28.163 8.82656 27.5086C8.65731 27.1785 8.63192 26.809 8.73347 26.4733L7.81386 26.9162L7.19609 27.0544L6.48804 24.4282L6.96195 24.1489C6.91964 24.0925 6.88015 24.0304 6.8463 23.9627C6.73064 23.754 6.68269 23.5255 6.68269 23.3026C6.4006 23.5255 6.04234 23.644 5.65588 23.6045C5.24967 23.5593 4.90553 23.3506 4.67421 23.0459C4.55856 23.029 4.45136 23.0008 4.34981 22.9585C2.79268 22.9726 1.92103 22.84 1.44147 22.6651L0.899864 22.3971L0.406208 21.9571L0.189 21.6101L0.0535969 21.2547L0 20.4902C0.236955 17.8104 1.35403 16.1968 2.40058 15.2575V15.2547ZM29.6024 14.2448C29.4275 14.2363 29.2442 14.2307 29.0749 14.2194C29.1906 14.2843 29.2921 14.3633 29.388 14.4592C29.4614 14.3858 29.5347 14.3125 29.6024 14.2448Z" fill="var(--fill-0, #DDEAFF)"/>
</svg>
