<svg preserveAspectRatio="none" width="100%" height="100%" overflow="visible" style="display: block;" viewBox="0 0 19.0217 17.9332" fill="none" xmlns="http://www.w3.org/2000/svg">
<path id="Vector" fill-rule="evenodd" clip-rule="evenodd" d="M11.7212 0.53227C12.1556 0.458928 12.6154 0.588688 12.9455 0.921553C13.236 1.20928 13.3799 1.59575 13.3658 1.97656L13.9272 1.53086C14.4942 1.08516 15.315 1.14158 15.8143 1.66063C16.2882 2.15146 16.3418 2.91028 15.9497 3.46035C16.5308 3.05132 17.3292 3.13595 17.8115 3.67192C18.3052 4.22481 18.2826 5.07108 17.7636 5.60141L15.1458 8.27279L17.2897 6.95543C17.1937 7.01749 17.1007 7.08801 17.0245 7.167L17.0386 7.15571C16.9624 7.22906 16.8976 7.31086 16.8411 7.39831C16.7734 7.49422 16.7283 7.59859 16.6944 7.70861C16.6126 7.94274 16.5985 8.19944 16.6465 8.44768C16.6521 8.47871 16.6578 8.50974 16.6719 8.54077C16.686 8.59155 16.7001 8.64232 16.7198 8.6931C16.937 9.2206 17.4504 9.56757 18.0259 9.56757L19.0217 9.15854L13.7635 14.3603L15.1909 14.112C15.9554 13.9766 16.686 14.49 16.8214 15.2573C16.9568 16.0246 16.4434 16.7552 15.6705 16.8878L9.81148 17.9118C9.20217 18.019 8.60132 17.7171 8.31641 17.1699C8.07381 16.696 8.12177 16.1318 8.41796 15.7086L6.83544 16.679C6.22613 17.0542 5.44192 16.9132 4.99622 16.3574C4.55616 15.7989 4.59566 14.9978 5.08931 14.49L5.19086 14.3913C5.08931 14.3321 4.9934 14.2587 4.91442 14.1713C4.4123 13.6522 4.37845 12.8342 4.84672 12.2813L4.88621 12.2361L3.40524 13.4012C2.82978 13.8553 1.99762 13.7904 1.50396 13.2545C1.47011 13.2234 1.44472 13.1896 1.41651 13.1557C1.05826 13.1586 0.700008 13.0232 0.42074 12.7524C-0.112408 12.2277 -0.146259 11.3701 0.361501 10.8088L9.56042 0.473032C10.0541 -0.082683 10.8947 -0.158847 11.4814 0.298137C11.5717 0.368659 11.6507 0.447643 11.7184 0.535091L11.7212 0.53227Z" fill="var(--fill-0, #DDEAFF)"/>
</svg>
