<svg preserveAspectRatio="none" width="100%" height="100%" overflow="visible" style="display: block;" viewBox="0 0 16.1386 15.6413" fill="none" xmlns="http://www.w3.org/2000/svg">
<path id="Vector" fill-rule="evenodd" clip-rule="evenodd" d="M11.142 1.20933L11.8783 0.856721C12.5271 0.546423 13.3056 0.774915 13.6865 1.38423C14.0645 1.99354 13.9234 2.79185 13.3621 3.23755L12.4876 3.92303C12.8825 4.01612 13.2267 4.28128 13.4213 4.6621C13.7119 5.24602 13.5652 5.95689 13.063 6.37438L12.7245 6.66211L13.8557 6.12614C14.5186 5.81302 15.3085 6.06126 15.6752 6.69596C16.0391 7.33066 15.8557 8.14025 15.2605 8.56057L15.0574 8.69879C15.4298 8.78906 15.7542 9.02601 15.9573 9.37862C16.3043 9.99358 16.1406 10.7721 15.5736 11.1953C14.1999 12.2362 12.8797 12.5493 11.8388 12.8032C11.6018 12.8624 11.2718 12.9724 11.1279 13.0232C11.1279 13.1868 11.1364 13.5902 11.2097 13.9485C11.3649 14.7101 10.8712 15.4576 10.1068 15.6128C9.3423 15.7679 8.6004 15.2743 8.44243 14.5126C8.41705 14.3744 8.3973 14.239 8.37755 14.1093L5.70335 15.1699C5.0348 15.4351 4.27598 15.1586 3.93747 14.5267C3.85002 14.3547 3.79643 14.1713 3.77668 13.988C3.18712 14.1544 2.54395 13.9203 2.20545 13.3899C1.82745 12.7919 1.94875 12.0049 2.49036 11.5479L3.11941 11.0232C2.63986 11.0627 2.14621 10.8539 1.84719 10.4336C1.56228 10.0331 1.51433 9.52813 1.68358 9.09935C1.44945 9.0514 1.23224 8.94421 1.04888 8.78624C0.704734 8.69597 0.391616 8.47312 0.196974 8.14307C-0.175383 7.51684 -0.00613045 6.70724 0.589077 6.28129L8.92481 0.267156C9.53976 -0.181365 10.4058 -0.0516049 10.8656 0.554886C11.0207 0.752349 11.1082 0.97802 11.1448 1.20933H11.142Z" fill="var(--fill-0, #DDEAFF)"/>
</svg>
