<svg preserveAspectRatio="none" width="100%" height="100%" overflow="visible" style="display: block;" viewBox="0 0 18.1676 16.3134" fill="none" xmlns="http://www.w3.org/2000/svg">
<path id="Vector" fill-rule="evenodd" clip-rule="evenodd" d="M2.13732 6.06838C2.13732 6.06274 2.13732 6.05709 2.13168 6.05145C1.82703 5.35469 2.13168 4.53946 2.81434 4.20941L11.3165 0.138872C11.9935 -0.185529 12.7975 0.0768129 13.1642 0.73408C13.4152 1.19388 13.3786 1.73832 13.1247 2.15863C13.3052 2.25736 13.4688 2.40122 13.5958 2.58458C14.3348 3.63677 14.6846 4.4774 14.7947 5.16005C15.3222 5.16569 15.8215 5.46753 16.0584 5.97247C16.3631 6.61281 16.1402 7.38009 15.545 7.76091L13.9625 8.76797L14.0161 8.7595C14.6028 8.66642 15.1783 8.9485 15.4717 9.45626L16.978 9.69604C17.5337 9.78349 17.9794 10.1953 18.1233 10.7398C18.2643 11.2842 18.0612 11.8625 17.6212 12.2066L15.9371 13.5042C15.844 13.7722 15.6607 14.012 15.4096 14.1813L12.6226 16.0712C11.9935 16.4972 11.1331 16.3477 10.6874 15.7299C10.5718 15.5719 10.4984 15.3971 10.4589 15.2165L9.99632 15.3011C9.37008 15.4168 8.7382 15.0952 8.46176 14.5141C8.19095 13.933 8.3461 13.2447 8.83411 12.8329L9.39547 12.3674L7.68319 12.6439C7.02028 12.7511 6.37712 12.3787 6.14017 11.7553C6.02733 11.4563 6.01887 11.1432 6.10631 10.8554L4.36865 11.414C3.71138 11.6283 2.99487 11.3293 2.67611 10.7116V10.7059L2.54917 10.6749L2.10347 10.3984L1.73112 9.8794L1.65777 9.58885C1.06256 9.69604 0.44479 9.40267 0.154238 8.84413C-0.175806 8.19251 0.0385823 7.39702 0.656356 7.00773L2.13732 6.06838ZM2.85383 9.16853V9.16571C2.85383 9.15443 2.85947 9.14314 2.85947 9.13468H2.85383V9.16853ZM11.0542 3.61421L10.8905 3.71576C10.8652 3.76089 10.8313 3.80038 10.8031 3.83988C10.9188 3.8568 11.0344 3.88501 11.1416 3.92732C11.1021 3.82577 11.0683 3.7214 11.0542 3.61421ZM12.0076 5.45625C11.9935 5.5578 11.9653 5.65089 11.9315 5.74398C11.9653 5.70166 11.9992 5.65371 12.0189 5.60011C12.0415 5.5578 12.0274 5.50984 12.0076 5.45625Z" fill="var(--fill-0, #DDEAFF)"/>
</svg>
