<svg preserveAspectRatio="none" width="100%" height="100%" overflow="visible" style="display: block;" viewBox="0 0 217.244 107.131" fill="none" xmlns="http://www.w3.org/2000/svg">
<path id="Vector" fill-rule="evenodd" clip-rule="evenodd" d="M17.809 105.506C16.7456 105.083 10.0516 102.11 5.27865 97.3197C1.74972 93.7823 -0.679064 89.2915 0.170024 84.197C1.01347 79.1476 5.25609 73.1786 16.1927 66.9952C38.6582 54.2899 92.808 24.8991 134.241 9.65782C152.388 2.9836 168.174 -0.931792 177.965 0.190921C193.993 2.02732 206.326 11.2601 212.58 20.868C217.048 27.7397 218.371 34.854 216.267 39.8977C212.747 48.3181 209.424 54.5297 194.828 62.3576C180.91 69.8189 156.289 78.8655 110.069 93.1561C49.1322 111.994 35.3042 106.688 18.5538 105.67C18.2942 105.655 18.0432 105.599 17.809 105.506ZM19.2449 100.908C35.5073 101.966 49.3438 106.908 108.647 88.5722C154.399 74.4282 178.792 65.517 192.566 58.132C205.652 51.1136 208.693 45.5988 211.844 38.0472C213.46 34.1657 212.01 28.7778 208.566 23.4886C202.941 14.8511 191.83 6.60844 177.426 4.9554C168.106 3.8891 153.147 7.81296 135.897 14.16C94.7093 29.3081 40.8839 58.541 18.5538 71.1701C9.51563 76.2787 5.59177 80.8119 4.90066 84.984C4.31673 88.4988 6.23776 91.4946 8.67218 93.9347C12.4747 97.7513 17.6906 100.234 19.2449 100.911V100.908Z" fill="var(--fill-0, #4356B1)"/>
</svg>
