<svg preserveAspectRatio="none" width="100%" height="100%" overflow="visible" style="display: block;" viewBox="0 0 56.48 92.4881" fill="none" xmlns="http://www.w3.org/2000/svg">
<path id="Vector" fill-rule="evenodd" clip-rule="evenodd" d="M4.26527 22.626C3.92677 22.4963 3.64186 22.2367 3.48671 21.8813C3.17359 21.1733 3.49235 20.3439 4.19475 20.028L4.86612 19.7262L19.7294 11.2184C20.3782 10.8488 21.2047 11.0491 21.6109 11.6725C21.6899 11.8023 21.752 11.9377 21.7915 12.0787L23.6786 10.8968C24.0312 10.6768 24.4431 10.6288 24.8155 10.736L27.0073 9.74586C27.6645 9.44966 28.4347 9.6979 28.8014 10.31L35.7436 6.767C36.0934 6.58928 36.4798 6.56954 36.824 6.6852C38.0144 6.07306 39.3092 5.40733 40.7281 4.6739C41.3966 4.32975 42.2232 4.57517 42.5955 5.22962C42.793 5.56812 42.8325 5.95459 42.7309 6.30438L46.1668 2.02509L47.1964 4.17461L50.0088 0.546944C50.4376 -0.00595104 51.1992 -0.161099 51.8085 0.180228C52.4179 0.518735 52.6887 1.25499 52.4461 1.90661C51.5123 4.38053 50.4912 6.81778 49.4277 9.2381L50.7281 7.24373C51.1118 6.65417 51.8706 6.43696 52.5053 6.73879C52.6548 6.80931 52.7902 6.9024 52.9002 7.01242C53.1823 6.31566 53.4672 5.60479 53.7662 4.87983C54.0568 4.16614 54.8692 3.81635 55.5857 4.09844C56.3022 4.38335 56.6605 5.1873 56.3897 5.90945L54.7789 10.1831C55.3685 10.5272 55.6308 11.2579 55.3826 11.9123C55.3826 11.9151 55.3826 11.9151 55.377 11.9179C52.8664 18.3947 50.0116 24.7389 47.501 31.2156C47.3995 31.4723 47.3036 31.7262 47.2048 31.9745C47.3177 31.9857 47.4277 32.0055 47.5434 32.045C48.2317 32.2791 48.6322 33.0097 48.4545 33.7206C46.2147 42.7361 44.6407 49.1057 43.5151 53.6727C43.9778 54.0535 44.1526 54.6967 43.9213 55.2778L41.8311 60.5331C40.7224 65.0494 40.5588 65.7123 40.1667 67.0748C38.5447 72.7532 36.1441 78.1891 34.5193 83.8675C34.3106 84.6009 33.5574 85.0325 32.8211 84.8492C32.6039 84.7956 32.4149 84.694 32.2598 84.5586L30.5278 88.9C30.2569 89.5713 29.5348 89.9296 28.8437 89.7378C28.5193 89.6475 28.2485 89.45 28.0651 89.1933C27.9382 89.3005 27.7943 89.3852 27.6392 89.4416L27.0976 90.5897C26.7731 91.2893 25.941 91.5939 25.2386 91.2752C25.1963 91.2554 25.1568 91.2328 25.1173 91.2103C24.5193 91.6701 23.831 91.9324 22.8493 92.1948C21.1596 92.6517 20.192 92.4007 19.6166 91.9776L19.0608 92.4881C18.4995 92.4881 17.9861 92.1496 17.7632 91.6278L16.2484 88.0255C16.1243 88.0086 16.003 87.9719 15.8902 87.9183C15.4021 87.6983 15.0975 87.23 15.0636 86.7251L14.144 87.7744C13.4614 87.7744 12.8803 87.2864 12.7561 86.6179L12.2089 83.6164C11.8112 83.8731 11.2893 83.9239 10.8351 83.7067C10.1525 83.3823 9.84781 82.5755 10.1468 81.8816C10.5728 80.8774 10.979 79.9211 11.3626 79.0128L10.5051 74.2991C9.84781 73.9549 9.5629 73.1566 9.87038 72.4768C9.94372 72.316 10.0114 72.1608 10.0848 72.0057L9.22722 67.3145C8.95077 67.4443 8.63201 67.481 8.31325 67.4076C8.05091 67.3427 7.81959 67.213 7.6447 67.0324L5.01281 71.0973C4.64045 71.6756 3.9042 71.8985 3.26668 71.6248C2.63762 71.3484 2.29911 70.6545 2.46272 69.9859C3.34002 66.4965 4.08473 63.5656 4.70251 61.1029C4.09884 60.8208 3.7688 60.1354 3.93805 59.4696L7.03539 47.6332C6.44018 48.0817 5.60237 47.9858 5.11436 47.4188C4.62635 46.8462 4.6743 45.9914 5.22437 45.478L8.37531 42.5076L9.70959 37.4075L6.56994 39.4272C5.96063 39.8222 5.14821 39.6868 4.70251 39.1169C4.24835 38.5471 4.31041 37.7291 4.83227 37.2241L9.55162 32.6853L3.93241 36.9392C3.33438 37.3877 2.50504 37.2975 2.01702 36.7333C1.52901 36.1719 1.56286 35.3285 2.09037 34.8066L5.48672 31.4695L3.55159 32.9843C2.95638 33.4526 2.09601 33.3623 1.60235 32.7812C1.11716 32.2029 1.17076 31.3398 1.73211 30.8292L9.33723 23.9152C9.32313 23.8926 9.30902 23.87 9.29492 23.8475C9.22722 23.7375 9.17926 23.6246 9.14541 23.5061L7.50929 24.3411L2.15807 27.6923C1.51491 28.0957 0.668638 27.9152 0.242684 27.289C-0.18327 26.6627 -0.0337631 25.8108 0.575549 25.3623L4.26809 22.6317L4.26527 22.626ZM7.95782 61.3399L8.66022 56.9365C8.27658 58.4598 7.82241 60.2539 7.2808 62.378L7.95782 61.3399ZM24.0736 88.0819C23.862 87.9663 23.6927 87.8055 23.5799 87.6165L23.4163 87.9606C23.0919 88.6489 22.2795 88.962 21.5827 88.6574C21.4953 88.6207 21.4191 88.5812 21.3458 88.5304C21.3655 88.9141 21.3994 89.3287 21.4276 89.5995C21.6166 89.5742 21.8817 89.5318 22.1187 89.467C23.0834 89.2074 23.5376 88.9225 24.0736 88.0819ZM36.9001 59.2581L34.1667 66.3526L37.3035 60.5134C37.4276 60.2877 37.5969 60.1072 37.8 59.983C38.4629 58.9309 39.171 57.9012 39.8282 56.849C40.2965 54.9703 40.8635 52.6459 41.58 49.7404L37.831 58.4513C37.6561 58.8632 37.3035 59.1509 36.9001 59.2581ZM44.9425 12.389L43.0892 14.8488L43.1766 15.0717C43.1879 15.1394 43.202 15.2071 43.2161 15.2748L43.9411 14.6062C44.2711 13.8672 44.604 13.1281 44.9425 12.389ZM20.271 27.2466L24.161 24.1916L19.5658 26.9589L17.2329 29.2043L20.271 27.2466ZM37.453 12.8883L39.1512 10.7755C35.4925 13.4074 32.8522 15.334 30.5813 17.0294L37.453 12.8883ZM21.1568 86.0227C21.2527 85.7801 21.3458 85.5403 21.4417 85.3033C21.3204 85.3682 21.1906 85.4133 21.0637 85.4416C21.0975 85.639 21.1285 85.8337 21.1568 86.0227ZM14.0735 43.4216L14.6067 41.8278C14.3556 42.0225 14.0933 42.2199 13.8281 42.423L13.6052 43.8532L14.0735 43.4216ZM15.656 48.4682L17.247 46.959L19.1539 44.014L16.4431 45.9717L15.656 48.4682ZM36.6547 49.0521C37.4812 46.5387 38.1977 44.3469 38.8409 42.3892L38.7394 42.4287L38.1836 42.4935L37.8536 42.4625L37.5489 42.361L37.1089 42.045L36.8917 41.7573L36.8099 41.5626L34.4488 44.4851C34.9989 44.8659 35.2076 45.5909 34.9227 46.2171C31.2555 54.3582 29.0299 59.1932 27.1765 63.4217L34.5532 49.5091C34.9114 48.8377 35.7295 48.5669 36.4121 48.8998C36.4996 48.9421 36.5814 48.9929 36.6547 49.0521ZM18.539 39.3341L21.5207 36.5979C20.6349 37.258 19.7209 37.9463 18.7421 38.6882L18.539 39.3341ZM30.2626 32.4202C30.2626 32.4427 30.2682 32.4653 30.2767 32.4879L32.2739 31.0407C32.3529 30.8151 32.429 30.5866 32.508 30.3581L30.2626 32.4202ZM14.6546 57.6445L13.4501 59.5289L13.9804 62.189C14.1356 61.9802 14.35 61.8138 14.6095 61.7151C14.6349 61.7038 14.6687 61.6953 14.6969 61.684C15.7576 59.3117 16.6518 57.3229 17.4022 55.6473L14.6546 57.6445ZM36.7704 41.4808L36.7563 41.447L36.6547 40.7784C36.6434 40.1014 36.8183 38.5217 37.123 36.5838L35.0581 39.5175L35.8367 41.9265L36.7704 41.4808ZM40.4629 33.5541C40.9312 32.406 41.4643 31.0661 42.0878 29.5062L40.9453 31.1395C40.776 31.9321 40.6209 32.7502 40.4629 33.5541ZM31.7633 25.2184L31.7379 25.2354L31.7436 25.2438L31.7633 25.2184ZM28.0567 47.9125L27.4417 48.361C27.3317 48.6008 27.2245 48.8405 27.1229 49.0831L28.0369 47.9435L28.0567 47.9125Z" fill="var(--fill-0, #4375C4)"/>
</svg>
