<svg preserveAspectRatio="none" width="100%" height="100%" overflow="visible" style="display: block;" viewBox="0 0 27.525 36.5452" fill="none" xmlns="http://www.w3.org/2000/svg">
<path id="Vector" fill-rule="evenodd" clip-rule="evenodd" d="M2.02712 6.54925C2.26407 6.02456 2.80568 5.67477 3.41499 5.71709C4.17945 5.76786 4.76056 6.42513 4.72671 7.19241L4.59977 9.74531C4.77466 9.60145 4.99187 9.50272 5.22036 9.45758L6.22178 5.17266C6.39103 4.43922 7.10754 3.97096 7.84661 4.10636C8.58286 4.23894 9.09062 4.93006 8.98907 5.67759L8.83392 6.88493L11.683 5.75658C11.999 5.31934 12.549 5.10213 13.0822 5.20369L19.401 2.7072C19.5223 2.65924 19.6436 2.63104 19.7649 2.61693L25.0851 0.13173C25.6436 -0.127791 26.3009 0.00478969 26.7212 0.453311C27.133 0.907474 27.2092 1.57602 26.9045 2.10917L24.0836 7.05701C24.5717 6.69029 25.2459 6.66491 25.7536 7.0288C26.3488 7.45193 26.5237 8.25871 26.1598 8.88776L24.9412 10.978C24.975 11.0429 25.0089 11.1078 25.0427 11.1783C25.26 11.6551 25.4292 12.0866 25.5562 12.4929C26.0019 12.301 26.5378 12.349 26.9581 12.6593C27.5533 13.105 27.7028 13.9372 27.2966 14.5606C24.7381 18.4731 23.0004 20.6678 18.8594 27.2151C17.968 28.7412 16.9722 30.476 15.8833 32.4591C15.7338 32.7355 15.5053 32.9387 15.2402 33.0599C14.6986 33.9372 14.1372 34.871 13.542 35.8639C13.1386 36.5296 12.2726 36.744 11.6069 36.3435C10.9383 35.9429 10.7211 35.0741 11.1273 34.4083C11.2486 34.2024 11.3727 33.9993 11.494 33.799C11.3586 33.7793 11.2232 33.737 11.0991 33.6749C10.6139 33.4408 10.329 32.9697 10.3008 32.4676L10.0779 32.8512C9.82687 33.2856 9.36989 33.5564 8.86213 33.5564L7.5758 31.5677L7.64915 31.3984C7.494 31.3759 7.33885 31.3251 7.18934 31.2433C6.93264 31.1023 6.72954 30.8879 6.60824 30.6424C6.58849 30.6453 6.56593 30.6481 6.54618 30.6509C6.52643 31.3872 6.50669 32.1262 6.49258 32.8625V32.8653C6.47848 33.6439 5.83532 34.2616 5.05675 34.2475C4.28101 34.2334 3.65759 33.5903 3.67169 32.8117V32.8089L3.74504 29.0571L3.60963 29.83C3.5504 30.1516 3.38678 30.4309 3.16393 30.634L3.15829 30.6763L1.78452 31.7652C1.39242 31.7652 1.0257 31.6072 0.763357 31.3279C0.729507 31.2969 0.701298 31.2659 0.67591 31.232C0.464343 30.9612 0.357149 30.6255 0.376895 30.2842L0.396642 29.8723C0.128658 29.5931 -0.0293126 29.2066 0.00453807 28.7891L1.54756 7.51681C1.57577 7.12753 1.75631 6.78902 2.02712 6.55207V6.54925ZM22.9779 14.3546L22.8171 14.6367C22.7973 14.7439 22.7635 14.8539 22.7155 14.9583L22.3629 15.7453C22.4052 15.7538 22.4447 15.7651 22.4842 15.7792C22.7635 15.2348 22.9327 14.7891 22.9779 14.3546ZM8.44746 9.78481L7.62376 16.0726L10.1456 9.57606L9.07652 9.79891C8.86213 9.84122 8.65056 9.83558 8.44746 9.78481ZM12.5124 11.404L12.4983 11.3222L12.3854 11.6099L12.5124 11.404Z" fill="var(--fill-0, #4375C4)"/>
</svg>
