<svg preserveAspectRatio="none" width="100%" height="100%" overflow="visible" style="display: block;" viewBox="0 0 46.2369 31.5785" fill="none" xmlns="http://www.w3.org/2000/svg">
<path id="Vector" fill-rule="evenodd" clip-rule="evenodd" d="M0.485209 7.05242C0.640358 6.66596 0.967581 6.37541 1.35122 6.24847C1.18197 5.98612 1.10298 5.66736 1.13683 5.33732C1.21864 4.62646 1.81385 4.08485 2.53035 4.0792L8.11007 4.03407L2.55574 2.93674C1.80539 2.79006 1.31173 2.06791 1.44149 1.31473C1.57689 0.558736 2.27929 0.0453349 3.03811 0.15817L6.73066 0.708243C7.02967 0.194842 7.62488 -0.0900675 8.22573 0.0255887L17.5883 1.85634C17.5544 1.55733 17.6165 1.24139 17.7914 0.967765C18.1976 0.304856 19.0636 0.096111 19.7265 0.50514C20.395 0.916989 20.6884 1.11727 22.8323 2.87751L27.4388 3.78019C28.1892 3.92688 28.6913 4.64902 28.5531 5.4022C28.4459 6.04536 27.9184 6.51363 27.2949 6.57005C27.3232 6.59261 27.3514 6.61518 27.3767 6.63493C27.4924 6.64339 27.6081 6.66596 27.7237 6.70263C28.1553 6.57851 28.6433 6.66878 29.0072 6.97061L29.8394 7.65609C35.0411 8.79009 38.0736 9.26682 40.0623 9.75483C42.8775 10.4459 43.8902 11.1596 45.4728 13.2584C46.1244 14.1216 46.3247 14.8494 46.2034 15.5376L46.0905 15.9608L45.9072 16.3388C45.7915 16.5362 45.6364 16.745 45.4333 16.9594C45.0214 17.3882 44.3359 17.9016 43.2894 18.5616C42.5306 19.0412 41.5489 19.6195 40.3105 20.3416C40.3105 20.3501 40.3049 20.3557 40.3049 20.3614C40.2992 20.3896 40.2851 20.415 40.2767 20.4404C40.0538 20.965 39.5489 21.3064 38.9734 21.3064L38.7844 21.2387C35.9946 22.8691 32.2005 25.1089 27.12 28.3022C26.4712 28.7056 25.625 28.525 25.199 27.8903C25.1511 27.817 25.1059 27.7408 25.0693 27.6618L24.1976 28.1893C24.1017 28.2486 24.0001 28.2937 23.8986 28.3276L23.7096 28.5645L22.4317 30.8551C22.0791 31.4898 21.3006 31.7521 20.632 31.4587C20.5361 31.4164 20.4486 31.3628 20.3612 31.3008C20.2258 31.2613 20.0989 31.1964 19.9691 31.1118C19.3654 30.6886 19.1849 29.8706 19.5629 29.2359L20.2455 28.0765C20.017 27.9242 19.8252 27.7013 19.718 27.4277L19.2582 26.2937C19.2103 26.3529 19.151 26.4065 19.089 26.4545C19.0946 27.061 18.7053 27.6223 18.096 27.8113C17.8111 27.8988 17.5206 27.8903 17.2554 27.8057L17.23 27.8593L17.2836 27.9439L16.0706 30.0821C15.5911 30.0821 15.1538 29.8395 14.8887 29.439L9.67849 21.3995L0.282105 8.97062C-0.0902527 8.47133 -0.0958938 7.78021 0.276463 7.27809C0.335702 7.19628 0.411865 7.12012 0.485209 7.05524V7.05242ZM34.4797 11.4925L34.5757 11.5687C34.8662 11.5856 35.1511 11.6928 35.3881 11.8902C35.5714 12.0397 35.704 12.2259 35.7858 12.429L36.24 12.6914C36.5446 12.8663 36.7618 13.1455 36.869 13.4643L38.8042 15.0581C38.8578 15.1061 38.9114 15.154 38.9593 15.2076L39.8394 14.6688C40.271 14.4008 40.7929 14.398 41.2104 14.6124L42.3472 13.9297C41.6025 13.202 40.8267 12.8493 39.3909 12.4939C38.2061 12.2062 36.6518 11.9184 34.4797 11.4925ZM10.4091 12.965L10.4853 13.1343L10.4712 12.9904L10.4119 12.965H10.4091ZM13.6841 19.5856C13.8675 19.8198 14.065 20.0595 14.2596 20.3078C14.3217 20.3811 14.3753 20.4545 14.4373 20.5306L13.5685 17.6279L13.6841 19.5856ZM27.4783 15.8056L27.7914 15.2781L27.6899 15.1794L27.4783 15.8028V15.8056ZM16.3978 6.78726L14.5981 6.80136L16.5332 7.24142L16.4655 6.81829L16.3978 6.78726ZM16.9648 15.6731C17.0325 15.5123 17.1031 15.3543 17.1679 15.1963C17.0692 15.2076 16.9592 15.2132 16.8379 15.2076L16.9648 15.6731ZM17.2921 12.1187C17.4529 12.0369 17.608 11.9495 17.718 11.8959L18.4345 11.6448L18.9761 11.6279L19.0043 11.6335L18.4148 9.98896C18.1722 10.1977 17.8534 10.3218 17.5093 10.3218C17.467 10.3218 17.4275 10.3218 17.388 10.3162L15.8026 10.1836L16.6433 12.257L17.0354 12.4206C17.1567 12.4713 17.2723 12.5419 17.3739 12.6209L17.2921 12.1187ZM30.1243 20.6237L32.3838 19.2387C32.0735 19.2245 31.7689 19.1117 31.5178 18.8973L30.1243 20.6237ZM34.3585 18.0257L33.8309 17.5997C33.8789 17.8818 33.8394 18.1667 33.7153 18.4178L34.3585 18.0257ZM21.3513 9.02986L21.0128 8.87753L22.2907 12.4544L23.3513 10.9735L21.3485 9.02986H21.3513Z" fill="var(--fill-0, #4375C4)"/>
</svg>
