<svg preserveAspectRatio="none" width="100%" height="100%" overflow="visible" style="display: block;" viewBox="0 0 61.4231 105.015" fill="none" xmlns="http://www.w3.org/2000/svg">
<g id="Group">
<path id="Vector" fill-rule="evenodd" clip-rule="evenodd" d="M1.5489 21.5566L58.1811 0.154533C58.9878 -0.150123 59.899 0.00220493 60.5591 0.555099C61.2192 1.10517 61.5379 1.97401 61.3856 2.82309C59.9582 10.7752 59.3884 10.589 57.8031 18.51C57.5153 19.9515 54.8411 37.3959 52.4829 47.9319C49.6958 60.3325 43.9215 78.499 39.0724 89.7798C36.8241 95.0012 34.669 98.801 33.1203 100.214C28.3474 104.584 24.1583 105.687 20.652 104.657C17.25 103.659 14.2232 100.46 11.8028 95.241C5.57149 81.8136 2.56442 54.104 0.00869787 24.0023C-0.0815706 22.9332 0.547488 21.9346 1.5489 21.5566ZM4.94243 25.4043C7.40225 54.1125 10.1865 80.3749 16.1442 93.2213C17.8283 96.8546 19.6336 99.3623 22.0032 100.056C24.2712 100.722 26.793 99.509 29.8876 96.674C31.1767 95.4977 32.7959 92.2339 34.669 87.8841C39.4222 76.8319 45.0837 59.0321 47.8087 46.8825C50.1585 36.386 52.8157 19.0065 53.1063 17.5707C54.3362 11.4155 54.9483 10.1856 55.8369 6.16584L4.94243 25.4043Z" fill="var(--fill-0, #4356B1)"/>
</g>
</svg>
