<svg preserveAspectRatio="none" width="100%" height="100%" overflow="visible" style="display: block;" viewBox="0 0 37.1754 42.916" fill="none" xmlns="http://www.w3.org/2000/svg">
<path id="Vector" fill-rule="evenodd" clip-rule="evenodd" d="M2.30694 3.83356L34.4933 0.0168994C35.3198 -0.0818318 36.1407 0.256675 36.6569 0.911121C37.1731 1.56557 37.317 2.44004 37.0293 3.22143C32.2168 16.3922 29.1054 26.3978 25.3564 32.9536C22.5412 37.8817 19.3141 40.9903 15.0574 42.3556C12.7358 43.0975 10.747 43.058 9.04605 42.4995C6.55802 41.6786 4.60033 39.6842 3.20963 36.8351C-1.11479 27.9804 0.174353 9.91257 0.19692 6.20028C0.205382 4.99012 1.10807 3.97178 2.30694 3.83074V3.83356ZM4.91627 8.35262C4.72727 13.2328 4.29567 23.5741 6.21388 31.0467C7.37608 35.5714 9.25197 39.1793 13.5905 37.7886C16.795 36.7618 19.08 34.2766 21.1956 30.5728C24.4904 24.804 27.2521 16.285 31.207 5.23836L4.91627 8.35262Z" fill="var(--fill-0, #4356B1)"/>
</svg>
