<svg preserveAspectRatio="none" width="100%" height="100%" overflow="visible" style="display: block;" viewBox="0 0 55.9681 41.4463" fill="none" xmlns="http://www.w3.org/2000/svg">
<path id="Vector" fill-rule="evenodd" clip-rule="evenodd" d="M21.6298 40.4885C8.67349 23.2105 3.68051 16.1499 1.72281 13.092C0.013355 10.4178 0.151579 10.0342 0.0754148 9.60257C-0.327972 7.38535 0.893472 5.27251 3.58178 3.74359C7.60437 1.45303 15.3534 0.251329 19.1785 0.0312998C23.3816 -0.214118 27.4437 0.990401 31.9289 3.4079C38.0672 6.70834 45.1194 12.367 54.9558 19.3318C55.6215 19.8001 56.0024 20.573 55.9657 21.3854C55.9347 22.1978 55.4946 22.9397 54.7866 23.3516L24.7723 41.1119C23.7173 41.7353 22.3661 41.4645 21.6298 40.4885ZM4.80323 8.82965C4.84836 9.02711 4.96966 9.27817 5.75951 10.5053C7.62694 13.4305 12.3096 20.0399 24.1799 35.8904L49.1871 21.0977C42.5608 16.3219 37.2858 12.2796 32.6426 9.3769C27.7991 6.34163 23.7455 4.57011 19.4521 4.81835C16.5833 4.98478 11.1615 5.72667 7.45204 7.20482C6.61706 7.53486 5.8808 7.89876 5.31945 8.31907C5.12199 8.46575 4.87939 8.73938 4.80323 8.82965Z" fill="var(--fill-0, #4356B1)"/>
</svg>
