<svg preserveAspectRatio="none" width="100%" height="100%" overflow="visible" style="display: block;" viewBox="0 0 44.0105 37.7542" fill="none" xmlns="http://www.w3.org/2000/svg">
<path id="Vector" fill-rule="evenodd" clip-rule="evenodd" d="M24.9021 0.602774C25.8894 -0.274521 27.4071 -0.184253 28.2787 0.808699C29.1589 1.79883 29.0686 3.31647 28.0756 4.19376C15.833 15.0373 14.1771 16.1402 4.89639 20.9103C5.80754 29.7679 11.6665 34.854 18.5805 32.2362C30.8514 27.5846 36.1123 20.5634 39.9149 16.7157C40.8402 15.7735 42.3578 15.765 43.3 16.6959C44.2393 17.624 44.2478 19.1445 43.3225 20.0866C39.2294 24.2305 33.5002 31.7115 20.2731 36.7214C14.967 38.7327 9.96553 37.7144 6.21657 34.4647C2.69328 31.4125 0.258849 26.2672 0.00214796 19.5902C-0.0373448 18.6565 0.470416 17.7876 1.3054 17.3617C11.438 12.1712 12.5777 11.5196 24.9021 0.602774Z" fill="var(--fill-0, #4356B1)"/>
</svg>
