<svg xmlns="http://www.w3.org/2000/svg" width="65" height="65" viewBox="0 0 65 65" fill="none">
  <g filter="url(#filter0_d_435_2158)">
    <rect x="10" y="8" width="45" height="45" rx="20" fill="white"/>
  </g>
  <mask id="mask0_435_2158" style="mask-type:luminance" maskUnits="userSpaceOnUse" x="19" y="16" width="28" height="28">
    <path d="M47 16H19V44H47V16Z" fill="white"/>
  </mask>
  <g mask="url(#mask0_435_2158)">
    <path d="M32.2806 36.9124V37.0613C32.2806 37.506 32.1286 37.906 31.8238 38.2604C31.6009 38.5194 31.332 38.7249 31.0162 38.8758C30.781 38.9885 30.5278 39.0768 30.2561 39.142C29.9727 39.2099 29.7099 39.2442 29.4678 39.2442C29.2167 39.2442 28.9519 39.2079 28.6753 39.1354L29.0227 37.9139L28.7256 39.1473C28.6148 39.1229 28.4979 39.1091 28.3747 39.1045C28.1828 39.0979 27.9909 39.0946 27.799 39.0946C27.5582 39.0946 27.3216 39.0867 27.0891 39.0702C26.7898 39.0485 26.4961 38.9958 26.2079 38.9108L26.5965 37.701L26.5002 38.9635L26.0441 38.9312C25.7463 38.9108 25.4085 38.8897 25.0295 38.8686L23.9137 38.8047C23.5829 38.7849 23.3793 38.775 23.3029 38.775C23.0209 38.775 22.6728 38.7342 22.2587 38.6531C21.8886 38.5807 21.5639 38.5029 21.2839 38.4186L21.2654 38.4133L21.2468 38.4074C20.477 38.153 19.9446 37.7439 19.6502 37.1799C19.4232 36.7457 19.3104 36.1448 19.3104 35.3772C19.3104 35.2006 19.3062 34.9317 19.2994 34.57C19.2911 34.1622 19.3035 33.7405 19.3358 33.3043L20.6538 33.3946H19.3324V33.1837L19.3578 33.0612C19.417 32.7778 19.4493 32.5176 19.4548 32.2784C19.4631 31.9477 19.4748 31.6656 19.4913 31.4344L20.81 31.5187L19.4892 31.47C19.505 31.0674 19.5305 30.7287 19.5642 30.454C19.5876 30.2616 19.5993 30.0692 19.5993 29.8768C19.5993 29.436 19.6392 28.9926 19.7183 28.5458C19.7726 28.2394 19.7995 27.9153 19.7995 27.5746C19.7995 27.3855 19.8098 27.2037 19.8304 27.0297C19.8531 26.8314 19.8896 26.6482 19.9398 26.4809C19.9625 26.3979 19.9714 26.2569 19.9673 26.0572C19.9597 25.7278 19.9556 25.4807 19.9556 25.3147C19.9556 25.1084 19.9418 24.9193 19.915 24.7474C19.8676 24.4502 19.8442 24.1913 19.8442 23.9718C19.8442 23.338 20.0547 22.8188 20.4763 22.4156C20.7928 22.1125 21.1732 21.8944 21.6176 21.7613C21.9498 21.6618 22.3061 21.5979 22.6865 21.5689C23.003 21.5452 23.2905 21.5333 23.5478 21.5333H24.5157C24.8066 21.5333 25.0949 21.5056 25.3803 21.4509L25.4017 21.447L25.4223 21.4437C25.7614 21.3897 26.0785 21.3627 26.3743 21.3627C26.6694 21.3627 26.9873 21.3897 27.3257 21.4437C27.6868 21.5037 28.0411 21.5333 28.3885 21.5333H29.3343C29.8737 21.5333 30.3091 21.59 30.6393 21.704C31.0389 21.8417 31.3657 22.0499 31.6202 22.3279L31.947 22.6857V24.4199L30.6874 25.2586L30.4762 25.3166C30.1344 25.4102 29.7904 25.451 29.443 25.4392C29.2511 25.4326 29.0736 25.4293 28.9113 25.4293C28.5047 25.4293 28.1209 25.3977 27.7598 25.3338C27.5568 25.2982 27.347 25.2804 27.131 25.2804H25.0164C24.7998 25.2804 24.5865 25.2916 24.3767 25.3147C24.2157 25.3324 24.0561 25.3674 23.8986 25.4214L23.4584 24.2275L24.7543 24.4759C24.7007 24.7322 24.6794 24.9839 24.6897 25.231C24.711 25.7205 24.6553 26.1752 24.5239 26.5949L23.2582 26.2312L24.5507 26.4967C24.5397 26.5448 24.5328 26.5837 24.5301 26.6127C24.5301 26.616 24.5301 26.6186 24.5294 26.6212C24.5294 26.6212 24.5294 26.6206 24.5294 26.6192C24.5294 26.6087 24.5287 26.5962 24.5273 26.5817L24.5349 26.6515V26.9777C24.5349 27.2946 24.5026 27.628 24.4365 27.9792C24.3987 28.1828 24.3794 28.3244 24.3794 28.4061C24.3794 28.3969 24.3794 28.3903 24.3788 28.3851C24.3788 28.3877 24.3794 28.3916 24.3801 28.3982C24.3836 28.4246 24.3898 28.4582 24.398 28.499L23.102 28.7468L23.4315 27.5213C23.8106 27.6142 24.2288 27.6451 24.6849 27.6122C25.3418 27.5661 25.9802 27.5582 26.5993 27.5898C26.9941 27.6043 27.3945 27.6352 27.8003 27.682C28.1188 27.7189 28.4449 27.7367 28.7778 27.7367C29.1397 27.7367 29.4754 27.7538 29.7849 27.7881C29.9094 27.8013 30.0057 27.8118 30.0731 27.8184C30.1013 27.8211 30.1227 27.823 30.1371 27.8243C30.122 27.823 30.0986 27.8224 30.069 27.8224H30.186L30.3015 27.8421C30.9227 27.9482 31.3918 28.1149 31.7076 28.3416C31.9366 28.5063 32.1155 28.7026 32.2441 28.9313C32.3872 29.1849 32.4588 29.4571 32.4588 29.749C32.4588 30.1192 32.3556 30.4573 32.1492 30.7623C31.9676 31.0305 31.7193 31.2512 31.4035 31.4238C30.9406 31.6769 30.4811 31.804 30.0243 31.804C29.8626 31.804 29.6652 31.7816 29.4313 31.7362L29.4004 31.7309L29.3701 31.723C29.1679 31.6749 28.9636 31.6485 28.7572 31.6432C28.4635 31.6367 28.211 31.6334 27.9991 31.6334C27.7233 31.6334 27.4812 31.6241 27.2727 31.607C26.9859 31.5833 26.7066 31.524 26.4342 31.4291L26.8861 30.2392V31.5055H25.9513L24.0878 31.4838H23.1688V30.2181L23.706 31.3751L23.5058 31.4601L22.9686 30.3031L24.2439 30.6365C24.2212 30.7149 24.1985 30.902 24.1751 31.1978C24.1463 31.5642 24.1215 31.9549 24.0995 32.3707C24.0775 32.791 24.0596 33.1969 24.0444 33.5889C24.0307 33.9717 24.0231 34.2623 24.0231 34.4606C24.0231 34.6333 24.03 34.8197 24.0431 35.0214C24.0561 35.2256 24.0761 35.4371 24.1036 35.6559L22.7904 35.8035L23.4707 34.7183C23.5622 34.771 23.6448 34.8039 23.7177 34.8178C23.8546 34.8441 24.0279 34.8573 24.2377 34.8573C24.766 34.8573 25.2985 34.8889 25.8343 34.9522C26.2629 35.0029 26.6357 35.0279 26.9529 35.0279C27.281 35.0279 27.5678 35.0484 27.8134 35.0892C27.9709 35.1156 28.147 35.1419 28.3417 35.1689L28.1546 36.4215L28.286 35.1624C28.5391 35.1867 28.8329 35.1986 29.1672 35.1986C29.646 35.1986 30.1275 35.252 30.6111 35.3587C30.7913 35.3969 30.9591 35.443 31.1146 35.4964C31.4675 35.617 31.7688 35.8357 32.0164 36.1527L32.2806 36.49V36.9124ZM29.6377 36.9124H30.9591L29.9019 37.6714C29.972 37.761 30.0793 37.8308 30.2252 37.8803C30.1729 37.8625 30.1034 37.8447 30.0167 37.8256C29.7285 37.7623 29.4458 37.73 29.1672 37.73C28.7448 37.73 28.3637 37.7142 28.0232 37.6813L27.9957 37.6786L27.9682 37.6747C27.7467 37.645 27.5444 37.6141 27.3608 37.5838C27.2652 37.5679 27.129 37.56 26.9529 37.56C26.5277 37.56 26.0476 37.5284 25.5117 37.4652C25.0832 37.4144 24.658 37.3894 24.2377 37.3894C23.8532 37.3894 23.5072 37.3597 23.199 37.3004C22.8269 37.2293 22.4644 37.0922 22.1108 36.8893L21.5543 36.5691L21.4779 35.9517C21.4456 35.6868 21.4215 35.4292 21.405 35.1788C21.3885 34.9252 21.3802 34.686 21.3802 34.4606C21.3802 34.232 21.3878 33.9118 21.4029 33.4987C21.4181 33.0948 21.4373 32.6764 21.4593 32.2442C21.4827 31.8073 21.5089 31.3948 21.5398 31.0074C21.5756 30.5502 21.6272 30.2042 21.6939 29.9703L21.859 29.3905L22.8888 28.9524H24.1201L25.9513 28.9734H27.1186L27.3381 29.0499C27.3917 29.0683 27.4461 29.0802 27.5011 29.0848C27.6339 29.096 27.7997 29.1013 27.9991 29.1013C28.2323 29.1013 28.5061 29.1052 28.8212 29.1125C29.2229 29.1217 29.6198 29.1731 30.0112 29.2673L29.6907 30.4955L29.95 29.2541C29.9961 29.2627 30.0326 29.2686 30.0601 29.2726C30.0649 29.2732 30.0669 29.2732 30.0669 29.2732C30.0553 29.2726 30.0408 29.2719 30.0243 29.2719C30.003 29.2719 29.9892 29.2726 29.9837 29.2746C30.0105 29.2666 30.047 29.2502 30.0917 29.2258C30.036 29.2561 29.9823 29.3095 29.9307 29.3859C29.8537 29.4992 29.8159 29.6205 29.8159 29.749C29.8159 29.884 29.8503 30.0132 29.9191 30.1351C29.9741 30.2319 30.0415 30.3097 30.122 30.3676C30.1557 30.3914 30.186 30.4098 30.2121 30.4217C30.208 30.4197 30.197 30.4164 30.1791 30.4105C30.0972 30.3848 29.983 30.3591 29.8365 30.334L30.069 29.0881V30.3538C29.9892 30.3538 29.7945 30.3373 29.485 30.3031C29.2752 30.28 29.0392 30.2688 28.7778 30.2688C28.3396 30.2688 27.9083 30.2444 27.4853 30.1957C27.1489 30.1568 26.8077 30.1311 26.4603 30.1179C25.9527 30.0922 25.4257 30.0988 24.8802 30.137C24.1352 30.1904 23.4329 30.1357 22.7732 29.973L21.9691 29.7753L21.806 28.9952C21.7593 28.7712 21.7359 28.5748 21.7359 28.4061C21.7359 28.1742 21.7689 27.883 21.8349 27.5318C21.8728 27.3289 21.892 27.1437 21.892 26.9777V26.722H23.2135L21.9003 26.8617C21.8693 26.5975 21.8913 26.299 21.9656 25.9663L21.9766 25.9162L21.9925 25.8675C22.0385 25.7192 22.0578 25.5413 22.0489 25.3344C22.0296 24.8851 22.0674 24.4337 22.1624 23.9791L22.3096 23.2734L23.0188 23.0336C23.3648 22.9163 23.7177 22.8386 24.0761 22.799C24.3856 22.7654 24.6993 22.7483 25.0164 22.7483H27.131C27.508 22.7483 27.8774 22.7799 28.2385 22.8438C28.4415 22.8794 28.6657 22.8979 28.9113 22.8979C29.1053 22.8979 29.3137 22.9012 29.5373 22.9091C29.6061 22.9117 29.6769 22.9025 29.7505 22.882L30.1137 24.0997L29.3584 23.0606L29.8709 22.7193L30.6255 23.7584H29.3034V23.1614H30.6255L29.6308 23.9949C29.6611 24.0285 29.6927 24.0549 29.7258 24.0753C29.734 24.0806 29.7416 24.0845 29.7478 24.0871L29.7436 24.0858C29.7512 24.0885 29.7581 24.0911 29.7636 24.0924C29.7636 24.0924 29.7615 24.0918 29.7588 24.0911C29.7402 24.0871 29.7154 24.0839 29.6845 24.0806C29.593 24.07 29.476 24.0647 29.3343 24.0647H28.3885C27.8905 24.0647 27.391 24.0239 26.8916 23.9409C26.6963 23.9099 26.5236 23.8941 26.3743 23.8941C26.2244 23.8941 26.0524 23.9099 25.857 23.9409L25.6397 22.6923L25.899 23.9336C25.4422 24.0213 24.9814 24.0647 24.5157 24.0647H23.5478C23.3593 24.0647 23.1419 24.074 22.895 24.0931C22.7113 24.1069 22.549 24.1352 22.4059 24.1781C22.3756 24.1873 22.355 24.1965 22.3453 24.2057C22.4045 24.1491 22.4472 24.0858 22.4726 24.0166C22.4802 23.9969 22.485 23.9797 22.4871 23.9639C22.4877 23.962 22.4877 23.9606 22.4877 23.96C22.4877 23.9626 22.4877 23.9666 22.4877 23.9718C22.4877 24.0641 22.5008 24.1965 22.5283 24.3685C22.5751 24.6656 22.5985 24.9813 22.5985 25.3147C22.5985 25.4616 22.6026 25.6902 22.6095 26.0006C22.6198 26.4407 22.5772 26.8327 22.4816 27.176C22.4719 27.2076 22.4637 27.2518 22.4575 27.3091C22.4478 27.3908 22.443 27.4791 22.443 27.5746C22.443 28.0576 22.4031 28.5228 22.324 28.9695C22.2697 29.2759 22.2429 29.5783 22.2429 29.8768C22.2429 30.168 22.225 30.4592 22.1892 30.7498C22.1637 30.958 22.1438 31.2308 22.1307 31.5668L22.13 31.5846L22.1287 31.6024C22.1149 31.7974 22.1046 32.0419 22.0977 32.3357C22.0888 32.7225 22.0392 33.1297 21.9498 33.5573L20.6538 33.3096H21.9759V33.4394L21.9725 33.4848C21.9457 33.8446 21.9354 34.1898 21.9422 34.5213C21.9498 34.8988 21.9532 35.1841 21.9532 35.3772C21.9532 35.5966 21.9649 35.7771 21.9876 35.9188C21.9959 35.9688 22.0048 36.0103 22.0145 36.0433V36.0472C21.9863 35.9939 21.9574 35.9563 21.9278 35.9359C21.9601 35.9589 22.0207 35.9846 22.1087 36.0136L21.6781 37.2108L22.0723 36.0024C22.2669 36.0604 22.5056 36.1177 22.7884 36.1731C23.0277 36.2199 23.199 36.2429 23.3029 36.2429C23.4343 36.2429 23.6902 36.2548 24.072 36.2772L25.1815 36.3411C25.5743 36.3628 25.9258 36.3846 26.2368 36.4063L26.8421 36.4492L26.9852 36.4913C27.0836 36.5197 27.1826 36.5381 27.2844 36.5454C27.4523 36.5572 27.6236 36.5631 27.799 36.5631C28.0218 36.5631 28.2454 36.5671 28.469 36.5743C28.7613 36.5842 29.0447 36.6198 29.3199 36.6804L29.3453 36.6864L29.3708 36.6929C29.4196 36.7055 29.4527 36.7121 29.4678 36.7121C29.4932 36.7121 29.5421 36.7035 29.615 36.6864C29.6989 36.6659 29.7718 36.6409 29.8338 36.6112C29.8152 36.6205 29.798 36.6336 29.7835 36.6508C29.6859 36.7641 29.6377 36.9005 29.6377 37.0613V36.9124Z" fill="white"/>
    <path d="M41.0621 33.1787C40.8612 33.2558 40.7065 33.381 40.5978 33.5536C40.5531 33.6255 40.5235 33.6874 40.5104 33.7381C40.5166 33.7131 40.5242 33.6709 40.5324 33.611L40.5379 33.5708L40.5469 33.5306C40.5978 33.2855 40.6473 32.9409 40.6948 32.4974C40.7491 31.9947 40.844 31.3075 40.9809 30.4358L42.2879 30.6236L40.9754 30.4753C41.0071 30.217 41.0504 29.9225 41.1048 29.5931L41.2602 28.6377C41.3111 28.3175 41.3586 28.0104 41.4019 27.7153L41.5134 26.9694C41.6448 26.1464 41.7314 25.5231 41.7734 25.0988C41.8257 24.5743 41.8924 24.1751 41.9743 23.901C42.0802 23.5676 42.2329 23.2816 42.4331 23.0438C42.6594 22.7749 42.9366 22.5707 43.2647 22.4317C43.7022 22.2452 44.1184 22.1516 44.5133 22.1516C44.688 22.1516 44.8723 22.1734 45.0663 22.2162C45.389 22.2874 45.6806 22.4369 45.9406 22.6656C46.1718 22.8685 46.3541 23.1222 46.4882 23.4272C46.6168 23.7191 46.6808 24.0716 46.6808 24.4834C46.6808 24.7898 46.6457 25.1594 46.5763 25.593C46.515 25.9738 46.4394 26.4041 46.3479 26.8844L46.0583 28.4091C45.9578 28.9401 45.8636 29.4962 45.7769 30.0774L45.7742 30.0978L45.7707 30.1182C45.7295 30.3389 45.6882 30.6097 45.6469 30.9293C45.6008 31.2805 45.5479 31.6521 45.4866 32.0455L45.3092 33.2143C45.2493 33.6149 45.1895 34.0023 45.1296 34.3759L45.1276 34.3911L45.1248 34.4062C45.054 34.7838 45.0051 35.073 44.9783 35.2727C44.9405 35.556 44.8827 35.8275 44.8049 36.0877L44.7967 36.1141L44.7877 36.1404C44.7217 36.3315 44.6508 36.5186 44.5759 36.7025C44.5057 36.8744 44.4314 37.0497 44.3537 37.2289L44.2305 37.5109L43.987 37.7079C43.7229 37.9227 43.4374 38.1079 43.132 38.264C42.7151 38.4768 42.2707 38.5836 41.7982 38.5836C41.3421 38.5836 40.8929 38.4538 40.4506 38.1942C40.075 37.9741 39.6664 37.5775 39.2234 37.0055C38.931 36.6326 38.6352 36.2063 38.3374 35.728C38.0546 35.2747 37.7692 34.7963 37.4796 34.2936C37.1955 33.7981 36.9065 33.2888 36.6149 32.7656C36.3287 32.253 36.0391 31.7437 35.7461 31.2383C35.5383 30.8693 35.3375 30.5228 35.1435 30.1986C34.9646 29.9008 34.7768 29.6194 34.5794 29.3552L35.6553 28.6192L36.8151 29.2254C36.7827 29.2827 36.747 29.3908 36.7071 29.5509C36.65 29.7822 36.6018 30.0312 36.5633 30.2974C36.5241 30.5656 36.4979 30.8232 36.4856 31.0703C36.4718 31.3332 36.4649 31.5401 36.4649 31.689C36.4649 32.2754 36.4099 32.8644 36.2998 33.4568C36.2166 33.9022 36.1753 34.3364 36.1753 34.7594C36.1753 35.1449 36.1485 35.5191 36.0955 35.8828C36.0563 36.1549 36.0302 36.3948 36.0171 36.603L36.015 36.6399L36.0102 36.6768C35.9641 37.055 35.8809 37.366 35.7598 37.6111C35.5707 37.9965 35.2652 38.2904 34.8436 38.4926L34.8092 38.5091L34.7734 38.5236C34.6097 38.5908 34.426 38.6501 34.2217 38.7015C33.9706 38.7648 33.7216 38.7964 33.474 38.7964C32.9009 38.7964 32.4201 38.6211 32.0321 38.2699C31.6222 37.899 31.4178 37.4253 31.4178 36.8487V35.7398C31.4178 35.3353 31.455 34.9419 31.5286 34.5598C31.5733 34.3305 31.596 34.0913 31.596 33.8422C31.596 33.4924 31.6235 33.1491 31.6786 32.8137C31.7123 32.6088 31.7295 32.398 31.7295 32.1799C31.7295 31.7859 31.7645 31.378 31.8347 30.9563C31.8856 30.6526 31.9173 30.3211 31.9303 29.9614L31.931 29.9469L31.9317 29.9331C31.9647 29.3809 32.0349 28.8327 32.1415 28.2891C32.2364 27.8075 32.3052 27.4431 32.3479 27.1961C32.5137 26.2855 32.8253 25.5989 33.2827 25.1364C33.8179 24.5961 34.4748 24.3259 35.2542 24.3259C36.0199 24.3259 36.6878 24.5987 37.2574 25.1449C37.4954 25.3729 37.7685 25.7057 38.076 26.1432C38.3484 26.5306 38.6352 26.9648 38.9358 27.4458C39.2289 27.9136 39.5295 28.4031 39.8377 28.9138C40.1472 29.427 40.4341 29.9153 40.6982 30.3785L41.3895 31.5961C41.5842 31.9413 41.7301 32.193 41.827 32.3518C42.0671 32.7511 42.2535 33.0819 42.3863 33.3435C42.409 33.3889 42.4255 33.4179 42.4351 33.4304C42.3959 33.3797 42.3347 33.3296 42.2535 33.2809L41.5533 34.3542L41.0621 33.1787ZM42.0437 35.5296L41.4212 35.7682L40.853 35.4275C40.5187 35.2279 40.2373 34.9011 40.0076 34.4484C39.903 34.2409 39.7482 33.9674 39.5432 33.6274C39.4325 33.4449 39.2736 33.1708 39.0679 32.8058L38.3793 31.5935C38.1248 31.1467 37.8476 30.6756 37.5484 30.1795C37.2484 29.6814 36.9554 29.2043 36.6692 28.7484C36.392 28.305 36.1299 27.9083 35.883 27.5565C35.6711 27.2547 35.506 27.0478 35.3884 26.9351C35.3347 26.8837 35.29 26.858 35.2542 26.858C35.2322 26.858 35.2143 26.8653 35.2006 26.8791C35.1779 26.9015 35.149 26.9549 35.1132 27.0392C35.0506 27.1888 34.9976 27.3799 34.9557 27.6125C34.9096 27.8767 34.8374 28.2588 34.739 28.7576C34.653 29.1945 34.5973 29.6346 34.5705 30.0774L33.2511 30.0049L34.5718 30.049C34.5553 30.5135 34.5127 30.9491 34.4446 31.3563C34.3964 31.6455 34.3723 31.9196 34.3723 32.1799C34.3723 32.5304 34.3448 32.873 34.2898 33.2084C34.2561 33.4133 34.2389 33.6248 34.2389 33.8422C34.2389 34.2474 34.2018 34.6408 34.1275 35.023C34.0834 35.2516 34.0607 35.4908 34.0607 35.7398V36.8487C34.0607 36.7993 34.0484 36.7433 34.0236 36.6807C33.9851 36.5845 33.9259 36.5008 33.8468 36.429C33.7787 36.3671 33.701 36.3216 33.6143 36.292C33.5606 36.2742 33.5139 36.265 33.474 36.265C33.4932 36.265 33.5187 36.261 33.5489 36.2531C33.6274 36.2333 33.6879 36.2149 33.7319 36.1964L34.2527 37.36L33.6618 36.2281C33.5372 36.2874 33.4389 36.3895 33.3687 36.5331C33.3605 36.5496 33.3543 36.5634 33.3508 36.5746C33.3515 36.5713 33.3536 36.5654 33.3556 36.5562C33.3666 36.512 33.3763 36.4541 33.3852 36.3809L34.6977 36.5285L33.3783 36.4541C33.3955 36.1793 33.4286 35.8723 33.4781 35.5329C33.5139 35.2852 33.5317 35.0276 33.5317 34.7594C33.5317 34.1875 33.5868 33.605 33.6975 33.0127C33.7801 32.5679 33.8213 32.1265 33.8213 31.689C33.8213 31.4979 33.8296 31.2495 33.8454 30.9438C33.8619 30.6223 33.8956 30.2902 33.9452 29.9476C33.9954 29.6023 34.0587 29.2762 34.135 28.9671C34.2293 28.587 34.349 28.2687 34.4948 28.0131L35.5046 26.24L36.7304 27.8839C36.9781 28.216 37.2133 28.5672 37.4355 28.9375C37.6419 29.2814 37.849 29.6385 38.0567 30.0088C38.3566 30.5261 38.6538 31.0479 38.9461 31.5724C39.233 32.0863 39.5157 32.5864 39.795 33.072C40.0695 33.5497 40.3405 34.0023 40.6067 34.4306C40.8578 34.8325 41.1041 35.1883 41.3462 35.4974C41.4845 35.6766 41.6069 35.8189 41.7129 35.9256C41.7755 35.9895 41.8154 36.0258 41.8319 36.0357C41.8573 36.0502 41.8738 36.0594 41.8835 36.062C41.8608 36.0548 41.8325 36.0515 41.7982 36.0515C41.8298 36.0515 41.8601 36.0442 41.8883 36.0297C42.0279 35.9586 42.1586 35.8736 42.2797 35.7754L43.1334 36.742L41.9137 36.2551C41.9839 36.093 42.0506 35.9342 42.1139 35.7794C42.1724 35.6364 42.2281 35.4894 42.2804 35.3399L43.5344 35.7398L42.2632 35.3919C42.3044 35.2542 42.3354 35.1066 42.3567 34.9492C42.3891 34.7087 42.4448 34.3792 42.5225 33.9608L43.8233 34.1835L42.517 33.9911C42.5755 33.6261 42.6346 33.2459 42.6938 32.85L42.872 31.6745C42.9304 31.3003 42.9806 30.9471 43.024 30.6157C43.0714 30.2533 43.1189 29.941 43.1671 29.6787L44.4686 29.8988L43.1609 29.7196C43.2517 29.1068 43.3514 28.5191 43.458 27.9557L43.747 26.4317C43.8343 25.9738 43.9065 25.566 43.9636 25.2075C44.0132 24.9018 44.0372 24.6607 44.0372 24.4834C44.0372 24.4261 44.0352 24.3813 44.0304 24.3503C44.0317 24.3602 44.0393 24.38 44.0524 24.4096C44.0675 24.4445 44.1019 24.4854 44.1549 24.5322C44.2367 24.604 44.3427 24.6541 44.472 24.6831C44.4658 24.6817 44.4624 24.6811 44.4624 24.6811C44.4761 24.6824 44.4933 24.6837 44.5133 24.6837C44.5201 24.6837 44.5243 24.6831 44.527 24.6831C44.5201 24.6837 44.5112 24.6857 44.5002 24.6883C44.4555 24.6989 44.4018 24.718 44.3379 24.745C44.3991 24.7193 44.45 24.6817 44.4906 24.633C44.5023 24.6192 44.5112 24.6066 44.5167 24.5961C44.5153 24.5987 44.5146 24.5994 44.5153 24.5968C44.4782 24.7213 44.4417 24.9684 44.4046 25.3393C44.3578 25.8104 44.2663 26.4733 44.1301 27.3272L44.0187 28.0737C43.974 28.3761 43.9251 28.6937 43.8715 29.0271L43.7153 29.991C43.6665 30.2862 43.628 30.5465 43.6004 30.7712L43.5977 30.7909L43.5949 30.8114C43.4642 31.6449 43.3741 32.2932 43.3239 32.757C43.2682 33.2802 43.2063 33.7032 43.1382 34.0267L41.8422 33.7783L43.1526 33.9457C43.099 34.3318 43.0027 34.6355 42.8644 34.8563C42.667 35.1712 42.3939 35.3952 42.0437 35.5296Z" fill="white"/>
    <path d="M30.9605 36.9113V37.0616C30.9605 37.2039 30.9082 37.3357 30.8037 37.4569C30.6991 37.5762 30.5725 37.671 30.424 37.7415C30.2768 37.8133 30.1137 37.8707 29.9342 37.9128C29.756 37.9563 29.6012 37.9787 29.4692 37.9787C29.335 37.9787 29.1864 37.9576 29.0234 37.9155C28.8308 37.8713 28.6299 37.8456 28.4208 37.839C28.2131 37.8318 28.006 37.8285 27.799 37.8285C27.5912 37.8285 27.3869 37.8213 27.1854 37.8074C26.9852 37.7929 26.7891 37.758 26.5965 37.702C26.5965 37.702 26.4438 37.6901 26.1398 37.6677C25.835 37.6467 25.4904 37.6256 25.1052 37.6045C24.72 37.5834 24.3492 37.5623 23.9935 37.5412C23.6372 37.5201 23.4075 37.5096 23.3029 37.5096C23.1103 37.5096 22.8503 37.478 22.5242 37.4147C22.1974 37.3502 21.9147 37.2823 21.6767 37.2118C21.2475 37.0695 20.9654 36.8711 20.832 36.6162C20.6978 36.3598 20.6311 35.9467 20.6311 35.3774C20.6311 35.193 20.627 34.9162 20.6201 34.5473C20.6125 34.177 20.6235 33.7928 20.6531 33.3955V33.3085C20.7281 32.9541 20.7694 32.62 20.7769 32.307C20.7838 31.9947 20.7948 31.7318 20.81 31.519C20.8244 31.15 20.8464 30.8456 20.876 30.6045C20.9049 30.362 20.92 30.1195 20.92 29.8771C20.92 29.5081 20.9531 29.1358 21.0191 28.7596C21.0865 28.3821 21.1209 27.9867 21.1209 27.5736C21.1209 27.4333 21.1278 27.2989 21.1429 27.1704C21.1574 27.0425 21.1801 26.9279 21.2117 26.8278C21.2702 26.6156 21.2956 26.3494 21.2887 26.0292C21.2812 25.7096 21.2777 25.4718 21.2777 25.315C21.2777 25.0448 21.2585 24.7925 21.22 24.5586C21.1828 24.3233 21.1649 24.1276 21.1649 23.9708C21.1649 23.6882 21.2461 23.4688 21.4098 23.3119C21.5728 23.1558 21.773 23.0425 22.0097 22.972C22.2477 22.9001 22.5084 22.8534 22.7911 22.8323C23.0731 22.8099 23.3256 22.798 23.5478 22.798C23.8133 22.798 24.1352 22.798 24.5136 22.798C24.8933 22.798 25.2682 22.7631 25.639 22.6926C25.9066 22.6504 26.1515 22.6293 26.3736 22.6293C26.5972 22.6293 26.8421 22.6504 27.1083 22.6926C27.5389 22.7631 27.9654 22.798 28.3878 22.798C28.8115 22.798 29.1266 22.798 29.3343 22.798C29.7196 22.798 30.0043 22.831 30.1901 22.8955C30.3772 22.9588 30.5216 23.0477 30.6248 23.1617V23.76L30.113 24.1C29.9053 24.1566 29.6975 24.181 29.4884 24.1738C29.2807 24.1672 29.0881 24.1632 28.9106 24.1632C28.5838 24.1632 28.2791 24.1388 27.9971 24.0894C27.7164 24.0407 27.4275 24.0156 27.1303 24.0156H25.0171C24.7488 24.0156 24.4847 24.0301 24.2247 24.0578C23.966 24.0861 23.7108 24.1421 23.4597 24.2265C23.3841 24.5836 23.3538 24.9354 23.3689 25.2833C23.3834 25.6312 23.3469 25.9475 23.2589 26.2321C23.2128 26.4311 23.1983 26.5945 23.2148 26.7223V26.978C23.2148 27.2191 23.188 27.4781 23.135 27.7555C23.0835 28.0335 23.058 28.2503 23.058 28.4064C23.058 28.4908 23.0724 28.6041 23.102 28.7464C23.6207 28.8749 24.1806 28.9177 24.7805 28.8756C25.3817 28.8334 25.965 28.8268 26.5305 28.8545C26.9006 28.869 27.2713 28.8967 27.6421 28.9388C28.0122 28.981 28.3912 29.0021 28.7785 29.0021C29.0901 29.0021 29.3756 29.0172 29.6343 29.0469C29.8943 29.0752 30.0394 29.089 30.069 29.089C30.4831 29.1595 30.7652 29.2485 30.9137 29.3552C31.0623 29.4626 31.1366 29.5944 31.1366 29.7506C31.1366 29.9917 31.0059 30.1828 30.7459 30.3251C30.4872 30.4674 30.2465 30.5386 30.025 30.5386C29.9493 30.5386 29.8379 30.5248 29.6893 30.4964C29.3935 30.4246 29.0936 30.3851 28.7895 30.3778C28.4848 30.3712 28.2213 30.3673 27.9998 30.3673C27.7611 30.3673 27.5568 30.3607 27.3862 30.3462C27.2156 30.3324 27.0485 30.2974 26.8854 30.2408H25.9527L24.1036 30.2171H23.1681L22.97 30.304C22.9239 30.4608 22.886 30.7277 22.8571 31.1052C22.8276 31.4815 22.8021 31.8827 22.7801 32.3097C22.7581 32.7353 22.7395 33.1471 22.7251 33.5457C22.7099 33.9431 22.7031 34.2481 22.7031 34.4603C22.7031 34.6593 22.7099 34.8727 22.7251 35.1007C22.7395 35.3274 22.7615 35.5619 22.7911 35.8044C23.0126 35.9329 23.2348 36.0179 23.457 36.0601C23.6805 36.1022 23.9413 36.1233 24.2384 36.1233C24.7117 36.1233 25.1891 36.1523 25.672 36.2103C26.1542 36.2669 26.5814 36.2946 26.9542 36.2946C27.2053 36.2946 27.4165 36.3091 27.5871 36.3368C27.7577 36.3651 27.9462 36.3935 28.1539 36.4211C28.4511 36.4514 28.7882 36.4659 29.1665 36.4659C29.5462 36.4659 29.9287 36.5081 30.3139 36.5924C30.4474 36.6208 30.5657 36.6531 30.6689 36.6899C30.7734 36.7255 30.8704 36.7993 30.9605 36.9113Z" fill="#4B4137"/>
    <path d="M41.5519 34.3549C41.6269 34.3272 41.6868 34.2778 41.7308 34.2073C41.7748 34.1355 41.812 33.9925 41.8436 33.7777C41.9021 33.495 41.9571 33.1122 42.0087 32.6286C42.0617 32.1456 42.1545 31.4769 42.2866 30.6229C42.3176 30.3824 42.3588 30.1057 42.4104 29.7927C42.4613 29.4804 42.5129 29.1602 42.5645 28.8334C42.6175 28.5066 42.6663 28.1943 42.7103 27.8952C42.7544 27.5967 42.7915 27.3483 42.8232 27.1493C42.9552 26.3099 43.0433 25.6668 43.0873 25.2201C43.1327 24.772 43.185 24.4492 43.2442 24.2502C43.3487 23.9234 43.5338 23.7033 43.8 23.5887C44.0676 23.4747 44.3049 23.4174 44.5126 23.4174C44.5876 23.4174 44.6729 23.4279 44.7685 23.449C44.8655 23.4701 44.9584 23.5202 45.0464 23.5992C45.1359 23.677 45.2101 23.783 45.2693 23.9181C45.3298 24.0538 45.3601 24.2423 45.3601 24.4848C45.3601 24.7259 45.3298 25.0316 45.2693 25.4019C45.2101 25.7709 45.1359 26.19 45.0464 26.6591C44.9584 27.1282 44.8621 27.6362 44.7575 28.1824C44.6543 28.7293 44.558 29.3012 44.4686 29.8982C44.4246 30.1406 44.3792 30.4325 44.3338 30.7732C44.2897 31.1145 44.2382 31.4769 44.1797 31.8616C44.1205 32.2451 44.0614 32.6358 44.0008 33.0345C43.9417 33.4318 43.8832 33.8146 43.8247 34.1836C43.7491 34.5828 43.6968 34.8919 43.6679 35.1113C43.6383 35.3313 43.5936 35.5409 43.5331 35.7412C43.4739 35.9118 43.4106 36.0785 43.3432 36.2419C43.2772 36.4053 43.207 36.5727 43.1341 36.7427C42.9415 36.8995 42.733 37.0346 42.5095 37.1485C42.2873 37.2612 42.05 37.3172 41.7968 37.3172C41.5891 37.3172 41.3703 37.25 41.1392 37.1143C40.9094 36.9792 40.6247 36.6919 40.2835 36.2525C40.0172 35.9118 39.7469 35.5211 39.4717 35.0796C39.198 34.6388 38.9201 34.173 38.638 33.6828C38.3553 33.1926 38.0691 32.6885 37.7795 32.17C37.4913 31.6501 37.1989 31.1342 36.9018 30.6229C36.694 30.254 36.4897 29.9028 36.2882 29.5687C36.088 29.2353 35.8768 28.9191 35.6553 28.6199C35.5652 28.7767 35.4875 28.9902 35.4214 29.2604C35.3554 29.5292 35.299 29.8165 35.2536 30.1222C35.2096 30.4279 35.18 30.7231 35.1655 31.0077C35.1504 31.2924 35.1435 31.5203 35.1435 31.6903C35.1435 32.2016 35.0947 32.7169 34.9977 33.2348C34.9021 33.7533 34.8546 34.2613 34.8546 34.7581C34.8546 35.0849 34.8312 35.4012 34.7858 35.7069C34.7418 36.0126 34.7122 36.2867 34.6978 36.5292C34.6682 36.7703 34.6235 36.9509 34.5629 37.0721C34.5038 37.1933 34.4006 37.2895 34.252 37.3594C34.1488 37.4035 34.0271 37.4431 33.8861 37.478C33.7443 37.5136 33.6068 37.5307 33.4733 37.5307C33.2511 37.5307 33.073 37.4701 32.9395 37.3488C32.8054 37.2276 32.7386 37.0609 32.7386 36.8481V35.7412C32.7386 35.413 32.7675 35.0968 32.8267 34.7924C32.8872 34.4866 32.9175 34.1704 32.9175 33.8436C32.9175 33.5589 32.9395 33.2815 32.9835 33.0107C33.0276 32.7406 33.0496 32.4639 33.0496 32.1805C33.0496 31.8537 33.0785 31.5131 33.1376 31.158C33.1982 30.8015 33.2353 30.4174 33.2504 30.0062C33.2793 29.5074 33.3426 29.0126 33.4403 28.5224C33.5373 28.0322 33.6081 27.6599 33.6522 27.4049C33.7712 26.7513 33.9672 26.2862 34.241 26.0081C34.5162 25.7307 34.8532 25.5917 35.2536 25.5917C35.6553 25.5917 36.0116 25.7413 36.3239 26.0397C36.5014 26.2104 36.7202 26.4812 36.9788 26.8515C37.2388 27.2205 37.5133 27.6362 37.8015 28.0981C38.0911 28.5606 38.3883 29.0436 38.6931 29.5476C38.9971 30.0523 39.2791 30.532 39.5378 30.9866C39.7978 31.4419 40.0283 31.8471 40.2284 32.2016C40.4279 32.5568 40.5806 32.8197 40.6852 32.9897C40.9067 33.3586 41.0773 33.6611 41.197 33.8963C41.316 34.1302 41.4343 34.283 41.5519 34.3549Z" fill="#4B4137"/>
  </g>
  <defs>
    <filter id="filter0_d_435_2158" x="0" y="0" width="65" height="65" filterUnits="userSpaceOnUse" color-interpolation-filters="sRGB">
      <feFlood flood-opacity="0" result="BackgroundImageFix"/>
      <feColorMatrix in="SourceAlpha" type="matrix" values="0 0 0 0 0 0 0 0 0 0 0 0 0 0 0 0 0 0 127 0" result="hardAlpha"/>
      <feOffset dy="2"/>
      <feGaussianBlur stdDeviation="5"/>
      <feComposite in2="hardAlpha" operator="out"/>
      <feColorMatrix type="matrix" values="0 0 0 0 0 0 0 0 0 0 0 0 0 0 0 0 0 0 0.05 0"/>
      <feBlend mode="normal" in2="BackgroundImageFix" result="effect1_dropShadow_435_2158"/>
      <feBlend mode="normal" in="SourceGraphic" in2="effect1_dropShadow_435_2158" result="shape"/>
    </filter>
  </defs>
</svg>
