<svg xmlns="http://www.w3.org/2000/svg" width="65" height="65" viewBox="0 0 65 65" fill="none">
  <g filter="url(#filter0_d_435_2248)">
    <rect x="10" y="8" width="45" height="45" rx="20" fill="white"/>
  </g>
  <mask id="mask0_435_2248" style="mask-type:luminance" maskUnits="userSpaceOnUse" x="17" y="16" width="28" height="28">
    <path d="M45 16H17V44H45V16Z" fill="white"/>
  </mask>
  <g mask="url(#mask0_435_2248)">
    <path d="M17.4323 23.3255C17.5301 22.8247 17.7578 22.4195 18.1149 22.1085C18.3909 21.868 18.703 21.698 19.0504 21.5985C19.3187 21.5214 19.6031 21.4773 19.9029 21.4667C20.1184 21.4595 20.3166 21.4555 20.4974 21.4555H20.6325C20.5475 21.4555 20.4832 21.4628 20.4395 21.4779L20.4845 21.4621L20.5308 21.4503C20.8512 21.3686 21.1832 21.3277 21.5281 21.3277C21.7462 21.3277 21.9617 21.3211 22.1734 21.3086L22.1875 21.3073H22.2017C22.5549 21.2941 22.8837 21.2684 23.1886 21.2302C23.5785 21.1814 23.9652 21.1571 24.3486 21.1571H29.1155C29.3677 21.1571 29.5819 21.1261 29.7576 21.0648C30.1925 20.9133 30.5817 20.8368 30.9266 20.8368C31.4722 20.8368 31.9772 21.0332 32.4411 21.4246L32.6161 21.5722L32.7287 21.7731C32.8928 22.0676 32.9745 22.3905 32.9745 22.7423C32.9745 23.0836 32.8966 23.4151 32.7403 23.7353L32.6058 24.01L32.3639 24.1912C31.8402 24.5833 31.2489 24.8304 30.5914 24.9325C30.0722 25.0129 29.5665 25.0531 29.0743 25.0531H26.347C26.318 25.0531 26.2968 25.0537 26.2846 25.0557C26.3058 25.0531 26.3335 25.0451 26.3669 25.0326C26.4564 24.9997 26.5419 24.949 26.623 24.8798C26.7523 24.7697 26.8482 24.6333 26.9119 24.4706C26.9202 24.4495 26.926 24.4311 26.9299 24.4159C26.9293 24.4179 26.928 24.4238 26.9267 24.4344C26.9202 24.4851 26.917 24.5536 26.917 24.6399V27.0007L26.9164 27.0159C26.9016 27.6431 26.8707 28.1419 26.8231 28.5135C26.7884 28.7856 26.771 29.0367 26.771 29.266V33.274C26.771 33.7563 26.76 34.1747 26.7375 34.5291C26.7163 34.8645 26.6944 35.161 26.6732 35.418C26.6526 35.6611 26.6359 35.8785 26.6224 36.0716C26.6108 36.2409 26.605 36.4096 26.605 36.5783C26.605 36.7015 26.6101 36.8346 26.6217 36.9789C26.6307 37.0942 26.6494 37.2141 26.677 37.3386L26.735 37.5963L26.6873 37.8565C26.5876 38.4034 26.3245 38.8429 25.8979 39.175C25.5035 39.482 25.0564 39.6355 24.5565 39.6355C24.3963 39.6355 24.2393 39.6309 24.0861 39.623C23.8423 39.6098 23.6055 39.5637 23.3746 39.4853L23.1713 39.4154L23.002 39.2797C22.5266 38.8969 22.2667 38.4423 22.2223 37.9138C22.2049 37.7142 22.1965 37.5106 22.1965 37.3037C22.1965 36.9064 22.2261 36.5249 22.286 36.1573C22.3233 35.928 22.3419 35.6703 22.3419 35.3844C22.3419 35.2487 22.3355 35.0457 22.3226 34.7749C22.3078 34.4626 22.3008 34.1332 22.3008 33.7859C22.3008 33.44 22.3078 33.098 22.3226 32.7594C22.3407 32.3482 22.3889 31.9918 22.4674 31.69L22.4861 31.6169L22.5137 31.5464C22.497 31.5892 22.4867 31.6333 22.4828 31.6782C22.4861 31.638 22.488 31.58 22.488 31.5049V29.5328C22.488 29.1757 22.4912 28.8225 22.4989 28.472C22.5054 28.1399 22.5086 27.8329 22.5086 27.5502V26.8571C22.5086 26.4367 22.5163 26.0829 22.5311 25.7976C22.5459 25.5222 22.5607 25.2935 22.5755 25.1104C22.5909 24.9193 22.607 24.7599 22.6237 24.6327C22.6302 24.5813 22.6334 24.5345 22.6334 24.491C22.6334 24.4666 22.6327 24.4456 22.6308 24.4278C22.6186 24.3177 22.6128 24.2038 22.6128 24.0858H23.8487L23.1635 25.1387C23.233 25.1868 23.2896 25.2138 23.3327 25.2204C23.2362 25.2053 23.1327 25.1954 23.0226 25.1901C22.9055 25.1848 22.782 25.1848 22.6514 25.1908C22.4674 25.1987 22.3046 25.2026 22.1624 25.2026C21.806 25.2026 21.4316 25.2244 21.0397 25.2692C20.5572 25.3239 20.1055 25.3515 19.6854 25.3515C19.2743 25.3515 18.9114 25.2982 18.5975 25.1908C18.2841 25.084 18.0248 24.9055 17.8183 24.6557C17.6234 24.4199 17.4953 24.1425 17.4323 23.8223L17.384 23.5739L17.4323 23.3255ZM19.8566 23.8223L18.6444 23.5739L19.8566 23.3255C19.836 23.2187 19.7851 23.1172 19.7054 23.0204C19.6134 22.909 19.5046 22.832 19.3792 22.7891C19.4396 22.8095 19.5419 22.8201 19.6854 22.8201C20.0148 22.8201 20.3751 22.7977 20.7669 22.7529C21.2495 22.6982 21.7146 22.6705 22.1624 22.6705C22.2705 22.6705 22.3992 22.6672 22.5485 22.6613C22.7511 22.6521 22.9461 22.6527 23.1346 22.6613C23.3302 22.6705 23.518 22.689 23.6995 22.7166C24.0199 22.7661 24.2985 22.8708 24.5346 23.0323L25.0853 23.4085V24.0858C25.0853 24.1102 25.086 24.1306 25.0879 24.1484C25.1001 24.2591 25.1059 24.3731 25.1059 24.491C25.1059 24.6465 25.0956 24.8053 25.0744 24.9674C25.0628 25.0531 25.0512 25.171 25.039 25.3206C25.0261 25.4794 25.0133 25.6836 24.9998 25.934C24.9875 26.1745 24.9811 26.4822 24.9811 26.8571V27.5502C24.9811 27.85 24.9772 28.1749 24.9702 28.5254C24.9637 28.8575 24.9599 29.1935 24.9599 29.5328V31.5049C24.9599 31.6564 24.9547 31.7908 24.9444 31.9068C24.927 32.1077 24.882 32.3008 24.8093 32.4866L23.6615 32.0162L24.8563 32.3423C24.8235 32.4675 24.8022 32.6434 24.7926 32.8721C24.7791 33.1732 24.7726 33.4776 24.7726 33.7859C24.7726 34.0923 24.7791 34.3809 24.7919 34.6517C24.8067 34.9634 24.8145 35.2078 24.8145 35.3844C24.8145 35.81 24.7842 36.206 24.725 36.5737C24.6877 36.803 24.6684 37.0461 24.6684 37.3037C24.6684 37.4375 24.6742 37.5679 24.6851 37.6944C24.6736 37.5613 24.6356 37.4447 24.5706 37.3446C24.5552 37.3215 24.5404 37.3017 24.5256 37.2866L24.5294 37.2886L23.7657 38.2841L24.1563 37.083C24.1756 37.0896 24.1955 37.0935 24.2155 37.0948C24.3261 37.1008 24.4394 37.1034 24.5565 37.1034C24.5011 37.1034 24.4497 37.1219 24.402 37.1588C24.3229 37.2207 24.2747 37.2978 24.2579 37.39L25.4726 37.6233L24.2682 37.9079C24.2129 37.6628 24.1762 37.4203 24.1576 37.1805C24.1408 36.969 24.1325 36.7687 24.1325 36.5783C24.1325 36.3497 24.1402 36.1204 24.1563 35.8917C24.1711 35.6868 24.1884 35.4569 24.2097 35.2019C24.2303 34.962 24.2502 34.6827 24.2702 34.3644C24.2895 34.0646 24.2991 33.7016 24.2991 33.274V29.266C24.2991 28.9273 24.3236 28.5669 24.3718 28.1861C24.4078 27.9027 24.4323 27.4922 24.4452 26.9539L25.6811 26.9849H24.4445V24.6399C24.4445 24.1932 24.5018 23.8236 24.6163 23.5304C24.7823 23.106 25.0885 22.8122 25.5357 22.6481C25.7673 22.5638 26.0375 22.5216 26.347 22.5216H29.0743C29.4423 22.5216 29.8245 22.4906 30.2214 22.4287C30.4794 22.3892 30.7072 22.295 30.9054 22.1467L31.6343 23.1693L30.529 22.6027C30.5116 22.6389 30.5026 22.6857 30.5026 22.7423C30.5026 22.8385 30.529 22.9347 30.5824 23.0296L31.6555 22.4017L30.8693 23.3788C30.8558 23.367 30.8442 23.3584 30.8346 23.3525L30.8372 23.3531C30.8629 23.3637 30.8931 23.3689 30.9266 23.3689C30.8552 23.3689 30.7316 23.3999 30.5554 23.4612C30.1211 23.6127 29.6411 23.6885 29.1155 23.6885H24.3486C24.0656 23.6885 23.7793 23.707 23.4891 23.7432C23.114 23.7906 22.7145 23.8216 22.2898 23.8374L22.2461 22.5724L22.3188 23.8354C22.0582 23.8512 21.7951 23.8592 21.5281 23.8592C21.3865 23.8592 21.254 23.875 21.1304 23.9066L20.8306 22.6784L21.2212 23.8796C21.0114 23.9514 20.8152 23.987 20.6325 23.987H20.4974C20.3449 23.987 20.1757 23.9903 19.9884 23.9969C19.8855 24.0008 19.7954 24.014 19.7169 24.0364L19.7157 24.0377C19.7954 23.9685 19.8424 23.8967 19.8566 23.8223Z" fill="white"/>
    <path d="M44.5902 34.8302C44.5902 35.2591 44.4853 35.6446 44.2743 35.9859C44.0974 36.2732 43.8735 36.5091 43.6026 36.6935C43.371 36.8523 43.1201 36.9709 42.8505 37.0493C42.5938 37.1245 42.3454 37.162 42.1054 37.162C41.556 37.162 41.1153 36.9927 40.7833 36.6527C40.5137 36.3766 40.3419 36.0366 40.2667 35.6321C40.2184 35.3725 40.2049 35.0944 40.2274 34.7973C40.239 34.6451 40.2448 34.4995 40.2448 34.3611V34.2655C40.2448 34.3038 40.2467 34.3374 40.2499 34.3664L40.2506 34.3697C40.2499 34.365 40.2493 34.3604 40.248 34.3538L41.4601 34.1054L40.2654 34.4316C40.1888 34.1377 40.1412 33.8346 40.1219 33.5236C40.1065 33.27 40.0987 33.0301 40.0987 32.8048C40.0987 32.3139 40.0736 31.8474 40.0241 31.4053C39.963 30.8664 39.9321 30.274 39.9321 29.6283C39.9321 29.43 39.9257 29.2811 39.9122 29.1816C39.9321 29.3272 40.0099 29.4636 40.1457 29.5914C40.2351 29.6758 40.322 29.7258 40.4063 29.7423C40.3368 29.7285 40.2165 29.7219 40.044 29.7219C39.8375 29.7219 39.6522 29.7278 39.4869 29.7403C39.3061 29.7535 39.1208 29.77 38.9329 29.7897L38.3166 29.8543C38.0869 29.8774 37.8224 29.8971 37.5246 29.9123L37.4937 29.9136H37.4628C37.3341 29.9136 37.1598 29.9202 36.9404 29.9327C36.7126 29.9466 36.4611 29.9663 36.1857 29.9933C35.9116 30.0204 35.6349 30.0533 35.3544 30.0935C35.1183 30.1271 34.8918 30.1772 34.675 30.2444L34.3199 29.0314L35.5056 29.3891C35.4657 29.5262 35.4445 29.658 35.4406 29.7845C35.4342 30.0059 35.431 30.2384 35.431 30.4816V35.8963C35.431 36.5927 35.3338 37.1561 35.1408 37.587C34.9491 38.0146 34.6306 38.3256 34.1867 38.5187C33.8811 38.6517 33.5227 38.7183 33.1122 38.7183C32.8993 38.7183 32.7179 38.7045 32.5686 38.6768C32.4656 38.6577 32.3736 38.6379 32.2919 38.6168L31.9998 38.5417L31.774 38.3381C31.5282 38.1161 31.3404 37.8624 31.2085 37.5771C31.0708 37.2786 31.002 36.9597 31.002 36.6211V21.7691L31.0245 21.3507L32.2585 21.4206H31.0225V20.7261L32.0848 19.6383L32.4168 19.5533C32.5731 19.5131 32.7256 19.4828 32.8761 19.4624C33.0344 19.4406 33.203 19.4301 33.3825 19.4301C33.7498 19.4301 34.0587 19.4815 34.3102 19.5843C34.5714 19.6917 34.7895 19.8346 34.9645 20.0139L35.0128 20.0633L35.0559 20.1186C35.2457 20.3611 35.3647 20.6332 35.4136 20.9356L35.4304 21.0371L35.4413 24.5615L35.4516 27.4494L34.2156 27.454L34.6744 26.2785C34.6737 26.2785 34.6712 26.2779 34.666 26.2766C34.6519 26.2739 34.6396 26.272 34.6293 26.2706C34.6293 26.2706 34.6319 26.2706 34.6358 26.2706C34.6609 26.2726 34.6937 26.2733 34.7361 26.2733C34.9684 26.2733 35.2425 26.2443 35.5597 26.1863C35.9811 26.1092 36.5003 26.0407 37.1167 25.9807C37.5355 25.9366 38.0515 25.899 38.664 25.87C39.2733 25.8404 39.8999 25.8259 40.544 25.8259H40.7106C40.5716 25.8259 40.4429 25.8562 40.3239 25.9168L40.8772 27.0488L40.0029 26.154C39.8671 26.293 39.7925 26.467 39.779 26.6772C39.7841 26.5981 39.7867 26.5164 39.7867 26.4307V21.698C39.7867 21.3316 39.8781 20.9963 40.0601 20.6918C40.2268 20.4145 40.4571 20.1858 40.7511 20.0046C41.1899 19.7351 41.6622 19.6007 42.1679 19.6007C42.5352 19.6007 42.8563 19.6739 43.1316 19.8195C43.5486 20.0409 43.8188 20.3802 43.9423 20.8388C44.0272 21.155 44.0697 21.5339 44.0697 21.9754V24.9173C44.0697 25.0972 44.0864 25.3027 44.1192 25.5333C44.1694 25.8852 44.1945 26.3695 44.1945 26.9849C44.1945 27.3967 44.2112 27.8473 44.244 28.3376C44.2781 28.8521 44.3161 29.3773 44.3573 29.913C44.3997 30.4585 44.4383 31.008 44.4731 31.5615C44.5098 32.1354 44.5278 32.6921 44.5278 33.2318C44.5278 33.637 44.5368 33.9499 44.5548 34.1707C44.5786 34.4619 44.5902 34.6813 44.5902 34.8302ZM42.1183 34.8302C42.1183 34.7518 42.1093 34.6022 42.0913 34.3815C42.0675 34.0903 42.0559 33.7068 42.0559 33.2318C42.0559 32.7475 42.0392 32.2454 42.0064 31.7255C41.9716 31.1839 41.9343 30.6463 41.8931 30.1119C41.8513 29.5677 41.8127 29.0333 41.7773 28.5108C41.7406 27.9633 41.7226 27.4547 41.7226 26.9849C41.7226 26.492 41.7059 26.1303 41.6731 25.8997C41.6229 25.5478 41.5978 25.2204 41.5978 24.9173V21.9754C41.5978 21.7625 41.5849 21.6084 41.5592 21.5122C41.6268 21.7645 41.7722 21.9497 41.9948 22.0676C42.0527 22.0986 42.108 22.119 42.1595 22.1295C42.1691 22.1309 42.1769 22.1322 42.182 22.1328C42.1794 22.1328 42.1749 22.1322 42.1679 22.1322C42.1183 22.1322 42.0701 22.1467 42.0231 22.1757C42.0746 22.144 42.1222 22.0913 42.1672 22.0169C42.2283 21.9147 42.2586 21.8087 42.2586 21.698V26.4307C42.2586 26.5724 42.2547 26.7108 42.2457 26.8452C42.218 27.2682 42.0533 27.6345 41.7509 27.9442L41.6094 28.0892L41.4299 28.1814C41.2002 28.2987 40.9602 28.3573 40.7106 28.3573H40.544C39.9385 28.3573 39.3511 28.3712 38.7804 28.3988C38.2136 28.4258 37.7375 28.4601 37.3508 28.501C36.802 28.5543 36.3497 28.6136 35.994 28.6789C35.5333 28.7632 35.1145 28.8054 34.7361 28.8054C34.5155 28.8054 34.3308 28.7902 34.1809 28.7592C34.0374 28.7296 33.8959 28.6868 33.7563 28.6294L32.9823 28.3125L32.9688 24.5694L32.9585 21.1478L34.1944 21.1438L32.9752 21.3521C32.9971 21.4832 33.0466 21.5991 33.1251 21.6999L34.0908 20.9093L33.2165 21.804C33.2808 21.8699 33.3394 21.9134 33.3921 21.9352C33.4352 21.953 33.4687 21.9635 33.4925 21.9668C33.4687 21.9635 33.432 21.9615 33.3825 21.9615C33.3123 21.9615 33.2525 21.9655 33.203 21.9721C33.1444 21.98 33.0827 21.9925 33.0164 22.0096L32.7166 20.7815L33.5909 21.6762L33.1328 22.1454L32.2585 21.2499H33.4951V21.4562L33.4719 21.8745L32.2379 21.8047H33.4738V36.6211C33.4738 36.5809 33.4642 36.5394 33.4442 36.4965C33.4307 36.4669 33.4191 36.4478 33.4095 36.4392L32.5918 37.3887L32.8916 36.1605C32.9212 36.1678 32.9604 36.1763 33.0106 36.1855L33.0067 36.1842C33.0344 36.1855 33.0691 36.1869 33.1122 36.1869C33.1669 36.1869 33.2107 36.1842 33.2429 36.1783C33.248 36.1776 33.2512 36.177 33.2512 36.177C33.2422 36.1796 33.2313 36.1836 33.219 36.1888C33.0769 36.2508 32.9688 36.3648 32.8948 36.5295C32.9057 36.5044 32.9173 36.453 32.9289 36.3753C32.9488 36.2462 32.9585 36.0867 32.9585 35.8963V30.4816C32.9585 30.2127 32.9623 29.9545 32.9694 29.7074C32.9797 29.3648 33.0344 29.0202 33.1335 28.6742L33.3226 28.016L33.9641 27.819C34.3025 27.7156 34.6519 27.6378 35.0128 27.5858C35.3287 27.541 35.6414 27.5034 35.9508 27.4731C36.2577 27.4428 36.5408 27.4204 36.7995 27.4052C37.0652 27.3901 37.2865 27.3822 37.4628 27.3822V28.6479L37.401 27.3835C37.6584 27.3703 37.8804 27.3545 38.0663 27.3354L38.6788 27.2715C38.893 27.2491 39.1034 27.23 39.3106 27.2148C39.5345 27.1983 39.779 27.1904 40.044 27.1904C40.3722 27.1904 40.6469 27.2115 40.8689 27.255C41.2446 27.3281 41.5605 27.485 41.8166 27.7255C42.119 28.0094 42.301 28.381 42.3622 28.839C42.3905 29.0524 42.4046 29.3153 42.4046 29.6283C42.4046 30.1765 42.4297 30.672 42.4799 31.1134C42.5404 31.6524 42.5713 32.2164 42.5713 32.8048C42.5713 32.9774 42.577 33.1646 42.5893 33.3655C42.5983 33.5091 42.6202 33.6475 42.6543 33.7793L42.6645 33.8182L42.6723 33.857C42.7019 34.0106 42.7167 34.1463 42.7167 34.2655V34.3611C42.7167 34.564 42.7089 34.7742 42.6922 34.9916C42.6871 35.0641 42.6877 35.1195 42.6948 35.1583C42.6755 35.0523 42.6208 34.9541 42.532 34.8625C42.4304 34.7591 42.3184 34.6879 42.1949 34.6497C42.1531 34.6372 42.1228 34.6306 42.1054 34.6306C42.1145 34.6306 42.137 34.6253 42.1717 34.6154C42.1936 34.6088 42.2135 34.5996 42.2315 34.5871C42.2103 34.6016 42.1949 34.6174 42.1839 34.6339C42.1402 34.7057 42.1183 34.7709 42.1183 34.8302Z" fill="white"/>
    <path d="M18.6438 23.5738C18.6863 23.3616 18.7763 23.1943 18.914 23.0731C19.053 22.9518 19.2087 22.8668 19.3824 22.8174C19.5574 22.7686 19.7453 22.7403 19.946 22.7331C20.1467 22.7245 20.3301 22.7199 20.4967 22.7199C20.5392 22.7199 20.5849 22.7199 20.6331 22.7199C20.6807 22.7199 20.747 22.7061 20.8313 22.6777C21.0526 22.6217 21.2842 22.5934 21.5262 22.5934C21.7694 22.5934 22.01 22.5868 22.2467 22.5723C22.6341 22.5585 22.9982 22.5301 23.3379 22.488C23.6789 22.4445 24.016 22.4221 24.3493 22.4221H29.1155C29.5047 22.4221 29.8522 22.3694 30.1578 22.2639C30.4627 22.1572 30.7194 22.1032 30.9273 22.1032C31.1756 22.1032 31.4188 22.2027 31.6556 22.401C31.7103 22.5011 31.7379 22.6158 31.7379 22.7436C31.7379 22.8846 31.7032 23.0256 31.635 23.1679C31.2747 23.4387 30.8655 23.61 30.4074 23.6819C29.9493 23.7524 29.5047 23.7873 29.0743 23.7873H26.3464C26.0131 23.7873 25.8188 23.8584 25.7622 24.0008C25.7068 24.1431 25.6798 24.3566 25.6798 24.6412V26.9842C25.6657 27.568 25.6387 28.0226 25.5975 28.3494C25.5563 28.6762 25.5357 28.9819 25.5357 29.2666V33.2752C25.5357 33.7285 25.5254 34.1186 25.5048 34.4454C25.4842 34.7722 25.4624 35.0608 25.4405 35.3099C25.4199 35.5596 25.4025 35.7836 25.389 35.9819C25.3749 36.1809 25.3684 36.3792 25.3684 36.5776C25.3684 36.7344 25.3749 36.9017 25.389 37.081C25.4025 37.2589 25.4308 37.4394 25.4739 37.6239C25.4308 37.8505 25.3228 38.0311 25.1497 38.1668C24.976 38.3019 24.7791 38.3697 24.5578 38.3697C24.4188 38.3697 24.283 38.3658 24.1512 38.3592C24.0186 38.3519 23.8899 38.3263 23.7651 38.2828C23.5708 38.126 23.4672 37.9665 23.4537 37.8031C23.4396 37.6397 23.4331 37.4723 23.4331 37.3023C23.4331 36.9755 23.4569 36.6639 23.5052 36.3667C23.5528 36.0683 23.5773 35.7408 23.5773 35.3837C23.5773 35.2275 23.5702 35.0042 23.5567 34.7142C23.5425 34.423 23.5361 34.1133 23.5361 33.7865C23.5361 33.4597 23.5425 33.1369 23.5567 32.8167C23.5702 32.4971 23.6056 32.2302 23.6622 32.0154C23.6892 31.9456 23.7066 31.8718 23.7137 31.7941C23.7201 31.715 23.7239 31.6188 23.7239 31.5042C23.7239 31.3902 23.7239 31.2478 23.7239 31.0772C23.7239 30.9072 23.7239 30.6944 23.7239 30.4394C23.7239 30.1831 23.7239 29.8807 23.7239 29.5328C23.7239 29.1849 23.7272 28.8409 23.7342 28.4996C23.7407 28.157 23.7445 27.8407 23.7445 27.5508C23.7445 27.2596 23.7445 27.0283 23.7445 26.8577C23.7445 26.4591 23.751 26.129 23.7651 25.8667C23.7786 25.6032 23.7921 25.3864 23.8063 25.2157C23.8198 25.0458 23.8333 24.9074 23.8475 24.802C23.8629 24.6952 23.8706 24.5911 23.8706 24.491C23.8706 24.4192 23.8668 24.3513 23.8603 24.288C23.8533 24.2248 23.85 24.1576 23.85 24.0851C23.7658 24.0291 23.6545 23.9902 23.5155 23.9691C23.3765 23.9481 23.2305 23.9342 23.078 23.927C22.9249 23.9184 22.7653 23.9184 22.5993 23.927C22.4327 23.9342 22.2866 23.9375 22.1618 23.9375C21.7603 23.9375 21.3409 23.9625 20.9034 24.0113C20.4659 24.0607 20.0599 24.0851 19.6861 24.0851C19.4081 24.0851 19.1752 24.0535 18.9887 23.9902C18.8014 23.9256 18.6863 23.7866 18.6438 23.5738Z" fill="#4B4137"/>
    <path d="M43.3548 34.8302C43.3548 35.0147 43.3124 35.1748 43.2287 35.3099C43.1464 35.4456 43.0421 35.5563 42.9173 35.642C42.7919 35.7263 42.6561 35.7909 42.5107 35.8343C42.3647 35.8765 42.2289 35.8976 42.1041 35.8976C41.8963 35.8976 41.747 35.8515 41.6563 35.7579C41.5669 35.665 41.5083 35.5438 41.4813 35.3942C41.4536 35.2453 41.4466 35.0779 41.4607 34.8935C41.4742 34.709 41.4813 34.5317 41.4813 34.3611C41.4813 34.3334 41.4813 34.3018 41.4813 34.2662C41.4813 34.2293 41.4742 34.1759 41.4607 34.1054C41.4041 33.8933 41.3687 33.6732 41.3552 33.4465C41.341 33.2186 41.3346 33.0051 41.3346 32.8061C41.3346 32.2652 41.3063 31.7493 41.2497 31.259C41.1944 30.7688 41.1673 30.2253 41.1673 29.6276C41.1673 29.3733 41.157 29.1677 41.1364 29.0109C41.1159 28.8548 41.0631 28.7381 40.9795 28.6604C40.8971 28.5813 40.7826 28.528 40.6372 28.4996C40.4911 28.47 40.2936 28.4548 40.0453 28.4548C39.8085 28.4548 39.593 28.4627 39.3993 28.4785C39.205 28.493 39.0069 28.5102 38.8048 28.5313C38.6041 28.5523 38.3989 28.5734 38.1898 28.5945C37.9819 28.6156 37.74 28.6334 37.464 28.6472C37.3109 28.6472 37.1127 28.6545 36.8695 28.6683C36.6257 28.6828 36.358 28.7045 36.0666 28.7342C35.7764 28.7625 35.4824 28.7974 35.1839 28.8396C34.8853 28.8818 34.5971 28.9464 34.3192 29.032C34.2503 29.2732 34.2124 29.511 34.2059 29.7462C34.1989 29.9801 34.1956 30.2253 34.1956 30.4816V35.8976C34.1956 36.4089 34.1364 36.7963 34.0181 37.0599C33.8997 37.3221 33.5973 37.4526 33.1122 37.4526C32.9732 37.4526 32.8651 37.446 32.7879 37.4315C32.712 37.4176 32.647 37.4038 32.5923 37.3893C32.3556 37.1752 32.2372 36.9195 32.2372 36.6224V21.8054L32.2578 21.4206V21.2493L32.7159 20.7801C32.8272 20.7525 32.9346 20.7314 33.0376 20.7169C33.1418 20.703 33.2569 20.6958 33.3824 20.6958C33.5896 20.6958 33.7459 20.7182 33.8508 20.7617C33.955 20.8039 34.0348 20.8533 34.0901 20.9093C34.1467 20.9798 34.1815 21.0582 34.1956 21.1438C34.1956 22.4372 34.1989 23.5778 34.2059 24.5648C34.2124 25.5524 34.2162 26.5151 34.2162 27.4533C34.2844 27.4817 34.3533 27.5034 34.4221 27.5192C34.4922 27.5337 34.5971 27.5403 34.7361 27.5403C35.041 27.5403 35.3878 27.5054 35.7758 27.4349C36.165 27.3631 36.6514 27.2978 37.235 27.2398C37.6364 27.1977 38.1319 27.1628 38.7225 27.1344C39.3125 27.1067 39.9198 27.0923 40.5445 27.0923C40.5992 27.0923 40.6539 27.0923 40.7092 27.0923C40.7659 27.0923 40.8212 27.0784 40.8765 27.0501C40.9602 26.9644 41.0058 26.8682 41.0129 26.7628C41.0194 26.6561 41.0232 26.5454 41.0232 26.4307V21.6973C41.0232 21.443 41.1442 21.2407 41.3861 21.0911C41.6293 20.9422 41.8905 20.8671 42.1684 20.8671C42.5011 20.8671 42.6947 20.9699 42.75 21.1755C42.8067 21.381 42.835 21.6472 42.835 21.974V24.9179C42.835 25.1591 42.8556 25.4253 42.8967 25.7165C42.9379 26.0084 42.9585 26.4307 42.9585 26.9842C42.9585 27.4256 42.9752 27.906 43.01 28.4258C43.046 28.9444 43.0846 29.4735 43.1258 30.0124C43.167 30.5521 43.2043 31.0956 43.239 31.6438C43.2731 32.1907 43.2905 32.7191 43.2905 33.2304C43.2905 33.6719 43.3008 34.0204 43.3214 34.2767C43.3432 34.5317 43.3548 34.7162 43.3548 34.8302Z" fill="#4B4137"/>
  </g>
  <defs>
    <filter id="filter0_d_435_2248" x="0" y="0" width="65" height="65" filterUnits="userSpaceOnUse" color-interpolation-filters="sRGB">
      <feFlood flood-opacity="0" result="BackgroundImageFix"/>
      <feColorMatrix in="SourceAlpha" type="matrix" values="0 0 0 0 0 0 0 0 0 0 0 0 0 0 0 0 0 0 127 0" result="hardAlpha"/>
      <feOffset dy="2"/>
      <feGaussianBlur stdDeviation="5"/>
      <feComposite in2="hardAlpha" operator="out"/>
      <feColorMatrix type="matrix" values="0 0 0 0 0 0 0 0 0 0 0 0 0 0 0 0 0 0 0.05 0"/>
      <feBlend mode="normal" in2="BackgroundImageFix" result="effect1_dropShadow_435_2248"/>
      <feBlend mode="normal" in="SourceGraphic" in2="effect1_dropShadow_435_2248" result="shape"/>
    </filter>
  </defs>
</svg>
